<svg width="360" height="466" viewBox="0 0 360 466" fill="none" xmlns="http://www.w3.org/2000/svg">
<g filter="url(#filter0_d_2111_147)">
<rect x="4" width="352" height="458" rx="20" fill="#4C40F7" shape-rendering="crispEdges"/>
<g filter="url(#filter1_d_2111_147)">
<circle cx="180" cy="92.5" r="48.5" fill="white"/>
<rect width="40" height="40" transform="translate(160 73)" fill="white"/>
<path d="M170 108H165C164.558 108 164.134 107.825 163.822 107.512C163.509 107.199 163.333 106.776 163.333 106.333V93.0002C163.333 92.5581 163.509 92.1342 163.822 91.8217C164.134 91.5091 164.558 91.3335 165 91.3335H170C170.442 91.3335 170.866 91.5091 171.179 91.8217C171.491 92.1342 171.667 92.5581 171.667 93.0002V106.333C171.667 106.776 171.491 107.199 171.179 107.512C170.866 107.825 170.442 108 170 108ZM181.667 108H176.667C176.225 108 175.801 107.825 175.488 107.512C175.176 107.199 175 106.776 175 106.333V78.0002C175 77.5581 175.176 77.1342 175.488 76.8217C175.801 76.5091 176.225 76.3335 176.667 76.3335H181.667C182.109 76.3335 182.533 76.5091 182.845 76.8217C183.158 77.1342 183.333 77.5581 183.333 78.0002V106.333C183.333 106.776 183.158 107.199 182.845 107.512C182.533 107.825 182.109 108 181.667 108ZM193.333 108H188.333C187.891 108 187.468 107.825 187.155 107.512C186.842 107.199 186.667 106.776 186.667 106.333V88.0002C186.667 87.5581 186.842 87.1342 187.155 86.8217C187.468 86.5091 187.891 86.3335 188.333 86.3335H193.333C193.776 86.3335 194.199 86.5091 194.512 86.8217C194.825 87.1342 195 87.5581 195 88.0002V106.333C195 106.776 194.825 107.199 194.512 107.512C194.199 107.825 193.776 108 193.333 108Z" fill="#4C40F7"/>
</g>
<path d="M97.5686 192.04C99.0353 192.04 100.322 192.327 101.429 192.9C102.549 193.473 103.409 194.293 104.009 195.36C104.622 196.413 104.929 197.64 104.929 199.04C104.929 200.44 104.622 201.667 104.009 202.72C103.409 203.76 102.549 204.567 101.429 205.14C100.322 205.713 99.0353 206 97.5686 206H92.6886V192.04H97.5686ZM97.4686 203.62C98.9353 203.62 100.069 203.22 100.869 202.42C101.669 201.62 102.069 200.493 102.069 199.04C102.069 197.587 101.669 196.453 100.869 195.64C100.069 194.813 98.9353 194.4 97.4686 194.4H95.4886V203.62H97.4686ZM108.445 193.6C107.951 193.6 107.538 193.447 107.205 193.14C106.885 192.82 106.725 192.427 106.725 191.96C106.725 191.493 106.885 191.107 107.205 190.8C107.538 190.48 107.951 190.32 108.445 190.32C108.938 190.32 109.345 190.48 109.665 190.8C109.998 191.107 110.165 191.493 110.165 191.96C110.165 192.427 109.998 192.82 109.665 193.14C109.345 193.447 108.938 193.6 108.445 193.6ZM109.825 194.92V206H107.025V194.92H109.825ZM116.931 194.74C117.758 194.74 118.484 194.907 119.111 195.24C119.738 195.56 120.231 195.98 120.591 196.5V194.92H123.411V206.08C123.411 207.107 123.204 208.02 122.791 208.82C122.378 209.633 121.758 210.273 120.931 210.74C120.104 211.22 119.104 211.46 117.931 211.46C116.358 211.46 115.064 211.093 114.051 210.36C113.051 209.627 112.484 208.627 112.351 207.36H115.131C115.278 207.867 115.591 208.267 116.071 208.56C116.564 208.867 117.158 209.02 117.851 209.02C118.664 209.02 119.324 208.773 119.831 208.28C120.338 207.8 120.591 207.067 120.591 206.08V204.36C120.231 204.88 119.731 205.313 119.091 205.66C118.464 206.007 117.744 206.18 116.931 206.18C115.998 206.18 115.144 205.94 114.371 205.46C113.598 204.98 112.984 204.307 112.531 203.44C112.091 202.56 111.871 201.553 111.871 200.42C111.871 199.3 112.091 198.307 112.531 197.44C112.984 196.573 113.591 195.907 114.351 195.44C115.124 194.973 115.984 194.74 116.931 194.74ZM120.591 200.46C120.591 199.78 120.458 199.2 120.191 198.72C119.924 198.227 119.564 197.853 119.111 197.6C118.658 197.333 118.171 197.2 117.651 197.2C117.131 197.2 116.651 197.327 116.211 197.58C115.771 197.833 115.411 198.207 115.131 198.7C114.864 199.18 114.731 199.753 114.731 200.42C114.731 201.087 114.864 201.673 115.131 202.18C115.411 202.673 115.771 203.053 116.211 203.32C116.664 203.587 117.144 203.72 117.651 203.72C118.171 203.72 118.658 203.593 119.111 203.34C119.564 203.073 119.924 202.7 120.191 202.22C120.458 201.727 120.591 201.14 120.591 200.46ZM127.566 193.6C127.072 193.6 126.659 193.447 126.326 193.14C126.006 192.82 125.846 192.427 125.846 191.96C125.846 191.493 126.006 191.107 126.326 190.8C126.659 190.48 127.072 190.32 127.566 190.32C128.059 190.32 128.466 190.48 128.786 190.8C129.119 191.107 129.286 191.493 129.286 191.96C129.286 192.427 129.119 192.82 128.786 193.14C128.466 193.447 128.059 193.6 127.566 193.6ZM128.946 194.92V206H126.146V194.92H128.946ZM134.972 197.22V202.58C134.972 202.953 135.059 203.227 135.232 203.4C135.419 203.56 135.725 203.64 136.152 203.64H137.452V206H135.692C133.332 206 132.152 204.853 132.152 202.56V197.22H130.832V194.92H132.152V192.18H134.972V194.92H137.452V197.22H134.972ZM138.746 200.42C138.746 199.3 138.966 198.307 139.406 197.44C139.859 196.573 140.466 195.907 141.226 195.44C141.999 194.973 142.859 194.74 143.806 194.74C144.633 194.74 145.353 194.907 145.966 195.24C146.593 195.573 147.093 195.993 147.466 196.5V194.92H150.286V206H147.466V204.38C147.106 204.9 146.606 205.333 145.966 205.68C145.339 206.013 144.613 206.18 143.786 206.18C142.853 206.18 141.999 205.94 141.226 205.46C140.466 204.98 139.859 204.307 139.406 203.44C138.966 202.56 138.746 201.553 138.746 200.42ZM147.466 200.46C147.466 199.78 147.333 199.2 147.066 198.72C146.799 198.227 146.439 197.853 145.986 197.6C145.533 197.333 145.046 197.2 144.526 197.2C144.006 197.2 143.526 197.327 143.086 197.58C142.646 197.833 142.286 198.207 142.006 198.7C141.739 199.18 141.606 199.753 141.606 200.42C141.606 201.087 141.739 201.673 142.006 202.18C142.286 202.673 142.646 203.053 143.086 203.32C143.539 203.587 144.019 203.72 144.526 203.72C145.046 203.72 145.533 203.593 145.986 203.34C146.439 203.073 146.799 202.7 147.066 202.22C147.333 201.727 147.466 201.14 147.466 200.46ZM155.821 191.2V206H153.021V191.2H155.821ZM177.113 194.76C178.473 194.76 179.566 195.18 180.393 196.02C181.233 196.847 181.653 198.007 181.653 199.5V206H178.853V199.88C178.853 199.013 178.633 198.353 178.193 197.9C177.753 197.433 177.153 197.2 176.393 197.2C175.633 197.2 175.026 197.433 174.573 197.9C174.133 198.353 173.913 199.013 173.913 199.88V206H171.113V199.88C171.113 199.013 170.893 198.353 170.453 197.9C170.013 197.433 169.413 197.2 168.653 197.2C167.879 197.2 167.266 197.433 166.813 197.9C166.373 198.353 166.153 199.013 166.153 199.88V206H163.353V194.92H166.153V196.26C166.513 195.793 166.973 195.427 167.533 195.16C168.106 194.893 168.733 194.76 169.413 194.76C170.279 194.76 171.053 194.947 171.733 195.32C172.413 195.68 172.939 196.2 173.313 196.88C173.673 196.24 174.193 195.727 174.873 195.34C175.566 194.953 176.313 194.76 177.113 194.76ZM183.59 200.42C183.59 199.3 183.81 198.307 184.25 197.44C184.703 196.573 185.31 195.907 186.07 195.44C186.843 194.973 187.703 194.74 188.65 194.74C189.476 194.74 190.196 194.907 190.81 195.24C191.436 195.573 191.936 195.993 192.31 196.5V194.92H195.13V206H192.31V204.38C191.95 204.9 191.45 205.333 190.81 205.68C190.183 206.013 189.456 206.18 188.63 206.18C187.696 206.18 186.843 205.94 186.07 205.46C185.31 204.98 184.703 204.307 184.25 203.44C183.81 202.56 183.59 201.553 183.59 200.42ZM192.31 200.46C192.31 199.78 192.176 199.2 191.91 198.72C191.643 198.227 191.283 197.853 190.83 197.6C190.376 197.333 189.89 197.2 189.37 197.2C188.85 197.2 188.37 197.327 187.93 197.58C187.49 197.833 187.13 198.207 186.85 198.7C186.583 199.18 186.45 199.753 186.45 200.42C186.45 201.087 186.583 201.673 186.85 202.18C187.13 202.673 187.49 203.053 187.93 203.32C188.383 203.587 188.863 203.72 189.37 203.72C189.89 203.72 190.376 203.593 190.83 203.34C191.283 203.073 191.643 202.7 191.91 202.22C192.176 201.727 192.31 201.14 192.31 200.46ZM200.664 196.64C201.024 196.053 201.491 195.593 202.064 195.26C202.651 194.927 203.318 194.76 204.064 194.76V197.7H203.324C202.444 197.7 201.778 197.907 201.324 198.32C200.884 198.733 200.664 199.453 200.664 200.48V206H197.864V194.92H200.664V196.64ZM212.51 206L208.75 201.28V206H205.95V191.2H208.75V199.62L212.47 194.92H216.11L211.23 200.48L216.15 206H212.51ZM227.93 200.22C227.93 200.62 227.903 200.98 227.85 201.3H219.75C219.817 202.1 220.097 202.727 220.59 203.18C221.083 203.633 221.69 203.86 222.41 203.86C223.45 203.86 224.19 203.413 224.63 202.52H227.65C227.33 203.587 226.717 204.467 225.81 205.16C224.903 205.84 223.79 206.18 222.47 206.18C221.403 206.18 220.443 205.947 219.59 205.48C218.75 205 218.09 204.327 217.61 203.46C217.143 202.593 216.91 201.593 216.91 200.46C216.91 199.313 217.143 198.307 217.61 197.44C218.077 196.573 218.73 195.907 219.57 195.44C220.41 194.973 221.377 194.74 222.47 194.74C223.523 194.74 224.463 194.967 225.29 195.42C226.13 195.873 226.777 196.52 227.23 197.36C227.697 198.187 227.93 199.14 227.93 200.22ZM225.03 199.42C225.017 198.7 224.757 198.127 224.25 197.7C223.743 197.26 223.123 197.04 222.39 197.04C221.697 197.04 221.11 197.253 220.63 197.68C220.163 198.093 219.877 198.673 219.77 199.42H225.03ZM233.234 197.22V202.58C233.234 202.953 233.32 203.227 233.494 203.4C233.68 203.56 233.987 203.64 234.414 203.64H235.714V206H233.954C231.594 206 230.414 204.853 230.414 202.56V197.22H229.094V194.92H230.414V192.18H233.234V194.92H235.714V197.22H233.234ZM239.148 193.6C238.654 193.6 238.241 193.447 237.908 193.14C237.588 192.82 237.428 192.427 237.428 191.96C237.428 191.493 237.588 191.107 237.908 190.8C238.241 190.48 238.654 190.32 239.148 190.32C239.641 190.32 240.048 190.48 240.368 190.8C240.701 191.107 240.868 191.493 240.868 191.96C240.868 192.427 240.701 192.82 240.368 193.14C240.048 193.447 239.641 193.6 239.148 193.6ZM240.528 194.92V206H237.728V194.92H240.528ZM249.434 194.76C250.754 194.76 251.821 195.18 252.634 196.02C253.447 196.847 253.854 198.007 253.854 199.5V206H251.054V199.88C251.054 199 250.834 198.327 250.394 197.86C249.954 197.38 249.354 197.14 248.594 197.14C247.821 197.14 247.207 197.38 246.754 197.86C246.314 198.327 246.094 199 246.094 199.88V206H243.294V194.92H246.094V196.3C246.467 195.82 246.941 195.447 247.514 195.18C248.101 194.9 248.741 194.76 249.434 194.76ZM260.857 194.74C261.683 194.74 262.41 194.907 263.037 195.24C263.663 195.56 264.157 195.98 264.517 196.5V194.92H267.337V206.08C267.337 207.107 267.13 208.02 266.717 208.82C266.303 209.633 265.683 210.273 264.857 210.74C264.03 211.22 263.03 211.46 261.857 211.46C260.283 211.46 258.99 211.093 257.977 210.36C256.977 209.627 256.41 208.627 256.277 207.36H259.057C259.203 207.867 259.517 208.267 259.997 208.56C260.49 208.867 261.083 209.02 261.777 209.02C262.59 209.02 263.25 208.773 263.757 208.28C264.263 207.8 264.517 207.067 264.517 206.08V204.36C264.157 204.88 263.657 205.313 263.017 205.66C262.39 206.007 261.67 206.18 260.857 206.18C259.923 206.18 259.07 205.94 258.297 205.46C257.523 204.98 256.91 204.307 256.457 203.44C256.017 202.56 255.797 201.553 255.797 200.42C255.797 199.3 256.017 198.307 256.457 197.44C256.91 196.573 257.517 195.907 258.277 195.44C259.05 194.973 259.91 194.74 260.857 194.74ZM264.517 200.46C264.517 199.78 264.383 199.2 264.117 198.72C263.85 198.227 263.49 197.853 263.037 197.6C262.583 197.333 262.097 197.2 261.577 197.2C261.057 197.2 260.577 197.327 260.137 197.58C259.697 197.833 259.337 198.207 259.057 198.7C258.79 199.18 258.657 199.753 258.657 200.42C258.657 201.087 258.79 201.673 259.057 202.18C259.337 202.673 259.697 203.053 260.137 203.32C260.59 203.587 261.07 203.72 261.577 203.72C262.097 203.72 262.583 203.593 263.037 203.34C263.49 203.073 263.85 202.7 264.117 202.22C264.383 201.727 264.517 201.14 264.517 200.46Z" fill="white"/>
<path d="M63.6745 238.454L60.0385 251H58.2025L55.2865 240.902L52.2625 251L50.4445 251.018L46.9345 238.454H48.6805L51.4165 249.092L54.4405 238.454H56.2765L59.1565 249.056L61.9105 238.454H63.6745ZM74.4671 245.69C74.4671 246.002 74.4491 246.332 74.4131 246.68H66.5291C66.5891 247.652 66.9191 248.414 67.5191 248.966C68.1311 249.506 68.8691 249.776 69.7331 249.776C70.4411 249.776 71.0291 249.614 71.4971 249.29C71.9771 248.954 72.3131 248.51 72.5051 247.958H74.2691C74.0051 248.906 73.4771 249.68 72.6851 250.28C71.8931 250.868 70.9091 251.162 69.7331 251.162C68.7971 251.162 67.9571 250.952 67.2131 250.532C66.4811 250.112 65.9051 249.518 65.4851 248.75C65.0651 247.97 64.8551 247.07 64.8551 246.05C64.8551 245.03 65.0591 244.136 65.4671 243.368C65.8751 242.6 66.4451 242.012 67.1771 241.604C67.9211 241.184 68.7731 240.974 69.7331 240.974C70.6691 240.974 71.4971 241.178 72.2171 241.586C72.9371 241.994 73.4891 242.558 73.8731 243.278C74.2691 243.986 74.4671 244.79 74.4671 245.69ZM72.7751 245.348C72.7751 244.724 72.6371 244.19 72.3611 243.746C72.0851 243.29 71.7071 242.948 71.2271 242.72C70.7591 242.48 70.2371 242.36 69.6611 242.36C68.8331 242.36 68.1251 242.624 67.5371 243.152C66.9611 243.68 66.6311 244.412 66.5471 245.348H72.7751ZM80.816 246.032C80.816 245.024 81.02 244.142 81.428 243.386C81.836 242.618 82.394 242.024 83.102 241.604C83.822 241.184 84.62 240.974 85.496 240.974C86.36 240.974 87.11 241.16 87.746 241.532C88.382 241.904 88.856 242.372 89.168 242.936V241.136H90.824V251H89.168V249.164C88.844 249.74 88.358 250.22 87.71 250.604C87.074 250.976 86.33 251.162 85.478 251.162C84.602 251.162 83.81 250.946 83.102 250.514C82.394 250.082 81.836 249.476 81.428 248.696C81.02 247.916 80.816 247.028 80.816 246.032ZM89.168 246.05C89.168 245.306 89.018 244.658 88.718 244.106C88.418 243.554 88.01 243.134 87.494 242.846C86.99 242.546 86.432 242.396 85.82 242.396C85.208 242.396 84.65 242.54 84.146 242.828C83.642 243.116 83.24 243.536 82.94 244.088C82.64 244.64 82.49 245.288 82.49 246.032C82.49 246.788 82.64 247.448 82.94 248.012C83.24 248.564 83.642 248.99 84.146 249.29C84.65 249.578 85.208 249.722 85.82 249.722C86.432 249.722 86.99 249.578 87.494 249.29C88.01 248.99 88.418 248.564 88.718 248.012C89.018 247.448 89.168 246.794 89.168 246.05ZM95.2301 237.68V251H93.5921V237.68H95.2301ZM101.514 251.162C100.758 251.162 100.08 251.036 99.4797 250.784C98.8797 250.52 98.4057 250.16 98.0577 249.704C97.7097 249.236 97.5177 248.702 97.4817 248.102H99.1737C99.2217 248.594 99.4497 248.996 99.8577 249.308C100.278 249.62 100.824 249.776 101.496 249.776C102.12 249.776 102.612 249.638 102.972 249.362C103.332 249.086 103.512 248.738 103.512 248.318C103.512 247.886 103.32 247.568 102.936 247.364C102.552 247.148 101.958 246.938 101.154 246.734C100.422 246.542 99.8217 246.35 99.3537 246.158C98.8977 245.954 98.5017 245.66 98.1657 245.276C97.8417 244.88 97.6797 244.364 97.6797 243.728C97.6797 243.224 97.8297 242.762 98.1297 242.342C98.4297 241.922 98.8557 241.592 99.4077 241.352C99.9597 241.1 100.59 240.974 101.298 240.974C102.39 240.974 103.272 241.25 103.944 241.802C104.616 242.354 104.976 243.11 105.024 244.07H103.386C103.35 243.554 103.14 243.14 102.756 242.828C102.384 242.516 101.88 242.36 101.244 242.36C100.656 242.36 100.188 242.486 99.8397 242.738C99.4917 242.99 99.3177 243.32 99.3177 243.728C99.3177 244.052 99.4197 244.322 99.6237 244.538C99.8397 244.742 100.104 244.91 100.416 245.042C100.74 245.162 101.184 245.3 101.748 245.456C102.456 245.648 103.032 245.84 103.476 246.032C103.92 246.212 104.298 246.488 104.61 246.86C104.934 247.232 105.102 247.718 105.114 248.318C105.114 248.858 104.964 249.344 104.664 249.776C104.364 250.208 103.938 250.55 103.386 250.802C102.846 251.042 102.222 251.162 101.514 251.162ZM111.728 251.162C110.804 251.162 109.964 250.952 109.208 250.532C108.464 250.112 107.876 249.518 107.444 248.75C107.024 247.97 106.814 247.07 106.814 246.05C106.814 245.042 107.03 244.154 107.462 243.386C107.906 242.606 108.506 242.012 109.262 241.604C110.018 241.184 110.864 240.974 111.8 240.974C112.736 240.974 113.582 241.184 114.338 241.604C115.094 242.012 115.688 242.6 116.12 243.368C116.564 244.136 116.786 245.03 116.786 246.05C116.786 247.07 116.558 247.97 116.102 248.75C115.658 249.518 115.052 250.112 114.284 250.532C113.516 250.952 112.664 251.162 111.728 251.162ZM111.728 249.722C112.316 249.722 112.868 249.584 113.384 249.308C113.9 249.032 114.314 248.618 114.626 248.066C114.95 247.514 115.112 246.842 115.112 246.05C115.112 245.258 114.956 244.586 114.644 244.034C114.332 243.482 113.924 243.074 113.42 242.81C112.916 242.534 112.37 242.396 111.782 242.396C111.182 242.396 110.63 242.534 110.126 242.81C109.634 243.074 109.238 243.482 108.938 244.034C108.638 244.586 108.488 245.258 108.488 246.05C108.488 246.854 108.632 247.532 108.92 248.084C109.22 248.636 109.616 249.05 110.108 249.326C110.6 249.59 111.14 249.722 111.728 249.722ZM128.635 240.956C129.379 240.956 130.051 241.118 130.651 241.442C131.251 241.754 131.719 242.228 132.055 242.864C132.403 243.5 132.577 244.274 132.577 245.186V251H130.957V245.42C130.957 244.436 130.711 243.686 130.219 243.17C129.727 242.642 129.055 242.378 128.203 242.378C127.339 242.378 126.649 242.648 126.133 243.188C125.629 243.728 125.377 244.514 125.377 245.546V251H123.739V237.68H125.377V242.54C125.701 242.036 126.145 241.646 126.709 241.37C127.285 241.094 127.927 240.956 128.635 240.956ZM144.252 245.69C144.252 246.002 144.234 246.332 144.198 246.68H136.314C136.374 247.652 136.704 248.414 137.304 248.966C137.916 249.506 138.654 249.776 139.518 249.776C140.226 249.776 140.814 249.614 141.282 249.29C141.762 248.954 142.098 248.51 142.29 247.958H144.054C143.79 248.906 143.262 249.68 142.47 250.28C141.678 250.868 140.694 251.162 139.518 251.162C138.582 251.162 137.742 250.952 136.998 250.532C136.266 250.112 135.69 249.518 135.27 248.75C134.85 247.97 134.64 247.07 134.64 246.05C134.64 245.03 134.844 244.136 135.252 243.368C135.66 242.6 136.23 242.012 136.962 241.604C137.706 241.184 138.558 240.974 139.518 240.974C140.454 240.974 141.282 241.178 142.002 241.586C142.722 241.994 143.274 242.558 143.658 243.278C144.054 243.986 144.252 244.79 144.252 245.69ZM142.56 245.348C142.56 244.724 142.422 244.19 142.146 243.746C141.87 243.29 141.492 242.948 141.012 242.72C140.544 242.48 140.022 242.36 139.446 242.36C138.618 242.36 137.91 242.624 137.322 243.152C136.746 243.68 136.416 244.412 136.332 245.348H142.56ZM148.052 237.68V251H146.414V237.68H148.052ZM152.482 242.954C152.806 242.39 153.286 241.922 153.922 241.55C154.57 241.166 155.32 240.974 156.172 240.974C157.048 240.974 157.84 241.184 158.548 241.604C159.268 242.024 159.832 242.618 160.24 243.386C160.648 244.142 160.852 245.024 160.852 246.032C160.852 247.028 160.648 247.916 160.24 248.696C159.832 249.476 159.268 250.082 158.548 250.514C157.84 250.946 157.048 251.162 156.172 251.162C155.332 251.162 154.588 250.976 153.94 250.604C153.304 250.22 152.818 249.746 152.482 249.182V255.68H150.844V241.136H152.482V242.954ZM159.178 246.032C159.178 245.288 159.028 244.64 158.728 244.088C158.428 243.536 158.02 243.116 157.504 242.828C157 242.54 156.442 242.396 155.83 242.396C155.23 242.396 154.672 242.546 154.156 242.846C153.652 243.134 153.244 243.56 152.932 244.124C152.632 244.676 152.482 245.318 152.482 246.05C152.482 246.794 152.632 247.448 152.932 248.012C153.244 248.564 153.652 248.99 154.156 249.29C154.672 249.578 155.23 249.722 155.83 249.722C156.442 249.722 157 249.578 157.504 249.29C158.02 248.99 158.428 248.564 158.728 248.012C159.028 247.448 159.178 246.788 159.178 246.032ZM176.303 241.136L170.363 255.644H168.671L170.615 250.892L166.637 241.136H168.455L171.551 249.128L174.611 241.136H176.303ZM182.251 251.162C181.327 251.162 180.487 250.952 179.731 250.532C178.987 250.112 178.399 249.518 177.967 248.75C177.547 247.97 177.337 247.07 177.337 246.05C177.337 245.042 177.553 244.154 177.985 243.386C178.429 242.606 179.029 242.012 179.785 241.604C180.541 241.184 181.387 240.974 182.323 240.974C183.259 240.974 184.105 241.184 184.861 241.604C185.617 242.012 186.211 242.6 186.643 243.368C187.087 244.136 187.309 245.03 187.309 246.05C187.309 247.07 187.081 247.97 186.625 248.75C186.181 249.518 185.575 250.112 184.807 250.532C184.039 250.952 183.187 251.162 182.251 251.162ZM182.251 249.722C182.839 249.722 183.391 249.584 183.907 249.308C184.423 249.032 184.837 248.618 185.149 248.066C185.473 247.514 185.635 246.842 185.635 246.05C185.635 245.258 185.479 244.586 185.167 244.034C184.855 243.482 184.447 243.074 183.943 242.81C183.439 242.534 182.893 242.396 182.305 242.396C181.705 242.396 181.153 242.534 180.649 242.81C180.157 243.074 179.761 243.482 179.461 244.034C179.161 244.586 179.011 245.258 179.011 246.05C179.011 246.854 179.155 247.532 179.443 248.084C179.743 248.636 180.139 249.05 180.631 249.326C181.123 249.59 181.663 249.722 182.251 249.722ZM198.211 241.136V251H196.573V249.542C196.261 250.046 195.823 250.442 195.259 250.73C194.707 251.006 194.095 251.144 193.423 251.144C192.655 251.144 191.965 250.988 191.353 250.676C190.741 250.352 190.255 249.872 189.895 249.236C189.547 248.6 189.373 247.826 189.373 246.914V241.136H190.993V246.698C190.993 247.67 191.239 248.42 191.731 248.948C192.223 249.464 192.895 249.722 193.747 249.722C194.623 249.722 195.313 249.452 195.817 248.912C196.321 248.372 196.573 247.586 196.573 246.554V241.136H198.211ZM217.638 240.956C218.406 240.956 219.09 241.118 219.69 241.442C220.29 241.754 220.764 242.228 221.112 242.864C221.46 243.5 221.634 244.274 221.634 245.186V251H220.014V245.42C220.014 244.436 219.768 243.686 219.276 243.17C218.796 242.642 218.142 242.378 217.314 242.378C216.462 242.378 215.784 242.654 215.28 243.206C214.776 243.746 214.524 244.532 214.524 245.564V251H212.904V245.42C212.904 244.436 212.658 243.686 212.166 243.17C211.686 242.642 211.032 242.378 210.204 242.378C209.352 242.378 208.674 242.654 208.17 243.206C207.666 243.746 207.414 244.532 207.414 245.564V251H205.776V241.136H207.414V242.558C207.738 242.042 208.17 241.646 208.71 241.37C209.262 241.094 209.868 240.956 210.528 240.956C211.356 240.956 212.088 241.142 212.724 241.514C213.36 241.886 213.834 242.432 214.146 243.152C214.422 242.456 214.878 241.916 215.514 241.532C216.15 241.148 216.858 240.956 217.638 240.956ZM223.709 246.032C223.709 245.024 223.913 244.142 224.321 243.386C224.729 242.618 225.287 242.024 225.995 241.604C226.715 241.184 227.513 240.974 228.389 240.974C229.253 240.974 230.003 241.16 230.639 241.532C231.275 241.904 231.749 242.372 232.061 242.936V241.136H233.717V251H232.061V249.164C231.737 249.74 231.251 250.22 230.603 250.604C229.967 250.976 229.223 251.162 228.371 251.162C227.495 251.162 226.703 250.946 225.995 250.514C225.287 250.082 224.729 249.476 224.321 248.696C223.913 247.916 223.709 247.028 223.709 246.032ZM232.061 246.05C232.061 245.306 231.911 244.658 231.611 244.106C231.311 243.554 230.903 243.134 230.387 242.846C229.883 242.546 229.325 242.396 228.713 242.396C228.101 242.396 227.543 242.54 227.039 242.828C226.535 243.116 226.133 243.536 225.833 244.088C225.533 244.64 225.383 245.288 225.383 246.032C225.383 246.788 225.533 247.448 225.833 248.012C226.133 248.564 226.535 248.99 227.039 249.29C227.543 249.578 228.101 249.722 228.713 249.722C229.325 249.722 229.883 249.578 230.387 249.29C230.903 248.99 231.311 248.564 231.611 248.012C231.911 247.448 232.061 246.794 232.061 246.05ZM238.123 242.738C238.411 242.174 238.819 241.736 239.347 241.424C239.887 241.112 240.541 240.956 241.309 240.956V242.648H240.877C239.041 242.648 238.123 243.644 238.123 245.636V251H236.485V241.136H238.123V242.738ZM248.707 251L244.837 246.644V251H243.199V237.68H244.837V245.51L248.635 241.136H250.921L246.277 246.05L250.939 251H248.707ZM261.463 245.69C261.463 246.002 261.445 246.332 261.409 246.68H253.525C253.585 247.652 253.915 248.414 254.515 248.966C255.127 249.506 255.865 249.776 256.729 249.776C257.437 249.776 258.025 249.614 258.493 249.29C258.973 248.954 259.309 248.51 259.501 247.958H261.265C261.001 248.906 260.473 249.68 259.681 250.28C258.889 250.868 257.905 251.162 256.729 251.162C255.793 251.162 254.953 250.952 254.209 250.532C253.477 250.112 252.901 249.518 252.481 248.75C252.061 247.97 251.851 247.07 251.851 246.05C251.851 245.03 252.055 244.136 252.463 243.368C252.871 242.6 253.441 242.012 254.173 241.604C254.917 241.184 255.769 240.974 256.729 240.974C257.665 240.974 258.493 241.178 259.213 241.586C259.933 241.994 260.485 242.558 260.869 243.278C261.265 243.986 261.463 244.79 261.463 245.69ZM259.771 245.348C259.771 244.724 259.633 244.19 259.357 243.746C259.081 243.29 258.703 242.948 258.223 242.72C257.755 242.48 257.233 242.36 256.657 242.36C255.829 242.36 255.121 242.624 254.533 243.152C253.957 243.68 253.627 244.412 253.543 245.348H259.771ZM265.623 242.486V248.3C265.623 248.78 265.725 249.122 265.929 249.326C266.133 249.518 266.487 249.614 266.991 249.614H268.197V251H266.721C265.809 251 265.125 250.79 264.669 250.37C264.213 249.95 263.985 249.26 263.985 248.3V242.486H262.707V241.136H263.985V238.652H265.623V241.136H268.197V242.486H265.623ZM283.477 241.136L277.537 255.644H275.845L277.789 250.892L273.811 241.136H275.629L278.725 249.128L281.785 241.136H283.477ZM289.425 251.162C288.501 251.162 287.661 250.952 286.905 250.532C286.161 250.112 285.573 249.518 285.141 248.75C284.721 247.97 284.511 247.07 284.511 246.05C284.511 245.042 284.727 244.154 285.159 243.386C285.603 242.606 286.203 242.012 286.959 241.604C287.715 241.184 288.561 240.974 289.497 240.974C290.433 240.974 291.279 241.184 292.035 241.604C292.791 242.012 293.385 242.6 293.817 243.368C294.261 244.136 294.483 245.03 294.483 246.05C294.483 247.07 294.255 247.97 293.799 248.75C293.355 249.518 292.749 250.112 291.981 250.532C291.213 250.952 290.361 251.162 289.425 251.162ZM289.425 249.722C290.013 249.722 290.565 249.584 291.081 249.308C291.597 249.032 292.011 248.618 292.323 248.066C292.647 247.514 292.809 246.842 292.809 246.05C292.809 245.258 292.653 244.586 292.341 244.034C292.029 243.482 291.621 243.074 291.117 242.81C290.613 242.534 290.067 242.396 289.479 242.396C288.879 242.396 288.327 242.534 287.823 242.81C287.331 243.074 286.935 243.482 286.635 244.034C286.335 244.586 286.185 245.258 286.185 246.05C286.185 246.854 286.329 247.532 286.617 248.084C286.917 248.636 287.313 249.05 287.805 249.326C288.297 249.59 288.837 249.722 289.425 249.722ZM305.385 241.136V251H303.747V249.542C303.435 250.046 302.997 250.442 302.433 250.73C301.881 251.006 301.269 251.144 300.597 251.144C299.829 251.144 299.139 250.988 298.527 250.676C297.915 250.352 297.429 249.872 297.069 249.236C296.721 248.6 296.547 247.826 296.547 246.914V241.136H298.167V246.698C298.167 247.67 298.413 248.42 298.905 248.948C299.397 249.464 300.069 249.722 300.921 249.722C301.797 249.722 302.487 249.452 302.991 248.912C303.495 248.372 303.747 247.586 303.747 246.554V241.136H305.385ZM309.789 242.738C310.077 242.174 310.485 241.736 311.013 241.424C311.553 241.112 312.207 240.956 312.975 240.956V242.648H312.543C310.707 242.648 309.789 243.644 309.789 245.636V251H308.151V241.136H309.789V242.738ZM60.4781 274.954C60.8021 274.39 61.2821 273.922 61.9181 273.55C62.5661 273.166 63.3161 272.974 64.1681 272.974C65.0441 272.974 65.8361 273.184 66.5441 273.604C67.2641 274.024 67.8281 274.618 68.2361 275.386C68.6441 276.142 68.8481 277.024 68.8481 278.032C68.8481 279.028 68.6441 279.916 68.2361 280.696C67.8281 281.476 67.2641 282.082 66.5441 282.514C65.8361 282.946 65.0441 283.162 64.1681 283.162C63.3281 283.162 62.5841 282.976 61.9361 282.604C61.3001 282.22 60.8141 281.746 60.4781 281.182V287.68H58.8401V273.136H60.4781V274.954ZM67.1741 278.032C67.1741 277.288 67.0241 276.64 66.7241 276.088C66.4241 275.536 66.0161 275.116 65.5001 274.828C64.9961 274.54 64.4381 274.396 63.8261 274.396C63.2261 274.396 62.6681 274.546 62.1521 274.846C61.6481 275.134 61.2401 275.56 60.9281 276.124C60.6281 276.676 60.4781 277.318 60.4781 278.05C60.4781 278.794 60.6281 279.448 60.9281 280.012C61.2401 280.564 61.6481 280.99 62.1521 281.29C62.6681 281.578 63.2261 281.722 63.8261 281.722C64.4381 281.722 64.9961 281.578 65.5001 281.29C66.0161 280.99 66.4241 280.564 66.7241 280.012C67.0241 279.448 67.1741 278.788 67.1741 278.032ZM72.6422 274.738C72.9302 274.174 73.3382 273.736 73.8662 273.424C74.4062 273.112 75.0602 272.956 75.8282 272.956V274.648H75.3962C73.5602 274.648 72.6422 275.644 72.6422 277.636V283H71.0042V273.136H72.6422V274.738ZM82.021 283.162C81.097 283.162 80.257 282.952 79.501 282.532C78.757 282.112 78.169 281.518 77.737 280.75C77.317 279.97 77.107 279.07 77.107 278.05C77.107 277.042 77.323 276.154 77.755 275.386C78.199 274.606 78.799 274.012 79.555 273.604C80.311 273.184 81.157 272.974 82.093 272.974C83.029 272.974 83.875 273.184 84.631 273.604C85.387 274.012 85.981 274.6 86.413 275.368C86.857 276.136 87.079 277.03 87.079 278.05C87.079 279.07 86.851 279.97 86.395 280.75C85.951 281.518 85.345 282.112 84.577 282.532C83.809 282.952 82.957 283.162 82.021 283.162ZM82.021 281.722C82.609 281.722 83.161 281.584 83.677 281.308C84.193 281.032 84.607 280.618 84.919 280.066C85.243 279.514 85.405 278.842 85.405 278.05C85.405 277.258 85.249 276.586 84.937 276.034C84.625 275.482 84.217 275.074 83.713 274.81C83.209 274.534 82.663 274.396 82.075 274.396C81.475 274.396 80.923 274.534 80.419 274.81C79.927 275.074 79.531 275.482 79.231 276.034C78.931 276.586 78.781 277.258 78.781 278.05C78.781 278.854 78.925 279.532 79.213 280.084C79.513 280.636 79.909 281.05 80.401 281.326C80.893 281.59 81.433 281.722 82.021 281.722ZM88.6207 278.032C88.6207 277.024 88.8247 276.142 89.2327 275.386C89.6407 274.618 90.1987 274.024 90.9067 273.604C91.6267 273.184 92.4307 272.974 93.3187 272.974C94.0867 272.974 94.8007 273.154 95.4607 273.514C96.1207 273.862 96.6247 274.324 96.9727 274.9V269.68H98.6287V283H96.9727V281.146C96.6487 281.734 96.1687 282.22 95.5327 282.604C94.8967 282.976 94.1527 283.162 93.3007 283.162C92.4247 283.162 91.6267 282.946 90.9067 282.514C90.1987 282.082 89.6407 281.476 89.2327 280.696C88.8247 279.916 88.6207 279.028 88.6207 278.032ZM96.9727 278.05C96.9727 277.306 96.8227 276.658 96.5227 276.106C96.2227 275.554 95.8147 275.134 95.2987 274.846C94.7947 274.546 94.2367 274.396 93.6247 274.396C93.0127 274.396 92.4547 274.54 91.9507 274.828C91.4467 275.116 91.0447 275.536 90.7447 276.088C90.4447 276.64 90.2947 277.288 90.2947 278.032C90.2947 278.788 90.4447 279.448 90.7447 280.012C91.0447 280.564 91.4467 280.99 91.9507 281.29C92.4547 281.578 93.0127 281.722 93.6247 281.722C94.2367 281.722 94.7947 281.578 95.2987 281.29C95.8147 280.99 96.2227 280.564 96.5227 280.012C96.8227 279.448 96.9727 278.794 96.9727 278.05ZM110.145 273.136V283H108.507V281.542C108.195 282.046 107.757 282.442 107.193 282.73C106.641 283.006 106.029 283.144 105.357 283.144C104.589 283.144 103.899 282.988 103.287 282.676C102.675 282.352 102.189 281.872 101.829 281.236C101.481 280.6 101.307 279.826 101.307 278.914V273.136H102.927V278.698C102.927 279.67 103.173 280.42 103.665 280.948C104.157 281.464 104.829 281.722 105.681 281.722C106.557 281.722 107.247 281.452 107.751 280.912C108.255 280.372 108.507 279.586 108.507 278.554V273.136H110.145ZM112.298 278.05C112.298 277.03 112.502 276.142 112.91 275.386C113.318 274.618 113.882 274.024 114.602 273.604C115.334 273.184 116.168 272.974 117.104 272.974C118.316 272.974 119.312 273.268 120.092 273.856C120.884 274.444 121.406 275.26 121.658 276.304H119.894C119.726 275.704 119.396 275.23 118.904 274.882C118.424 274.534 117.824 274.36 117.104 274.36C116.168 274.36 115.412 274.684 114.836 275.332C114.26 275.968 113.972 276.874 113.972 278.05C113.972 279.238 114.26 280.156 114.836 280.804C115.412 281.452 116.168 281.776 117.104 281.776C117.824 281.776 118.424 281.608 118.904 281.272C119.384 280.936 119.714 280.456 119.894 279.832H121.658C121.394 280.84 120.866 281.65 120.074 282.262C119.282 282.862 118.292 283.162 117.104 283.162C116.168 283.162 115.334 282.952 114.602 282.532C113.882 282.112 113.318 281.518 112.91 280.75C112.502 279.982 112.298 279.082 112.298 278.05ZM125.842 274.486V280.3C125.842 280.78 125.944 281.122 126.148 281.326C126.352 281.518 126.706 281.614 127.21 281.614H128.416V283H126.94C126.028 283 125.344 282.79 124.888 282.37C124.432 281.95 124.204 281.26 124.204 280.3V274.486H122.926V273.136H124.204V270.652H125.842V273.136H128.416V274.486H125.842ZM133.893 283.162C133.137 283.162 132.459 283.036 131.859 282.784C131.259 282.52 130.785 282.16 130.437 281.704C130.089 281.236 129.897 280.702 129.861 280.102H131.553C131.601 280.594 131.829 280.996 132.237 281.308C132.657 281.62 133.203 281.776 133.875 281.776C134.499 281.776 134.991 281.638 135.351 281.362C135.711 281.086 135.891 280.738 135.891 280.318C135.891 279.886 135.699 279.568 135.315 279.364C134.931 279.148 134.337 278.938 133.533 278.734C132.801 278.542 132.201 278.35 131.733 278.158C131.277 277.954 130.881 277.66 130.545 277.276C130.221 276.88 130.059 276.364 130.059 275.728C130.059 275.224 130.209 274.762 130.509 274.342C130.809 273.922 131.235 273.592 131.787 273.352C132.339 273.1 132.969 272.974 133.677 272.974C134.769 272.974 135.651 273.25 136.323 273.802C136.995 274.354 137.355 275.11 137.403 276.07H135.765C135.729 275.554 135.519 275.14 135.135 274.828C134.763 274.516 134.259 274.36 133.623 274.36C133.035 274.36 132.567 274.486 132.219 274.738C131.871 274.99 131.697 275.32 131.697 275.728C131.697 276.052 131.799 276.322 132.003 276.538C132.219 276.742 132.483 276.91 132.795 277.042C133.119 277.162 133.563 277.3 134.127 277.456C134.835 277.648 135.411 277.84 135.855 278.032C136.299 278.212 136.677 278.488 136.989 278.86C137.313 279.232 137.481 279.718 137.493 280.318C137.493 280.858 137.343 281.344 137.043 281.776C136.743 282.208 136.317 282.55 135.765 282.802C135.225 283.042 134.601 283.162 133.893 283.162ZM146.602 274.486V280.3C146.602 280.78 146.704 281.122 146.908 281.326C147.112 281.518 147.466 281.614 147.97 281.614H149.176V283H147.7C146.788 283 146.104 282.79 145.648 282.37C145.192 281.95 144.964 281.26 144.964 280.3V274.486H143.686V273.136H144.964V270.652H146.602V273.136H149.176V274.486H146.602ZM156.056 272.956C156.8 272.956 157.472 273.118 158.072 273.442C158.672 273.754 159.14 274.228 159.476 274.864C159.824 275.5 159.998 276.274 159.998 277.186V283H158.378V277.42C158.378 276.436 158.132 275.686 157.64 275.17C157.148 274.642 156.476 274.378 155.624 274.378C154.76 274.378 154.07 274.648 153.554 275.188C153.05 275.728 152.798 276.514 152.798 277.546V283H151.16V269.68H152.798V274.54C153.122 274.036 153.566 273.646 154.13 273.37C154.706 273.094 155.348 272.956 156.056 272.956ZM164.312 274.738C164.6 274.174 165.008 273.736 165.536 273.424C166.076 273.112 166.73 272.956 167.498 272.956V274.648H167.066C165.23 274.648 164.312 275.644 164.312 277.636V283H162.674V273.136H164.312V274.738ZM173.691 283.162C172.767 283.162 171.927 282.952 171.171 282.532C170.427 282.112 169.839 281.518 169.407 280.75C168.987 279.97 168.777 279.07 168.777 278.05C168.777 277.042 168.993 276.154 169.425 275.386C169.869 274.606 170.469 274.012 171.225 273.604C171.981 273.184 172.827 272.974 173.763 272.974C174.699 272.974 175.545 273.184 176.301 273.604C177.057 274.012 177.651 274.6 178.083 275.368C178.527 276.136 178.749 277.03 178.749 278.05C178.749 279.07 178.521 279.97 178.065 280.75C177.621 281.518 177.015 282.112 176.247 282.532C175.479 282.952 174.627 283.162 173.691 283.162ZM173.691 281.722C174.279 281.722 174.831 281.584 175.347 281.308C175.863 281.032 176.277 280.618 176.589 280.066C176.913 279.514 177.075 278.842 177.075 278.05C177.075 277.258 176.919 276.586 176.607 276.034C176.295 275.482 175.887 275.074 175.383 274.81C174.879 274.534 174.333 274.396 173.745 274.396C173.145 274.396 172.593 274.534 172.089 274.81C171.597 275.074 171.201 275.482 170.901 276.034C170.601 276.586 170.451 277.258 170.451 278.05C170.451 278.854 170.595 279.532 170.883 280.084C171.183 280.636 171.579 281.05 172.071 281.326C172.563 281.59 173.103 281.722 173.691 281.722ZM189.651 273.136V283H188.013V281.542C187.701 282.046 187.263 282.442 186.699 282.73C186.147 283.006 185.535 283.144 184.863 283.144C184.095 283.144 183.405 282.988 182.793 282.676C182.181 282.352 181.695 281.872 181.335 281.236C180.987 280.6 180.813 279.826 180.813 278.914V273.136H182.433V278.698C182.433 279.67 182.679 280.42 183.171 280.948C183.663 281.464 184.335 281.722 185.187 281.722C186.063 281.722 186.753 281.452 187.257 280.912C187.761 280.372 188.013 279.586 188.013 278.554V273.136H189.651ZM196.484 272.974C197.336 272.974 198.08 273.16 198.716 273.532C199.364 273.904 199.844 274.372 200.156 274.936V273.136H201.812V283.216C201.812 284.116 201.62 284.914 201.236 285.61C200.852 286.318 200.3 286.87 199.58 287.266C198.872 287.662 198.044 287.86 197.096 287.86C195.8 287.86 194.72 287.554 193.856 286.942C192.992 286.33 192.482 285.496 192.326 284.44H193.946C194.126 285.04 194.498 285.52 195.062 285.88C195.626 286.252 196.304 286.438 197.096 286.438C197.996 286.438 198.728 286.156 199.292 285.592C199.868 285.028 200.156 284.236 200.156 283.216V281.146C199.832 281.722 199.352 282.202 198.716 282.586C198.08 282.97 197.336 283.162 196.484 283.162C195.608 283.162 194.81 282.946 194.09 282.514C193.382 282.082 192.824 281.476 192.416 280.696C192.008 279.916 191.804 279.028 191.804 278.032C191.804 277.024 192.008 276.142 192.416 275.386C192.824 274.618 193.382 274.024 194.09 273.604C194.81 273.184 195.608 272.974 196.484 272.974ZM200.156 278.05C200.156 277.306 200.006 276.658 199.706 276.106C199.406 275.554 198.998 275.134 198.482 274.846C197.978 274.546 197.42 274.396 196.808 274.396C196.196 274.396 195.638 274.54 195.134 274.828C194.63 275.116 194.228 275.536 193.928 276.088C193.628 276.64 193.478 277.288 193.478 278.032C193.478 278.788 193.628 279.448 193.928 280.012C194.228 280.564 194.63 280.99 195.134 281.29C195.638 281.578 196.196 281.722 196.808 281.722C197.42 281.722 197.978 281.578 198.482 281.29C198.998 280.99 199.406 280.564 199.706 280.012C200.006 279.448 200.156 278.794 200.156 278.05ZM209.476 272.956C210.22 272.956 210.892 273.118 211.492 273.442C212.092 273.754 212.56 274.228 212.896 274.864C213.244 275.5 213.418 276.274 213.418 277.186V283H211.798V277.42C211.798 276.436 211.552 275.686 211.06 275.17C210.568 274.642 209.896 274.378 209.044 274.378C208.18 274.378 207.49 274.648 206.974 275.188C206.47 275.728 206.218 276.514 206.218 277.546V283H204.58V269.68H206.218V274.54C206.542 274.036 206.986 273.646 207.55 273.37C208.126 273.094 208.768 272.956 209.476 272.956ZM220.281 278.032C220.281 277.024 220.485 276.142 220.893 275.386C221.301 274.618 221.859 274.024 222.567 273.604C223.287 273.184 224.085 272.974 224.961 272.974C225.825 272.974 226.575 273.16 227.211 273.532C227.847 273.904 228.321 274.372 228.633 274.936V273.136H230.289V283H228.633V281.164C228.309 281.74 227.823 282.22 227.175 282.604C226.539 282.976 225.795 283.162 224.943 283.162C224.067 283.162 223.275 282.946 222.567 282.514C221.859 282.082 221.301 281.476 220.893 280.696C220.485 279.916 220.281 279.028 220.281 278.032ZM228.633 278.05C228.633 277.306 228.483 276.658 228.183 276.106C227.883 275.554 227.475 275.134 226.959 274.846C226.455 274.546 225.897 274.396 225.285 274.396C224.673 274.396 224.115 274.54 223.611 274.828C223.107 275.116 222.705 275.536 222.405 276.088C222.105 276.64 221.955 277.288 221.955 278.032C221.955 278.788 222.105 279.448 222.405 280.012C222.705 280.564 223.107 280.99 223.611 281.29C224.115 281.578 224.673 281.722 225.285 281.722C225.897 281.722 226.455 281.578 226.959 281.29C227.475 280.99 227.883 280.564 228.183 280.012C228.483 279.448 228.633 278.794 228.633 278.05ZM237.863 272.956C239.063 272.956 240.035 273.322 240.779 274.054C241.523 274.774 241.895 275.818 241.895 277.186V283H240.275V277.42C240.275 276.436 240.029 275.686 239.537 275.17C239.045 274.642 238.373 274.378 237.521 274.378C236.657 274.378 235.967 274.648 235.451 275.188C234.947 275.728 234.695 276.514 234.695 277.546V283H233.057V273.136H234.695V274.54C235.019 274.036 235.457 273.646 236.009 273.37C236.573 273.094 237.191 272.956 237.863 272.956ZM253.671 283.162C252.747 283.162 251.907 282.952 251.151 282.532C250.407 282.112 249.819 281.518 249.387 280.75C248.967 279.97 248.757 279.07 248.757 278.05C248.757 277.042 248.973 276.154 249.405 275.386C249.849 274.606 250.449 274.012 251.205 273.604C251.961 273.184 252.807 272.974 253.743 272.974C254.679 272.974 255.525 273.184 256.281 273.604C257.037 274.012 257.631 274.6 258.063 275.368C258.507 276.136 258.729 277.03 258.729 278.05C258.729 279.07 258.501 279.97 258.045 280.75C257.601 281.518 256.995 282.112 256.227 282.532C255.459 282.952 254.607 283.162 253.671 283.162ZM253.671 281.722C254.259 281.722 254.811 281.584 255.327 281.308C255.843 281.032 256.257 280.618 256.569 280.066C256.893 279.514 257.055 278.842 257.055 278.05C257.055 277.258 256.899 276.586 256.587 276.034C256.275 275.482 255.867 275.074 255.363 274.81C254.859 274.534 254.313 274.396 253.725 274.396C253.125 274.396 252.573 274.534 252.069 274.81C251.577 275.074 251.181 275.482 250.881 276.034C250.581 276.586 250.431 277.258 250.431 278.05C250.431 278.854 250.575 279.532 250.863 280.084C251.163 280.636 251.559 281.05 252.051 281.326C252.543 281.59 253.083 281.722 253.671 281.722ZM265.689 272.956C266.889 272.956 267.861 273.322 268.605 274.054C269.349 274.774 269.721 275.818 269.721 277.186V283H268.101V277.42C268.101 276.436 267.855 275.686 267.363 275.17C266.871 274.642 266.199 274.378 265.347 274.378C264.483 274.378 263.793 274.648 263.277 275.188C262.773 275.728 262.521 276.514 262.521 277.546V283H260.883V273.136H262.521V274.54C262.845 274.036 263.283 273.646 263.835 273.37C264.399 273.094 265.017 272.956 265.689 272.956ZM274.035 269.68V283H272.397V269.68H274.035ZM277.672 271.534C277.36 271.534 277.096 271.426 276.88 271.21C276.664 270.994 276.556 270.73 276.556 270.418C276.556 270.106 276.664 269.842 276.88 269.626C277.096 269.41 277.36 269.302 277.672 269.302C277.972 269.302 278.224 269.41 278.428 269.626C278.644 269.842 278.752 270.106 278.752 270.418C278.752 270.73 278.644 270.994 278.428 271.21C278.224 271.426 277.972 271.534 277.672 271.534ZM278.464 273.136V283H276.826V273.136H278.464ZM286.062 272.956C287.262 272.956 288.234 273.322 288.978 274.054C289.722 274.774 290.094 275.818 290.094 277.186V283H288.474V277.42C288.474 276.436 288.228 275.686 287.736 275.17C287.244 274.642 286.572 274.378 285.72 274.378C284.856 274.378 284.166 274.648 283.65 275.188C283.146 275.728 282.894 276.514 282.894 277.546V283H281.256V273.136H282.894V274.54C283.218 274.036 283.656 273.646 284.208 273.37C284.772 273.094 285.39 272.956 286.062 272.956ZM301.77 277.69C301.77 278.002 301.752 278.332 301.716 278.68H293.832C293.892 279.652 294.222 280.414 294.822 280.966C295.434 281.506 296.172 281.776 297.036 281.776C297.744 281.776 298.332 281.614 298.8 281.29C299.28 280.954 299.616 280.51 299.808 279.958H301.572C301.308 280.906 300.78 281.68 299.988 282.28C299.196 282.868 298.212 283.162 297.036 283.162C296.1 283.162 295.26 282.952 294.516 282.532C293.784 282.112 293.208 281.518 292.788 280.75C292.368 279.97 292.158 279.07 292.158 278.05C292.158 277.03 292.362 276.136 292.77 275.368C293.178 274.6 293.748 274.012 294.48 273.604C295.224 273.184 296.076 272.974 297.036 272.974C297.972 272.974 298.8 273.178 299.52 273.586C300.24 273.994 300.792 274.558 301.176 275.278C301.572 275.986 301.77 276.79 301.77 277.69ZM300.078 277.348C300.078 276.724 299.94 276.19 299.664 275.746C299.388 275.29 299.01 274.948 298.53 274.72C298.062 274.48 297.54 274.36 296.964 274.36C296.136 274.36 295.428 274.624 294.84 275.152C294.264 275.68 293.934 276.412 293.85 277.348H300.078ZM135.618 304.956C136.386 304.956 137.07 305.118 137.67 305.442C138.27 305.754 138.744 306.228 139.092 306.864C139.44 307.5 139.614 308.274 139.614 309.186V315H137.994V309.42C137.994 308.436 137.748 307.686 137.256 307.17C136.776 306.642 136.122 306.378 135.294 306.378C134.442 306.378 133.764 306.654 133.26 307.206C132.756 307.746 132.504 308.532 132.504 309.564V315H130.884V309.42C130.884 308.436 130.638 307.686 130.146 307.17C129.666 306.642 129.012 306.378 128.184 306.378C127.332 306.378 126.654 306.654 126.15 307.206C125.646 307.746 125.394 308.532 125.394 309.564V315H123.756V305.136H125.394V306.558C125.718 306.042 126.15 305.646 126.69 305.37C127.242 305.094 127.848 304.956 128.508 304.956C129.336 304.956 130.068 305.142 130.704 305.514C131.34 305.886 131.814 306.432 132.126 307.152C132.402 306.456 132.858 305.916 133.494 305.532C134.13 305.148 134.838 304.956 135.618 304.956ZM141.689 310.032C141.689 309.024 141.893 308.142 142.301 307.386C142.709 306.618 143.267 306.024 143.975 305.604C144.695 305.184 145.493 304.974 146.369 304.974C147.233 304.974 147.983 305.16 148.619 305.532C149.255 305.904 149.729 306.372 150.041 306.936V305.136H151.697V315H150.041V313.164C149.717 313.74 149.231 314.22 148.583 314.604C147.947 314.976 147.203 315.162 146.351 315.162C145.475 315.162 144.683 314.946 143.975 314.514C143.267 314.082 142.709 313.476 142.301 312.696C141.893 311.916 141.689 311.028 141.689 310.032ZM150.041 310.05C150.041 309.306 149.891 308.658 149.591 308.106C149.291 307.554 148.883 307.134 148.367 306.846C147.863 306.546 147.305 306.396 146.693 306.396C146.081 306.396 145.523 306.54 145.019 306.828C144.515 307.116 144.113 307.536 143.813 308.088C143.513 308.64 143.363 309.288 143.363 310.032C143.363 310.788 143.513 311.448 143.813 312.012C144.113 312.564 144.515 312.99 145.019 313.29C145.523 313.578 146.081 313.722 146.693 313.722C147.305 313.722 147.863 313.578 148.367 313.29C148.883 312.99 149.291 312.564 149.591 312.012C149.891 311.448 150.041 310.794 150.041 310.05ZM156.103 306.738C156.391 306.174 156.799 305.736 157.327 305.424C157.867 305.112 158.521 304.956 159.289 304.956V306.648H158.857C157.021 306.648 156.103 307.644 156.103 309.636V315H154.465V305.136H156.103V306.738ZM166.688 315L162.818 310.644V315H161.18V301.68H162.818V309.51L166.616 305.136H168.902L164.258 310.05L168.92 315H166.688ZM179.444 309.69C179.444 310.002 179.426 310.332 179.39 310.68H171.506C171.566 311.652 171.896 312.414 172.496 312.966C173.108 313.506 173.846 313.776 174.71 313.776C175.418 313.776 176.006 313.614 176.474 313.29C176.954 312.954 177.29 312.51 177.482 311.958H179.246C178.982 312.906 178.454 313.68 177.662 314.28C176.87 314.868 175.886 315.162 174.71 315.162C173.774 315.162 172.934 314.952 172.19 314.532C171.458 314.112 170.882 313.518 170.462 312.75C170.042 311.97 169.832 311.07 169.832 310.05C169.832 309.03 170.036 308.136 170.444 307.368C170.852 306.6 171.422 306.012 172.154 305.604C172.898 305.184 173.75 304.974 174.71 304.974C175.646 304.974 176.474 305.178 177.194 305.586C177.914 305.994 178.466 306.558 178.85 307.278C179.246 307.986 179.444 308.79 179.444 309.69ZM177.752 309.348C177.752 308.724 177.614 308.19 177.338 307.746C177.062 307.29 176.684 306.948 176.204 306.72C175.736 306.48 175.214 306.36 174.638 306.36C173.81 306.36 173.102 306.624 172.514 307.152C171.938 307.68 171.608 308.412 171.524 309.348H177.752ZM183.604 306.486V312.3C183.604 312.78 183.706 313.122 183.91 313.326C184.114 313.518 184.468 313.614 184.972 313.614H186.178V315H184.702C183.79 315 183.106 314.79 182.65 314.37C182.194 313.95 181.966 313.26 181.966 312.3V306.486H180.688V305.136H181.966V302.652H183.604V305.136H186.178V306.486H183.604ZM189.8 306.954C190.124 306.39 190.604 305.922 191.24 305.55C191.888 305.166 192.638 304.974 193.49 304.974C194.366 304.974 195.158 305.184 195.866 305.604C196.586 306.024 197.15 306.618 197.558 307.386C197.966 308.142 198.17 309.024 198.17 310.032C198.17 311.028 197.966 311.916 197.558 312.696C197.15 313.476 196.586 314.082 195.866 314.514C195.158 314.946 194.366 315.162 193.49 315.162C192.65 315.162 191.906 314.976 191.258 314.604C190.622 314.22 190.136 313.746 189.8 313.182V319.68H188.162V305.136H189.8V306.954ZM196.496 310.032C196.496 309.288 196.346 308.64 196.046 308.088C195.746 307.536 195.338 307.116 194.822 306.828C194.318 306.54 193.76 306.396 193.148 306.396C192.548 306.396 191.99 306.546 191.474 306.846C190.97 307.134 190.562 307.56 190.25 308.124C189.95 308.676 189.8 309.318 189.8 310.05C189.8 310.794 189.95 311.448 190.25 312.012C190.562 312.564 190.97 312.99 191.474 313.29C191.99 313.578 192.548 313.722 193.148 313.722C193.76 313.722 194.318 313.578 194.822 313.29C195.338 312.99 195.746 312.564 196.046 312.012C196.346 311.448 196.496 310.788 196.496 310.032ZM201.964 301.68V315H200.326V301.68H201.964ZM204.144 310.032C204.144 309.024 204.348 308.142 204.756 307.386C205.164 306.618 205.722 306.024 206.43 305.604C207.15 305.184 207.948 304.974 208.824 304.974C209.688 304.974 210.438 305.16 211.074 305.532C211.71 305.904 212.184 306.372 212.496 306.936V305.136H214.152V315H212.496V313.164C212.172 313.74 211.686 314.22 211.038 314.604C210.402 314.976 209.658 315.162 208.806 315.162C207.93 315.162 207.138 314.946 206.43 314.514C205.722 314.082 205.164 313.476 204.756 312.696C204.348 311.916 204.144 311.028 204.144 310.032ZM212.496 310.05C212.496 309.306 212.346 308.658 212.046 308.106C211.746 307.554 211.338 307.134 210.822 306.846C210.318 306.546 209.76 306.396 209.148 306.396C208.536 306.396 207.978 306.54 207.474 306.828C206.97 307.116 206.568 307.536 206.268 308.088C205.968 308.64 205.818 309.288 205.818 310.032C205.818 310.788 205.968 311.448 206.268 312.012C206.568 312.564 206.97 312.99 207.474 313.29C207.978 313.578 208.536 313.722 209.148 313.722C209.76 313.722 210.318 313.578 210.822 313.29C211.338 312.99 211.746 312.564 212.046 312.012C212.346 311.448 212.496 310.794 212.496 310.05ZM216.308 310.05C216.308 309.03 216.512 308.142 216.92 307.386C217.328 306.618 217.892 306.024 218.612 305.604C219.344 305.184 220.178 304.974 221.114 304.974C222.326 304.974 223.322 305.268 224.102 305.856C224.894 306.444 225.416 307.26 225.668 308.304H223.904C223.736 307.704 223.406 307.23 222.914 306.882C222.434 306.534 221.834 306.36 221.114 306.36C220.178 306.36 219.422 306.684 218.846 307.332C218.27 307.968 217.982 308.874 217.982 310.05C217.982 311.238 218.27 312.156 218.846 312.804C219.422 313.452 220.178 313.776 221.114 313.776C221.834 313.776 222.434 313.608 222.914 313.272C223.394 312.936 223.724 312.456 223.904 311.832H225.668C225.404 312.84 224.876 313.65 224.084 314.262C223.292 314.862 222.302 315.162 221.114 315.162C220.178 315.162 219.344 314.952 218.612 314.532C217.892 314.112 217.328 313.518 216.92 312.75C216.512 311.982 216.308 311.082 216.308 310.05ZM236.854 309.69C236.854 310.002 236.836 310.332 236.8 310.68H228.916C228.976 311.652 229.306 312.414 229.906 312.966C230.518 313.506 231.256 313.776 232.12 313.776C232.828 313.776 233.416 313.614 233.884 313.29C234.364 312.954 234.7 312.51 234.892 311.958H236.656C236.392 312.906 235.864 313.68 235.072 314.28C234.28 314.868 233.296 315.162 232.12 315.162C231.184 315.162 230.344 314.952 229.6 314.532C228.868 314.112 228.292 313.518 227.872 312.75C227.452 311.97 227.242 311.07 227.242 310.05C227.242 309.03 227.446 308.136 227.854 307.368C228.262 306.6 228.832 306.012 229.564 305.604C230.308 305.184 231.16 304.974 232.12 304.974C233.056 304.974 233.884 305.178 234.604 305.586C235.324 305.994 235.876 306.558 236.26 307.278C236.656 307.986 236.854 308.79 236.854 309.69ZM235.162 309.348C235.162 308.724 235.024 308.19 234.748 307.746C234.472 307.29 234.094 306.948 233.614 306.72C233.146 306.48 232.624 306.36 232.048 306.36C231.22 306.36 230.512 306.624 229.924 307.152C229.348 307.68 229.018 308.412 228.934 309.348H235.162Z" fill="white"/>
<g clip-path="url(#clip0_2111_147)">
<circle cx="180" cy="391.5" r="22.5" fill="#F3F4F6"/>
<path d="M179.911 396.411L181.089 397.589L186.678 392L181.089 386.411L179.911 387.589L183.488 391.166H175.5V392.833H183.488L179.911 396.411Z" fill="#4C40F7"/>
</g>
</g>
<defs>
<filter id="filter0_d_2111_147" x="0" y="0" width="360" height="466" filterUnits="userSpaceOnUse" color-interpolation-filters="sRGB">
<feFlood flood-opacity="0" result="BackgroundImageFix"/>
<feColorMatrix in="SourceAlpha" type="matrix" values="0 0 0 0 0 0 0 0 0 0 0 0 0 0 0 0 0 0 127 0" result="hardAlpha"/>
<feOffset dy="4"/>
<feGaussianBlur stdDeviation="2"/>
<feComposite in2="hardAlpha" operator="out"/>
<feColorMatrix type="matrix" values="0 0 0 0 0 0 0 0 0 0 0 0 0 0 0 0 0 0 0.25 0"/>
<feBlend mode="normal" in2="BackgroundImageFix" result="effect1_dropShadow_2111_147"/>
<feBlend mode="normal" in="SourceGraphic" in2="effect1_dropShadow_2111_147" result="shape"/>
</filter>
<filter id="filter1_d_2111_147" x="101.5" y="29" width="157" height="157" filterUnits="userSpaceOnUse" color-interpolation-filters="sRGB">
<feFlood flood-opacity="0" result="BackgroundImageFix"/>
<feColorMatrix in="SourceAlpha" type="matrix" values="0 0 0 0 0 0 0 0 0 0 0 0 0 0 0 0 0 0 127 0" result="hardAlpha"/>
<feOffset dy="15"/>
<feGaussianBlur stdDeviation="15"/>
<feComposite in2="hardAlpha" operator="out"/>
<feColorMatrix type="matrix" values="0 0 0 0 1 0 0 0 0 1 0 0 0 0 1 0 0 0 1 0"/>
<feBlend mode="normal" in2="BackgroundImageFix" result="effect1_dropShadow_2111_147"/>
<feBlend mode="normal" in="SourceGraphic" in2="effect1_dropShadow_2111_147" result="shape"/>
</filter>
<clipPath id="clip0_2111_147">
<rect width="45" height="45" fill="white" transform="translate(157.5 369)"/>
</clipPath>
</defs>
</svg>
