<svg width="372" height="478" viewBox="0 0 372 478" fill="none" xmlns="http://www.w3.org/2000/svg">
<g filter="url(#filter0_d_2111_16)">
<rect x="10" width="352" height="458" rx="20" fill="#4C40F7" shape-rendering="crispEdges"/>
<g filter="url(#filter1_d_2111_16)">
<circle cx="186" cy="92.5" r="48.5" fill="white"/>
<path d="M185.312 84.6651H178.837C178.152 84.6649 177.485 84.8752 176.924 85.2676C176.363 85.66 175.937 86.2154 175.703 86.8584L169.437 104.095C169.215 104.703 169.367 105.385 169.823 105.843L170.312 106.332L181.015 95.6284C181.013 95.5851 181.002 95.5417 181.002 95.4984C181.002 95.0039 181.148 94.5206 181.423 94.1095C181.698 93.6984 182.088 93.3779 182.545 93.1887C183.002 92.9995 183.504 92.95 183.989 93.0464C184.474 93.1429 184.92 93.381 185.269 93.7306C185.619 94.0803 185.857 94.5257 185.953 95.0107C186.05 95.4956 186 95.9983 185.811 96.4551C185.622 96.9119 185.302 97.3024 184.89 97.5771C184.479 97.8518 183.996 97.9984 183.502 97.9984C183.458 97.9984 183.415 97.9867 183.372 97.9851L172.668 108.688L173.157 109.177C173.381 109.401 173.664 109.557 173.974 109.626C174.284 109.694 174.607 109.673 174.905 109.563L192.142 103.295C192.785 103.061 193.34 102.635 193.732 102.074C194.125 101.514 194.335 100.846 194.335 100.162V93.6867L197.667 90.3567L188.643 81.3334L185.312 84.6651ZM199.233 88.1017L190.9 79.7684L194.433 76.2334L202.767 84.5667L199.233 88.1017Z" fill="#4C40F7"/>
</g>
<path d="M157.299 192.04C158.766 192.04 160.052 192.327 161.159 192.9C162.279 193.473 163.139 194.293 163.739 195.36C164.352 196.413 164.659 197.64 164.659 199.04C164.659 200.44 164.352 201.667 163.739 202.72C163.139 203.76 162.279 204.567 161.159 205.14C160.052 205.713 158.766 206 157.299 206H152.419V192.04H157.299ZM157.199 203.62C158.666 203.62 159.799 203.22 160.599 202.42C161.399 201.62 161.799 200.493 161.799 199.04C161.799 197.587 161.399 196.453 160.599 195.64C159.799 194.813 158.666 194.4 157.199 194.4H155.219V203.62H157.199ZM177.055 200.22C177.055 200.62 177.028 200.98 176.975 201.3H168.875C168.942 202.1 169.222 202.727 169.715 203.18C170.208 203.633 170.815 203.86 171.535 203.86C172.575 203.86 173.315 203.413 173.755 202.52H176.775C176.455 203.587 175.842 204.467 174.935 205.16C174.028 205.84 172.915 206.18 171.595 206.18C170.528 206.18 169.568 205.947 168.715 205.48C167.875 205 167.215 204.327 166.735 203.46C166.268 202.593 166.035 201.593 166.035 200.46C166.035 199.313 166.268 198.307 166.735 197.44C167.202 196.573 167.855 195.907 168.695 195.44C169.535 194.973 170.502 194.74 171.595 194.74C172.648 194.74 173.588 194.967 174.415 195.42C175.255 195.873 175.902 196.52 176.355 197.36C176.822 198.187 177.055 199.14 177.055 200.22ZM174.155 199.42C174.142 198.7 173.882 198.127 173.375 197.7C172.868 197.26 172.248 197.04 171.515 197.04C170.822 197.04 170.235 197.253 169.755 197.68C169.288 198.093 169.002 198.673 168.895 199.42H174.155ZM183.339 206.18C182.432 206.18 181.619 206.02 180.899 205.7C180.179 205.367 179.605 204.92 179.179 204.36C178.765 203.8 178.539 203.18 178.499 202.5H181.319C181.372 202.927 181.579 203.28 181.939 203.56C182.312 203.84 182.772 203.98 183.319 203.98C183.852 203.98 184.265 203.873 184.559 203.66C184.865 203.447 185.019 203.173 185.019 202.84C185.019 202.48 184.832 202.213 184.459 202.04C184.099 201.853 183.519 201.653 182.719 201.44C181.892 201.24 181.212 201.033 180.679 200.82C180.159 200.607 179.705 200.28 179.319 199.84C178.945 199.4 178.759 198.807 178.759 198.06C178.759 197.447 178.932 196.887 179.279 196.38C179.639 195.873 180.145 195.473 180.799 195.18C181.465 194.887 182.245 194.74 183.139 194.74C184.459 194.74 185.512 195.073 186.299 195.74C187.085 196.393 187.519 197.28 187.599 198.4H184.919C184.879 197.96 184.692 197.613 184.359 197.36C184.039 197.093 183.605 196.96 183.059 196.96C182.552 196.96 182.159 197.053 181.879 197.24C181.612 197.427 181.479 197.687 181.479 198.02C181.479 198.393 181.665 198.68 182.039 198.88C182.412 199.067 182.992 199.26 183.779 199.46C184.579 199.66 185.239 199.867 185.759 200.08C186.279 200.293 186.725 200.627 187.099 201.08C187.485 201.52 187.685 202.107 187.699 202.84C187.699 203.48 187.519 204.053 187.159 204.56C186.812 205.067 186.305 205.467 185.639 205.76C184.985 206.04 184.219 206.18 183.339 206.18ZM191.417 193.6C190.924 193.6 190.511 193.447 190.177 193.14C189.857 192.82 189.697 192.427 189.697 191.96C189.697 191.493 189.857 191.107 190.177 190.8C190.511 190.48 190.924 190.32 191.417 190.32C191.911 190.32 192.317 190.48 192.637 190.8C192.971 191.107 193.137 191.493 193.137 191.96C193.137 192.427 192.971 192.82 192.637 193.14C192.317 193.447 191.911 193.6 191.417 193.6ZM192.797 194.92V206H189.997V194.92H192.797ZM199.904 194.74C200.73 194.74 201.457 194.907 202.084 195.24C202.71 195.56 203.204 195.98 203.564 196.5V194.92H206.384V206.08C206.384 207.107 206.177 208.02 205.764 208.82C205.35 209.633 204.73 210.273 203.904 210.74C203.077 211.22 202.077 211.46 200.904 211.46C199.33 211.46 198.037 211.093 197.024 210.36C196.024 209.627 195.457 208.627 195.324 207.36H198.104C198.25 207.867 198.564 208.267 199.044 208.56C199.537 208.867 200.13 209.02 200.824 209.02C201.637 209.02 202.297 208.773 202.804 208.28C203.31 207.8 203.564 207.067 203.564 206.08V204.36C203.204 204.88 202.704 205.313 202.064 205.66C201.437 206.007 200.717 206.18 199.904 206.18C198.97 206.18 198.117 205.94 197.344 205.46C196.57 204.98 195.957 204.307 195.504 203.44C195.064 202.56 194.844 201.553 194.844 200.42C194.844 199.3 195.064 198.307 195.504 197.44C195.957 196.573 196.564 195.907 197.324 195.44C198.097 194.973 198.957 194.74 199.904 194.74ZM203.564 200.46C203.564 199.78 203.43 199.2 203.164 198.72C202.897 198.227 202.537 197.853 202.084 197.6C201.63 197.333 201.144 197.2 200.624 197.2C200.104 197.2 199.624 197.327 199.184 197.58C198.744 197.833 198.384 198.207 198.104 198.7C197.837 199.18 197.704 199.753 197.704 200.42C197.704 201.087 197.837 201.673 198.104 202.18C198.384 202.673 198.744 203.053 199.184 203.32C199.637 203.587 200.117 203.72 200.624 203.72C201.144 203.72 201.63 203.593 202.084 203.34C202.537 203.073 202.897 202.7 203.164 202.22C203.43 201.727 203.564 201.14 203.564 200.46ZM215.258 194.76C216.578 194.76 217.645 195.18 218.458 196.02C219.272 196.847 219.678 198.007 219.678 199.5V206H216.878V199.88C216.878 199 216.658 198.327 216.218 197.86C215.778 197.38 215.178 197.14 214.418 197.14C213.645 197.14 213.032 197.38 212.578 197.86C212.138 198.327 211.918 199 211.918 199.88V206H209.118V194.92H211.918V196.3C212.292 195.82 212.765 195.447 213.338 195.18C213.925 194.9 214.565 194.76 215.258 194.76Z" fill="white"/>
<path d="M75.1765 238.454L71.5405 251H69.7045L66.7885 240.902L63.7645 251L61.9465 251.018L58.4365 238.454H60.1825L62.9185 249.092L65.9425 238.454H67.7785L70.6585 249.056L73.4125 238.454H75.1765ZM85.969 245.69C85.969 246.002 85.951 246.332 85.915 246.68H78.031C78.091 247.652 78.421 248.414 79.021 248.966C79.633 249.506 80.371 249.776 81.235 249.776C81.943 249.776 82.531 249.614 82.999 249.29C83.479 248.954 83.815 248.51 84.007 247.958H85.771C85.507 248.906 84.979 249.68 84.187 250.28C83.395 250.868 82.411 251.162 81.235 251.162C80.299 251.162 79.459 250.952 78.715 250.532C77.983 250.112 77.407 249.518 76.987 248.75C76.567 247.97 76.357 247.07 76.357 246.05C76.357 245.03 76.561 244.136 76.969 243.368C77.377 242.6 77.947 242.012 78.679 241.604C79.423 241.184 80.275 240.974 81.235 240.974C82.171 240.974 82.999 241.178 83.719 241.586C84.439 241.994 84.991 242.558 85.375 243.278C85.771 243.986 85.969 244.79 85.969 245.69ZM84.277 245.348C84.277 244.724 84.139 244.19 83.863 243.746C83.587 243.29 83.209 242.948 82.729 242.72C82.261 242.48 81.739 242.36 81.163 242.36C80.335 242.36 79.627 242.624 79.039 243.152C78.463 243.68 78.133 244.412 78.049 245.348H84.277ZM94.5679 242.954C94.8919 242.39 95.3719 241.922 96.0079 241.55C96.6559 241.166 97.4059 240.974 98.2579 240.974C99.1339 240.974 99.9259 241.184 100.634 241.604C101.354 242.024 101.918 242.618 102.326 243.386C102.734 244.142 102.938 245.024 102.938 246.032C102.938 247.028 102.734 247.916 102.326 248.696C101.918 249.476 101.354 250.082 100.634 250.514C99.9259 250.946 99.1339 251.162 98.2579 251.162C97.4179 251.162 96.6739 250.976 96.0259 250.604C95.3899 250.22 94.9039 249.746 94.5679 249.182V255.68H92.9299V241.136H94.5679V242.954ZM101.264 246.032C101.264 245.288 101.114 244.64 100.814 244.088C100.514 243.536 100.106 243.116 99.5899 242.828C99.0859 242.54 98.5279 242.396 97.9159 242.396C97.3159 242.396 96.7579 242.546 96.2419 242.846C95.7379 243.134 95.3299 243.56 95.0179 244.124C94.7179 244.676 94.5679 245.318 94.5679 246.05C94.5679 246.794 94.7179 247.448 95.0179 248.012C95.3299 248.564 95.7379 248.99 96.2419 249.29C96.7579 249.578 97.3159 249.722 97.9159 249.722C98.5279 249.722 99.0859 249.578 99.5899 249.29C100.106 248.99 100.514 248.564 100.814 248.012C101.114 247.448 101.264 246.788 101.264 246.032ZM106.732 242.738C107.02 242.174 107.428 241.736 107.956 241.424C108.496 241.112 109.15 240.956 109.918 240.956V242.648H109.486C107.65 242.648 106.732 243.644 106.732 245.636V251H105.094V241.136H106.732V242.738ZM116.111 251.162C115.187 251.162 114.347 250.952 113.591 250.532C112.847 250.112 112.259 249.518 111.827 248.75C111.407 247.97 111.197 247.07 111.197 246.05C111.197 245.042 111.413 244.154 111.845 243.386C112.289 242.606 112.889 242.012 113.645 241.604C114.401 241.184 115.247 240.974 116.183 240.974C117.119 240.974 117.965 241.184 118.721 241.604C119.477 242.012 120.071 242.6 120.503 243.368C120.947 244.136 121.169 245.03 121.169 246.05C121.169 247.07 120.941 247.97 120.485 248.75C120.041 249.518 119.435 250.112 118.667 250.532C117.899 250.952 117.047 251.162 116.111 251.162ZM116.111 249.722C116.699 249.722 117.251 249.584 117.767 249.308C118.283 249.032 118.697 248.618 119.009 248.066C119.333 247.514 119.495 246.842 119.495 246.05C119.495 245.258 119.339 244.586 119.027 244.034C118.715 243.482 118.307 243.074 117.803 242.81C117.299 242.534 116.753 242.396 116.165 242.396C115.565 242.396 115.013 242.534 114.509 242.81C114.017 243.074 113.621 243.482 113.321 244.034C113.021 244.586 112.871 245.258 112.871 246.05C112.871 246.854 113.015 247.532 113.303 248.084C113.603 248.636 113.999 249.05 114.491 249.326C114.983 249.59 115.523 249.722 116.111 249.722ZM126.995 249.488L130.055 241.136H131.801L127.931 251H126.023L122.153 241.136H123.917L126.995 249.488ZM134.258 239.534C133.946 239.534 133.682 239.426 133.466 239.21C133.25 238.994 133.142 238.73 133.142 238.418C133.142 238.106 133.25 237.842 133.466 237.626C133.682 237.41 133.946 237.302 134.258 237.302C134.558 237.302 134.81 237.41 135.014 237.626C135.23 237.842 135.338 238.106 135.338 238.418C135.338 238.73 135.23 238.994 135.014 239.21C134.81 239.426 134.558 239.534 134.258 239.534ZM135.05 241.136V251H133.412V241.136H135.05ZM137.23 246.032C137.23 245.024 137.434 244.142 137.842 243.386C138.25 242.618 138.808 242.024 139.516 241.604C140.236 241.184 141.04 240.974 141.928 240.974C142.696 240.974 143.41 241.154 144.07 241.514C144.73 241.862 145.234 242.324 145.582 242.9V237.68H147.238V251H145.582V249.146C145.258 249.734 144.778 250.22 144.142 250.604C143.506 250.976 142.762 251.162 141.91 251.162C141.034 251.162 140.236 250.946 139.516 250.514C138.808 250.082 138.25 249.476 137.842 248.696C137.434 247.916 137.23 247.028 137.23 246.032ZM145.582 246.05C145.582 245.306 145.432 244.658 145.132 244.106C144.832 243.554 144.424 243.134 143.908 242.846C143.404 242.546 142.846 242.396 142.234 242.396C141.622 242.396 141.064 242.54 140.56 242.828C140.056 243.116 139.654 243.536 139.354 244.088C139.054 244.64 138.904 245.288 138.904 246.032C138.904 246.788 139.054 247.448 139.354 248.012C139.654 248.564 140.056 248.99 140.56 249.29C141.064 249.578 141.622 249.722 142.234 249.722C142.846 249.722 143.404 249.578 143.908 249.29C144.424 248.99 144.832 248.564 145.132 248.012C145.432 247.448 145.582 246.794 145.582 246.05ZM159.006 245.69C159.006 246.002 158.988 246.332 158.952 246.68H151.068C151.128 247.652 151.458 248.414 152.058 248.966C152.67 249.506 153.408 249.776 154.272 249.776C154.98 249.776 155.568 249.614 156.036 249.29C156.516 248.954 156.852 248.51 157.044 247.958H158.808C158.544 248.906 158.016 249.68 157.224 250.28C156.432 250.868 155.448 251.162 154.272 251.162C153.336 251.162 152.496 250.952 151.752 250.532C151.02 250.112 150.444 249.518 150.024 248.75C149.604 247.97 149.394 247.07 149.394 246.05C149.394 245.03 149.598 244.136 150.006 243.368C150.414 242.6 150.984 242.012 151.716 241.604C152.46 241.184 153.312 240.974 154.272 240.974C155.208 240.974 156.036 241.178 156.756 241.586C157.476 241.994 158.028 242.558 158.412 243.278C158.808 243.986 159.006 244.79 159.006 245.69ZM157.314 245.348C157.314 244.724 157.176 244.19 156.9 243.746C156.624 243.29 156.246 242.948 155.766 242.72C155.298 242.48 154.776 242.36 154.2 242.36C153.372 242.36 152.664 242.624 152.076 243.152C151.5 243.68 151.17 244.412 151.086 245.348H157.314ZM169.459 251.162C168.703 251.162 168.025 251.036 167.425 250.784C166.825 250.52 166.351 250.16 166.003 249.704C165.655 249.236 165.463 248.702 165.427 248.102H167.119C167.167 248.594 167.395 248.996 167.803 249.308C168.223 249.62 168.769 249.776 169.441 249.776C170.065 249.776 170.557 249.638 170.917 249.362C171.277 249.086 171.457 248.738 171.457 248.318C171.457 247.886 171.265 247.568 170.881 247.364C170.497 247.148 169.903 246.938 169.099 246.734C168.367 246.542 167.767 246.35 167.299 246.158C166.843 245.954 166.447 245.66 166.111 245.276C165.787 244.88 165.625 244.364 165.625 243.728C165.625 243.224 165.775 242.762 166.075 242.342C166.375 241.922 166.801 241.592 167.353 241.352C167.905 241.1 168.535 240.974 169.243 240.974C170.335 240.974 171.217 241.25 171.889 241.802C172.561 242.354 172.921 243.11 172.969 244.07H171.331C171.295 243.554 171.085 243.14 170.701 242.828C170.329 242.516 169.825 242.36 169.189 242.36C168.601 242.36 168.133 242.486 167.785 242.738C167.437 242.99 167.263 243.32 167.263 243.728C167.263 244.052 167.365 244.322 167.569 244.538C167.785 244.742 168.049 244.91 168.361 245.042C168.685 245.162 169.129 245.3 169.693 245.456C170.401 245.648 170.977 245.84 171.421 246.032C171.865 246.212 172.243 246.488 172.555 246.86C172.879 247.232 173.047 247.718 173.059 248.318C173.059 248.858 172.909 249.344 172.609 249.776C172.309 250.208 171.883 250.55 171.331 250.802C170.791 251.042 170.167 251.162 169.459 251.162ZM184.371 245.69C184.371 246.002 184.353 246.332 184.317 246.68H176.433C176.493 247.652 176.823 248.414 177.423 248.966C178.035 249.506 178.773 249.776 179.637 249.776C180.345 249.776 180.933 249.614 181.401 249.29C181.881 248.954 182.217 248.51 182.409 247.958H184.173C183.909 248.906 183.381 249.68 182.589 250.28C181.797 250.868 180.813 251.162 179.637 251.162C178.701 251.162 177.861 250.952 177.117 250.532C176.385 250.112 175.809 249.518 175.389 248.75C174.969 247.97 174.759 247.07 174.759 246.05C174.759 245.03 174.963 244.136 175.371 243.368C175.779 242.6 176.349 242.012 177.081 241.604C177.825 241.184 178.677 240.974 179.637 240.974C180.573 240.974 181.401 241.178 182.121 241.586C182.841 241.994 183.393 242.558 183.777 243.278C184.173 243.986 184.371 244.79 184.371 245.69ZM182.679 245.348C182.679 244.724 182.541 244.19 182.265 243.746C181.989 243.29 181.611 242.948 181.131 242.72C180.663 242.48 180.141 242.36 179.565 242.36C178.737 242.36 178.029 242.624 177.441 243.152C176.865 243.68 176.535 244.412 176.451 245.348H182.679ZM188.171 242.738C188.459 242.174 188.867 241.736 189.395 241.424C189.935 241.112 190.589 240.956 191.357 240.956V242.648H190.925C189.089 242.648 188.171 243.644 188.171 245.636V251H186.533V241.136H188.171V242.738ZM196.92 249.488L199.98 241.136H201.726L197.856 251H195.948L192.078 241.136H193.842L196.92 249.488ZM204.184 239.534C203.872 239.534 203.608 239.426 203.392 239.21C203.176 238.994 203.068 238.73 203.068 238.418C203.068 238.106 203.176 237.842 203.392 237.626C203.608 237.41 203.872 237.302 204.184 237.302C204.484 237.302 204.736 237.41 204.94 237.626C205.156 237.842 205.264 238.106 205.264 238.418C205.264 238.73 205.156 238.994 204.94 239.21C204.736 239.426 204.484 239.534 204.184 239.534ZM204.976 241.136V251H203.338V241.136H204.976ZM207.156 246.05C207.156 245.03 207.36 244.142 207.768 243.386C208.176 242.618 208.74 242.024 209.46 241.604C210.192 241.184 211.026 240.974 211.962 240.974C213.174 240.974 214.17 241.268 214.95 241.856C215.742 242.444 216.264 243.26 216.516 244.304H214.752C214.584 243.704 214.254 243.23 213.762 242.882C213.282 242.534 212.682 242.36 211.962 242.36C211.026 242.36 210.27 242.684 209.694 243.332C209.118 243.968 208.83 244.874 208.83 246.05C208.83 247.238 209.118 248.156 209.694 248.804C210.27 249.452 211.026 249.776 211.962 249.776C212.682 249.776 213.282 249.608 213.762 249.272C214.242 248.936 214.572 248.456 214.752 247.832H216.516C216.252 248.84 215.724 249.65 214.932 250.262C214.14 250.862 213.15 251.162 211.962 251.162C211.026 251.162 210.192 250.952 209.46 250.532C208.74 250.112 208.176 249.518 207.768 248.75C207.36 247.982 207.156 247.082 207.156 246.05ZM227.701 245.69C227.701 246.002 227.683 246.332 227.647 246.68H219.763C219.823 247.652 220.153 248.414 220.753 248.966C221.365 249.506 222.103 249.776 222.967 249.776C223.675 249.776 224.263 249.614 224.731 249.29C225.211 248.954 225.547 248.51 225.739 247.958H227.503C227.239 248.906 226.711 249.68 225.919 250.28C225.127 250.868 224.143 251.162 222.967 251.162C222.031 251.162 221.191 250.952 220.447 250.532C219.715 250.112 219.139 249.518 218.719 248.75C218.299 247.97 218.089 247.07 218.089 246.05C218.089 245.03 218.293 244.136 218.701 243.368C219.109 242.6 219.679 242.012 220.411 241.604C221.155 241.184 222.007 240.974 222.967 240.974C223.903 240.974 224.731 241.178 225.451 241.586C226.171 241.994 226.723 242.558 227.107 243.278C227.503 243.986 227.701 244.79 227.701 245.69ZM226.009 245.348C226.009 244.724 225.871 244.19 225.595 243.746C225.319 243.29 224.941 242.948 224.461 242.72C223.993 242.48 223.471 242.36 222.895 242.36C222.067 242.36 221.359 242.624 220.771 243.152C220.195 243.68 219.865 244.412 219.781 245.348H226.009ZM233.356 251.162C232.6 251.162 231.922 251.036 231.322 250.784C230.722 250.52 230.248 250.16 229.9 249.704C229.552 249.236 229.36 248.702 229.324 248.102H231.016C231.064 248.594 231.292 248.996 231.7 249.308C232.12 249.62 232.666 249.776 233.338 249.776C233.962 249.776 234.454 249.638 234.814 249.362C235.174 249.086 235.354 248.738 235.354 248.318C235.354 247.886 235.162 247.568 234.778 247.364C234.394 247.148 233.8 246.938 232.996 246.734C232.264 246.542 231.664 246.35 231.196 246.158C230.74 245.954 230.344 245.66 230.008 245.276C229.684 244.88 229.522 244.364 229.522 243.728C229.522 243.224 229.672 242.762 229.972 242.342C230.272 241.922 230.698 241.592 231.25 241.352C231.802 241.1 232.432 240.974 233.14 240.974C234.232 240.974 235.114 241.25 235.786 241.802C236.458 242.354 236.818 243.11 236.866 244.07H235.228C235.192 243.554 234.982 243.14 234.598 242.828C234.226 242.516 233.722 242.36 233.086 242.36C232.498 242.36 232.03 242.486 231.682 242.738C231.334 242.99 231.16 243.32 231.16 243.728C231.16 244.052 231.262 244.322 231.466 244.538C231.682 244.742 231.946 244.91 232.258 245.042C232.582 245.162 233.026 245.3 233.59 245.456C234.298 245.648 234.874 245.84 235.318 246.032C235.762 246.212 236.14 246.488 236.452 246.86C236.776 247.232 236.944 247.718 236.956 248.318C236.956 248.858 236.806 249.344 236.506 249.776C236.206 250.208 235.78 250.55 235.228 250.802C234.688 251.042 234.064 251.162 233.356 251.162ZM257.207 241.136L254.129 251H252.437L250.061 243.17L247.685 251H245.993L242.897 241.136H244.571L246.839 249.416L249.287 241.136H250.961L253.355 249.434L255.587 241.136H257.207ZM259.678 239.534C259.366 239.534 259.102 239.426 258.886 239.21C258.67 238.994 258.562 238.73 258.562 238.418C258.562 238.106 258.67 237.842 258.886 237.626C259.102 237.41 259.366 237.302 259.678 237.302C259.978 237.302 260.23 237.41 260.434 237.626C260.65 237.842 260.758 238.106 260.758 238.418C260.758 238.73 260.65 238.994 260.434 239.21C260.23 239.426 259.978 239.534 259.678 239.534ZM260.47 241.136V251H258.832V241.136H260.47ZM265.26 242.486V248.3C265.26 248.78 265.362 249.122 265.566 249.326C265.77 249.518 266.124 249.614 266.628 249.614H267.834V251H266.358C265.446 251 264.762 250.79 264.306 250.37C263.85 249.95 263.622 249.26 263.622 248.3V242.486H262.344V241.136H263.622V238.652H265.26V241.136H267.834V242.486H265.26ZM274.715 240.956C275.459 240.956 276.131 241.118 276.731 241.442C277.331 241.754 277.799 242.228 278.135 242.864C278.483 243.5 278.657 244.274 278.657 245.186V251H277.037V245.42C277.037 244.436 276.791 243.686 276.299 243.17C275.807 242.642 275.135 242.378 274.283 242.378C273.419 242.378 272.729 242.648 272.213 243.188C271.709 243.728 271.457 244.514 271.457 245.546V251H269.819V237.68H271.457V242.54C271.781 242.036 272.225 241.646 272.789 241.37C273.365 241.094 274.007 240.956 274.715 240.956ZM288.129 242.486V248.3C288.129 248.78 288.231 249.122 288.435 249.326C288.639 249.518 288.993 249.614 289.497 249.614H290.703V251H289.227C288.315 251 287.631 250.79 287.175 250.37C286.719 249.95 286.491 249.26 286.491 248.3V242.486H285.213V241.136H286.491V238.652H288.129V241.136H290.703V242.486H288.129ZM297.584 240.956C298.328 240.956 299 241.118 299.6 241.442C300.2 241.754 300.668 242.228 301.004 242.864C301.352 243.5 301.526 244.274 301.526 245.186V251H299.906V245.42C299.906 244.436 299.66 243.686 299.168 243.17C298.676 242.642 298.004 242.378 297.152 242.378C296.288 242.378 295.598 242.648 295.082 243.188C294.578 243.728 294.326 244.514 294.326 245.546V251H292.688V237.68H294.326V242.54C294.65 242.036 295.094 241.646 295.658 241.37C296.234 241.094 296.876 240.956 297.584 240.956ZM313.201 245.69C313.201 246.002 313.183 246.332 313.147 246.68H305.263C305.323 247.652 305.653 248.414 306.253 248.966C306.865 249.506 307.603 249.776 308.467 249.776C309.175 249.776 309.763 249.614 310.231 249.29C310.711 248.954 311.047 248.51 311.239 247.958H313.003C312.739 248.906 312.211 249.68 311.419 250.28C310.627 250.868 309.643 251.162 308.467 251.162C307.531 251.162 306.691 250.952 305.947 250.532C305.215 250.112 304.639 249.518 304.219 248.75C303.799 247.97 303.589 247.07 303.589 246.05C303.589 245.03 303.793 244.136 304.201 243.368C304.609 242.6 305.179 242.012 305.911 241.604C306.655 241.184 307.507 240.974 308.467 240.974C309.403 240.974 310.231 241.178 310.951 241.586C311.671 241.994 312.223 242.558 312.607 243.278C313.003 243.986 313.201 244.79 313.201 245.69ZM311.509 245.348C311.509 244.724 311.371 244.19 311.095 243.746C310.819 243.29 310.441 242.948 309.961 242.72C309.493 242.48 308.971 242.36 308.395 242.36C307.567 242.36 306.859 242.624 306.271 243.152C305.695 243.68 305.365 244.412 305.281 245.348H311.509ZM49.5592 274.972C49.8952 274.384 50.3872 273.904 51.0352 273.532C51.6832 273.16 52.4212 272.974 53.2492 272.974C54.1372 272.974 54.9352 273.184 55.6432 273.604C56.3512 274.024 56.9092 274.618 57.3172 275.386C57.7252 276.142 57.9292 277.024 57.9292 278.032C57.9292 279.028 57.7252 279.916 57.3172 280.696C56.9092 281.476 56.3452 282.082 55.6252 282.514C54.9172 282.946 54.1252 283.162 53.2492 283.162C52.3972 283.162 51.6472 282.976 50.9992 282.604C50.3632 282.232 49.8832 281.758 49.5592 281.182V283H47.9212V269.68H49.5592V274.972ZM56.2552 278.032C56.2552 277.288 56.1052 276.64 55.8052 276.088C55.5052 275.536 55.0972 275.116 54.5812 274.828C54.0772 274.54 53.5192 274.396 52.9072 274.396C52.3072 274.396 51.7492 274.546 51.2332 274.846C50.7292 275.134 50.3212 275.56 50.0092 276.124C49.7092 276.676 49.5592 277.318 49.5592 278.05C49.5592 278.794 49.7092 279.448 50.0092 280.012C50.3212 280.564 50.7292 280.99 51.2332 281.29C51.7492 281.578 52.3072 281.722 52.9072 281.722C53.5192 281.722 54.0772 281.578 54.5812 281.29C55.0972 280.99 55.5052 280.564 55.8052 280.012C56.1052 279.448 56.2552 278.788 56.2552 278.032ZM69.0852 277.69C69.0852 278.002 69.0672 278.332 69.0312 278.68H61.1472C61.2072 279.652 61.5372 280.414 62.1372 280.966C62.7492 281.506 63.4872 281.776 64.3512 281.776C65.0592 281.776 65.6472 281.614 66.1152 281.29C66.5952 280.954 66.9312 280.51 67.1232 279.958H68.8872C68.6232 280.906 68.0952 281.68 67.3032 282.28C66.5112 282.868 65.5272 283.162 64.3512 283.162C63.4152 283.162 62.5752 282.952 61.8312 282.532C61.0992 282.112 60.5232 281.518 60.1032 280.75C59.6832 279.97 59.4732 279.07 59.4732 278.05C59.4732 277.03 59.6772 276.136 60.0852 275.368C60.4932 274.6 61.0632 274.012 61.7952 273.604C62.5392 273.184 63.3912 272.974 64.3512 272.974C65.2872 272.974 66.1152 273.178 66.8352 273.586C67.5552 273.994 68.1072 274.558 68.4912 275.278C68.8872 275.986 69.0852 276.79 69.0852 277.69ZM67.3932 277.348C67.3932 276.724 67.2552 276.19 66.9792 275.746C66.7032 275.29 66.3252 274.948 65.8452 274.72C65.3772 274.48 64.8552 274.36 64.2792 274.36C63.4512 274.36 62.7432 274.624 62.1552 275.152C61.5792 275.68 61.2492 276.412 61.1652 277.348H67.3932ZM74.7393 283.162C73.9833 283.162 73.3053 283.036 72.7053 282.784C72.1053 282.52 71.6313 282.16 71.2833 281.704C70.9353 281.236 70.7433 280.702 70.7073 280.102H72.3993C72.4473 280.594 72.6753 280.996 73.0833 281.308C73.5033 281.62 74.0493 281.776 74.7213 281.776C75.3453 281.776 75.8373 281.638 76.1973 281.362C76.5573 281.086 76.7373 280.738 76.7373 280.318C76.7373 279.886 76.5453 279.568 76.1613 279.364C75.7773 279.148 75.1833 278.938 74.3793 278.734C73.6473 278.542 73.0473 278.35 72.5793 278.158C72.1233 277.954 71.7273 277.66 71.3913 277.276C71.0673 276.88 70.9053 276.364 70.9053 275.728C70.9053 275.224 71.0553 274.762 71.3553 274.342C71.6553 273.922 72.0813 273.592 72.6333 273.352C73.1853 273.1 73.8153 272.974 74.5233 272.974C75.6153 272.974 76.4973 273.25 77.1693 273.802C77.8413 274.354 78.2013 275.11 78.2493 276.07H76.6113C76.5753 275.554 76.3653 275.14 75.9813 274.828C75.6093 274.516 75.1053 274.36 74.4693 274.36C73.8813 274.36 73.4133 274.486 73.0653 274.738C72.7173 274.99 72.5433 275.32 72.5433 275.728C72.5433 276.052 72.6453 276.322 72.8493 276.538C73.0653 276.742 73.3293 276.91 73.6413 277.042C73.9653 277.162 74.4093 277.3 74.9733 277.456C75.6813 277.648 76.2573 277.84 76.7013 278.032C77.1453 278.212 77.5233 278.488 77.8353 278.86C78.1593 279.232 78.3273 279.718 78.3393 280.318C78.3393 280.858 78.1893 281.344 77.8893 281.776C77.5893 282.208 77.1633 282.55 76.6113 282.802C76.0713 283.042 75.4473 283.162 74.7393 283.162ZM82.6496 274.486V280.3C82.6496 280.78 82.7516 281.122 82.9556 281.326C83.1596 281.518 83.5136 281.614 84.0176 281.614H85.2236V283H83.7476C82.8356 283 82.1516 282.79 81.6956 282.37C81.2396 281.95 81.0116 281.26 81.0116 280.3V274.486H79.7336V273.136H81.0116V270.652H82.6496V273.136H85.2236V274.486H82.6496ZM91.3951 278.032C91.3951 277.024 91.5991 276.142 92.0071 275.386C92.4151 274.618 92.9731 274.024 93.6811 273.604C94.4011 273.184 95.2051 272.974 96.0931 272.974C96.8611 272.974 97.5751 273.154 98.2351 273.514C98.8951 273.862 99.3991 274.324 99.7471 274.9V269.68H101.403V283H99.7471V281.146C99.4231 281.734 98.9431 282.22 98.3071 282.604C97.6711 282.976 96.9271 283.162 96.0751 283.162C95.1991 283.162 94.4011 282.946 93.6811 282.514C92.9731 282.082 92.4151 281.476 92.0071 280.696C91.5991 279.916 91.3951 279.028 91.3951 278.032ZM99.7471 278.05C99.7471 277.306 99.5971 276.658 99.2971 276.106C98.9971 275.554 98.5891 275.134 98.0731 274.846C97.5691 274.546 97.0111 274.396 96.3991 274.396C95.7871 274.396 95.2291 274.54 94.7251 274.828C94.2211 275.116 93.8191 275.536 93.5191 276.088C93.2191 276.64 93.0691 277.288 93.0691 278.032C93.0691 278.788 93.2191 279.448 93.5191 280.012C93.8191 280.564 94.2211 280.99 94.7251 281.29C95.2291 281.578 95.7871 281.722 96.3991 281.722C97.0111 281.722 97.5691 281.578 98.0731 281.29C98.5891 280.99 98.9971 280.564 99.2971 280.012C99.5971 279.448 99.7471 278.794 99.7471 278.05ZM113.171 277.69C113.171 278.002 113.153 278.332 113.117 278.68H105.233C105.293 279.652 105.623 280.414 106.223 280.966C106.835 281.506 107.573 281.776 108.437 281.776C109.145 281.776 109.733 281.614 110.201 281.29C110.681 280.954 111.017 280.51 111.209 279.958H112.973C112.709 280.906 112.181 281.68 111.389 282.28C110.597 282.868 109.613 283.162 108.437 283.162C107.501 283.162 106.661 282.952 105.917 282.532C105.185 282.112 104.609 281.518 104.189 280.75C103.769 279.97 103.559 279.07 103.559 278.05C103.559 277.03 103.763 276.136 104.171 275.368C104.579 274.6 105.149 274.012 105.881 273.604C106.625 273.184 107.477 272.974 108.437 272.974C109.373 272.974 110.201 273.178 110.921 273.586C111.641 273.994 112.193 274.558 112.577 275.278C112.973 275.986 113.171 276.79 113.171 277.69ZM111.479 277.348C111.479 276.724 111.341 276.19 111.065 275.746C110.789 275.29 110.411 274.948 109.931 274.72C109.463 274.48 108.941 274.36 108.365 274.36C107.537 274.36 106.829 274.624 106.241 275.152C105.665 275.68 105.335 276.412 105.251 277.348H111.479ZM118.825 283.162C118.069 283.162 117.391 283.036 116.791 282.784C116.191 282.52 115.717 282.16 115.369 281.704C115.021 281.236 114.829 280.702 114.793 280.102H116.485C116.533 280.594 116.761 280.996 117.169 281.308C117.589 281.62 118.135 281.776 118.807 281.776C119.431 281.776 119.923 281.638 120.283 281.362C120.643 281.086 120.823 280.738 120.823 280.318C120.823 279.886 120.631 279.568 120.247 279.364C119.863 279.148 119.269 278.938 118.465 278.734C117.733 278.542 117.133 278.35 116.665 278.158C116.209 277.954 115.813 277.66 115.477 277.276C115.153 276.88 114.991 276.364 114.991 275.728C114.991 275.224 115.141 274.762 115.441 274.342C115.741 273.922 116.167 273.592 116.719 273.352C117.271 273.1 117.901 272.974 118.609 272.974C119.701 272.974 120.583 273.25 121.255 273.802C121.927 274.354 122.287 275.11 122.335 276.07H120.697C120.661 275.554 120.451 275.14 120.067 274.828C119.695 274.516 119.191 274.36 118.555 274.36C117.967 274.36 117.499 274.486 117.151 274.738C116.803 274.99 116.629 275.32 116.629 275.728C116.629 276.052 116.731 276.322 116.935 276.538C117.151 276.742 117.415 276.91 117.727 277.042C118.051 277.162 118.495 277.3 119.059 277.456C119.767 277.648 120.343 277.84 120.787 278.032C121.231 278.212 121.609 278.488 121.921 278.86C122.245 279.232 122.413 279.718 122.425 280.318C122.425 280.858 122.275 281.344 121.975 281.776C121.675 282.208 121.249 282.55 120.697 282.802C120.157 283.042 119.533 283.162 118.825 283.162ZM125.584 271.534C125.272 271.534 125.008 271.426 124.792 271.21C124.576 270.994 124.468 270.73 124.468 270.418C124.468 270.106 124.576 269.842 124.792 269.626C125.008 269.41 125.272 269.302 125.584 269.302C125.884 269.302 126.136 269.41 126.34 269.626C126.556 269.842 126.664 270.106 126.664 270.418C126.664 270.73 126.556 270.994 126.34 271.21C126.136 271.426 125.884 271.534 125.584 271.534ZM126.376 273.136V283H124.738V273.136H126.376ZM133.235 272.974C134.087 272.974 134.831 273.16 135.467 273.532C136.115 273.904 136.595 274.372 136.907 274.936V273.136H138.563V283.216C138.563 284.116 138.371 284.914 137.987 285.61C137.603 286.318 137.051 286.87 136.331 287.266C135.623 287.662 134.795 287.86 133.847 287.86C132.551 287.86 131.471 287.554 130.607 286.942C129.743 286.33 129.233 285.496 129.077 284.44H130.697C130.877 285.04 131.249 285.52 131.813 285.88C132.377 286.252 133.055 286.438 133.847 286.438C134.747 286.438 135.479 286.156 136.043 285.592C136.619 285.028 136.907 284.236 136.907 283.216V281.146C136.583 281.722 136.103 282.202 135.467 282.586C134.831 282.97 134.087 283.162 133.235 283.162C132.359 283.162 131.561 282.946 130.841 282.514C130.133 282.082 129.575 281.476 129.167 280.696C128.759 279.916 128.555 279.028 128.555 278.032C128.555 277.024 128.759 276.142 129.167 275.386C129.575 274.618 130.133 274.024 130.841 273.604C131.561 273.184 132.359 272.974 133.235 272.974ZM136.907 278.05C136.907 277.306 136.757 276.658 136.457 276.106C136.157 275.554 135.749 275.134 135.233 274.846C134.729 274.546 134.171 274.396 133.559 274.396C132.947 274.396 132.389 274.54 131.885 274.828C131.381 275.116 130.979 275.536 130.679 276.088C130.379 276.64 130.229 277.288 130.229 278.032C130.229 278.788 130.379 279.448 130.679 280.012C130.979 280.564 131.381 280.99 131.885 281.29C132.389 281.578 132.947 281.722 133.559 281.722C134.171 281.722 134.729 281.578 135.233 281.29C135.749 280.99 136.157 280.564 136.457 280.012C136.757 279.448 136.907 278.794 136.907 278.05ZM146.137 272.956C147.337 272.956 148.309 273.322 149.053 274.054C149.797 274.774 150.169 275.818 150.169 277.186V283H148.549V277.42C148.549 276.436 148.303 275.686 147.811 275.17C147.319 274.642 146.647 274.378 145.795 274.378C144.931 274.378 144.241 274.648 143.725 275.188C143.221 275.728 142.969 276.514 142.969 277.546V283H141.331V273.136H142.969V274.54C143.293 274.036 143.731 273.646 144.283 273.37C144.847 273.094 145.465 272.956 146.137 272.956ZM156.337 283.162C155.581 283.162 154.903 283.036 154.303 282.784C153.703 282.52 153.229 282.16 152.881 281.704C152.533 281.236 152.341 280.702 152.305 280.102H153.997C154.045 280.594 154.273 280.996 154.681 281.308C155.101 281.62 155.647 281.776 156.319 281.776C156.943 281.776 157.435 281.638 157.795 281.362C158.155 281.086 158.335 280.738 158.335 280.318C158.335 279.886 158.143 279.568 157.759 279.364C157.375 279.148 156.781 278.938 155.977 278.734C155.245 278.542 154.645 278.35 154.177 278.158C153.721 277.954 153.325 277.66 152.989 277.276C152.665 276.88 152.503 276.364 152.503 275.728C152.503 275.224 152.653 274.762 152.953 274.342C153.253 273.922 153.679 273.592 154.231 273.352C154.783 273.1 155.413 272.974 156.121 272.974C157.213 272.974 158.095 273.25 158.767 273.802C159.439 274.354 159.799 275.11 159.847 276.07H158.209C158.173 275.554 157.963 275.14 157.579 274.828C157.207 274.516 156.703 274.36 156.067 274.36C155.479 274.36 155.011 274.486 154.663 274.738C154.315 274.99 154.141 275.32 154.141 275.728C154.141 276.052 154.243 276.322 154.447 276.538C154.663 276.742 154.927 276.91 155.239 277.042C155.563 277.162 156.007 277.3 156.571 277.456C157.279 277.648 157.855 277.84 158.299 278.032C158.743 278.212 159.121 278.488 159.433 278.86C159.757 279.232 159.925 279.718 159.937 280.318C159.937 280.858 159.787 281.344 159.487 281.776C159.187 282.208 158.761 282.55 158.209 282.802C157.669 283.042 157.045 283.162 156.337 283.162ZM169.046 274.486V280.3C169.046 280.78 169.148 281.122 169.352 281.326C169.556 281.518 169.91 281.614 170.414 281.614H171.62V283H170.144C169.232 283 168.548 282.79 168.092 282.37C167.636 281.95 167.408 281.26 167.408 280.3V274.486H166.13V273.136H167.408V270.652H169.046V273.136H171.62V274.486H169.046ZM178.501 272.956C179.245 272.956 179.917 273.118 180.517 273.442C181.117 273.754 181.585 274.228 181.921 274.864C182.269 275.5 182.443 276.274 182.443 277.186V283H180.823V277.42C180.823 276.436 180.577 275.686 180.085 275.17C179.593 274.642 178.921 274.378 178.069 274.378C177.205 274.378 176.515 274.648 175.999 275.188C175.495 275.728 175.243 276.514 175.243 277.546V283H173.605V269.68H175.243V274.54C175.567 274.036 176.011 273.646 176.575 273.37C177.151 273.094 177.793 272.956 178.501 272.956ZM184.506 278.032C184.506 277.024 184.71 276.142 185.118 275.386C185.526 274.618 186.084 274.024 186.792 273.604C187.512 273.184 188.31 272.974 189.186 272.974C190.05 272.974 190.8 273.16 191.436 273.532C192.072 273.904 192.546 274.372 192.858 274.936V273.136H194.514V283H192.858V281.164C192.534 281.74 192.048 282.22 191.4 282.604C190.764 282.976 190.02 283.162 189.168 283.162C188.292 283.162 187.5 282.946 186.792 282.514C186.084 282.082 185.526 281.476 185.118 280.696C184.71 279.916 184.506 279.028 184.506 278.032ZM192.858 278.05C192.858 277.306 192.708 276.658 192.408 276.106C192.108 275.554 191.7 275.134 191.184 274.846C190.68 274.546 190.122 274.396 189.51 274.396C188.898 274.396 188.34 274.54 187.836 274.828C187.332 275.116 186.93 275.536 186.63 276.088C186.33 276.64 186.18 277.288 186.18 278.032C186.18 278.788 186.33 279.448 186.63 280.012C186.93 280.564 187.332 280.99 187.836 281.29C188.34 281.578 188.898 281.722 189.51 281.722C190.122 281.722 190.68 281.578 191.184 281.29C191.7 280.99 192.108 280.564 192.408 280.012C192.708 279.448 192.858 278.794 192.858 278.05ZM202.088 272.956C203.288 272.956 204.26 273.322 205.004 274.054C205.748 274.774 206.12 275.818 206.12 277.186V283H204.5V277.42C204.5 276.436 204.254 275.686 203.762 275.17C203.27 274.642 202.598 274.378 201.746 274.378C200.882 274.378 200.192 274.648 199.676 275.188C199.172 275.728 198.92 276.514 198.92 277.546V283H197.282V273.136H198.92V274.54C199.244 274.036 199.682 273.646 200.234 273.37C200.798 273.094 201.416 272.956 202.088 272.956ZM217.897 283.162C216.973 283.162 216.133 282.952 215.377 282.532C214.633 282.112 214.045 281.518 213.613 280.75C213.193 279.97 212.983 279.07 212.983 278.05C212.983 277.042 213.199 276.154 213.631 275.386C214.075 274.606 214.675 274.012 215.431 273.604C216.187 273.184 217.033 272.974 217.969 272.974C218.905 272.974 219.751 273.184 220.507 273.604C221.263 274.012 221.857 274.6 222.289 275.368C222.733 276.136 222.955 277.03 222.955 278.05C222.955 279.07 222.727 279.97 222.271 280.75C221.827 281.518 221.221 282.112 220.453 282.532C219.685 282.952 218.833 283.162 217.897 283.162ZM217.897 281.722C218.485 281.722 219.037 281.584 219.553 281.308C220.069 281.032 220.483 280.618 220.795 280.066C221.119 279.514 221.281 278.842 221.281 278.05C221.281 277.258 221.125 276.586 220.813 276.034C220.501 275.482 220.093 275.074 219.589 274.81C219.085 274.534 218.539 274.396 217.951 274.396C217.351 274.396 216.799 274.534 216.295 274.81C215.803 275.074 215.407 275.482 215.107 276.034C214.807 276.586 214.657 277.258 214.657 278.05C214.657 278.854 214.801 279.532 215.089 280.084C215.389 280.636 215.785 281.05 216.277 281.326C216.769 281.59 217.309 281.722 217.897 281.722ZM233.857 273.136V283H232.219V281.542C231.907 282.046 231.469 282.442 230.905 282.73C230.353 283.006 229.741 283.144 229.069 283.144C228.301 283.144 227.611 282.988 226.999 282.676C226.387 282.352 225.901 281.872 225.541 281.236C225.193 280.6 225.019 279.826 225.019 278.914V273.136H226.639V278.698C226.639 279.67 226.885 280.42 227.377 280.948C227.869 281.464 228.541 281.722 229.393 281.722C230.269 281.722 230.959 281.452 231.463 280.912C231.967 280.372 232.219 279.586 232.219 278.554V273.136H233.857ZM238.26 274.738C238.548 274.174 238.956 273.736 239.484 273.424C240.024 273.112 240.678 272.956 241.446 272.956V274.648H241.014C239.178 274.648 238.26 275.644 238.26 277.636V283H236.622V273.136H238.26V274.738ZM247.524 278.032C247.524 277.024 247.728 276.142 248.136 275.386C248.544 274.618 249.102 274.024 249.81 273.604C250.53 273.184 251.334 272.974 252.222 272.974C252.99 272.974 253.704 273.154 254.364 273.514C255.024 273.862 255.528 274.324 255.876 274.9V269.68H257.532V283H255.876V281.146C255.552 281.734 255.072 282.22 254.436 282.604C253.8 282.976 253.056 283.162 252.204 283.162C251.328 283.162 250.53 282.946 249.81 282.514C249.102 282.082 248.544 281.476 248.136 280.696C247.728 279.916 247.524 279.028 247.524 278.032ZM255.876 278.05C255.876 277.306 255.726 276.658 255.426 276.106C255.126 275.554 254.718 275.134 254.202 274.846C253.698 274.546 253.14 274.396 252.528 274.396C251.916 274.396 251.358 274.54 250.854 274.828C250.35 275.116 249.948 275.536 249.648 276.088C249.348 276.64 249.198 277.288 249.198 278.032C249.198 278.788 249.348 279.448 249.648 280.012C249.948 280.564 250.35 280.99 250.854 281.29C251.358 281.578 251.916 281.722 252.528 281.722C253.14 281.722 253.698 281.578 254.202 281.29C254.718 280.99 255.126 280.564 255.426 280.012C255.726 279.448 255.876 278.794 255.876 278.05ZM269.3 277.69C269.3 278.002 269.282 278.332 269.246 278.68H261.362C261.422 279.652 261.752 280.414 262.352 280.966C262.964 281.506 263.702 281.776 264.566 281.776C265.274 281.776 265.862 281.614 266.33 281.29C266.81 280.954 267.146 280.51 267.338 279.958H269.102C268.838 280.906 268.31 281.68 267.518 282.28C266.726 282.868 265.742 283.162 264.566 283.162C263.63 283.162 262.79 282.952 262.046 282.532C261.314 282.112 260.738 281.518 260.318 280.75C259.898 279.97 259.688 279.07 259.688 278.05C259.688 277.03 259.892 276.136 260.3 275.368C260.708 274.6 261.278 274.012 262.01 273.604C262.754 273.184 263.606 272.974 264.566 272.974C265.502 272.974 266.33 273.178 267.05 273.586C267.77 273.994 268.322 274.558 268.706 275.278C269.102 275.986 269.3 276.79 269.3 277.69ZM267.608 277.348C267.608 276.724 267.47 276.19 267.194 275.746C266.918 275.29 266.54 274.948 266.06 274.72C265.592 274.48 265.07 274.36 264.494 274.36C263.666 274.36 262.958 274.624 262.37 275.152C261.794 275.68 261.464 276.412 261.38 277.348H267.608ZM274.954 283.162C274.198 283.162 273.52 283.036 272.92 282.784C272.32 282.52 271.846 282.16 271.498 281.704C271.15 281.236 270.958 280.702 270.922 280.102H272.614C272.662 280.594 272.89 280.996 273.298 281.308C273.718 281.62 274.264 281.776 274.936 281.776C275.56 281.776 276.052 281.638 276.412 281.362C276.772 281.086 276.952 280.738 276.952 280.318C276.952 279.886 276.76 279.568 276.376 279.364C275.992 279.148 275.398 278.938 274.594 278.734C273.862 278.542 273.262 278.35 272.794 278.158C272.338 277.954 271.942 277.66 271.606 277.276C271.282 276.88 271.12 276.364 271.12 275.728C271.12 275.224 271.27 274.762 271.57 274.342C271.87 273.922 272.296 273.592 272.848 273.352C273.4 273.1 274.03 272.974 274.738 272.974C275.83 272.974 276.712 273.25 277.384 273.802C278.056 274.354 278.416 275.11 278.464 276.07H276.826C276.79 275.554 276.58 275.14 276.196 274.828C275.824 274.516 275.32 274.36 274.684 274.36C274.096 274.36 273.628 274.486 273.28 274.738C272.932 274.99 272.758 275.32 272.758 275.728C272.758 276.052 272.86 276.322 273.064 276.538C273.28 276.742 273.544 276.91 273.856 277.042C274.18 277.162 274.624 277.3 275.188 277.456C275.896 277.648 276.472 277.84 276.916 278.032C277.36 278.212 277.738 278.488 278.05 278.86C278.374 279.232 278.542 279.718 278.554 280.318C278.554 280.858 278.404 281.344 278.104 281.776C277.804 282.208 277.378 282.55 276.826 282.802C276.286 283.042 275.662 283.162 274.954 283.162ZM281.712 271.534C281.4 271.534 281.136 271.426 280.92 271.21C280.704 270.994 280.596 270.73 280.596 270.418C280.596 270.106 280.704 269.842 280.92 269.626C281.136 269.41 281.4 269.302 281.712 269.302C282.012 269.302 282.264 269.41 282.468 269.626C282.684 269.842 282.792 270.106 282.792 270.418C282.792 270.73 282.684 270.994 282.468 271.21C282.264 271.426 282.012 271.534 281.712 271.534ZM282.504 273.136V283H280.866V273.136H282.504ZM289.364 272.974C290.216 272.974 290.96 273.16 291.596 273.532C292.244 273.904 292.724 274.372 293.036 274.936V273.136H294.692V283.216C294.692 284.116 294.5 284.914 294.116 285.61C293.732 286.318 293.18 286.87 292.46 287.266C291.752 287.662 290.924 287.86 289.976 287.86C288.68 287.86 287.6 287.554 286.736 286.942C285.872 286.33 285.362 285.496 285.206 284.44H286.826C287.006 285.04 287.378 285.52 287.942 285.88C288.506 286.252 289.184 286.438 289.976 286.438C290.876 286.438 291.608 286.156 292.172 285.592C292.748 285.028 293.036 284.236 293.036 283.216V281.146C292.712 281.722 292.232 282.202 291.596 282.586C290.96 282.97 290.216 283.162 289.364 283.162C288.488 283.162 287.69 282.946 286.97 282.514C286.262 282.082 285.704 281.476 285.296 280.696C284.888 279.916 284.684 279.028 284.684 278.032C284.684 277.024 284.888 276.142 285.296 275.386C285.704 274.618 286.262 274.024 286.97 273.604C287.69 273.184 288.488 272.974 289.364 272.974ZM293.036 278.05C293.036 277.306 292.886 276.658 292.586 276.106C292.286 275.554 291.878 275.134 291.362 274.846C290.858 274.546 290.3 274.396 289.688 274.396C289.076 274.396 288.518 274.54 288.014 274.828C287.51 275.116 287.108 275.536 286.808 276.088C286.508 276.64 286.358 277.288 286.358 278.032C286.358 278.788 286.508 279.448 286.808 280.012C287.108 280.564 287.51 280.99 288.014 281.29C288.518 281.578 289.076 281.722 289.688 281.722C290.3 281.722 290.858 281.578 291.362 281.29C291.878 280.99 292.286 280.564 292.586 280.012C292.886 279.448 293.036 278.794 293.036 278.05ZM302.266 272.956C303.466 272.956 304.438 273.322 305.182 274.054C305.926 274.774 306.298 275.818 306.298 277.186V283H304.678V277.42C304.678 276.436 304.432 275.686 303.94 275.17C303.448 274.642 302.776 274.378 301.924 274.378C301.06 274.378 300.37 274.648 299.854 275.188C299.35 275.728 299.098 276.514 299.098 277.546V283H297.46V273.136H299.098V274.54C299.422 274.036 299.86 273.646 300.412 273.37C300.976 273.094 301.594 272.956 302.266 272.956ZM317.974 277.69C317.974 278.002 317.956 278.332 317.92 278.68H310.036C310.096 279.652 310.426 280.414 311.026 280.966C311.638 281.506 312.376 281.776 313.24 281.776C313.948 281.776 314.536 281.614 315.004 281.29C315.484 280.954 315.82 280.51 316.012 279.958H317.776C317.512 280.906 316.984 281.68 316.192 282.28C315.4 282.868 314.416 283.162 313.24 283.162C312.304 283.162 311.464 282.952 310.72 282.532C309.988 282.112 309.412 281.518 308.992 280.75C308.572 279.97 308.362 279.07 308.362 278.05C308.362 277.03 308.566 276.136 308.974 275.368C309.382 274.6 309.952 274.012 310.684 273.604C311.428 273.184 312.28 272.974 313.24 272.974C314.176 272.974 315.004 273.178 315.724 273.586C316.444 273.994 316.996 274.558 317.38 275.278C317.776 275.986 317.974 276.79 317.974 277.69ZM316.282 277.348C316.282 276.724 316.144 276.19 315.868 275.746C315.592 275.29 315.214 274.948 314.734 274.72C314.266 274.48 313.744 274.36 313.168 274.36C312.34 274.36 311.632 274.624 311.044 275.152C310.468 275.68 310.138 276.412 310.054 277.348H316.282ZM321.774 274.738C322.062 274.174 322.47 273.736 322.998 273.424C323.538 273.112 324.192 272.956 324.96 272.956V274.648H324.528C322.692 274.648 321.774 275.644 321.774 277.636V283H320.136V273.136H321.774V274.738ZM86.4553 306.486V312.3C86.4553 312.78 86.5573 313.122 86.7613 313.326C86.9653 313.518 87.3193 313.614 87.8233 313.614H89.0293V315H87.5533C86.6413 315 85.9573 314.79 85.5013 314.37C85.0453 313.95 84.8173 313.26 84.8173 312.3V306.486H83.5393V305.136H84.8173V302.652H86.4553V305.136H89.0293V306.486H86.4553ZM100.014 309.69C100.014 310.002 99.9959 310.332 99.9599 310.68H92.0759C92.1359 311.652 92.4659 312.414 93.0659 312.966C93.6779 313.506 94.4159 313.776 95.2799 313.776C95.9879 313.776 96.5759 313.614 97.0439 313.29C97.5239 312.954 97.8599 312.51 98.0519 311.958H99.8159C99.5519 312.906 99.0239 313.68 98.2319 314.28C97.4399 314.868 96.4559 315.162 95.2799 315.162C94.3439 315.162 93.5039 314.952 92.7599 314.532C92.0279 314.112 91.4519 313.518 91.0319 312.75C90.6119 311.97 90.4019 311.07 90.4019 310.05C90.4019 309.03 90.6059 308.136 91.0139 307.368C91.4219 306.6 91.9919 306.012 92.7239 305.604C93.4679 305.184 94.3199 304.974 95.2799 304.974C96.2159 304.974 97.0439 305.178 97.7639 305.586C98.4839 305.994 99.0359 306.558 99.4199 307.278C99.8159 307.986 100.014 308.79 100.014 309.69ZM98.3219 309.348C98.3219 308.724 98.1839 308.19 97.9079 307.746C97.6319 307.29 97.2539 306.948 96.7739 306.72C96.3059 306.48 95.7839 306.36 95.2079 306.36C94.3799 306.36 93.6719 306.624 93.0839 307.152C92.5079 307.68 92.1779 308.412 92.0939 309.348H98.3219ZM101.564 310.032C101.564 309.024 101.768 308.142 102.176 307.386C102.584 306.618 103.142 306.024 103.85 305.604C104.57 305.184 105.368 304.974 106.244 304.974C107.108 304.974 107.858 305.16 108.494 305.532C109.13 305.904 109.604 306.372 109.916 306.936V305.136H111.572V315H109.916V313.164C109.592 313.74 109.106 314.22 108.458 314.604C107.822 314.976 107.078 315.162 106.226 315.162C105.35 315.162 104.558 314.946 103.85 314.514C103.142 314.082 102.584 313.476 102.176 312.696C101.768 311.916 101.564 311.028 101.564 310.032ZM109.916 310.05C109.916 309.306 109.766 308.658 109.466 308.106C109.166 307.554 108.758 307.134 108.242 306.846C107.738 306.546 107.18 306.396 106.568 306.396C105.956 306.396 105.398 306.54 104.894 306.828C104.39 307.116 103.988 307.536 103.688 308.088C103.388 308.64 103.238 309.288 103.238 310.032C103.238 310.788 103.388 311.448 103.688 312.012C103.988 312.564 104.39 312.99 104.894 313.29C105.398 313.578 105.956 313.722 106.568 313.722C107.18 313.722 107.738 313.578 108.242 313.29C108.758 312.99 109.166 312.564 109.466 312.012C109.766 311.448 109.916 310.794 109.916 310.05ZM126.202 304.956C126.97 304.956 127.654 305.118 128.254 305.442C128.854 305.754 129.328 306.228 129.676 306.864C130.024 307.5 130.198 308.274 130.198 309.186V315H128.578V309.42C128.578 308.436 128.332 307.686 127.84 307.17C127.36 306.642 126.706 306.378 125.878 306.378C125.026 306.378 124.348 306.654 123.844 307.206C123.34 307.746 123.088 308.532 123.088 309.564V315H121.468V309.42C121.468 308.436 121.222 307.686 120.73 307.17C120.25 306.642 119.596 306.378 118.768 306.378C117.916 306.378 117.238 306.654 116.734 307.206C116.23 307.746 115.978 308.532 115.978 309.564V315H114.34V305.136H115.978V306.558C116.302 306.042 116.734 305.646 117.274 305.37C117.826 305.094 118.432 304.956 119.092 304.956C119.92 304.956 120.652 305.142 121.288 305.514C121.924 305.886 122.398 306.432 122.71 307.152C122.986 306.456 123.442 305.916 124.078 305.532C124.714 305.148 125.422 304.956 126.202 304.956ZM141.698 306.486H139.628V315H137.99V306.486H136.712V305.136H137.99V304.434C137.99 303.33 138.272 302.526 138.836 302.022C139.412 301.506 140.33 301.248 141.59 301.248V302.616C140.87 302.616 140.36 302.76 140.06 303.048C139.772 303.324 139.628 303.786 139.628 304.434V305.136H141.698V306.486ZM147.91 315.162C146.986 315.162 146.146 314.952 145.39 314.532C144.646 314.112 144.058 313.518 143.626 312.75C143.206 311.97 142.996 311.07 142.996 310.05C142.996 309.042 143.212 308.154 143.644 307.386C144.088 306.606 144.688 306.012 145.444 305.604C146.2 305.184 147.046 304.974 147.982 304.974C148.918 304.974 149.764 305.184 150.52 305.604C151.276 306.012 151.87 306.6 152.302 307.368C152.746 308.136 152.968 309.03 152.968 310.05C152.968 311.07 152.74 311.97 152.284 312.75C151.84 313.518 151.234 314.112 150.466 314.532C149.698 314.952 148.846 315.162 147.91 315.162ZM147.91 313.722C148.498 313.722 149.05 313.584 149.566 313.308C150.082 313.032 150.496 312.618 150.808 312.066C151.132 311.514 151.294 310.842 151.294 310.05C151.294 309.258 151.138 308.586 150.826 308.034C150.514 307.482 150.106 307.074 149.602 306.81C149.098 306.534 148.552 306.396 147.964 306.396C147.364 306.396 146.812 306.534 146.308 306.81C145.816 307.074 145.42 307.482 145.12 308.034C144.82 308.586 144.67 309.258 144.67 310.05C144.67 310.854 144.814 311.532 145.102 312.084C145.402 312.636 145.798 313.05 146.29 313.326C146.782 313.59 147.322 313.722 147.91 313.722ZM156.759 306.738C157.047 306.174 157.455 305.736 157.983 305.424C158.523 305.112 159.177 304.956 159.945 304.956V306.648H159.513C157.677 306.648 156.759 307.644 156.759 309.636V315H155.121V305.136H156.759V306.738ZM175.131 305.136L169.191 319.644H167.499L169.443 314.892L165.465 305.136H167.283L170.379 313.128L173.439 305.136H175.131ZM181.08 315.162C180.156 315.162 179.316 314.952 178.56 314.532C177.816 314.112 177.228 313.518 176.796 312.75C176.376 311.97 176.166 311.07 176.166 310.05C176.166 309.042 176.382 308.154 176.814 307.386C177.258 306.606 177.858 306.012 178.614 305.604C179.37 305.184 180.216 304.974 181.152 304.974C182.088 304.974 182.934 305.184 183.69 305.604C184.446 306.012 185.04 306.6 185.472 307.368C185.916 308.136 186.138 309.03 186.138 310.05C186.138 311.07 185.91 311.97 185.454 312.75C185.01 313.518 184.404 314.112 183.636 314.532C182.868 314.952 182.016 315.162 181.08 315.162ZM181.08 313.722C181.668 313.722 182.22 313.584 182.736 313.308C183.252 313.032 183.666 312.618 183.978 312.066C184.302 311.514 184.464 310.842 184.464 310.05C184.464 309.258 184.308 308.586 183.996 308.034C183.684 307.482 183.276 307.074 182.772 306.81C182.268 306.534 181.722 306.396 181.134 306.396C180.534 306.396 179.982 306.534 179.478 306.81C178.986 307.074 178.59 307.482 178.29 308.034C177.99 308.586 177.84 309.258 177.84 310.05C177.84 310.854 177.984 311.532 178.272 312.084C178.572 312.636 178.968 313.05 179.46 313.326C179.952 313.59 180.492 313.722 181.08 313.722ZM197.039 305.136V315H195.401V313.542C195.089 314.046 194.651 314.442 194.087 314.73C193.535 315.006 192.923 315.144 192.251 315.144C191.483 315.144 190.793 314.988 190.181 314.676C189.569 314.352 189.083 313.872 188.723 313.236C188.375 312.6 188.201 311.826 188.201 310.914V305.136H189.821V310.698C189.821 311.67 190.067 312.42 190.559 312.948C191.051 313.464 191.723 313.722 192.575 313.722C193.451 313.722 194.141 313.452 194.645 312.912C195.149 312.372 195.401 311.586 195.401 310.554V305.136H197.039ZM201.443 306.738C201.731 306.174 202.139 305.736 202.667 305.424C203.207 305.112 203.861 304.956 204.629 304.956V306.648H204.197C202.361 306.648 201.443 307.644 201.443 309.636V315H199.805V305.136H201.443V306.738ZM212.957 306.972C213.293 306.384 213.785 305.904 214.433 305.532C215.081 305.16 215.819 304.974 216.647 304.974C217.535 304.974 218.333 305.184 219.041 305.604C219.749 306.024 220.307 306.618 220.715 307.386C221.123 308.142 221.327 309.024 221.327 310.032C221.327 311.028 221.123 311.916 220.715 312.696C220.307 313.476 219.743 314.082 219.023 314.514C218.315 314.946 217.523 315.162 216.647 315.162C215.795 315.162 215.045 314.976 214.397 314.604C213.761 314.232 213.281 313.758 212.957 313.182V315H211.319V301.68H212.957V306.972ZM219.653 310.032C219.653 309.288 219.503 308.64 219.203 308.088C218.903 307.536 218.495 307.116 217.979 306.828C217.475 306.54 216.917 306.396 216.305 306.396C215.705 306.396 215.147 306.546 214.631 306.846C214.127 307.134 213.719 307.56 213.407 308.124C213.107 308.676 212.957 309.318 212.957 310.05C212.957 310.794 213.107 311.448 213.407 312.012C213.719 312.564 214.127 312.99 214.631 313.29C215.147 313.578 215.705 313.722 216.305 313.722C216.917 313.722 217.475 313.578 217.979 313.29C218.495 312.99 218.903 312.564 219.203 312.012C219.503 311.448 219.653 310.788 219.653 310.032ZM232.231 305.136V315H230.593V313.542C230.281 314.046 229.843 314.442 229.279 314.73C228.727 315.006 228.115 315.144 227.443 315.144C226.675 315.144 225.985 314.988 225.373 314.676C224.761 314.352 224.275 313.872 223.915 313.236C223.567 312.6 223.393 311.826 223.393 310.914V305.136H225.013V310.698C225.013 311.67 225.259 312.42 225.751 312.948C226.243 313.464 226.915 313.722 227.767 313.722C228.643 313.722 229.333 313.452 229.837 312.912C230.341 312.372 230.593 311.586 230.593 310.554V305.136H232.231ZM238.488 315.162C237.732 315.162 237.054 315.036 236.454 314.784C235.854 314.52 235.38 314.16 235.032 313.704C234.684 313.236 234.492 312.702 234.456 312.102H236.148C236.196 312.594 236.424 312.996 236.832 313.308C237.252 313.62 237.798 313.776 238.47 313.776C239.094 313.776 239.586 313.638 239.946 313.362C240.306 313.086 240.486 312.738 240.486 312.318C240.486 311.886 240.294 311.568 239.91 311.364C239.526 311.148 238.932 310.938 238.128 310.734C237.396 310.542 236.796 310.35 236.328 310.158C235.872 309.954 235.476 309.66 235.14 309.276C234.816 308.88 234.654 308.364 234.654 307.728C234.654 307.224 234.804 306.762 235.104 306.342C235.404 305.922 235.83 305.592 236.382 305.352C236.934 305.1 237.564 304.974 238.272 304.974C239.364 304.974 240.246 305.25 240.918 305.802C241.59 306.354 241.95 307.11 241.998 308.07H240.36C240.324 307.554 240.114 307.14 239.73 306.828C239.358 306.516 238.854 306.36 238.218 306.36C237.63 306.36 237.162 306.486 236.814 306.738C236.466 306.99 236.292 307.32 236.292 307.728C236.292 308.052 236.394 308.322 236.598 308.538C236.814 308.742 237.078 308.91 237.39 309.042C237.714 309.162 238.158 309.3 238.722 309.456C239.43 309.648 240.006 309.84 240.45 310.032C240.894 310.212 241.272 310.488 241.584 310.86C241.908 311.232 242.076 311.718 242.088 312.318C242.088 312.858 241.938 313.344 241.638 313.776C241.338 314.208 240.912 314.55 240.36 314.802C239.82 315.042 239.196 315.162 238.488 315.162ZM245.247 303.534C244.935 303.534 244.671 303.426 244.455 303.21C244.239 302.994 244.131 302.73 244.131 302.418C244.131 302.106 244.239 301.842 244.455 301.626C244.671 301.41 244.935 301.302 245.247 301.302C245.547 301.302 245.799 301.41 246.003 301.626C246.219 301.842 246.327 302.106 246.327 302.418C246.327 302.73 246.219 302.994 246.003 303.21C245.799 303.426 245.547 303.534 245.247 303.534ZM246.039 305.136V315H244.401V305.136H246.039ZM253.636 304.956C254.836 304.956 255.808 305.322 256.552 306.054C257.296 306.774 257.668 307.818 257.668 309.186V315H256.048V309.42C256.048 308.436 255.802 307.686 255.31 307.17C254.818 306.642 254.146 306.378 253.294 306.378C252.43 306.378 251.74 306.648 251.224 307.188C250.72 307.728 250.468 308.514 250.468 309.546V315H248.83V305.136H250.468V306.54C250.792 306.036 251.23 305.646 251.782 305.37C252.346 305.094 252.964 304.956 253.636 304.956ZM269.344 309.69C269.344 310.002 269.326 310.332 269.29 310.68H261.406C261.466 311.652 261.796 312.414 262.396 312.966C263.008 313.506 263.746 313.776 264.61 313.776C265.318 313.776 265.906 313.614 266.374 313.29C266.854 312.954 267.19 312.51 267.382 311.958H269.146C268.882 312.906 268.354 313.68 267.562 314.28C266.77 314.868 265.786 315.162 264.61 315.162C263.674 315.162 262.834 314.952 262.09 314.532C261.358 314.112 260.782 313.518 260.362 312.75C259.942 311.97 259.732 311.07 259.732 310.05C259.732 309.03 259.936 308.136 260.344 307.368C260.752 306.6 261.322 306.012 262.054 305.604C262.798 305.184 263.65 304.974 264.61 304.974C265.546 304.974 266.374 305.178 267.094 305.586C267.814 305.994 268.366 306.558 268.75 307.278C269.146 307.986 269.344 308.79 269.344 309.69ZM267.652 309.348C267.652 308.724 267.514 308.19 267.238 307.746C266.962 307.29 266.584 306.948 266.104 306.72C265.636 306.48 265.114 306.36 264.538 306.36C263.71 306.36 263.002 306.624 262.414 307.152C261.838 307.68 261.508 308.412 261.424 309.348H267.652ZM274.998 315.162C274.242 315.162 273.564 315.036 272.964 314.784C272.364 314.52 271.89 314.16 271.542 313.704C271.194 313.236 271.002 312.702 270.966 312.102H272.658C272.706 312.594 272.934 312.996 273.342 313.308C273.762 313.62 274.308 313.776 274.98 313.776C275.604 313.776 276.096 313.638 276.456 313.362C276.816 313.086 276.996 312.738 276.996 312.318C276.996 311.886 276.804 311.568 276.42 311.364C276.036 311.148 275.442 310.938 274.638 310.734C273.906 310.542 273.306 310.35 272.838 310.158C272.382 309.954 271.986 309.66 271.65 309.276C271.326 308.88 271.164 308.364 271.164 307.728C271.164 307.224 271.314 306.762 271.614 306.342C271.914 305.922 272.34 305.592 272.892 305.352C273.444 305.1 274.074 304.974 274.782 304.974C275.874 304.974 276.756 305.25 277.428 305.802C278.1 306.354 278.46 307.11 278.508 308.07H276.87C276.834 307.554 276.624 307.14 276.24 306.828C275.868 306.516 275.364 306.36 274.728 306.36C274.14 306.36 273.672 306.486 273.324 306.738C272.976 306.99 272.802 307.32 272.802 307.728C272.802 308.052 272.904 308.322 273.108 308.538C273.324 308.742 273.588 308.91 273.9 309.042C274.224 309.162 274.668 309.3 275.232 309.456C275.94 309.648 276.516 309.84 276.96 310.032C277.404 310.212 277.782 310.488 278.094 310.86C278.418 311.232 278.586 311.718 278.598 312.318C278.598 312.858 278.448 313.344 278.148 313.776C277.848 314.208 277.422 314.55 276.87 314.802C276.33 315.042 275.706 315.162 274.998 315.162ZM284.402 315.162C283.646 315.162 282.968 315.036 282.368 314.784C281.768 314.52 281.294 314.16 280.946 313.704C280.598 313.236 280.406 312.702 280.37 312.102H282.062C282.11 312.594 282.338 312.996 282.746 313.308C283.166 313.62 283.712 313.776 284.384 313.776C285.008 313.776 285.5 313.638 285.86 313.362C286.22 313.086 286.4 312.738 286.4 312.318C286.4 311.886 286.208 311.568 285.824 311.364C285.44 311.148 284.846 310.938 284.042 310.734C283.31 310.542 282.71 310.35 282.242 310.158C281.786 309.954 281.39 309.66 281.054 309.276C280.73 308.88 280.568 308.364 280.568 307.728C280.568 307.224 280.718 306.762 281.018 306.342C281.318 305.922 281.744 305.592 282.296 305.352C282.848 305.1 283.478 304.974 284.186 304.974C285.278 304.974 286.16 305.25 286.832 305.802C287.504 306.354 287.864 307.11 287.912 308.07H286.274C286.238 307.554 286.028 307.14 285.644 306.828C285.272 306.516 284.768 306.36 284.132 306.36C283.544 306.36 283.076 306.486 282.728 306.738C282.38 306.99 282.206 307.32 282.206 307.728C282.206 308.052 282.308 308.322 282.512 308.538C282.728 308.742 282.992 308.91 283.304 309.042C283.628 309.162 284.072 309.3 284.636 309.456C285.344 309.648 285.92 309.84 286.364 310.032C286.808 310.212 287.186 310.488 287.498 310.86C287.822 311.232 287.99 311.718 288.002 312.318C288.002 312.858 287.852 313.344 287.552 313.776C287.252 314.208 286.826 314.55 286.274 314.802C285.734 315.042 285.11 315.162 284.402 315.162Z" fill="white"/>
<g clip-path="url(#clip0_2111_16)">
<circle cx="186" cy="391.5" r="22.5" fill="#F3F4F6"/>
<path d="M185.911 396.411L187.089 397.589L192.678 392L187.089 386.411L185.911 387.589L189.488 391.166H181.5V392.833H189.488L185.911 396.411Z" fill="#4C40F7"/>
</g>
</g>
<defs>
<filter id="filter0_d_2111_16" x="0" y="0" width="372" height="478" filterUnits="userSpaceOnUse" color-interpolation-filters="sRGB">
<feFlood flood-opacity="0" result="BackgroundImageFix"/>
<feColorMatrix in="SourceAlpha" type="matrix" values="0 0 0 0 0 0 0 0 0 0 0 0 0 0 0 0 0 0 127 0" result="hardAlpha"/>
<feOffset dy="10"/>
<feGaussianBlur stdDeviation="5"/>
<feComposite in2="hardAlpha" operator="out"/>
<feColorMatrix type="matrix" values="0 0 0 0 0.603846 0 0 0 0 0.874549 0 0 0 0 1 0 0 0 0.25 0"/>
<feBlend mode="normal" in2="BackgroundImageFix" result="effect1_dropShadow_2111_16"/>
<feBlend mode="normal" in="SourceGraphic" in2="effect1_dropShadow_2111_16" result="shape"/>
</filter>
<filter id="filter1_d_2111_16" x="107.5" y="29" width="157" height="157" filterUnits="userSpaceOnUse" color-interpolation-filters="sRGB">
<feFlood flood-opacity="0" result="BackgroundImageFix"/>
<feColorMatrix in="SourceAlpha" type="matrix" values="0 0 0 0 0 0 0 0 0 0 0 0 0 0 0 0 0 0 127 0" result="hardAlpha"/>
<feOffset dy="15"/>
<feGaussianBlur stdDeviation="15"/>
<feComposite in2="hardAlpha" operator="out"/>
<feColorMatrix type="matrix" values="0 0 0 0 1 0 0 0 0 1 0 0 0 0 1 0 0 0 1 0"/>
<feBlend mode="normal" in2="BackgroundImageFix" result="effect1_dropShadow_2111_16"/>
<feBlend mode="normal" in="SourceGraphic" in2="effect1_dropShadow_2111_16" result="shape"/>
</filter>
<clipPath id="clip0_2111_16">
<rect width="45" height="45" fill="white" transform="translate(163.5 369)"/>
</clipPath>
</defs>
</svg>
