<svg width="372" height="478" viewBox="0 0 372 478" fill="none" xmlns="http://www.w3.org/2000/svg">
<g filter="url(#filter0_d_2104_36)">
<rect x="10" width="352" height="458" rx="20" fill="#4C40F7" shape-rendering="crispEdges"/>
<g filter="url(#filter1_d_2104_36)">
<circle cx="186" cy="92.5" r="48.5" fill="white"/>
<path d="M199.333 78H172.667C170.828 78 169.333 79.495 169.333 81.3333V99.6667C169.333 101.505 170.828 103 172.667 103H184.333V106.333H179.333V109.667H192.667V106.333H187.667V103H199.333C201.172 103 202.667 101.505 202.667 99.6667V81.3333C202.667 79.495 201.172 78 199.333 78ZM172.667 96.3333V81.3333H199.333L199.337 96.3333H172.667Z" fill="#4C40F7"/>
</g>
<path d="M111.89 192.04L107.99 206H104.69L102.07 196.06L99.3296 206L96.0496 206.02L92.2896 192.04H95.2896L97.7496 202.88L100.59 192.04H103.71L106.39 202.82L108.87 192.04H111.89ZM124.018 200.22C124.018 200.62 123.991 200.98 123.938 201.3H115.838C115.905 202.1 116.185 202.727 116.678 203.18C117.171 203.633 117.778 203.86 118.498 203.86C119.538 203.86 120.278 203.413 120.718 202.52H123.738C123.418 203.587 122.805 204.467 121.898 205.16C120.991 205.84 119.878 206.18 118.558 206.18C117.491 206.18 116.531 205.947 115.678 205.48C114.838 205 114.178 204.327 113.698 203.46C113.231 202.593 112.998 201.593 112.998 200.46C112.998 199.313 113.231 198.307 113.698 197.44C114.165 196.573 114.818 195.907 115.658 195.44C116.498 194.973 117.465 194.74 118.558 194.74C119.611 194.74 120.551 194.967 121.378 195.42C122.218 195.873 122.865 196.52 123.318 197.36C123.785 198.187 124.018 199.14 124.018 200.22ZM121.118 199.42C121.105 198.7 120.845 198.127 120.338 197.7C119.831 197.26 119.211 197.04 118.478 197.04C117.785 197.04 117.198 197.253 116.718 197.68C116.251 198.093 115.965 198.673 115.858 199.42H121.118ZM128.862 196.54C129.222 196.007 129.715 195.573 130.342 195.24C130.982 194.907 131.708 194.74 132.522 194.74C133.468 194.74 134.322 194.973 135.082 195.44C135.855 195.907 136.462 196.573 136.902 197.44C137.355 198.293 137.582 199.287 137.582 200.42C137.582 201.553 137.355 202.56 136.902 203.44C136.462 204.307 135.855 204.98 135.082 205.46C134.322 205.94 133.468 206.18 132.522 206.18C131.695 206.18 130.968 206.02 130.342 205.7C129.728 205.367 129.235 204.94 128.862 204.42V206H126.062V191.2H128.862V196.54ZM134.722 200.42C134.722 199.753 134.582 199.18 134.302 198.7C134.035 198.207 133.675 197.833 133.222 197.58C132.782 197.327 132.302 197.2 131.782 197.2C131.275 197.2 130.795 197.333 130.342 197.6C129.902 197.853 129.542 198.227 129.262 198.72C128.995 199.213 128.862 199.793 128.862 200.46C128.862 201.127 128.995 201.707 129.262 202.2C129.542 202.693 129.902 203.073 130.342 203.34C130.795 203.593 131.275 203.72 131.782 203.72C132.302 203.72 132.782 203.587 133.222 203.32C133.675 203.053 134.035 202.673 134.302 202.18C134.582 201.687 134.722 201.1 134.722 200.42ZM149.262 192.04C150.729 192.04 152.015 192.327 153.122 192.9C154.242 193.473 155.102 194.293 155.702 195.36C156.315 196.413 156.622 197.64 156.622 199.04C156.622 200.44 156.315 201.667 155.702 202.72C155.102 203.76 154.242 204.567 153.122 205.14C152.015 205.713 150.729 206 149.262 206H144.382V192.04H149.262ZM149.162 203.62C150.629 203.62 151.762 203.22 152.562 202.42C153.362 201.62 153.762 200.493 153.762 199.04C153.762 197.587 153.362 196.453 152.562 195.64C151.762 194.813 150.629 194.4 149.162 194.4H147.182V203.62H149.162ZM169.018 200.22C169.018 200.62 168.991 200.98 168.938 201.3H160.838C160.905 202.1 161.185 202.727 161.678 203.18C162.171 203.633 162.778 203.86 163.498 203.86C164.538 203.86 165.278 203.413 165.718 202.52H168.738C168.418 203.587 167.805 204.467 166.898 205.16C165.991 205.84 164.878 206.18 163.558 206.18C162.491 206.18 161.531 205.947 160.678 205.48C159.838 205 159.178 204.327 158.698 203.46C158.231 202.593 157.998 201.593 157.998 200.46C157.998 199.313 158.231 198.307 158.698 197.44C159.165 196.573 159.818 195.907 160.658 195.44C161.498 194.973 162.465 194.74 163.558 194.74C164.611 194.74 165.551 194.967 166.378 195.42C167.218 195.873 167.865 196.52 168.318 197.36C168.785 198.187 169.018 199.14 169.018 200.22ZM166.118 199.42C166.105 198.7 165.845 198.127 165.338 197.7C164.831 197.26 164.211 197.04 163.478 197.04C162.785 197.04 162.198 197.253 161.718 197.68C161.251 198.093 160.965 198.673 160.858 199.42H166.118ZM175.682 203.42L178.482 194.92H181.462L177.362 206H173.962L169.882 194.92H172.882L175.682 203.42ZM193.334 200.22C193.334 200.62 193.308 200.98 193.254 201.3H185.154C185.221 202.1 185.501 202.727 185.994 203.18C186.488 203.633 187.094 203.86 187.814 203.86C188.854 203.86 189.594 203.413 190.034 202.52H193.054C192.734 203.587 192.121 204.467 191.214 205.16C190.308 205.84 189.194 206.18 187.874 206.18C186.808 206.18 185.848 205.947 184.994 205.48C184.154 205 183.494 204.327 183.014 203.46C182.548 202.593 182.314 201.593 182.314 200.46C182.314 199.313 182.548 198.307 183.014 197.44C183.481 196.573 184.134 195.907 184.974 195.44C185.814 194.973 186.781 194.74 187.874 194.74C188.928 194.74 189.868 194.967 190.694 195.42C191.534 195.873 192.181 196.52 192.634 197.36C193.101 198.187 193.334 199.14 193.334 200.22ZM190.434 199.42C190.421 198.7 190.161 198.127 189.654 197.7C189.148 197.26 188.528 197.04 187.794 197.04C187.101 197.04 186.514 197.253 186.034 197.68C185.568 198.093 185.281 198.673 185.174 199.42H190.434ZM198.178 191.2V206H195.378V191.2H198.178ZM205.864 206.18C204.798 206.18 203.838 205.947 202.984 205.48C202.131 205 201.458 204.327 200.964 203.46C200.484 202.593 200.244 201.593 200.244 200.46C200.244 199.327 200.491 198.327 200.984 197.46C201.491 196.593 202.178 195.927 203.044 195.46C203.911 194.98 204.878 194.74 205.944 194.74C207.011 194.74 207.978 194.98 208.844 195.46C209.711 195.927 210.391 196.593 210.884 197.46C211.391 198.327 211.644 199.327 211.644 200.46C211.644 201.593 211.384 202.593 210.864 203.46C210.358 204.327 209.664 205 208.784 205.48C207.918 205.947 206.944 206.18 205.864 206.18ZM205.864 203.74C206.371 203.74 206.844 203.62 207.284 203.38C207.738 203.127 208.098 202.753 208.364 202.26C208.631 201.767 208.764 201.167 208.764 200.46C208.764 199.407 208.484 198.6 207.924 198.04C207.378 197.467 206.704 197.18 205.904 197.18C205.104 197.18 204.431 197.467 203.884 198.04C203.351 198.6 203.084 199.407 203.084 200.46C203.084 201.513 203.344 202.327 203.864 202.9C204.398 203.46 205.064 203.74 205.864 203.74ZM216.498 196.52C216.858 196.013 217.352 195.593 217.978 195.26C218.618 194.913 219.345 194.74 220.158 194.74C221.105 194.74 221.958 194.973 222.718 195.44C223.492 195.907 224.098 196.573 224.538 197.44C224.992 198.293 225.218 199.287 225.218 200.42C225.218 201.553 224.992 202.56 224.538 203.44C224.098 204.307 223.492 204.98 222.718 205.46C221.958 205.94 221.105 206.18 220.158 206.18C219.345 206.18 218.625 206.013 217.998 205.68C217.385 205.347 216.885 204.927 216.498 204.42V211.28H213.698V194.92H216.498V196.52ZM222.358 200.42C222.358 199.753 222.218 199.18 221.938 198.7C221.672 198.207 221.312 197.833 220.858 197.58C220.418 197.327 219.938 197.2 219.418 197.2C218.912 197.2 218.432 197.333 217.978 197.6C217.538 197.853 217.178 198.227 216.898 198.72C216.632 199.213 216.498 199.793 216.498 200.46C216.498 201.127 216.632 201.707 216.898 202.2C217.178 202.693 217.538 203.073 217.978 203.34C218.432 203.593 218.912 203.72 219.418 203.72C219.938 203.72 220.418 203.587 220.858 203.32C221.312 203.053 221.672 202.673 221.938 202.18C222.218 201.687 222.358 201.1 222.358 200.42ZM241.013 194.76C242.373 194.76 243.466 195.18 244.293 196.02C245.133 196.847 245.553 198.007 245.553 199.5V206H242.753V199.88C242.753 199.013 242.533 198.353 242.093 197.9C241.653 197.433 241.053 197.2 240.293 197.2C239.533 197.2 238.926 197.433 238.473 197.9C238.033 198.353 237.813 199.013 237.813 199.88V206H235.013V199.88C235.013 199.013 234.793 198.353 234.353 197.9C233.913 197.433 233.313 197.2 232.553 197.2C231.78 197.2 231.166 197.433 230.713 197.9C230.273 198.353 230.053 199.013 230.053 199.88V206H227.253V194.92H230.053V196.26C230.413 195.793 230.873 195.427 231.433 195.16C232.006 194.893 232.633 194.76 233.313 194.76C234.18 194.76 234.953 194.947 235.633 195.32C236.313 195.68 236.84 196.2 237.213 196.88C237.573 196.24 238.093 195.727 238.773 195.34C239.466 194.953 240.213 194.76 241.013 194.76ZM258.51 200.22C258.51 200.62 258.483 200.98 258.43 201.3H250.33C250.397 202.1 250.677 202.727 251.17 203.18C251.663 203.633 252.27 203.86 252.99 203.86C254.03 203.86 254.77 203.413 255.21 202.52H258.23C257.91 203.587 257.297 204.467 256.39 205.16C255.483 205.84 254.37 206.18 253.05 206.18C251.983 206.18 251.023 205.947 250.17 205.48C249.33 205 248.67 204.327 248.19 203.46C247.723 202.593 247.49 201.593 247.49 200.46C247.49 199.313 247.723 198.307 248.19 197.44C248.657 196.573 249.31 195.907 250.15 195.44C250.99 194.973 251.957 194.74 253.05 194.74C254.103 194.74 255.043 194.967 255.87 195.42C256.71 195.873 257.357 196.52 257.81 197.36C258.277 198.187 258.51 199.14 258.51 200.22ZM255.61 199.42C255.597 198.7 255.337 198.127 254.83 197.7C254.323 197.26 253.703 197.04 252.97 197.04C252.277 197.04 251.69 197.253 251.21 197.68C250.743 198.093 250.457 198.673 250.35 199.42H255.61ZM266.694 194.76C268.014 194.76 269.08 195.18 269.894 196.02C270.707 196.847 271.114 198.007 271.114 199.5V206H268.314V199.88C268.314 199 268.094 198.327 267.654 197.86C267.214 197.38 266.614 197.14 265.854 197.14C265.08 197.14 264.467 197.38 264.014 197.86C263.574 198.327 263.354 199 263.354 199.88V206H260.554V194.92H263.354V196.3C263.727 195.82 264.2 195.447 264.774 195.18C265.36 194.9 266 194.76 266.694 194.76ZM277.036 197.22V202.58C277.036 202.953 277.123 203.227 277.296 203.4C277.483 203.56 277.79 203.64 278.216 203.64H279.516V206H277.756C275.396 206 274.216 204.853 274.216 202.56V197.22H272.896V194.92H274.216V192.18H277.036V194.92H279.516V197.22H277.036Z" fill="white"/>
<path d="M82.1286 238.454L78.4926 251H76.6566L73.7406 240.902L70.7166 251L68.8986 251.018L65.3886 238.454H67.1346L69.8706 249.092L72.8946 238.454H74.7306L77.6106 249.056L80.3646 238.454H82.1286ZM92.9212 245.69C92.9212 246.002 92.9032 246.332 92.8672 246.68H84.9832C85.0432 247.652 85.3732 248.414 85.9732 248.966C86.5852 249.506 87.3232 249.776 88.1872 249.776C88.8952 249.776 89.4832 249.614 89.9512 249.29C90.4312 248.954 90.7672 248.51 90.9592 247.958H92.7232C92.4592 248.906 91.9312 249.68 91.1392 250.28C90.3472 250.868 89.3632 251.162 88.1872 251.162C87.2512 251.162 86.4112 250.952 85.6672 250.532C84.9352 250.112 84.3592 249.518 83.9392 248.75C83.5192 247.97 83.3092 247.07 83.3092 246.05C83.3092 245.03 83.5132 244.136 83.9212 243.368C84.3292 242.6 84.8992 242.012 85.6312 241.604C86.3752 241.184 87.2272 240.974 88.1872 240.974C89.1232 240.974 89.9512 241.178 90.6712 241.586C91.3912 241.994 91.9432 242.558 92.3272 243.278C92.7232 243.986 92.9212 244.79 92.9212 245.69ZM91.2292 245.348C91.2292 244.724 91.0912 244.19 90.8152 243.746C90.5392 243.29 90.1612 242.948 89.6812 242.72C89.2132 242.48 88.6912 242.36 88.1152 242.36C87.2872 242.36 86.5792 242.624 85.9912 243.152C85.4152 243.68 85.0852 244.412 85.0012 245.348H91.2292ZM104.778 240.956C105.522 240.956 106.194 241.118 106.794 241.442C107.394 241.754 107.862 242.228 108.198 242.864C108.546 243.5 108.72 244.274 108.72 245.186V251H107.1V245.42C107.1 244.436 106.854 243.686 106.362 243.17C105.87 242.642 105.198 242.378 104.346 242.378C103.482 242.378 102.792 242.648 102.276 243.188C101.772 243.728 101.52 244.514 101.52 245.546V251H99.8821V237.68H101.52V242.54C101.844 242.036 102.288 241.646 102.852 241.37C103.428 241.094 104.07 240.956 104.778 240.956ZM120.396 245.69C120.396 246.002 120.378 246.332 120.342 246.68H112.458C112.518 247.652 112.848 248.414 113.448 248.966C114.06 249.506 114.798 249.776 115.662 249.776C116.37 249.776 116.958 249.614 117.426 249.29C117.906 248.954 118.242 248.51 118.434 247.958H120.198C119.934 248.906 119.406 249.68 118.614 250.28C117.822 250.868 116.838 251.162 115.662 251.162C114.726 251.162 113.886 250.952 113.142 250.532C112.41 250.112 111.834 249.518 111.414 248.75C110.994 247.97 110.784 247.07 110.784 246.05C110.784 245.03 110.988 244.136 111.396 243.368C111.804 242.6 112.374 242.012 113.106 241.604C113.85 241.184 114.702 240.974 115.662 240.974C116.598 240.974 117.426 241.178 118.146 241.586C118.866 241.994 119.418 242.558 119.802 243.278C120.198 243.986 120.396 244.79 120.396 245.69ZM118.704 245.348C118.704 244.724 118.566 244.19 118.29 243.746C118.014 243.29 117.636 242.948 117.156 242.72C116.688 242.48 116.166 242.36 115.59 242.36C114.762 242.36 114.054 242.624 113.466 243.152C112.89 243.68 112.56 244.412 112.476 245.348H118.704ZM124.196 237.68V251H122.558V237.68H124.196ZM128.626 242.954C128.95 242.39 129.43 241.922 130.066 241.55C130.714 241.166 131.464 240.974 132.316 240.974C133.192 240.974 133.984 241.184 134.692 241.604C135.412 242.024 135.976 242.618 136.384 243.386C136.792 244.142 136.996 245.024 136.996 246.032C136.996 247.028 136.792 247.916 136.384 248.696C135.976 249.476 135.412 250.082 134.692 250.514C133.984 250.946 133.192 251.162 132.316 251.162C131.476 251.162 130.732 250.976 130.084 250.604C129.448 250.22 128.962 249.746 128.626 249.182V255.68H126.988V241.136H128.626V242.954ZM135.322 246.032C135.322 245.288 135.172 244.64 134.872 244.088C134.572 243.536 134.164 243.116 133.648 242.828C133.144 242.54 132.586 242.396 131.974 242.396C131.374 242.396 130.816 242.546 130.3 242.846C129.796 243.134 129.388 243.56 129.076 244.124C128.776 244.676 128.626 245.318 128.626 246.05C128.626 246.794 128.776 247.448 129.076 248.012C129.388 248.564 129.796 248.99 130.3 249.29C130.816 249.578 131.374 249.722 131.974 249.722C132.586 249.722 133.144 249.578 133.648 249.29C134.164 248.99 134.572 248.564 134.872 248.012C135.172 247.448 135.322 246.788 135.322 246.032ZM143.338 246.032C143.338 245.024 143.542 244.142 143.95 243.386C144.358 242.618 144.916 242.024 145.624 241.604C146.344 241.184 147.148 240.974 148.036 240.974C148.804 240.974 149.518 241.154 150.178 241.514C150.838 241.862 151.342 242.324 151.69 242.9V237.68H153.346V251H151.69V249.146C151.366 249.734 150.886 250.22 150.25 250.604C149.614 250.976 148.87 251.162 148.018 251.162C147.142 251.162 146.344 250.946 145.624 250.514C144.916 250.082 144.358 249.476 143.95 248.696C143.542 247.916 143.338 247.028 143.338 246.032ZM151.69 246.05C151.69 245.306 151.54 244.658 151.24 244.106C150.94 243.554 150.532 243.134 150.016 242.846C149.512 242.546 148.954 242.396 148.342 242.396C147.73 242.396 147.172 242.54 146.668 242.828C146.164 243.116 145.762 243.536 145.462 244.088C145.162 244.64 145.012 245.288 145.012 246.032C145.012 246.788 145.162 247.448 145.462 248.012C145.762 248.564 146.164 248.99 146.668 249.29C147.172 249.578 147.73 249.722 148.342 249.722C148.954 249.722 149.512 249.578 150.016 249.29C150.532 248.99 150.94 248.564 151.24 248.012C151.54 247.448 151.69 246.794 151.69 246.05ZM165.115 245.69C165.115 246.002 165.097 246.332 165.061 246.68H157.177C157.237 247.652 157.567 248.414 158.167 248.966C158.779 249.506 159.517 249.776 160.381 249.776C161.089 249.776 161.677 249.614 162.145 249.29C162.625 248.954 162.961 248.51 163.153 247.958H164.917C164.653 248.906 164.125 249.68 163.333 250.28C162.541 250.868 161.557 251.162 160.381 251.162C159.445 251.162 158.605 250.952 157.861 250.532C157.129 250.112 156.553 249.518 156.133 248.75C155.713 247.97 155.503 247.07 155.503 246.05C155.503 245.03 155.707 244.136 156.115 243.368C156.523 242.6 157.093 242.012 157.825 241.604C158.569 241.184 159.421 240.974 160.381 240.974C161.317 240.974 162.145 241.178 162.865 241.586C163.585 241.994 164.137 242.558 164.521 243.278C164.917 243.986 165.115 244.79 165.115 245.69ZM163.423 245.348C163.423 244.724 163.285 244.19 163.009 243.746C162.733 243.29 162.355 242.948 161.875 242.72C161.407 242.48 160.885 242.36 160.309 242.36C159.481 242.36 158.773 242.624 158.185 243.152C157.609 243.68 157.279 244.412 157.195 245.348H163.423ZM170.949 249.488L174.009 241.136H175.755L171.885 251H169.977L166.107 241.136H167.871L170.949 249.488ZM186.366 245.69C186.366 246.002 186.348 246.332 186.312 246.68H178.428C178.488 247.652 178.818 248.414 179.418 248.966C180.03 249.506 180.768 249.776 181.632 249.776C182.34 249.776 182.928 249.614 183.396 249.29C183.876 248.954 184.212 248.51 184.404 247.958H186.168C185.904 248.906 185.376 249.68 184.584 250.28C183.792 250.868 182.808 251.162 181.632 251.162C180.696 251.162 179.856 250.952 179.112 250.532C178.38 250.112 177.804 249.518 177.384 248.75C176.964 247.97 176.754 247.07 176.754 246.05C176.754 245.03 176.958 244.136 177.366 243.368C177.774 242.6 178.344 242.012 179.076 241.604C179.82 241.184 180.672 240.974 181.632 240.974C182.568 240.974 183.396 241.178 184.116 241.586C184.836 241.994 185.388 242.558 185.772 243.278C186.168 243.986 186.366 244.79 186.366 245.69ZM184.674 245.348C184.674 244.724 184.536 244.19 184.26 243.746C183.984 243.29 183.606 242.948 183.126 242.72C182.658 242.48 182.136 242.36 181.56 242.36C180.732 242.36 180.024 242.624 179.436 243.152C178.86 243.68 178.53 244.412 178.446 245.348H184.674ZM190.167 237.68V251H188.529V237.68H190.167ZM197.26 251.162C196.336 251.162 195.496 250.952 194.74 250.532C193.996 250.112 193.408 249.518 192.976 248.75C192.556 247.97 192.346 247.07 192.346 246.05C192.346 245.042 192.562 244.154 192.994 243.386C193.438 242.606 194.038 242.012 194.794 241.604C195.55 241.184 196.396 240.974 197.332 240.974C198.268 240.974 199.114 241.184 199.87 241.604C200.626 242.012 201.22 242.6 201.652 243.368C202.096 244.136 202.318 245.03 202.318 246.05C202.318 247.07 202.09 247.97 201.634 248.75C201.19 249.518 200.584 250.112 199.816 250.532C199.048 250.952 198.196 251.162 197.26 251.162ZM197.26 249.722C197.848 249.722 198.4 249.584 198.916 249.308C199.432 249.032 199.846 248.618 200.158 248.066C200.482 247.514 200.644 246.842 200.644 246.05C200.644 245.258 200.488 244.586 200.176 244.034C199.864 243.482 199.456 243.074 198.952 242.81C198.448 242.534 197.902 242.396 197.314 242.396C196.714 242.396 196.162 242.534 195.658 242.81C195.166 243.074 194.77 243.482 194.47 244.034C194.17 244.586 194.02 245.258 194.02 246.05C194.02 246.854 194.164 247.532 194.452 248.084C194.752 248.636 195.148 249.05 195.64 249.326C196.132 249.59 196.672 249.722 197.26 249.722ZM206.11 242.954C206.434 242.39 206.914 241.922 207.55 241.55C208.198 241.166 208.948 240.974 209.8 240.974C210.676 240.974 211.468 241.184 212.176 241.604C212.896 242.024 213.46 242.618 213.868 243.386C214.276 244.142 214.48 245.024 214.48 246.032C214.48 247.028 214.276 247.916 213.868 248.696C213.46 249.476 212.896 250.082 212.176 250.514C211.468 250.946 210.676 251.162 209.8 251.162C208.96 251.162 208.216 250.976 207.568 250.604C206.932 250.22 206.446 249.746 206.11 249.182V255.68H204.472V241.136H206.11V242.954ZM212.806 246.032C212.806 245.288 212.656 244.64 212.356 244.088C212.056 243.536 211.648 243.116 211.132 242.828C210.628 242.54 210.07 242.396 209.458 242.396C208.858 242.396 208.3 242.546 207.784 242.846C207.28 243.134 206.872 243.56 206.56 244.124C206.26 244.676 206.11 245.318 206.11 246.05C206.11 246.794 206.26 247.448 206.56 248.012C206.872 248.564 207.28 248.99 207.784 249.29C208.3 249.578 208.858 249.722 209.458 249.722C210.07 249.722 210.628 249.578 211.132 249.29C211.648 248.99 212.056 248.564 212.356 248.012C212.656 247.448 212.806 246.788 212.806 246.032ZM220.823 246.05C220.823 245.03 221.027 244.142 221.435 243.386C221.843 242.618 222.407 242.024 223.127 241.604C223.859 241.184 224.693 240.974 225.629 240.974C226.841 240.974 227.837 241.268 228.617 241.856C229.409 242.444 229.931 243.26 230.183 244.304H228.419C228.251 243.704 227.921 243.23 227.429 242.882C226.949 242.534 226.349 242.36 225.629 242.36C224.693 242.36 223.937 242.684 223.361 243.332C222.785 243.968 222.497 244.874 222.497 246.05C222.497 247.238 222.785 248.156 223.361 248.804C223.937 249.452 224.693 249.776 225.629 249.776C226.349 249.776 226.949 249.608 227.429 249.272C227.909 248.936 228.239 248.456 228.419 247.832H230.183C229.919 248.84 229.391 249.65 228.599 250.262C227.807 250.862 226.817 251.162 225.629 251.162C224.693 251.162 223.859 250.952 223.127 250.532C222.407 250.112 221.843 249.518 221.435 248.75C221.027 247.982 220.823 247.082 220.823 246.05ZM236.67 251.162C235.746 251.162 234.906 250.952 234.15 250.532C233.406 250.112 232.818 249.518 232.386 248.75C231.966 247.97 231.756 247.07 231.756 246.05C231.756 245.042 231.972 244.154 232.404 243.386C232.848 242.606 233.448 242.012 234.204 241.604C234.96 241.184 235.806 240.974 236.742 240.974C237.678 240.974 238.524 241.184 239.28 241.604C240.036 242.012 240.63 242.6 241.062 243.368C241.506 244.136 241.728 245.03 241.728 246.05C241.728 247.07 241.5 247.97 241.044 248.75C240.6 249.518 239.994 250.112 239.226 250.532C238.458 250.952 237.606 251.162 236.67 251.162ZM236.67 249.722C237.258 249.722 237.81 249.584 238.326 249.308C238.842 249.032 239.256 248.618 239.568 248.066C239.892 247.514 240.054 246.842 240.054 246.05C240.054 245.258 239.898 244.586 239.586 244.034C239.274 243.482 238.866 243.074 238.362 242.81C237.858 242.534 237.312 242.396 236.724 242.396C236.124 242.396 235.572 242.534 235.068 242.81C234.576 243.074 234.18 243.482 233.88 244.034C233.58 244.586 233.43 245.258 233.43 246.05C233.43 246.854 233.574 247.532 233.862 248.084C234.162 248.636 234.558 249.05 235.05 249.326C235.542 249.59 236.082 249.722 236.67 249.722ZM255.744 240.956C256.512 240.956 257.196 241.118 257.796 241.442C258.396 241.754 258.87 242.228 259.218 242.864C259.566 243.5 259.74 244.274 259.74 245.186V251H258.12V245.42C258.12 244.436 257.874 243.686 257.382 243.17C256.902 242.642 256.248 242.378 255.42 242.378C254.568 242.378 253.89 242.654 253.386 243.206C252.882 243.746 252.63 244.532 252.63 245.564V251H251.01V245.42C251.01 244.436 250.764 243.686 250.272 243.17C249.792 242.642 249.138 242.378 248.31 242.378C247.458 242.378 246.78 242.654 246.276 243.206C245.772 243.746 245.52 244.532 245.52 245.564V251H243.882V241.136H245.52V242.558C245.844 242.042 246.276 241.646 246.816 241.37C247.368 241.094 247.974 240.956 248.634 240.956C249.462 240.956 250.194 241.142 250.83 241.514C251.466 241.886 251.94 242.432 252.252 243.152C252.528 242.456 252.984 241.916 253.62 241.532C254.256 241.148 254.964 240.956 255.744 240.956ZM264.065 242.954C264.389 242.39 264.869 241.922 265.505 241.55C266.153 241.166 266.903 240.974 267.755 240.974C268.631 240.974 269.423 241.184 270.131 241.604C270.851 242.024 271.415 242.618 271.823 243.386C272.231 244.142 272.435 245.024 272.435 246.032C272.435 247.028 272.231 247.916 271.823 248.696C271.415 249.476 270.851 250.082 270.131 250.514C269.423 250.946 268.631 251.162 267.755 251.162C266.915 251.162 266.171 250.976 265.523 250.604C264.887 250.22 264.401 249.746 264.065 249.182V255.68H262.427V241.136H264.065V242.954ZM270.761 246.032C270.761 245.288 270.611 244.64 270.311 244.088C270.011 243.536 269.603 243.116 269.087 242.828C268.583 242.54 268.025 242.396 267.413 242.396C266.813 242.396 266.255 242.546 265.739 242.846C265.235 243.134 264.827 243.56 264.515 244.124C264.215 244.676 264.065 245.318 264.065 246.05C264.065 246.794 264.215 247.448 264.515 248.012C264.827 248.564 265.235 248.99 265.739 249.29C266.255 249.578 266.813 249.722 267.413 249.722C268.025 249.722 268.583 249.578 269.087 249.29C269.603 248.99 270.011 248.564 270.311 248.012C270.611 247.448 270.761 246.788 270.761 246.032ZM273.979 246.032C273.979 245.024 274.183 244.142 274.591 243.386C274.999 242.618 275.557 242.024 276.265 241.604C276.985 241.184 277.783 240.974 278.659 240.974C279.523 240.974 280.273 241.16 280.909 241.532C281.545 241.904 282.019 242.372 282.331 242.936V241.136H283.987V251H282.331V249.164C282.007 249.74 281.521 250.22 280.873 250.604C280.237 250.976 279.493 251.162 278.641 251.162C277.765 251.162 276.973 250.946 276.265 250.514C275.557 250.082 274.999 249.476 274.591 248.696C274.183 247.916 273.979 247.028 273.979 246.032ZM282.331 246.05C282.331 245.306 282.181 244.658 281.881 244.106C281.581 243.554 281.173 243.134 280.657 242.846C280.153 242.546 279.595 242.396 278.983 242.396C278.371 242.396 277.813 242.54 277.309 242.828C276.805 243.116 276.403 243.536 276.103 244.088C275.803 244.64 275.653 245.288 275.653 246.032C275.653 246.788 275.803 247.448 276.103 248.012C276.403 248.564 276.805 248.99 277.309 249.29C277.813 249.578 278.371 249.722 278.983 249.722C279.595 249.722 280.153 249.578 280.657 249.29C281.173 248.99 281.581 248.564 281.881 248.012C282.181 247.448 282.331 246.794 282.331 246.05ZM291.561 240.956C292.761 240.956 293.733 241.322 294.477 242.054C295.221 242.774 295.593 243.818 295.593 245.186V251H293.973V245.42C293.973 244.436 293.727 243.686 293.235 243.17C292.743 242.642 292.071 242.378 291.219 242.378C290.355 242.378 289.665 242.648 289.149 243.188C288.645 243.728 288.393 244.514 288.393 245.546V251H286.755V241.136H288.393V242.54C288.717 242.036 289.155 241.646 289.707 241.37C290.271 241.094 290.889 240.956 291.561 240.956ZM306.765 241.136L300.825 255.644H299.133L301.077 250.892L297.099 241.136H298.917L302.013 249.128L305.073 241.136H306.765ZM109.137 273.136L106.059 283H104.367L101.991 275.17L99.6153 283H97.9233L94.8273 273.136H96.5013L98.7693 281.416L101.217 273.136H102.891L105.285 281.434L107.517 273.136H109.137ZM119.763 277.69C119.763 278.002 119.745 278.332 119.709 278.68H111.825C111.885 279.652 112.215 280.414 112.815 280.966C113.427 281.506 114.165 281.776 115.029 281.776C115.737 281.776 116.325 281.614 116.793 281.29C117.273 280.954 117.609 280.51 117.801 279.958H119.565C119.301 280.906 118.773 281.68 117.981 282.28C117.189 282.868 116.205 283.162 115.029 283.162C114.093 283.162 113.253 282.952 112.509 282.532C111.777 282.112 111.201 281.518 110.781 280.75C110.361 279.97 110.151 279.07 110.151 278.05C110.151 277.03 110.355 276.136 110.763 275.368C111.171 274.6 111.741 274.012 112.473 273.604C113.217 273.184 114.069 272.974 115.029 272.974C115.965 272.974 116.793 273.178 117.513 273.586C118.233 273.994 118.785 274.558 119.169 275.278C119.565 275.986 119.763 276.79 119.763 277.69ZM118.071 277.348C118.071 276.724 117.933 276.19 117.657 275.746C117.381 275.29 117.003 274.948 116.523 274.72C116.055 274.48 115.533 274.36 114.957 274.36C114.129 274.36 113.421 274.624 112.833 275.152C112.257 275.68 111.927 276.412 111.843 277.348H118.071ZM123.563 274.972C123.899 274.384 124.391 273.904 125.039 273.532C125.687 273.16 126.425 272.974 127.253 272.974C128.141 272.974 128.939 273.184 129.647 273.604C130.355 274.024 130.913 274.618 131.321 275.386C131.729 276.142 131.933 277.024 131.933 278.032C131.933 279.028 131.729 279.916 131.321 280.696C130.913 281.476 130.349 282.082 129.629 282.514C128.921 282.946 128.129 283.162 127.253 283.162C126.401 283.162 125.651 282.976 125.003 282.604C124.367 282.232 123.887 281.758 123.563 281.182V283H121.925V269.68H123.563V274.972ZM130.259 278.032C130.259 277.288 130.109 276.64 129.809 276.088C129.509 275.536 129.101 275.116 128.585 274.828C128.081 274.54 127.523 274.396 126.911 274.396C126.311 274.396 125.753 274.546 125.237 274.846C124.733 275.134 124.325 275.56 124.013 276.124C123.713 276.676 123.563 277.318 123.563 278.05C123.563 278.794 123.713 279.448 124.013 280.012C124.325 280.564 124.733 280.99 125.237 281.29C125.753 281.578 126.311 281.722 126.911 281.722C127.523 281.722 128.081 281.578 128.585 281.29C129.101 280.99 129.509 280.564 129.809 280.012C130.109 279.448 130.259 278.788 130.259 278.032ZM137.581 283.162C136.825 283.162 136.147 283.036 135.547 282.784C134.947 282.52 134.473 282.16 134.125 281.704C133.777 281.236 133.585 280.702 133.549 280.102H135.241C135.289 280.594 135.517 280.996 135.925 281.308C136.345 281.62 136.891 281.776 137.563 281.776C138.187 281.776 138.679 281.638 139.039 281.362C139.399 281.086 139.579 280.738 139.579 280.318C139.579 279.886 139.387 279.568 139.003 279.364C138.619 279.148 138.025 278.938 137.221 278.734C136.489 278.542 135.889 278.35 135.421 278.158C134.965 277.954 134.569 277.66 134.233 277.276C133.909 276.88 133.747 276.364 133.747 275.728C133.747 275.224 133.897 274.762 134.197 274.342C134.497 273.922 134.923 273.592 135.475 273.352C136.027 273.1 136.657 272.974 137.365 272.974C138.457 272.974 139.339 273.25 140.011 273.802C140.683 274.354 141.043 275.11 141.091 276.07H139.453C139.417 275.554 139.207 275.14 138.823 274.828C138.451 274.516 137.947 274.36 137.311 274.36C136.723 274.36 136.255 274.486 135.907 274.738C135.559 274.99 135.385 275.32 135.385 275.728C135.385 276.052 135.487 276.322 135.691 276.538C135.907 276.742 136.171 276.91 136.483 277.042C136.807 277.162 137.251 277.3 137.815 277.456C138.523 277.648 139.099 277.84 139.543 278.032C139.987 278.212 140.365 278.488 140.677 278.86C141.001 279.232 141.169 279.718 141.181 280.318C141.181 280.858 141.031 281.344 140.731 281.776C140.431 282.208 140.005 282.55 139.453 282.802C138.913 283.042 138.289 283.162 137.581 283.162ZM144.339 271.534C144.027 271.534 143.763 271.426 143.547 271.21C143.331 270.994 143.223 270.73 143.223 270.418C143.223 270.106 143.331 269.842 143.547 269.626C143.763 269.41 144.027 269.302 144.339 269.302C144.639 269.302 144.891 269.41 145.095 269.626C145.311 269.842 145.419 270.106 145.419 270.418C145.419 270.73 145.311 270.994 145.095 271.21C144.891 271.426 144.639 271.534 144.339 271.534ZM145.131 273.136V283H143.493V273.136H145.131ZM149.921 274.486V280.3C149.921 280.78 150.023 281.122 150.227 281.326C150.431 281.518 150.785 281.614 151.289 281.614H152.495V283H151.019C150.107 283 149.423 282.79 148.967 282.37C148.511 281.95 148.283 281.26 148.283 280.3V274.486H147.005V273.136H148.283V270.652H149.921V273.136H152.495V274.486H149.921ZM163.48 277.69C163.48 278.002 163.462 278.332 163.426 278.68H155.542C155.602 279.652 155.932 280.414 156.532 280.966C157.144 281.506 157.882 281.776 158.746 281.776C159.454 281.776 160.042 281.614 160.51 281.29C160.99 280.954 161.326 280.51 161.518 279.958H163.282C163.018 280.906 162.49 281.68 161.698 282.28C160.906 282.868 159.922 283.162 158.746 283.162C157.81 283.162 156.97 282.952 156.226 282.532C155.494 282.112 154.918 281.518 154.498 280.75C154.078 279.97 153.868 279.07 153.868 278.05C153.868 277.03 154.072 276.136 154.48 275.368C154.888 274.6 155.458 274.012 156.19 273.604C156.934 273.184 157.786 272.974 158.746 272.974C159.682 272.974 160.51 273.178 161.23 273.586C161.95 273.994 162.502 274.558 162.886 275.278C163.282 275.986 163.48 276.79 163.48 277.69ZM161.788 277.348C161.788 276.724 161.65 276.19 161.374 275.746C161.098 275.29 160.72 274.948 160.24 274.72C159.772 274.48 159.25 274.36 158.674 274.36C157.846 274.36 157.138 274.624 156.55 275.152C155.974 275.68 155.644 276.412 155.56 277.348H161.788ZM169.134 283.162C168.378 283.162 167.7 283.036 167.1 282.784C166.5 282.52 166.026 282.16 165.678 281.704C165.33 281.236 165.138 280.702 165.102 280.102H166.794C166.842 280.594 167.07 280.996 167.478 281.308C167.898 281.62 168.444 281.776 169.116 281.776C169.74 281.776 170.232 281.638 170.592 281.362C170.952 281.086 171.132 280.738 171.132 280.318C171.132 279.886 170.94 279.568 170.556 279.364C170.172 279.148 169.578 278.938 168.774 278.734C168.042 278.542 167.442 278.35 166.974 278.158C166.518 277.954 166.122 277.66 165.786 277.276C165.462 276.88 165.3 276.364 165.3 275.728C165.3 275.224 165.45 274.762 165.75 274.342C166.05 273.922 166.476 273.592 167.028 273.352C167.58 273.1 168.21 272.974 168.918 272.974C170.01 272.974 170.892 273.25 171.564 273.802C172.236 274.354 172.596 275.11 172.644 276.07H171.006C170.97 275.554 170.76 275.14 170.376 274.828C170.004 274.516 169.5 274.36 168.864 274.36C168.276 274.36 167.808 274.486 167.46 274.738C167.112 274.99 166.938 275.32 166.938 275.728C166.938 276.052 167.04 276.322 167.244 276.538C167.46 276.742 167.724 276.91 168.036 277.042C168.36 277.162 168.804 277.3 169.368 277.456C170.076 277.648 170.652 277.84 171.096 278.032C171.54 278.212 171.918 278.488 172.23 278.86C172.554 279.232 172.722 279.718 172.734 280.318C172.734 280.858 172.584 281.344 172.284 281.776C171.984 282.208 171.558 282.55 171.006 282.802C170.466 283.042 169.842 283.162 169.134 283.162ZM181.843 274.486V280.3C181.843 280.78 181.945 281.122 182.149 281.326C182.353 281.518 182.707 281.614 183.211 281.614H184.417V283H182.941C182.029 283 181.345 282.79 180.889 282.37C180.433 281.95 180.205 281.26 180.205 280.3V274.486H178.927V273.136H180.205V270.652H181.843V273.136H184.417V274.486H181.843ZM190.704 283.162C189.78 283.162 188.94 282.952 188.184 282.532C187.44 282.112 186.852 281.518 186.42 280.75C186 279.97 185.79 279.07 185.79 278.05C185.79 277.042 186.006 276.154 186.438 275.386C186.882 274.606 187.482 274.012 188.238 273.604C188.994 273.184 189.84 272.974 190.776 272.974C191.712 272.974 192.558 273.184 193.314 273.604C194.07 274.012 194.664 274.6 195.096 275.368C195.54 276.136 195.762 277.03 195.762 278.05C195.762 279.07 195.534 279.97 195.078 280.75C194.634 281.518 194.028 282.112 193.26 282.532C192.492 282.952 191.64 283.162 190.704 283.162ZM190.704 281.722C191.292 281.722 191.844 281.584 192.36 281.308C192.876 281.032 193.29 280.618 193.602 280.066C193.926 279.514 194.088 278.842 194.088 278.05C194.088 277.258 193.932 276.586 193.62 276.034C193.308 275.482 192.9 275.074 192.396 274.81C191.892 274.534 191.346 274.396 190.758 274.396C190.158 274.396 189.606 274.534 189.102 274.81C188.61 275.074 188.214 275.482 187.914 276.034C187.614 276.586 187.464 277.258 187.464 278.05C187.464 278.854 187.608 279.532 187.896 280.084C188.196 280.636 188.592 281.05 189.084 281.326C189.576 281.59 190.116 281.722 190.704 281.722ZM204.352 274.972C204.688 274.384 205.18 273.904 205.828 273.532C206.476 273.16 207.214 272.974 208.042 272.974C208.93 272.974 209.728 273.184 210.436 273.604C211.144 274.024 211.702 274.618 212.11 275.386C212.518 276.142 212.722 277.024 212.722 278.032C212.722 279.028 212.518 279.916 212.11 280.696C211.702 281.476 211.138 282.082 210.418 282.514C209.71 282.946 208.918 283.162 208.042 283.162C207.19 283.162 206.44 282.976 205.792 282.604C205.156 282.232 204.676 281.758 204.352 281.182V283H202.714V269.68H204.352V274.972ZM211.048 278.032C211.048 277.288 210.898 276.64 210.598 276.088C210.298 275.536 209.89 275.116 209.374 274.828C208.87 274.54 208.312 274.396 207.7 274.396C207.1 274.396 206.542 274.546 206.026 274.846C205.522 275.134 205.114 275.56 204.802 276.124C204.502 276.676 204.352 277.318 204.352 278.05C204.352 278.794 204.502 279.448 204.802 280.012C205.114 280.564 205.522 280.99 206.026 281.29C206.542 281.578 207.1 281.722 207.7 281.722C208.312 281.722 208.87 281.578 209.374 281.29C209.89 280.99 210.298 280.564 210.598 280.012C210.898 279.448 211.048 278.788 211.048 278.032ZM223.878 277.69C223.878 278.002 223.86 278.332 223.824 278.68H215.94C216 279.652 216.33 280.414 216.93 280.966C217.542 281.506 218.28 281.776 219.144 281.776C219.852 281.776 220.44 281.614 220.908 281.29C221.388 280.954 221.724 280.51 221.916 279.958H223.68C223.416 280.906 222.888 281.68 222.096 282.28C221.304 282.868 220.32 283.162 219.144 283.162C218.208 283.162 217.368 282.952 216.624 282.532C215.892 282.112 215.316 281.518 214.896 280.75C214.476 279.97 214.266 279.07 214.266 278.05C214.266 277.03 214.47 276.136 214.878 275.368C215.286 274.6 215.856 274.012 216.588 273.604C217.332 273.184 218.184 272.974 219.144 272.974C220.08 272.974 220.908 273.178 221.628 273.586C222.348 273.994 222.9 274.558 223.284 275.278C223.68 275.986 223.878 276.79 223.878 277.69ZM222.186 277.348C222.186 276.724 222.048 276.19 221.772 275.746C221.496 275.29 221.118 274.948 220.638 274.72C220.17 274.48 219.648 274.36 219.072 274.36C218.244 274.36 217.536 274.624 216.948 275.152C216.372 275.68 216.042 276.412 215.958 277.348H222.186ZM242.701 272.956C243.469 272.956 244.153 273.118 244.753 273.442C245.353 273.754 245.827 274.228 246.175 274.864C246.523 275.5 246.697 276.274 246.697 277.186V283H245.077V277.42C245.077 276.436 244.831 275.686 244.339 275.17C243.859 274.642 243.205 274.378 242.377 274.378C241.525 274.378 240.847 274.654 240.343 275.206C239.839 275.746 239.587 276.532 239.587 277.564V283H237.967V277.42C237.967 276.436 237.721 275.686 237.229 275.17C236.749 274.642 236.095 274.378 235.267 274.378C234.415 274.378 233.737 274.654 233.233 275.206C232.729 275.746 232.477 276.532 232.477 277.564V283H230.839V273.136H232.477V274.558C232.801 274.042 233.233 273.646 233.773 273.37C234.325 273.094 234.931 272.956 235.591 272.956C236.419 272.956 237.151 273.142 237.787 273.514C238.423 273.886 238.897 274.432 239.209 275.152C239.485 274.456 239.941 273.916 240.577 273.532C241.213 273.148 241.921 272.956 242.701 272.956ZM253.686 283.162C252.762 283.162 251.922 282.952 251.166 282.532C250.422 282.112 249.834 281.518 249.402 280.75C248.982 279.97 248.772 279.07 248.772 278.05C248.772 277.042 248.988 276.154 249.42 275.386C249.864 274.606 250.464 274.012 251.22 273.604C251.976 273.184 252.822 272.974 253.758 272.974C254.694 272.974 255.54 273.184 256.296 273.604C257.052 274.012 257.646 274.6 258.078 275.368C258.522 276.136 258.744 277.03 258.744 278.05C258.744 279.07 258.516 279.97 258.06 280.75C257.616 281.518 257.01 282.112 256.242 282.532C255.474 282.952 254.622 283.162 253.686 283.162ZM253.686 281.722C254.274 281.722 254.826 281.584 255.342 281.308C255.858 281.032 256.272 280.618 256.584 280.066C256.908 279.514 257.07 278.842 257.07 278.05C257.07 277.258 256.914 276.586 256.602 276.034C256.29 275.482 255.882 275.074 255.378 274.81C254.874 274.534 254.328 274.396 253.74 274.396C253.14 274.396 252.588 274.534 252.084 274.81C251.592 275.074 251.196 275.482 250.896 276.034C250.596 276.586 250.446 277.258 250.446 278.05C250.446 278.854 250.59 279.532 250.878 280.084C251.178 280.636 251.574 281.05 252.066 281.326C252.558 281.59 253.098 281.722 253.686 281.722ZM262.536 274.738C262.824 274.174 263.232 273.736 263.76 273.424C264.3 273.112 264.954 272.956 265.722 272.956V274.648H265.29C263.454 274.648 262.536 275.644 262.536 277.636V283H260.898V273.136H262.536V274.738ZM276.613 277.69C276.613 278.002 276.595 278.332 276.559 278.68H268.675C268.735 279.652 269.065 280.414 269.665 280.966C270.277 281.506 271.015 281.776 271.879 281.776C272.587 281.776 273.175 281.614 273.643 281.29C274.123 280.954 274.459 280.51 274.651 279.958H276.415C276.151 280.906 275.623 281.68 274.831 282.28C274.039 282.868 273.055 283.162 271.879 283.162C270.943 283.162 270.103 282.952 269.359 282.532C268.627 282.112 268.051 281.518 267.631 280.75C267.211 279.97 267.001 279.07 267.001 278.05C267.001 277.03 267.205 276.136 267.613 275.368C268.021 274.6 268.591 274.012 269.323 273.604C270.067 273.184 270.919 272.974 271.879 272.974C272.815 272.974 273.643 273.178 274.363 273.586C275.083 273.994 275.635 274.558 276.019 275.278C276.415 275.986 276.613 276.79 276.613 277.69ZM274.921 277.348C274.921 276.724 274.783 276.19 274.507 275.746C274.231 275.29 273.853 274.948 273.373 274.72C272.905 274.48 272.383 274.36 271.807 274.36C270.979 274.36 270.271 274.624 269.683 275.152C269.107 275.68 268.777 276.412 268.693 277.348H274.921ZM67.4713 306.954C67.7953 306.39 68.2753 305.922 68.9113 305.55C69.5593 305.166 70.3093 304.974 71.1613 304.974C72.0373 304.974 72.8293 305.184 73.5373 305.604C74.2573 306.024 74.8213 306.618 75.2293 307.386C75.6373 308.142 75.8413 309.024 75.8413 310.032C75.8413 311.028 75.6373 311.916 75.2293 312.696C74.8213 313.476 74.2573 314.082 73.5373 314.514C72.8293 314.946 72.0373 315.162 71.1613 315.162C70.3213 315.162 69.5773 314.976 68.9293 314.604C68.2933 314.22 67.8073 313.746 67.4713 313.182V319.68H65.8333V305.136H67.4713V306.954ZM74.1673 310.032C74.1673 309.288 74.0173 308.64 73.7173 308.088C73.4173 307.536 73.0093 307.116 72.4933 306.828C71.9893 306.54 71.4313 306.396 70.8193 306.396C70.2193 306.396 69.6613 306.546 69.1453 306.846C68.6413 307.134 68.2333 307.56 67.9213 308.124C67.6213 308.676 67.4713 309.318 67.4713 310.05C67.4713 310.794 67.6213 311.448 67.9213 312.012C68.2333 312.564 68.6413 312.99 69.1453 313.29C69.6613 313.578 70.2193 313.722 70.8193 313.722C71.4313 313.722 71.9893 313.578 72.4933 313.29C73.0093 312.99 73.4173 312.564 73.7173 312.012C74.0173 311.448 74.1673 310.788 74.1673 310.032ZM79.6353 306.738C79.9233 306.174 80.3313 305.736 80.8593 305.424C81.3993 305.112 82.0533 304.956 82.8213 304.956V306.648H82.3893C80.5533 306.648 79.6353 307.644 79.6353 309.636V315H77.9973V305.136H79.6353V306.738ZM89.0142 315.162C88.0902 315.162 87.2502 314.952 86.4942 314.532C85.7502 314.112 85.1622 313.518 84.7302 312.75C84.3102 311.97 84.1002 311.07 84.1002 310.05C84.1002 309.042 84.3162 308.154 84.7482 307.386C85.1922 306.606 85.7922 306.012 86.5482 305.604C87.3042 305.184 88.1502 304.974 89.0862 304.974C90.0222 304.974 90.8682 305.184 91.6242 305.604C92.3802 306.012 92.9742 306.6 93.4062 307.368C93.8502 308.136 94.0722 309.03 94.0722 310.05C94.0722 311.07 93.8442 311.97 93.3882 312.75C92.9442 313.518 92.3382 314.112 91.5702 314.532C90.8022 314.952 89.9502 315.162 89.0142 315.162ZM89.0142 313.722C89.6022 313.722 90.1542 313.584 90.6702 313.308C91.1862 313.032 91.6002 312.618 91.9122 312.066C92.2362 311.514 92.3982 310.842 92.3982 310.05C92.3982 309.258 92.2422 308.586 91.9302 308.034C91.6182 307.482 91.2102 307.074 90.7062 306.81C90.2022 306.534 89.6562 306.396 89.0682 306.396C88.4682 306.396 87.9162 306.534 87.4122 306.81C86.9202 307.074 86.5242 307.482 86.2242 308.034C85.9242 308.586 85.7742 309.258 85.7742 310.05C85.7742 310.854 85.9182 311.532 86.2062 312.084C86.5062 312.636 86.9022 313.05 87.3942 313.326C87.8862 313.59 88.4262 313.722 89.0142 313.722ZM100.24 306.486H98.1698V315H96.5318V306.486H95.2538V305.136H96.5318V304.434C96.5318 303.33 96.8138 302.526 97.3778 302.022C97.9538 301.506 98.8718 301.248 100.132 301.248V302.616C99.4118 302.616 98.9018 302.76 98.6018 303.048C98.3138 303.324 98.1698 303.786 98.1698 304.434V305.136H100.24V306.486ZM111.15 309.69C111.15 310.002 111.132 310.332 111.096 310.68H103.212C103.272 311.652 103.602 312.414 104.202 312.966C104.814 313.506 105.552 313.776 106.416 313.776C107.124 313.776 107.712 313.614 108.18 313.29C108.66 312.954 108.996 312.51 109.188 311.958H110.952C110.688 312.906 110.16 313.68 109.368 314.28C108.576 314.868 107.592 315.162 106.416 315.162C105.48 315.162 104.64 314.952 103.896 314.532C103.164 314.112 102.588 313.518 102.168 312.75C101.748 311.97 101.538 311.07 101.538 310.05C101.538 309.03 101.742 308.136 102.15 307.368C102.558 306.6 103.128 306.012 103.86 305.604C104.604 305.184 105.456 304.974 106.416 304.974C107.352 304.974 108.18 305.178 108.9 305.586C109.62 305.994 110.172 306.558 110.556 307.278C110.952 307.986 111.15 308.79 111.15 309.69ZM109.458 309.348C109.458 308.724 109.32 308.19 109.044 307.746C108.768 307.29 108.39 306.948 107.91 306.72C107.442 306.48 106.92 306.36 106.344 306.36C105.516 306.36 104.808 306.624 104.22 307.152C103.644 307.68 103.314 308.412 103.23 309.348H109.458ZM116.804 315.162C116.048 315.162 115.37 315.036 114.77 314.784C114.17 314.52 113.696 314.16 113.348 313.704C113 313.236 112.808 312.702 112.772 312.102H114.464C114.512 312.594 114.74 312.996 115.148 313.308C115.568 313.62 116.114 313.776 116.786 313.776C117.41 313.776 117.902 313.638 118.262 313.362C118.622 313.086 118.802 312.738 118.802 312.318C118.802 311.886 118.61 311.568 118.226 311.364C117.842 311.148 117.248 310.938 116.444 310.734C115.712 310.542 115.112 310.35 114.644 310.158C114.188 309.954 113.792 309.66 113.456 309.276C113.132 308.88 112.97 308.364 112.97 307.728C112.97 307.224 113.12 306.762 113.42 306.342C113.72 305.922 114.146 305.592 114.698 305.352C115.25 305.1 115.88 304.974 116.588 304.974C117.68 304.974 118.562 305.25 119.234 305.802C119.906 306.354 120.266 307.11 120.314 308.07H118.676C118.64 307.554 118.43 307.14 118.046 306.828C117.674 306.516 117.17 306.36 116.534 306.36C115.946 306.36 115.478 306.486 115.13 306.738C114.782 306.99 114.608 307.32 114.608 307.728C114.608 308.052 114.71 308.322 114.914 308.538C115.13 308.742 115.394 308.91 115.706 309.042C116.03 309.162 116.474 309.3 117.038 309.456C117.746 309.648 118.322 309.84 118.766 310.032C119.21 310.212 119.588 310.488 119.9 310.86C120.224 311.232 120.392 311.718 120.404 312.318C120.404 312.858 120.254 313.344 119.954 313.776C119.654 314.208 119.228 314.55 118.676 314.802C118.136 315.042 117.512 315.162 116.804 315.162ZM126.208 315.162C125.452 315.162 124.774 315.036 124.174 314.784C123.574 314.52 123.1 314.16 122.752 313.704C122.404 313.236 122.212 312.702 122.176 312.102H123.868C123.916 312.594 124.144 312.996 124.552 313.308C124.972 313.62 125.518 313.776 126.19 313.776C126.814 313.776 127.306 313.638 127.666 313.362C128.026 313.086 128.206 312.738 128.206 312.318C128.206 311.886 128.014 311.568 127.63 311.364C127.246 311.148 126.652 310.938 125.848 310.734C125.116 310.542 124.516 310.35 124.048 310.158C123.592 309.954 123.196 309.66 122.86 309.276C122.536 308.88 122.374 308.364 122.374 307.728C122.374 307.224 122.524 306.762 122.824 306.342C123.124 305.922 123.55 305.592 124.102 305.352C124.654 305.1 125.284 304.974 125.992 304.974C127.084 304.974 127.966 305.25 128.638 305.802C129.31 306.354 129.67 307.11 129.718 308.07H128.08C128.044 307.554 127.834 307.14 127.45 306.828C127.078 306.516 126.574 306.36 125.938 306.36C125.35 306.36 124.882 306.486 124.534 306.738C124.186 306.99 124.012 307.32 124.012 307.728C124.012 308.052 124.114 308.322 124.318 308.538C124.534 308.742 124.798 308.91 125.11 309.042C125.434 309.162 125.878 309.3 126.442 309.456C127.15 309.648 127.726 309.84 128.17 310.032C128.614 310.212 128.992 310.488 129.304 310.86C129.628 311.232 129.796 311.718 129.808 312.318C129.808 312.858 129.658 313.344 129.358 313.776C129.058 314.208 128.632 314.55 128.08 314.802C127.54 315.042 126.916 315.162 126.208 315.162ZM132.966 303.534C132.654 303.534 132.39 303.426 132.174 303.21C131.958 302.994 131.85 302.73 131.85 302.418C131.85 302.106 131.958 301.842 132.174 301.626C132.39 301.41 132.654 301.302 132.966 301.302C133.266 301.302 133.518 301.41 133.722 301.626C133.938 301.842 134.046 302.106 134.046 302.418C134.046 302.73 133.938 302.994 133.722 303.21C133.518 303.426 133.266 303.534 132.966 303.534ZM133.758 305.136V315H132.12V305.136H133.758ZM140.852 315.162C139.928 315.162 139.088 314.952 138.332 314.532C137.588 314.112 137 313.518 136.568 312.75C136.148 311.97 135.938 311.07 135.938 310.05C135.938 309.042 136.154 308.154 136.586 307.386C137.03 306.606 137.63 306.012 138.386 305.604C139.142 305.184 139.988 304.974 140.924 304.974C141.86 304.974 142.706 305.184 143.462 305.604C144.218 306.012 144.812 306.6 145.244 307.368C145.688 308.136 145.91 309.03 145.91 310.05C145.91 311.07 145.682 311.97 145.226 312.75C144.782 313.518 144.176 314.112 143.408 314.532C142.64 314.952 141.788 315.162 140.852 315.162ZM140.852 313.722C141.44 313.722 141.992 313.584 142.508 313.308C143.024 313.032 143.438 312.618 143.75 312.066C144.074 311.514 144.236 310.842 144.236 310.05C144.236 309.258 144.08 308.586 143.768 308.034C143.456 307.482 143.048 307.074 142.544 306.81C142.04 306.534 141.494 306.396 140.906 306.396C140.306 306.396 139.754 306.534 139.25 306.81C138.758 307.074 138.362 307.482 138.062 308.034C137.762 308.586 137.612 309.258 137.612 310.05C137.612 310.854 137.756 311.532 138.044 312.084C138.344 312.636 138.74 313.05 139.232 313.326C139.724 313.59 140.264 313.722 140.852 313.722ZM152.87 304.956C154.07 304.956 155.042 305.322 155.786 306.054C156.53 306.774 156.902 307.818 156.902 309.186V315H155.282V309.42C155.282 308.436 155.036 307.686 154.544 307.17C154.052 306.642 153.38 306.378 152.528 306.378C151.664 306.378 150.974 306.648 150.458 307.188C149.954 307.728 149.702 308.514 149.702 309.546V315H148.064V305.136H149.702V306.54C150.026 306.036 150.464 305.646 151.016 305.37C151.58 305.094 152.198 304.956 152.87 304.956ZM158.965 310.032C158.965 309.024 159.169 308.142 159.577 307.386C159.985 306.618 160.543 306.024 161.251 305.604C161.971 305.184 162.769 304.974 163.645 304.974C164.509 304.974 165.259 305.16 165.895 305.532C166.531 305.904 167.005 306.372 167.317 306.936V305.136H168.973V315H167.317V313.164C166.993 313.74 166.507 314.22 165.859 314.604C165.223 314.976 164.479 315.162 163.627 315.162C162.751 315.162 161.959 314.946 161.251 314.514C160.543 314.082 159.985 313.476 159.577 312.696C159.169 311.916 158.965 311.028 158.965 310.032ZM167.317 310.05C167.317 309.306 167.167 308.658 166.867 308.106C166.567 307.554 166.159 307.134 165.643 306.846C165.139 306.546 164.581 306.396 163.969 306.396C163.357 306.396 162.799 306.54 162.295 306.828C161.791 307.116 161.389 307.536 161.089 308.088C160.789 308.64 160.639 309.288 160.639 310.032C160.639 310.788 160.789 311.448 161.089 312.012C161.389 312.564 161.791 312.99 162.295 313.29C162.799 313.578 163.357 313.722 163.969 313.722C164.581 313.722 165.139 313.578 165.643 313.29C166.159 312.99 166.567 312.564 166.867 312.012C167.167 311.448 167.317 310.794 167.317 310.05ZM173.379 301.68V315H171.741V301.68H173.379ZM180.358 310.032C180.358 309.024 180.562 308.142 180.97 307.386C181.378 306.618 181.936 306.024 182.644 305.604C183.364 305.184 184.162 304.974 185.038 304.974C185.902 304.974 186.652 305.16 187.288 305.532C187.924 305.904 188.398 306.372 188.71 306.936V305.136H190.366V315H188.71V313.164C188.386 313.74 187.9 314.22 187.252 314.604C186.616 314.976 185.872 315.162 185.02 315.162C184.144 315.162 183.352 314.946 182.644 314.514C181.936 314.082 181.378 313.476 180.97 312.696C180.562 311.916 180.358 311.028 180.358 310.032ZM188.71 310.05C188.71 309.306 188.56 308.658 188.26 308.106C187.96 307.554 187.552 307.134 187.036 306.846C186.532 306.546 185.974 306.396 185.362 306.396C184.75 306.396 184.192 306.54 183.688 306.828C183.184 307.116 182.782 307.536 182.482 308.088C182.182 308.64 182.032 309.288 182.032 310.032C182.032 310.788 182.182 311.448 182.482 312.012C182.782 312.564 183.184 312.99 183.688 313.29C184.192 313.578 184.75 313.722 185.362 313.722C185.974 313.722 186.532 313.578 187.036 313.29C187.552 312.99 187.96 312.564 188.26 312.012C188.56 311.448 188.71 310.794 188.71 310.05ZM197.94 304.956C199.14 304.956 200.112 305.322 200.856 306.054C201.6 306.774 201.972 307.818 201.972 309.186V315H200.352V309.42C200.352 308.436 200.106 307.686 199.614 307.17C199.122 306.642 198.45 306.378 197.598 306.378C196.734 306.378 196.044 306.648 195.528 307.188C195.024 307.728 194.772 308.514 194.772 309.546V315H193.134V305.136H194.772V306.54C195.096 306.036 195.534 305.646 196.086 305.37C196.65 305.094 197.268 304.956 197.94 304.956ZM204.036 310.032C204.036 309.024 204.24 308.142 204.648 307.386C205.056 306.618 205.614 306.024 206.322 305.604C207.042 305.184 207.846 304.974 208.734 304.974C209.502 304.974 210.216 305.154 210.876 305.514C211.536 305.862 212.04 306.324 212.388 306.9V301.68H214.044V315H212.388V313.146C212.064 313.734 211.584 314.22 210.948 314.604C210.312 314.976 209.568 315.162 208.716 315.162C207.84 315.162 207.042 314.946 206.322 314.514C205.614 314.082 205.056 313.476 204.648 312.696C204.24 311.916 204.036 311.028 204.036 310.032ZM212.388 310.05C212.388 309.306 212.238 308.658 211.938 308.106C211.638 307.554 211.23 307.134 210.714 306.846C210.21 306.546 209.652 306.396 209.04 306.396C208.428 306.396 207.87 306.54 207.366 306.828C206.862 307.116 206.46 307.536 206.16 308.088C205.86 308.64 205.71 309.288 205.71 310.032C205.71 310.788 205.86 311.448 206.16 312.012C206.46 312.564 206.862 312.99 207.366 313.29C207.87 313.578 208.428 313.722 209.04 313.722C209.652 313.722 210.21 313.578 210.714 313.29C211.23 312.99 211.638 312.564 211.938 312.012C212.238 311.448 212.388 310.794 212.388 310.05ZM220.999 310.032C220.999 309.024 221.203 308.142 221.611 307.386C222.019 306.618 222.577 306.024 223.285 305.604C224.005 305.184 224.803 304.974 225.679 304.974C226.543 304.974 227.293 305.16 227.929 305.532C228.565 305.904 229.039 306.372 229.351 306.936V305.136H231.007V315H229.351V313.164C229.027 313.74 228.541 314.22 227.893 314.604C227.257 314.976 226.513 315.162 225.661 315.162C224.785 315.162 223.993 314.946 223.285 314.514C222.577 314.082 222.019 313.476 221.611 312.696C221.203 311.916 220.999 311.028 220.999 310.032ZM229.351 310.05C229.351 309.306 229.201 308.658 228.901 308.106C228.601 307.554 228.193 307.134 227.677 306.846C227.173 306.546 226.615 306.396 226.003 306.396C225.391 306.396 224.833 306.54 224.329 306.828C223.825 307.116 223.423 307.536 223.123 308.088C222.823 308.64 222.673 309.288 222.673 310.032C222.673 310.788 222.823 311.448 223.123 312.012C223.423 312.564 223.825 312.99 224.329 313.29C224.833 313.578 225.391 313.722 226.003 313.722C226.615 313.722 227.173 313.578 227.677 313.29C228.193 312.99 228.601 312.564 228.901 312.012C229.201 311.448 229.351 310.794 229.351 310.05ZM235.773 306.486V312.3C235.773 312.78 235.875 313.122 236.079 313.326C236.283 313.518 236.637 313.614 237.141 313.614H238.347V315H236.871C235.959 315 235.275 314.79 234.819 314.37C234.363 313.95 234.135 313.26 234.135 312.3V306.486H232.857V305.136H234.135V302.652H235.773V305.136H238.347V306.486H235.773ZM242.329 306.486V312.3C242.329 312.78 242.431 313.122 242.635 313.326C242.839 313.518 243.193 313.614 243.697 313.614H244.903V315H243.427C242.515 315 241.831 314.79 241.375 314.37C240.919 313.95 240.691 313.26 240.691 312.3V306.486H239.413V305.136H240.691V302.652H242.329V305.136H244.903V306.486H242.329ZM248.526 306.738C248.814 306.174 249.222 305.736 249.75 305.424C250.29 305.112 250.944 304.956 251.712 304.956V306.648H251.28C249.444 306.648 248.526 307.644 248.526 309.636V315H246.888V305.136H248.526V306.738ZM252.991 310.032C252.991 309.024 253.195 308.142 253.603 307.386C254.011 306.618 254.569 306.024 255.277 305.604C255.997 305.184 256.795 304.974 257.671 304.974C258.535 304.974 259.285 305.16 259.921 305.532C260.557 305.904 261.031 306.372 261.343 306.936V305.136H262.999V315H261.343V313.164C261.019 313.74 260.533 314.22 259.885 314.604C259.249 314.976 258.505 315.162 257.653 315.162C256.777 315.162 255.985 314.946 255.277 314.514C254.569 314.082 254.011 313.476 253.603 312.696C253.195 311.916 252.991 311.028 252.991 310.032ZM261.343 310.05C261.343 309.306 261.193 308.658 260.893 308.106C260.593 307.554 260.185 307.134 259.669 306.846C259.165 306.546 258.607 306.396 257.995 306.396C257.383 306.396 256.825 306.54 256.321 306.828C255.817 307.116 255.415 307.536 255.115 308.088C254.815 308.64 254.665 309.288 254.665 310.032C254.665 310.788 254.815 311.448 255.115 312.012C255.415 312.564 255.817 312.99 256.321 313.29C256.825 313.578 257.383 313.722 257.995 313.722C258.607 313.722 259.165 313.578 259.669 313.29C260.185 312.99 260.593 312.564 260.893 312.012C261.193 311.448 261.343 310.794 261.343 310.05ZM265.155 310.05C265.155 309.03 265.359 308.142 265.767 307.386C266.175 306.618 266.739 306.024 267.459 305.604C268.191 305.184 269.025 304.974 269.961 304.974C271.173 304.974 272.169 305.268 272.949 305.856C273.741 306.444 274.263 307.26 274.515 308.304H272.751C272.583 307.704 272.253 307.23 271.761 306.882C271.281 306.534 270.681 306.36 269.961 306.36C269.025 306.36 268.269 306.684 267.693 307.332C267.117 307.968 266.829 308.874 266.829 310.05C266.829 311.238 267.117 312.156 267.693 312.804C268.269 313.452 269.025 313.776 269.961 313.776C270.681 313.776 271.281 313.608 271.761 313.272C272.241 312.936 272.571 312.456 272.751 311.832H274.515C274.251 312.84 273.723 313.65 272.931 314.262C272.139 314.862 271.149 315.162 269.961 315.162C269.025 315.162 268.191 314.952 267.459 314.532C266.739 314.112 266.175 313.518 265.767 312.75C265.359 311.982 265.155 311.082 265.155 310.05ZM278.698 306.486V312.3C278.698 312.78 278.8 313.122 279.004 313.326C279.208 313.518 279.562 313.614 280.066 313.614H281.272V315H279.796C278.884 315 278.2 314.79 277.744 314.37C277.288 313.95 277.06 313.26 277.06 312.3V306.486H275.782V305.136H277.06V302.652H278.698V305.136H281.272V306.486H278.698ZM284.103 303.534C283.791 303.534 283.527 303.426 283.311 303.21C283.095 302.994 282.987 302.73 282.987 302.418C282.987 302.106 283.095 301.842 283.311 301.626C283.527 301.41 283.791 301.302 284.103 301.302C284.403 301.302 284.655 301.41 284.859 301.626C285.075 301.842 285.183 302.106 285.183 302.418C285.183 302.73 285.075 302.994 284.859 303.21C284.655 303.426 284.403 303.534 284.103 303.534ZM284.895 305.136V315H283.257V305.136H284.895ZM291.359 313.488L294.419 305.136H296.165L292.295 315H290.387L286.517 305.136H288.281L291.359 313.488ZM306.777 309.69C306.777 310.002 306.759 310.332 306.723 310.68H298.839C298.899 311.652 299.229 312.414 299.829 312.966C300.441 313.506 301.179 313.776 302.043 313.776C302.751 313.776 303.339 313.614 303.807 313.29C304.287 312.954 304.623 312.51 304.815 311.958H306.579C306.315 312.906 305.787 313.68 304.995 314.28C304.203 314.868 303.219 315.162 302.043 315.162C301.107 315.162 300.267 314.952 299.523 314.532C298.791 314.112 298.215 313.518 297.795 312.75C297.375 311.97 297.165 311.07 297.165 310.05C297.165 309.03 297.369 308.136 297.777 307.368C298.185 306.6 298.755 306.012 299.487 305.604C300.231 305.184 301.083 304.974 302.043 304.974C302.979 304.974 303.807 305.178 304.527 305.586C305.247 305.994 305.799 306.558 306.183 307.278C306.579 307.986 306.777 308.79 306.777 309.69ZM305.085 309.348C305.085 308.724 304.947 308.19 304.671 307.746C304.395 307.29 304.017 306.948 303.537 306.72C303.069 306.48 302.547 306.36 301.971 306.36C301.143 306.36 300.435 306.624 299.847 307.152C299.271 307.68 298.941 308.412 298.857 309.348H305.085Z" fill="white"/>
<g clip-path="url(#clip0_2104_36)">
<circle cx="186" cy="391.5" r="22.5" fill="#F3F4F6"/>
<path d="M185.911 396.411L187.089 397.589L192.678 392L187.089 386.411L185.911 387.589L189.488 391.166H181.5V392.833H189.488L185.911 396.411Z" fill="#4C40F7"/>
</g>
</g>
<defs>
<filter id="filter0_d_2104_36" x="0" y="0" width="372" height="478" filterUnits="userSpaceOnUse" color-interpolation-filters="sRGB">
<feFlood flood-opacity="0" result="BackgroundImageFix"/>
<feColorMatrix in="SourceAlpha" type="matrix" values="0 0 0 0 0 0 0 0 0 0 0 0 0 0 0 0 0 0 127 0" result="hardAlpha"/>
<feOffset dy="10"/>
<feGaussianBlur stdDeviation="5"/>
<feComposite in2="hardAlpha" operator="out"/>
<feColorMatrix type="matrix" values="0 0 0 0 0.603846 0 0 0 0 0.874549 0 0 0 0 1 0 0 0 0.25 0"/>
<feBlend mode="normal" in2="BackgroundImageFix" result="effect1_dropShadow_2104_36"/>
<feBlend mode="normal" in="SourceGraphic" in2="effect1_dropShadow_2104_36" result="shape"/>
</filter>
<filter id="filter1_d_2104_36" x="107.5" y="29" width="157" height="157" filterUnits="userSpaceOnUse" color-interpolation-filters="sRGB">
<feFlood flood-opacity="0" result="BackgroundImageFix"/>
<feColorMatrix in="SourceAlpha" type="matrix" values="0 0 0 0 0 0 0 0 0 0 0 0 0 0 0 0 0 0 127 0" result="hardAlpha"/>
<feOffset dy="15"/>
<feGaussianBlur stdDeviation="15"/>
<feComposite in2="hardAlpha" operator="out"/>
<feColorMatrix type="matrix" values="0 0 0 0 1 0 0 0 0 1 0 0 0 0 1 0 0 0 1 0"/>
<feBlend mode="normal" in2="BackgroundImageFix" result="effect1_dropShadow_2104_36"/>
<feBlend mode="normal" in="SourceGraphic" in2="effect1_dropShadow_2104_36" result="shape"/>
</filter>
<clipPath id="clip0_2104_36">
<rect width="45" height="45" fill="white" transform="translate(163.5 369)"/>
</clipPath>
</defs>
</svg>
