<svg width="360" height="466" viewBox="0 0 360 466" fill="none" xmlns="http://www.w3.org/2000/svg">
<g filter="url(#filter0_d_2111_134)">
<rect x="4" width="352" height="458" rx="20" fill="#F0F0F0" shape-rendering="crispEdges"/>
<g filter="url(#filter1_d_2111_134)">
<circle cx="180" cy="92.5" r="48.5" fill="#007BFF"/>
<rect width="40" height="40" transform="translate(159 73)" fill="#007BFF"/>
<path d="M194 84.6667H184C183.558 84.6667 183.134 84.8423 182.822 85.1548C182.509 85.4674 182.333 85.8913 182.333 86.3333V91.3333H179V79.6667C179 79.2246 178.825 78.8007 178.512 78.4882C178.199 78.1756 177.776 78 177.333 78H164C163.558 78 163.134 78.1756 162.822 78.4882C162.509 78.8007 162.333 79.2246 162.333 79.6667V106.333C162.333 106.775 162.509 107.199 162.822 107.512C163.134 107.824 163.558 108 164 108H194C194.442 108 194.866 107.824 195.179 107.512C195.491 107.199 195.667 106.775 195.667 106.333V86.3333C195.667 85.8913 195.491 85.4674 195.179 85.1548C194.866 84.8423 194.442 84.6667 194 84.6667ZM172.333 83H175.667V86.3333H172.333V83ZM169 99.6667H165.667V96.3333H169V99.6667ZM169 93H165.667V89.6667H169V93ZM169 86.3333H165.667V83H169V86.3333ZM175.667 99.6667H172.333V96.3333H175.667V99.6667ZM175.667 93H172.333V89.6667H175.667V93ZM190.667 99.6667H187.333V96.3333H190.667V99.6667ZM190.667 93H187.333V89.6667H190.667V93Z" fill="#F0F0F0"/>
</g>
<path d="M104.945 198.84C105.731 198.987 106.378 199.38 106.885 200.02C107.391 200.66 107.645 201.393 107.645 202.22C107.645 202.967 107.458 203.627 107.085 204.2C106.725 204.76 106.198 205.2 105.505 205.52C104.811 205.84 103.991 206 103.045 206H97.0245V192.04H102.785C103.731 192.04 104.545 192.193 105.225 192.5C105.918 192.807 106.438 193.233 106.785 193.78C107.145 194.327 107.325 194.947 107.325 195.64C107.325 196.453 107.105 197.133 106.665 197.68C106.238 198.227 105.665 198.613 104.945 198.84ZM99.8245 197.8H102.385C103.051 197.8 103.565 197.653 103.925 197.36C104.285 197.053 104.465 196.62 104.465 196.06C104.465 195.5 104.285 195.067 103.925 194.76C103.565 194.453 103.051 194.3 102.385 194.3H99.8245V197.8ZM102.645 203.72C103.325 203.72 103.851 203.56 104.225 203.24C104.611 202.92 104.805 202.467 104.805 201.88C104.805 201.28 104.605 200.813 104.205 200.48C103.805 200.133 103.265 199.96 102.585 199.96H99.8245V203.72H102.645ZM120.336 194.92V206H117.516V204.6C117.156 205.08 116.683 205.46 116.096 205.74C115.523 206.007 114.896 206.14 114.216 206.14C113.349 206.14 112.583 205.96 111.916 205.6C111.249 205.227 110.723 204.687 110.336 203.98C109.963 203.26 109.776 202.407 109.776 201.42V194.92H112.576V201.02C112.576 201.9 112.796 202.58 113.236 203.06C113.676 203.527 114.276 203.76 115.036 203.76C115.809 203.76 116.416 203.527 116.856 203.06C117.296 202.58 117.516 201.9 117.516 201.02V194.92H120.336ZM127.339 206.18C126.432 206.18 125.619 206.02 124.899 205.7C124.179 205.367 123.605 204.92 123.179 204.36C122.765 203.8 122.539 203.18 122.499 202.5H125.319C125.372 202.927 125.579 203.28 125.939 203.56C126.312 203.84 126.772 203.98 127.319 203.98C127.852 203.98 128.265 203.873 128.559 203.66C128.865 203.447 129.019 203.173 129.019 202.84C129.019 202.48 128.832 202.213 128.459 202.04C128.099 201.853 127.519 201.653 126.719 201.44C125.892 201.24 125.212 201.033 124.679 200.82C124.159 200.607 123.705 200.28 123.319 199.84C122.945 199.4 122.759 198.807 122.759 198.06C122.759 197.447 122.932 196.887 123.279 196.38C123.639 195.873 124.145 195.473 124.799 195.18C125.465 194.887 126.245 194.74 127.139 194.74C128.459 194.74 129.512 195.073 130.299 195.74C131.085 196.393 131.519 197.28 131.599 198.4H128.919C128.879 197.96 128.692 197.613 128.359 197.36C128.039 197.093 127.605 196.96 127.059 196.96C126.552 196.96 126.159 197.053 125.879 197.24C125.612 197.427 125.479 197.687 125.479 198.02C125.479 198.393 125.665 198.68 126.039 198.88C126.412 199.067 126.992 199.26 127.779 199.46C128.579 199.66 129.239 199.867 129.759 200.08C130.279 200.293 130.725 200.627 131.099 201.08C131.485 201.52 131.685 202.107 131.699 202.84C131.699 203.48 131.519 204.053 131.159 204.56C130.812 205.067 130.305 205.467 129.639 205.76C128.985 206.04 128.219 206.18 127.339 206.18ZM135.417 193.6C134.924 193.6 134.511 193.447 134.177 193.14C133.857 192.82 133.697 192.427 133.697 191.96C133.697 191.493 133.857 191.107 134.177 190.8C134.511 190.48 134.924 190.32 135.417 190.32C135.911 190.32 136.317 190.48 136.637 190.8C136.971 191.107 137.137 191.493 137.137 191.96C137.137 192.427 136.971 192.82 136.637 193.14C136.317 193.447 135.911 193.6 135.417 193.6ZM136.797 194.92V206H133.997V194.92H136.797ZM145.704 194.76C147.024 194.76 148.09 195.18 148.904 196.02C149.717 196.847 150.124 198.007 150.124 199.5V206H147.324V199.88C147.324 199 147.104 198.327 146.664 197.86C146.224 197.38 145.624 197.14 144.864 197.14C144.09 197.14 143.477 197.38 143.024 197.86C142.584 198.327 142.364 199 142.364 199.88V206H139.564V194.92H142.364V196.3C142.737 195.82 143.21 195.447 143.784 195.18C144.37 194.9 145.01 194.76 145.704 194.76ZM163.086 200.22C163.086 200.62 163.06 200.98 163.006 201.3H154.906C154.973 202.1 155.253 202.727 155.746 203.18C156.24 203.633 156.846 203.86 157.566 203.86C158.606 203.86 159.346 203.413 159.786 202.52H162.806C162.486 203.587 161.873 204.467 160.966 205.16C160.06 205.84 158.946 206.18 157.626 206.18C156.56 206.18 155.6 205.947 154.746 205.48C153.906 205 153.246 204.327 152.766 203.46C152.3 202.593 152.066 201.593 152.066 200.46C152.066 199.313 152.3 198.307 152.766 197.44C153.233 196.573 153.886 195.907 154.726 195.44C155.566 194.973 156.533 194.74 157.626 194.74C158.68 194.74 159.62 194.967 160.446 195.42C161.286 195.873 161.933 196.52 162.386 197.36C162.853 198.187 163.086 199.14 163.086 200.22ZM160.186 199.42C160.173 198.7 159.913 198.127 159.406 197.7C158.9 197.26 158.28 197.04 157.546 197.04C156.853 197.04 156.266 197.253 155.786 197.68C155.32 198.093 155.033 198.673 154.926 199.42H160.186ZM169.37 206.18C168.463 206.18 167.65 206.02 166.93 205.7C166.21 205.367 165.637 204.92 165.21 204.36C164.797 203.8 164.57 203.18 164.53 202.5H167.35C167.403 202.927 167.61 203.28 167.97 203.56C168.343 203.84 168.803 203.98 169.35 203.98C169.883 203.98 170.297 203.873 170.59 203.66C170.897 203.447 171.05 203.173 171.05 202.84C171.05 202.48 170.863 202.213 170.49 202.04C170.13 201.853 169.55 201.653 168.75 201.44C167.923 201.24 167.243 201.033 166.71 200.82C166.19 200.607 165.737 200.28 165.35 199.84C164.977 199.4 164.79 198.807 164.79 198.06C164.79 197.447 164.963 196.887 165.31 196.38C165.67 195.873 166.177 195.473 166.83 195.18C167.497 194.887 168.277 194.74 169.17 194.74C170.49 194.74 171.543 195.073 172.33 195.74C173.117 196.393 173.55 197.28 173.63 198.4H170.95C170.91 197.96 170.723 197.613 170.39 197.36C170.07 197.093 169.637 196.96 169.09 196.96C168.583 196.96 168.19 197.053 167.91 197.24C167.643 197.427 167.51 197.687 167.51 198.02C167.51 198.393 167.697 198.68 168.07 198.88C168.443 199.067 169.023 199.26 169.81 199.46C170.61 199.66 171.27 199.867 171.79 200.08C172.31 200.293 172.757 200.627 173.13 201.08C173.517 201.52 173.717 202.107 173.73 202.84C173.73 203.48 173.55 204.053 173.19 204.56C172.843 205.067 172.337 205.467 171.67 205.76C171.017 206.04 170.25 206.18 169.37 206.18ZM180.268 206.18C179.362 206.18 178.548 206.02 177.828 205.7C177.108 205.367 176.535 204.92 176.108 204.36C175.695 203.8 175.468 203.18 175.428 202.5H178.248C178.302 202.927 178.508 203.28 178.868 203.56C179.242 203.84 179.702 203.98 180.248 203.98C180.782 203.98 181.195 203.873 181.488 203.66C181.795 203.447 181.948 203.173 181.948 202.84C181.948 202.48 181.762 202.213 181.388 202.04C181.028 201.853 180.448 201.653 179.648 201.44C178.822 201.24 178.142 201.033 177.608 200.82C177.088 200.607 176.635 200.28 176.248 199.84C175.875 199.4 175.688 198.807 175.688 198.06C175.688 197.447 175.862 196.887 176.208 196.38C176.568 195.873 177.075 195.473 177.728 195.18C178.395 194.887 179.175 194.74 180.068 194.74C181.388 194.74 182.442 195.073 183.228 195.74C184.015 196.393 184.448 197.28 184.528 198.4H181.848C181.808 197.96 181.622 197.613 181.288 197.36C180.968 197.093 180.535 196.96 179.988 196.96C179.482 196.96 179.088 197.053 178.808 197.24C178.542 197.427 178.408 197.687 178.408 198.02C178.408 198.393 178.595 198.68 178.968 198.88C179.342 199.067 179.922 199.26 180.708 199.46C181.508 199.66 182.168 199.867 182.688 200.08C183.208 200.293 183.655 200.627 184.028 201.08C184.415 201.52 184.615 202.107 184.628 202.84C184.628 203.48 184.448 204.053 184.088 204.56C183.742 205.067 183.235 205.467 182.568 205.76C181.915 206.04 181.148 206.18 180.268 206.18ZM201.413 196.24C201.093 195.653 200.653 195.207 200.093 194.9C199.533 194.593 198.879 194.44 198.133 194.44C197.306 194.44 196.573 194.627 195.933 195C195.293 195.373 194.793 195.907 194.433 196.6C194.073 197.293 193.893 198.093 193.893 199C193.893 199.933 194.073 200.747 194.433 201.44C194.806 202.133 195.319 202.667 195.973 203.04C196.626 203.413 197.386 203.6 198.253 203.6C199.319 203.6 200.193 203.32 200.872 202.76C201.553 202.187 201.999 201.393 202.213 200.38H197.413V198.24H204.973V200.68C204.786 201.653 204.386 202.553 203.773 203.38C203.159 204.207 202.366 204.873 201.393 205.38C200.433 205.873 199.353 206.12 198.153 206.12C196.806 206.12 195.586 205.82 194.493 205.22C193.413 204.607 192.559 203.76 191.933 202.68C191.319 201.6 191.013 200.373 191.013 199C191.013 197.627 191.319 196.4 191.933 195.32C192.559 194.227 193.413 193.38 194.493 192.78C195.586 192.167 196.799 191.86 198.133 191.86C199.706 191.86 201.073 192.247 202.233 193.02C203.393 193.78 204.193 194.853 204.633 196.24H201.413ZM209.844 196.64C210.204 196.053 210.671 195.593 211.244 195.26C211.831 194.927 212.497 194.76 213.244 194.76V197.7H212.504C211.624 197.7 210.957 197.907 210.504 198.32C210.064 198.733 209.844 199.453 209.844 200.48V206H207.044V194.92H209.844V196.64ZM220.05 206.18C218.983 206.18 218.023 205.947 217.17 205.48C216.317 205 215.643 204.327 215.15 203.46C214.67 202.593 214.43 201.593 214.43 200.46C214.43 199.327 214.677 198.327 215.17 197.46C215.677 196.593 216.363 195.927 217.23 195.46C218.097 194.98 219.063 194.74 220.13 194.74C221.197 194.74 222.163 194.98 223.03 195.46C223.897 195.927 224.577 196.593 225.07 197.46C225.577 198.327 225.83 199.327 225.83 200.46C225.83 201.593 225.57 202.593 225.05 203.46C224.543 204.327 223.85 205 222.97 205.48C222.103 205.947 221.13 206.18 220.05 206.18ZM220.05 203.74C220.557 203.74 221.03 203.62 221.47 203.38C221.923 203.127 222.283 202.753 222.55 202.26C222.817 201.767 222.95 201.167 222.95 200.46C222.95 199.407 222.67 198.6 222.11 198.04C221.563 197.467 220.89 197.18 220.09 197.18C219.29 197.18 218.617 197.467 218.07 198.04C217.537 198.6 217.27 199.407 217.27 200.46C217.27 201.513 217.53 202.327 218.05 202.9C218.583 203.46 219.25 203.74 220.05 203.74ZM243.244 194.92L240.004 206H236.984L234.964 198.26L232.944 206H229.904L226.644 194.92H229.484L231.444 203.36L233.564 194.92H236.524L238.604 203.34L240.564 194.92H243.244ZM248.019 197.22V202.58C248.019 202.953 248.106 203.227 248.279 203.4C248.466 203.56 248.772 203.64 249.199 203.64H250.499V206H248.739C246.379 206 245.199 204.853 245.199 202.56V197.22H243.879V194.92H245.199V192.18H248.019V194.92H250.499V197.22H248.019ZM258.753 194.76C259.593 194.76 260.339 194.947 260.993 195.32C261.646 195.68 262.153 196.22 262.513 196.94C262.886 197.647 263.073 198.5 263.073 199.5V206H260.273V199.88C260.273 199 260.053 198.327 259.613 197.86C259.173 197.38 258.573 197.14 257.813 197.14C257.039 197.14 256.426 197.38 255.973 197.86C255.533 198.327 255.313 199 255.313 199.88V206H252.513V191.2H255.313V196.3C255.673 195.82 256.153 195.447 256.753 195.18C257.353 194.9 258.019 194.76 258.753 194.76Z" fill="#111029"/>
<path d="M72.5163 238.454L68.8803 251H67.0443L64.1283 240.902L61.1043 251L59.2863 251.018L55.7763 238.454H57.5223L60.2583 249.092L63.2823 238.454H65.1183L67.9983 249.056L70.7523 238.454H72.5163ZM83.3089 245.69C83.3089 246.002 83.2909 246.332 83.2549 246.68H75.3709C75.4309 247.652 75.7609 248.414 76.3609 248.966C76.9729 249.506 77.7109 249.776 78.5749 249.776C79.2829 249.776 79.8709 249.614 80.3389 249.29C80.8189 248.954 81.1549 248.51 81.3469 247.958H83.1109C82.8469 248.906 82.3189 249.68 81.5269 250.28C80.7349 250.868 79.7509 251.162 78.5749 251.162C77.6389 251.162 76.7989 250.952 76.0549 250.532C75.3229 250.112 74.7469 249.518 74.3269 248.75C73.9069 247.97 73.6969 247.07 73.6969 246.05C73.6969 245.03 73.9009 244.136 74.3089 243.368C74.7169 242.6 75.2869 242.012 76.0189 241.604C76.7629 241.184 77.6149 240.974 78.5749 240.974C79.5109 240.974 80.3389 241.178 81.0589 241.586C81.7789 241.994 82.3309 242.558 82.7149 243.278C83.1109 243.986 83.3089 244.79 83.3089 245.69ZM81.6169 245.348C81.6169 244.724 81.4789 244.19 81.2029 243.746C80.9269 243.29 80.5489 242.948 80.0689 242.72C79.6009 242.48 79.0789 242.36 78.5029 242.36C77.6749 242.36 76.9669 242.624 76.3789 243.152C75.8029 243.68 75.4729 244.412 75.3889 245.348H81.6169ZM89.6578 246.032C89.6578 245.024 89.8618 244.142 90.2698 243.386C90.6778 242.618 91.2358 242.024 91.9438 241.604C92.6638 241.184 93.4618 240.974 94.3378 240.974C95.2018 240.974 95.9518 241.16 96.5878 241.532C97.2238 241.904 97.6978 242.372 98.0098 242.936V241.136H99.6658V251H98.0098V249.164C97.6858 249.74 97.1998 250.22 96.5518 250.604C95.9158 250.976 95.1718 251.162 94.3198 251.162C93.4438 251.162 92.6518 250.946 91.9438 250.514C91.2358 250.082 90.6778 249.476 90.2698 248.696C89.8618 247.916 89.6578 247.028 89.6578 246.032ZM98.0098 246.05C98.0098 245.306 97.8598 244.658 97.5598 244.106C97.2598 243.554 96.8518 243.134 96.3358 242.846C95.8318 242.546 95.2738 242.396 94.6618 242.396C94.0498 242.396 93.4918 242.54 92.9878 242.828C92.4838 243.116 92.0818 243.536 91.7818 244.088C91.4818 244.64 91.3318 245.288 91.3318 246.032C91.3318 246.788 91.4818 247.448 91.7818 248.012C92.0818 248.564 92.4838 248.99 92.9878 249.29C93.4918 249.578 94.0498 249.722 94.6618 249.722C95.2738 249.722 95.8318 249.578 96.3358 249.29C96.8518 248.99 97.2598 248.564 97.5598 248.012C97.8598 247.448 98.0098 246.794 98.0098 246.05ZM104.072 237.68V251H102.434V237.68H104.072ZM110.356 251.162C109.6 251.162 108.922 251.036 108.322 250.784C107.722 250.52 107.248 250.16 106.9 249.704C106.552 249.236 106.36 248.702 106.324 248.102H108.016C108.064 248.594 108.292 248.996 108.7 249.308C109.12 249.62 109.666 249.776 110.338 249.776C110.962 249.776 111.454 249.638 111.814 249.362C112.174 249.086 112.354 248.738 112.354 248.318C112.354 247.886 112.162 247.568 111.778 247.364C111.394 247.148 110.8 246.938 109.996 246.734C109.264 246.542 108.664 246.35 108.196 246.158C107.74 245.954 107.344 245.66 107.008 245.276C106.684 244.88 106.522 244.364 106.522 243.728C106.522 243.224 106.672 242.762 106.972 242.342C107.272 241.922 107.698 241.592 108.25 241.352C108.802 241.1 109.432 240.974 110.14 240.974C111.232 240.974 112.114 241.25 112.786 241.802C113.458 242.354 113.818 243.11 113.866 244.07H112.228C112.192 243.554 111.982 243.14 111.598 242.828C111.226 242.516 110.722 242.36 110.086 242.36C109.498 242.36 109.03 242.486 108.682 242.738C108.334 242.99 108.16 243.32 108.16 243.728C108.16 244.052 108.262 244.322 108.466 244.538C108.682 244.742 108.946 244.91 109.258 245.042C109.582 245.162 110.026 245.3 110.59 245.456C111.298 245.648 111.874 245.84 112.318 246.032C112.762 246.212 113.14 246.488 113.452 246.86C113.776 247.232 113.944 247.718 113.956 248.318C113.956 248.858 113.806 249.344 113.506 249.776C113.206 250.208 112.78 250.55 112.228 250.802C111.688 251.042 111.064 251.162 110.356 251.162ZM120.57 251.162C119.646 251.162 118.806 250.952 118.05 250.532C117.306 250.112 116.718 249.518 116.286 248.75C115.866 247.97 115.656 247.07 115.656 246.05C115.656 245.042 115.872 244.154 116.304 243.386C116.748 242.606 117.348 242.012 118.104 241.604C118.86 241.184 119.706 240.974 120.642 240.974C121.578 240.974 122.424 241.184 123.18 241.604C123.936 242.012 124.53 242.6 124.962 243.368C125.406 244.136 125.628 245.03 125.628 246.05C125.628 247.07 125.4 247.97 124.944 248.75C124.5 249.518 123.894 250.112 123.126 250.532C122.358 250.952 121.506 251.162 120.57 251.162ZM120.57 249.722C121.158 249.722 121.71 249.584 122.226 249.308C122.742 249.032 123.156 248.618 123.468 248.066C123.792 247.514 123.954 246.842 123.954 246.05C123.954 245.258 123.798 244.586 123.486 244.034C123.174 243.482 122.766 243.074 122.262 242.81C121.758 242.534 121.212 242.396 120.624 242.396C120.024 242.396 119.472 242.534 118.968 242.81C118.476 243.074 118.08 243.482 117.78 244.034C117.48 244.586 117.33 245.258 117.33 246.05C117.33 246.854 117.474 247.532 117.762 248.084C118.062 248.636 118.458 249.05 118.95 249.326C119.442 249.59 119.982 249.722 120.57 249.722ZM134.218 242.954C134.542 242.39 135.022 241.922 135.658 241.55C136.306 241.166 137.056 240.974 137.908 240.974C138.784 240.974 139.576 241.184 140.284 241.604C141.004 242.024 141.568 242.618 141.976 243.386C142.384 244.142 142.588 245.024 142.588 246.032C142.588 247.028 142.384 247.916 141.976 248.696C141.568 249.476 141.004 250.082 140.284 250.514C139.576 250.946 138.784 251.162 137.908 251.162C137.068 251.162 136.324 250.976 135.676 250.604C135.04 250.22 134.554 249.746 134.218 249.182V255.68H132.58V241.136H134.218V242.954ZM140.914 246.032C140.914 245.288 140.764 244.64 140.464 244.088C140.164 243.536 139.756 243.116 139.24 242.828C138.736 242.54 138.178 242.396 137.566 242.396C136.966 242.396 136.408 242.546 135.892 242.846C135.388 243.134 134.98 243.56 134.668 244.124C134.368 244.676 134.218 245.318 134.218 246.05C134.218 246.794 134.368 247.448 134.668 248.012C134.98 248.564 135.388 248.99 135.892 249.29C136.408 249.578 136.966 249.722 137.566 249.722C138.178 249.722 138.736 249.578 139.24 249.29C139.756 248.99 140.164 248.564 140.464 248.012C140.764 247.448 140.914 246.788 140.914 246.032ZM146.382 242.738C146.67 242.174 147.078 241.736 147.606 241.424C148.146 241.112 148.8 240.956 149.568 240.956V242.648H149.136C147.3 242.648 146.382 243.644 146.382 245.636V251H144.744V241.136H146.382V242.738ZM155.761 251.162C154.837 251.162 153.997 250.952 153.241 250.532C152.497 250.112 151.909 249.518 151.477 248.75C151.057 247.97 150.847 247.07 150.847 246.05C150.847 245.042 151.063 244.154 151.495 243.386C151.939 242.606 152.539 242.012 153.295 241.604C154.051 241.184 154.897 240.974 155.833 240.974C156.769 240.974 157.615 241.184 158.371 241.604C159.127 242.012 159.721 242.6 160.153 243.368C160.597 244.136 160.819 245.03 160.819 246.05C160.819 247.07 160.591 247.97 160.135 248.75C159.691 249.518 159.085 250.112 158.317 250.532C157.549 250.952 156.697 251.162 155.761 251.162ZM155.761 249.722C156.349 249.722 156.901 249.584 157.417 249.308C157.933 249.032 158.347 248.618 158.659 248.066C158.983 247.514 159.145 246.842 159.145 246.05C159.145 245.258 158.989 244.586 158.677 244.034C158.365 243.482 157.957 243.074 157.453 242.81C156.949 242.534 156.403 242.396 155.815 242.396C155.215 242.396 154.663 242.534 154.159 242.81C153.667 243.074 153.271 243.482 152.971 244.034C152.671 244.586 152.521 245.258 152.521 246.05C152.521 246.854 152.665 247.532 152.953 248.084C153.253 248.636 153.649 249.05 154.141 249.326C154.633 249.59 155.173 249.722 155.761 249.722ZM166.645 249.488L169.705 241.136H171.451L167.581 251H165.673L161.803 241.136H163.567L166.645 249.488ZM173.909 239.534C173.597 239.534 173.333 239.426 173.117 239.21C172.901 238.994 172.793 238.73 172.793 238.418C172.793 238.106 172.901 237.842 173.117 237.626C173.333 237.41 173.597 237.302 173.909 237.302C174.209 237.302 174.461 237.41 174.665 237.626C174.881 237.842 174.989 238.106 174.989 238.418C174.989 238.73 174.881 238.994 174.665 239.21C174.461 239.426 174.209 239.534 173.909 239.534ZM174.701 241.136V251H173.063V241.136H174.701ZM176.88 246.032C176.88 245.024 177.084 244.142 177.492 243.386C177.9 242.618 178.458 242.024 179.166 241.604C179.886 241.184 180.69 240.974 181.578 240.974C182.346 240.974 183.06 241.154 183.72 241.514C184.38 241.862 184.884 242.324 185.232 242.9V237.68H186.888V251H185.232V249.146C184.908 249.734 184.428 250.22 183.792 250.604C183.156 250.976 182.412 251.162 181.56 251.162C180.684 251.162 179.886 250.946 179.166 250.514C178.458 250.082 177.9 249.476 177.492 248.696C177.084 247.916 176.88 247.028 176.88 246.032ZM185.232 246.05C185.232 245.306 185.082 244.658 184.782 244.106C184.482 243.554 184.074 243.134 183.558 242.846C183.054 242.546 182.496 242.396 181.884 242.396C181.272 242.396 180.714 242.54 180.21 242.828C179.706 243.116 179.304 243.536 179.004 244.088C178.704 244.64 178.554 245.288 178.554 246.032C178.554 246.788 178.704 247.448 179.004 248.012C179.304 248.564 179.706 248.99 180.21 249.29C180.714 249.578 181.272 249.722 181.884 249.722C182.496 249.722 183.054 249.578 183.558 249.29C184.074 248.99 184.482 248.564 184.782 248.012C185.082 247.448 185.232 246.794 185.232 246.05ZM198.657 245.69C198.657 246.002 198.639 246.332 198.603 246.68H190.719C190.779 247.652 191.109 248.414 191.709 248.966C192.321 249.506 193.059 249.776 193.923 249.776C194.631 249.776 195.219 249.614 195.687 249.29C196.167 248.954 196.503 248.51 196.695 247.958H198.459C198.195 248.906 197.667 249.68 196.875 250.28C196.083 250.868 195.099 251.162 193.923 251.162C192.987 251.162 192.147 250.952 191.403 250.532C190.671 250.112 190.095 249.518 189.675 248.75C189.255 247.97 189.045 247.07 189.045 246.05C189.045 245.03 189.249 244.136 189.657 243.368C190.065 242.6 190.635 242.012 191.367 241.604C192.111 241.184 192.963 240.974 193.923 240.974C194.859 240.974 195.687 241.178 196.407 241.586C197.127 241.994 197.679 242.558 198.063 243.278C198.459 243.986 198.657 244.79 198.657 245.69ZM196.965 245.348C196.965 244.724 196.827 244.19 196.551 243.746C196.275 243.29 195.897 242.948 195.417 242.72C194.949 242.48 194.427 242.36 193.851 242.36C193.023 242.36 192.315 242.624 191.727 243.152C191.151 243.68 190.821 244.412 190.737 245.348H196.965ZM209.109 251.162C208.353 251.162 207.675 251.036 207.075 250.784C206.475 250.52 206.001 250.16 205.653 249.704C205.305 249.236 205.113 248.702 205.077 248.102H206.769C206.817 248.594 207.045 248.996 207.453 249.308C207.873 249.62 208.419 249.776 209.091 249.776C209.715 249.776 210.207 249.638 210.567 249.362C210.927 249.086 211.107 248.738 211.107 248.318C211.107 247.886 210.915 247.568 210.531 247.364C210.147 247.148 209.553 246.938 208.749 246.734C208.017 246.542 207.417 246.35 206.949 246.158C206.493 245.954 206.097 245.66 205.761 245.276C205.437 244.88 205.275 244.364 205.275 243.728C205.275 243.224 205.425 242.762 205.725 242.342C206.025 241.922 206.451 241.592 207.003 241.352C207.555 241.1 208.185 240.974 208.893 240.974C209.985 240.974 210.867 241.25 211.539 241.802C212.211 242.354 212.571 243.11 212.619 244.07H210.981C210.945 243.554 210.735 243.14 210.351 242.828C209.979 242.516 209.475 242.36 208.839 242.36C208.251 242.36 207.783 242.486 207.435 242.738C207.087 242.99 206.913 243.32 206.913 243.728C206.913 244.052 207.015 244.322 207.219 244.538C207.435 244.742 207.699 244.91 208.011 245.042C208.335 245.162 208.779 245.3 209.343 245.456C210.051 245.648 210.627 245.84 211.071 246.032C211.515 246.212 211.893 246.488 212.205 246.86C212.529 247.232 212.697 247.718 212.709 248.318C212.709 248.858 212.559 249.344 212.259 249.776C211.959 250.208 211.533 250.55 210.981 250.802C210.441 251.042 209.817 251.162 209.109 251.162ZM224.022 245.69C224.022 246.002 224.004 246.332 223.968 246.68H216.084C216.144 247.652 216.474 248.414 217.074 248.966C217.686 249.506 218.424 249.776 219.288 249.776C219.996 249.776 220.584 249.614 221.052 249.29C221.532 248.954 221.868 248.51 222.06 247.958H223.824C223.56 248.906 223.032 249.68 222.24 250.28C221.448 250.868 220.464 251.162 219.288 251.162C218.352 251.162 217.512 250.952 216.768 250.532C216.036 250.112 215.46 249.518 215.04 248.75C214.62 247.97 214.41 247.07 214.41 246.05C214.41 245.03 214.614 244.136 215.022 243.368C215.43 242.6 216 242.012 216.732 241.604C217.476 241.184 218.328 240.974 219.288 240.974C220.224 240.974 221.052 241.178 221.772 241.586C222.492 241.994 223.044 242.558 223.428 243.278C223.824 243.986 224.022 244.79 224.022 245.69ZM222.33 245.348C222.33 244.724 222.192 244.19 221.916 243.746C221.64 243.29 221.262 242.948 220.782 242.72C220.314 242.48 219.792 242.36 219.216 242.36C218.388 242.36 217.68 242.624 217.092 243.152C216.516 243.68 216.186 244.412 216.102 245.348H222.33ZM227.822 242.738C228.11 242.174 228.518 241.736 229.046 241.424C229.586 241.112 230.24 240.956 231.008 240.956V242.648H230.576C228.74 242.648 227.822 243.644 227.822 245.636V251H226.184V241.136H227.822V242.738ZM236.571 249.488L239.631 241.136H241.377L237.507 251H235.599L231.729 241.136H233.493L236.571 249.488ZM243.835 239.534C243.523 239.534 243.259 239.426 243.043 239.21C242.827 238.994 242.719 238.73 242.719 238.418C242.719 238.106 242.827 237.842 243.043 237.626C243.259 237.41 243.523 237.302 243.835 237.302C244.135 237.302 244.387 237.41 244.591 237.626C244.807 237.842 244.915 238.106 244.915 238.418C244.915 238.73 244.807 238.994 244.591 239.21C244.387 239.426 244.135 239.534 243.835 239.534ZM244.627 241.136V251H242.989V241.136H244.627ZM246.806 246.05C246.806 245.03 247.01 244.142 247.418 243.386C247.826 242.618 248.39 242.024 249.11 241.604C249.842 241.184 250.676 240.974 251.612 240.974C252.824 240.974 253.82 241.268 254.6 241.856C255.392 242.444 255.914 243.26 256.166 244.304H254.402C254.234 243.704 253.904 243.23 253.412 242.882C252.932 242.534 252.332 242.36 251.612 242.36C250.676 242.36 249.92 242.684 249.344 243.332C248.768 243.968 248.48 244.874 248.48 246.05C248.48 247.238 248.768 248.156 249.344 248.804C249.92 249.452 250.676 249.776 251.612 249.776C252.332 249.776 252.932 249.608 253.412 249.272C253.892 248.936 254.222 248.456 254.402 247.832H256.166C255.902 248.84 255.374 249.65 254.582 250.262C253.79 250.862 252.8 251.162 251.612 251.162C250.676 251.162 249.842 250.952 249.11 250.532C248.39 250.112 247.826 249.518 247.418 248.75C247.01 247.982 246.806 247.082 246.806 246.05ZM267.352 245.69C267.352 246.002 267.334 246.332 267.298 246.68H259.414C259.474 247.652 259.804 248.414 260.404 248.966C261.016 249.506 261.754 249.776 262.618 249.776C263.326 249.776 263.914 249.614 264.382 249.29C264.862 248.954 265.198 248.51 265.39 247.958H267.154C266.89 248.906 266.362 249.68 265.57 250.28C264.778 250.868 263.794 251.162 262.618 251.162C261.682 251.162 260.842 250.952 260.098 250.532C259.366 250.112 258.79 249.518 258.37 248.75C257.95 247.97 257.74 247.07 257.74 246.05C257.74 245.03 257.944 244.136 258.352 243.368C258.76 242.6 259.33 242.012 260.062 241.604C260.806 241.184 261.658 240.974 262.618 240.974C263.554 240.974 264.382 241.178 265.102 241.586C265.822 241.994 266.374 242.558 266.758 243.278C267.154 243.986 267.352 244.79 267.352 245.69ZM265.66 245.348C265.66 244.724 265.522 244.19 265.246 243.746C264.97 243.29 264.592 242.948 264.112 242.72C263.644 242.48 263.122 242.36 262.546 242.36C261.718 242.36 261.01 242.624 260.422 243.152C259.846 243.68 259.516 244.412 259.432 245.348H265.66ZM273.006 251.162C272.25 251.162 271.572 251.036 270.972 250.784C270.372 250.52 269.898 250.16 269.55 249.704C269.202 249.236 269.01 248.702 268.974 248.102H270.666C270.714 248.594 270.942 248.996 271.35 249.308C271.77 249.62 272.316 249.776 272.988 249.776C273.612 249.776 274.104 249.638 274.464 249.362C274.824 249.086 275.004 248.738 275.004 248.318C275.004 247.886 274.812 247.568 274.428 247.364C274.044 247.148 273.45 246.938 272.646 246.734C271.914 246.542 271.314 246.35 270.846 246.158C270.39 245.954 269.994 245.66 269.658 245.276C269.334 244.88 269.172 244.364 269.172 243.728C269.172 243.224 269.322 242.762 269.622 242.342C269.922 241.922 270.348 241.592 270.9 241.352C271.452 241.1 272.082 240.974 272.79 240.974C273.882 240.974 274.764 241.25 275.436 241.802C276.108 242.354 276.468 243.11 276.516 244.07H274.878C274.842 243.554 274.632 243.14 274.248 242.828C273.876 242.516 273.372 242.36 272.736 242.36C272.148 242.36 271.68 242.486 271.332 242.738C270.984 242.99 270.81 243.32 270.81 243.728C270.81 244.052 270.912 244.322 271.116 244.538C271.332 244.742 271.596 244.91 271.908 245.042C272.232 245.162 272.676 245.3 273.24 245.456C273.948 245.648 274.524 245.84 274.968 246.032C275.412 246.212 275.79 246.488 276.102 246.86C276.426 247.232 276.594 247.718 276.606 248.318C276.606 248.858 276.456 249.344 276.156 249.776C275.856 250.208 275.43 250.55 274.878 250.802C274.338 251.042 273.714 251.162 273.006 251.162ZM285.355 242.972C285.691 242.384 286.183 241.904 286.831 241.532C287.479 241.16 288.217 240.974 289.045 240.974C289.933 240.974 290.731 241.184 291.439 241.604C292.147 242.024 292.705 242.618 293.113 243.386C293.521 244.142 293.725 245.024 293.725 246.032C293.725 247.028 293.521 247.916 293.113 248.696C292.705 249.476 292.141 250.082 291.421 250.514C290.713 250.946 289.921 251.162 289.045 251.162C288.193 251.162 287.443 250.976 286.795 250.604C286.159 250.232 285.679 249.758 285.355 249.182V251H283.717V237.68H285.355V242.972ZM292.051 246.032C292.051 245.288 291.901 244.64 291.601 244.088C291.301 243.536 290.893 243.116 290.377 242.828C289.873 242.54 289.315 242.396 288.703 242.396C288.103 242.396 287.545 242.546 287.029 242.846C286.525 243.134 286.117 243.56 285.805 244.124C285.505 244.676 285.355 245.318 285.355 246.05C285.355 246.794 285.505 247.448 285.805 248.012C286.117 248.564 286.525 248.99 287.029 249.29C287.545 249.578 288.103 249.722 288.703 249.722C289.315 249.722 289.873 249.578 290.377 249.29C290.893 248.99 291.301 248.564 291.601 248.012C291.901 247.448 292.051 246.788 292.051 246.032ZM304.377 241.136L298.437 255.644H296.745L298.689 250.892L294.711 241.136H296.529L299.625 249.128L302.685 241.136H304.377ZM78.1265 274.954C78.4505 274.39 78.9305 273.922 79.5665 273.55C80.2145 273.166 80.9645 272.974 81.8165 272.974C82.6925 272.974 83.4845 273.184 84.1925 273.604C84.9125 274.024 85.4765 274.618 85.8845 275.386C86.2925 276.142 86.4965 277.024 86.4965 278.032C86.4965 279.028 86.2925 279.916 85.8845 280.696C85.4765 281.476 84.9125 282.082 84.1925 282.514C83.4845 282.946 82.6925 283.162 81.8165 283.162C80.9765 283.162 80.2325 282.976 79.5845 282.604C78.9485 282.22 78.4625 281.746 78.1265 281.182V287.68H76.4885V273.136H78.1265V274.954ZM84.8225 278.032C84.8225 277.288 84.6725 276.64 84.3725 276.088C84.0725 275.536 83.6645 275.116 83.1485 274.828C82.6445 274.54 82.0865 274.396 81.4745 274.396C80.8745 274.396 80.3165 274.546 79.8005 274.846C79.2965 275.134 78.8885 275.56 78.5765 276.124C78.2765 276.676 78.1265 277.318 78.1265 278.05C78.1265 278.794 78.2765 279.448 78.5765 280.012C78.8885 280.564 79.2965 280.99 79.8005 281.29C80.3165 281.578 80.8745 281.722 81.4745 281.722C82.0865 281.722 82.6445 281.578 83.1485 281.29C83.6645 280.99 84.0725 280.564 84.3725 280.012C84.6725 279.448 84.8225 278.788 84.8225 278.032ZM90.2906 274.738C90.5786 274.174 90.9866 273.736 91.5146 273.424C92.0546 273.112 92.7086 272.956 93.4766 272.956V274.648H93.0446C91.2086 274.648 90.2906 275.644 90.2906 277.636V283H88.6526V273.136H90.2906V274.738ZM99.6694 283.162C98.7454 283.162 97.9054 282.952 97.1494 282.532C96.4054 282.112 95.8174 281.518 95.3854 280.75C94.9654 279.97 94.7554 279.07 94.7554 278.05C94.7554 277.042 94.9714 276.154 95.4034 275.386C95.8474 274.606 96.4474 274.012 97.2034 273.604C97.9594 273.184 98.8054 272.974 99.7414 272.974C100.677 272.974 101.523 273.184 102.279 273.604C103.035 274.012 103.629 274.6 104.061 275.368C104.505 276.136 104.727 277.03 104.727 278.05C104.727 279.07 104.499 279.97 104.043 280.75C103.599 281.518 102.993 282.112 102.225 282.532C101.457 282.952 100.605 283.162 99.6694 283.162ZM99.6694 281.722C100.257 281.722 100.809 281.584 101.325 281.308C101.841 281.032 102.255 280.618 102.567 280.066C102.891 279.514 103.053 278.842 103.053 278.05C103.053 277.258 102.897 276.586 102.585 276.034C102.273 275.482 101.865 275.074 101.361 274.81C100.857 274.534 100.311 274.396 99.7234 274.396C99.1234 274.396 98.5714 274.534 98.0674 274.81C97.5754 275.074 97.1794 275.482 96.8794 276.034C96.5794 276.586 96.4294 277.258 96.4294 278.05C96.4294 278.854 96.5734 279.532 96.8614 280.084C97.1614 280.636 97.5574 281.05 98.0494 281.326C98.5414 281.59 99.0814 281.722 99.6694 281.722ZM110.553 281.488L113.613 273.136H115.359L111.489 283H109.581L105.711 273.136H107.475L110.553 281.488ZM117.817 271.534C117.505 271.534 117.241 271.426 117.025 271.21C116.809 270.994 116.701 270.73 116.701 270.418C116.701 270.106 116.809 269.842 117.025 269.626C117.241 269.41 117.505 269.302 117.817 269.302C118.117 269.302 118.369 269.41 118.573 269.626C118.789 269.842 118.897 270.106 118.897 270.418C118.897 270.73 118.789 270.994 118.573 271.21C118.369 271.426 118.117 271.534 117.817 271.534ZM118.609 273.136V283H116.971V273.136H118.609ZM120.789 278.032C120.789 277.024 120.993 276.142 121.401 275.386C121.809 274.618 122.367 274.024 123.075 273.604C123.795 273.184 124.599 272.974 125.487 272.974C126.255 272.974 126.969 273.154 127.629 273.514C128.289 273.862 128.793 274.324 129.141 274.9V269.68H130.797V283H129.141V281.146C128.817 281.734 128.337 282.22 127.701 282.604C127.065 282.976 126.321 283.162 125.469 283.162C124.593 283.162 123.795 282.946 123.075 282.514C122.367 282.082 121.809 281.476 121.401 280.696C120.993 279.916 120.789 279.028 120.789 278.032ZM129.141 278.05C129.141 277.306 128.991 276.658 128.691 276.106C128.391 275.554 127.983 275.134 127.467 274.846C126.963 274.546 126.405 274.396 125.793 274.396C125.181 274.396 124.623 274.54 124.119 274.828C123.615 275.116 123.213 275.536 122.913 276.088C122.613 276.64 122.463 277.288 122.463 278.032C122.463 278.788 122.613 279.448 122.913 280.012C123.213 280.564 123.615 280.99 124.119 281.29C124.623 281.578 125.181 281.722 125.793 281.722C126.405 281.722 126.963 281.578 127.467 281.29C127.983 280.99 128.391 280.564 128.691 280.012C128.991 279.448 129.141 278.794 129.141 278.05ZM134.411 271.534C134.099 271.534 133.835 271.426 133.619 271.21C133.403 270.994 133.295 270.73 133.295 270.418C133.295 270.106 133.403 269.842 133.619 269.626C133.835 269.41 134.099 269.302 134.411 269.302C134.711 269.302 134.963 269.41 135.167 269.626C135.383 269.842 135.491 270.106 135.491 270.418C135.491 270.73 135.383 270.994 135.167 271.21C134.963 271.426 134.711 271.534 134.411 271.534ZM135.203 273.136V283H133.565V273.136H135.203ZM142.8 272.956C144 272.956 144.972 273.322 145.716 274.054C146.46 274.774 146.832 275.818 146.832 277.186V283H145.212V277.42C145.212 276.436 144.966 275.686 144.474 275.17C143.982 274.642 143.31 274.378 142.458 274.378C141.594 274.378 140.904 274.648 140.388 275.188C139.884 275.728 139.632 276.514 139.632 277.546V283H137.994V273.136H139.632V274.54C139.956 274.036 140.394 273.646 140.946 273.37C141.51 273.094 142.128 272.956 142.8 272.956ZM153.576 272.974C154.428 272.974 155.172 273.16 155.808 273.532C156.456 273.904 156.936 274.372 157.248 274.936V273.136H158.904V283.216C158.904 284.116 158.712 284.914 158.328 285.61C157.944 286.318 157.392 286.87 156.672 287.266C155.964 287.662 155.136 287.86 154.188 287.86C152.892 287.86 151.812 287.554 150.948 286.942C150.084 286.33 149.574 285.496 149.418 284.44H151.038C151.218 285.04 151.59 285.52 152.154 285.88C152.718 286.252 153.396 286.438 154.188 286.438C155.088 286.438 155.82 286.156 156.384 285.592C156.96 285.028 157.248 284.236 157.248 283.216V281.146C156.924 281.722 156.444 282.202 155.808 282.586C155.172 282.97 154.428 283.162 153.576 283.162C152.7 283.162 151.902 282.946 151.182 282.514C150.474 282.082 149.916 281.476 149.508 280.696C149.1 279.916 148.896 279.028 148.896 278.032C148.896 277.024 149.1 276.142 149.508 275.386C149.916 274.618 150.474 274.024 151.182 273.604C151.902 273.184 152.7 272.974 153.576 272.974ZM157.248 278.05C157.248 277.306 157.098 276.658 156.798 276.106C156.498 275.554 156.09 275.134 155.574 274.846C155.07 274.546 154.512 274.396 153.9 274.396C153.288 274.396 152.73 274.54 152.226 274.828C151.722 275.116 151.32 275.536 151.02 276.088C150.72 276.64 150.57 277.288 150.57 278.032C150.57 278.788 150.72 279.448 151.02 280.012C151.32 280.564 151.722 280.99 152.226 281.29C152.73 281.578 153.288 281.722 153.9 281.722C154.512 281.722 155.07 281.578 155.574 281.29C156.09 280.99 156.498 280.564 156.798 280.012C157.098 279.448 157.248 278.794 157.248 278.05ZM167.317 271.534C167.005 271.534 166.741 271.426 166.525 271.21C166.309 270.994 166.201 270.73 166.201 270.418C166.201 270.106 166.309 269.842 166.525 269.626C166.741 269.41 167.005 269.302 167.317 269.302C167.617 269.302 167.869 269.41 168.073 269.626C168.289 269.842 168.397 270.106 168.397 270.418C168.397 270.73 168.289 270.994 168.073 271.21C167.869 271.426 167.617 271.534 167.317 271.534ZM168.109 273.136V283H166.471V273.136H168.109ZM175.707 272.956C176.907 272.956 177.879 273.322 178.623 274.054C179.367 274.774 179.739 275.818 179.739 277.186V283H178.119V277.42C178.119 276.436 177.873 275.686 177.381 275.17C176.889 274.642 176.217 274.378 175.365 274.378C174.501 274.378 173.811 274.648 173.295 275.188C172.791 275.728 172.539 276.514 172.539 277.546V283H170.901V273.136H172.539V274.54C172.863 274.036 173.301 273.646 173.853 273.37C174.417 273.094 175.035 272.956 175.707 272.956ZM184.052 274.954C184.376 274.39 184.856 273.922 185.492 273.55C186.14 273.166 186.89 272.974 187.742 272.974C188.618 272.974 189.41 273.184 190.118 273.604C190.838 274.024 191.402 274.618 191.81 275.386C192.218 276.142 192.422 277.024 192.422 278.032C192.422 279.028 192.218 279.916 191.81 280.696C191.402 281.476 190.838 282.082 190.118 282.514C189.41 282.946 188.618 283.162 187.742 283.162C186.902 283.162 186.158 282.976 185.51 282.604C184.874 282.22 184.388 281.746 184.052 281.182V287.68H182.414V273.136H184.052V274.954ZM190.748 278.032C190.748 277.288 190.598 276.64 190.298 276.088C189.998 275.536 189.59 275.116 189.074 274.828C188.57 274.54 188.012 274.396 187.4 274.396C186.8 274.396 186.242 274.546 185.726 274.846C185.222 275.134 184.814 275.56 184.502 276.124C184.202 276.676 184.052 277.318 184.052 278.05C184.052 278.794 184.202 279.448 184.502 280.012C184.814 280.564 185.222 280.99 185.726 281.29C186.242 281.578 186.8 281.722 187.4 281.722C188.012 281.722 188.57 281.578 189.074 281.29C189.59 280.99 189.998 280.564 190.298 280.012C190.598 279.448 190.748 278.788 190.748 278.032ZM203.326 273.136V283H201.688V281.542C201.376 282.046 200.938 282.442 200.374 282.73C199.822 283.006 199.21 283.144 198.538 283.144C197.77 283.144 197.08 282.988 196.468 282.676C195.856 282.352 195.37 281.872 195.01 281.236C194.662 280.6 194.488 279.826 194.488 278.914V273.136H196.108V278.698C196.108 279.67 196.354 280.42 196.846 280.948C197.338 281.464 198.01 281.722 198.862 281.722C199.738 281.722 200.428 281.452 200.932 280.912C201.436 280.372 201.688 279.586 201.688 278.554V273.136H203.326ZM208.09 274.486V280.3C208.09 280.78 208.192 281.122 208.396 281.326C208.6 281.518 208.954 281.614 209.458 281.614H210.664V283H209.188C208.276 283 207.592 282.79 207.136 282.37C206.68 281.95 206.452 281.26 206.452 280.3V274.486H205.174V273.136H206.452V270.652H208.09V273.136H210.664V274.486H208.09ZM221.462 274.486H219.392V283H217.754V274.486H216.476V273.136H217.754V272.434C217.754 271.33 218.036 270.526 218.6 270.022C219.176 269.506 220.094 269.248 221.354 269.248V270.616C220.634 270.616 220.124 270.76 219.824 271.048C219.536 271.324 219.392 271.786 219.392 272.434V273.136H221.462V274.486ZM227.673 283.162C226.749 283.162 225.909 282.952 225.153 282.532C224.409 282.112 223.821 281.518 223.389 280.75C222.969 279.97 222.759 279.07 222.759 278.05C222.759 277.042 222.975 276.154 223.407 275.386C223.851 274.606 224.451 274.012 225.207 273.604C225.963 273.184 226.809 272.974 227.745 272.974C228.681 272.974 229.527 273.184 230.283 273.604C231.039 274.012 231.633 274.6 232.065 275.368C232.509 276.136 232.731 277.03 232.731 278.05C232.731 279.07 232.503 279.97 232.047 280.75C231.603 281.518 230.997 282.112 230.229 282.532C229.461 282.952 228.609 283.162 227.673 283.162ZM227.673 281.722C228.261 281.722 228.813 281.584 229.329 281.308C229.845 281.032 230.259 280.618 230.571 280.066C230.895 279.514 231.057 278.842 231.057 278.05C231.057 277.258 230.901 276.586 230.589 276.034C230.277 275.482 229.869 275.074 229.365 274.81C228.861 274.534 228.315 274.396 227.727 274.396C227.127 274.396 226.575 274.534 226.071 274.81C225.579 275.074 225.183 275.482 224.883 276.034C224.583 276.586 224.433 277.258 224.433 278.05C224.433 278.854 224.577 279.532 224.865 280.084C225.165 280.636 225.561 281.05 226.053 281.326C226.545 281.59 227.085 281.722 227.673 281.722ZM236.523 274.738C236.811 274.174 237.219 273.736 237.747 273.424C238.287 273.112 238.941 272.956 239.709 272.956V274.648H239.277C237.441 274.648 236.523 275.644 236.523 277.636V283H234.885V273.136H236.523V274.738ZM254.895 273.136L248.955 287.644H247.263L249.207 282.892L245.229 273.136H247.047L250.143 281.128L253.203 273.136H254.895ZM260.843 283.162C259.919 283.162 259.079 282.952 258.323 282.532C257.579 282.112 256.991 281.518 256.559 280.75C256.139 279.97 255.929 279.07 255.929 278.05C255.929 277.042 256.145 276.154 256.577 275.386C257.021 274.606 257.621 274.012 258.377 273.604C259.133 273.184 259.979 272.974 260.915 272.974C261.851 272.974 262.697 273.184 263.453 273.604C264.209 274.012 264.803 274.6 265.235 275.368C265.679 276.136 265.901 277.03 265.901 278.05C265.901 279.07 265.673 279.97 265.217 280.75C264.773 281.518 264.167 282.112 263.399 282.532C262.631 282.952 261.779 283.162 260.843 283.162ZM260.843 281.722C261.431 281.722 261.983 281.584 262.499 281.308C263.015 281.032 263.429 280.618 263.741 280.066C264.065 279.514 264.227 278.842 264.227 278.05C264.227 277.258 264.071 276.586 263.759 276.034C263.447 275.482 263.039 275.074 262.535 274.81C262.031 274.534 261.485 274.396 260.897 274.396C260.297 274.396 259.745 274.534 259.241 274.81C258.749 275.074 258.353 275.482 258.053 276.034C257.753 276.586 257.603 277.258 257.603 278.05C257.603 278.854 257.747 279.532 258.035 280.084C258.335 280.636 258.731 281.05 259.223 281.326C259.715 281.59 260.255 281.722 260.843 281.722ZM276.803 273.136V283H275.165V281.542C274.853 282.046 274.415 282.442 273.851 282.73C273.299 283.006 272.687 283.144 272.015 283.144C271.247 283.144 270.557 282.988 269.945 282.676C269.333 282.352 268.847 281.872 268.487 281.236C268.139 280.6 267.965 279.826 267.965 278.914V273.136H269.585V278.698C269.585 279.67 269.831 280.42 270.323 280.948C270.815 281.464 271.487 281.722 272.339 281.722C273.215 281.722 273.905 281.452 274.409 280.912C274.913 280.372 275.165 279.586 275.165 278.554V273.136H276.803ZM281.207 274.738C281.495 274.174 281.903 273.736 282.431 273.424C282.971 273.112 283.625 272.956 284.393 272.956V274.648H283.961C282.125 274.648 281.207 275.644 281.207 277.636V283H279.569V273.136H281.207V274.738ZM109.512 306.972C109.848 306.384 110.34 305.904 110.988 305.532C111.636 305.16 112.374 304.974 113.202 304.974C114.09 304.974 114.888 305.184 115.596 305.604C116.304 306.024 116.862 306.618 117.27 307.386C117.678 308.142 117.882 309.024 117.882 310.032C117.882 311.028 117.678 311.916 117.27 312.696C116.862 313.476 116.298 314.082 115.578 314.514C114.87 314.946 114.078 315.162 113.202 315.162C112.35 315.162 111.6 314.976 110.952 314.604C110.316 314.232 109.836 313.758 109.512 313.182V315H107.874V301.68H109.512V306.972ZM116.208 310.032C116.208 309.288 116.058 308.64 115.758 308.088C115.458 307.536 115.05 307.116 114.534 306.828C114.03 306.54 113.472 306.396 112.86 306.396C112.26 306.396 111.702 306.546 111.186 306.846C110.682 307.134 110.274 307.56 109.962 308.124C109.662 308.676 109.512 309.318 109.512 310.05C109.512 310.794 109.662 311.448 109.962 312.012C110.274 312.564 110.682 312.99 111.186 313.29C111.702 313.578 112.26 313.722 112.86 313.722C113.472 313.722 114.03 313.578 114.534 313.29C115.05 312.99 115.458 312.564 115.758 312.012C116.058 311.448 116.208 310.788 116.208 310.032ZM128.786 305.136V315H127.148V313.542C126.836 314.046 126.398 314.442 125.834 314.73C125.282 315.006 124.67 315.144 123.998 315.144C123.23 315.144 122.54 314.988 121.928 314.676C121.316 314.352 120.83 313.872 120.47 313.236C120.122 312.6 119.948 311.826 119.948 310.914V305.136H121.568V310.698C121.568 311.67 121.814 312.42 122.306 312.948C122.798 313.464 123.47 313.722 124.322 313.722C125.198 313.722 125.888 313.452 126.392 312.912C126.896 312.372 127.148 311.586 127.148 310.554V305.136H128.786ZM135.044 315.162C134.288 315.162 133.61 315.036 133.01 314.784C132.41 314.52 131.936 314.16 131.588 313.704C131.24 313.236 131.048 312.702 131.012 312.102H132.704C132.752 312.594 132.98 312.996 133.388 313.308C133.808 313.62 134.354 313.776 135.026 313.776C135.65 313.776 136.142 313.638 136.502 313.362C136.862 313.086 137.042 312.738 137.042 312.318C137.042 311.886 136.85 311.568 136.466 311.364C136.082 311.148 135.488 310.938 134.684 310.734C133.952 310.542 133.352 310.35 132.884 310.158C132.428 309.954 132.032 309.66 131.696 309.276C131.372 308.88 131.21 308.364 131.21 307.728C131.21 307.224 131.36 306.762 131.66 306.342C131.96 305.922 132.386 305.592 132.938 305.352C133.49 305.1 134.12 304.974 134.828 304.974C135.92 304.974 136.802 305.25 137.474 305.802C138.146 306.354 138.506 307.11 138.554 308.07H136.916C136.88 307.554 136.67 307.14 136.286 306.828C135.914 306.516 135.41 306.36 134.774 306.36C134.186 306.36 133.718 306.486 133.37 306.738C133.022 306.99 132.848 307.32 132.848 307.728C132.848 308.052 132.95 308.322 133.154 308.538C133.37 308.742 133.634 308.91 133.946 309.042C134.27 309.162 134.714 309.3 135.278 309.456C135.986 309.648 136.562 309.84 137.006 310.032C137.45 310.212 137.828 310.488 138.14 310.86C138.464 311.232 138.632 311.718 138.644 312.318C138.644 312.858 138.494 313.344 138.194 313.776C137.894 314.208 137.468 314.55 136.916 314.802C136.376 315.042 135.752 315.162 135.044 315.162ZM141.802 303.534C141.49 303.534 141.226 303.426 141.01 303.21C140.794 302.994 140.686 302.73 140.686 302.418C140.686 302.106 140.794 301.842 141.01 301.626C141.226 301.41 141.49 301.302 141.802 301.302C142.102 301.302 142.354 301.41 142.558 301.626C142.774 301.842 142.882 302.106 142.882 302.418C142.882 302.73 142.774 302.994 142.558 303.21C142.354 303.426 142.102 303.534 141.802 303.534ZM142.594 305.136V315H140.956V305.136H142.594ZM150.192 304.956C151.392 304.956 152.364 305.322 153.108 306.054C153.852 306.774 154.224 307.818 154.224 309.186V315H152.604V309.42C152.604 308.436 152.358 307.686 151.866 307.17C151.374 306.642 150.702 306.378 149.85 306.378C148.986 306.378 148.296 306.648 147.78 307.188C147.276 307.728 147.024 308.514 147.024 309.546V315H145.386V305.136H147.024V306.54C147.348 306.036 147.786 305.646 148.338 305.37C148.902 305.094 149.52 304.956 150.192 304.956ZM165.9 309.69C165.9 310.002 165.882 310.332 165.846 310.68H157.962C158.022 311.652 158.352 312.414 158.952 312.966C159.564 313.506 160.302 313.776 161.166 313.776C161.874 313.776 162.462 313.614 162.93 313.29C163.41 312.954 163.746 312.51 163.938 311.958H165.702C165.438 312.906 164.91 313.68 164.118 314.28C163.326 314.868 162.342 315.162 161.166 315.162C160.23 315.162 159.39 314.952 158.646 314.532C157.914 314.112 157.338 313.518 156.918 312.75C156.498 311.97 156.288 311.07 156.288 310.05C156.288 309.03 156.492 308.136 156.9 307.368C157.308 306.6 157.878 306.012 158.61 305.604C159.354 305.184 160.206 304.974 161.166 304.974C162.102 304.974 162.93 305.178 163.65 305.586C164.37 305.994 164.922 306.558 165.306 307.278C165.702 307.986 165.9 308.79 165.9 309.69ZM164.208 309.348C164.208 308.724 164.07 308.19 163.794 307.746C163.518 307.29 163.14 306.948 162.66 306.72C162.192 306.48 161.67 306.36 161.094 306.36C160.266 306.36 159.558 306.624 158.97 307.152C158.394 307.68 158.064 308.412 157.98 309.348H164.208ZM171.554 315.162C170.798 315.162 170.12 315.036 169.52 314.784C168.92 314.52 168.446 314.16 168.098 313.704C167.75 313.236 167.558 312.702 167.522 312.102H169.214C169.262 312.594 169.49 312.996 169.898 313.308C170.318 313.62 170.864 313.776 171.536 313.776C172.16 313.776 172.652 313.638 173.012 313.362C173.372 313.086 173.552 312.738 173.552 312.318C173.552 311.886 173.36 311.568 172.976 311.364C172.592 311.148 171.998 310.938 171.194 310.734C170.462 310.542 169.862 310.35 169.394 310.158C168.938 309.954 168.542 309.66 168.206 309.276C167.882 308.88 167.72 308.364 167.72 307.728C167.72 307.224 167.87 306.762 168.17 306.342C168.47 305.922 168.896 305.592 169.448 305.352C170 305.1 170.63 304.974 171.338 304.974C172.43 304.974 173.312 305.25 173.984 305.802C174.656 306.354 175.016 307.11 175.064 308.07H173.426C173.39 307.554 173.18 307.14 172.796 306.828C172.424 306.516 171.92 306.36 171.284 306.36C170.696 306.36 170.228 306.486 169.88 306.738C169.532 306.99 169.358 307.32 169.358 307.728C169.358 308.052 169.46 308.322 169.664 308.538C169.88 308.742 170.144 308.91 170.456 309.042C170.78 309.162 171.224 309.3 171.788 309.456C172.496 309.648 173.072 309.84 173.516 310.032C173.96 310.212 174.338 310.488 174.65 310.86C174.974 311.232 175.142 311.718 175.154 312.318C175.154 312.858 175.004 313.344 174.704 313.776C174.404 314.208 173.978 314.55 173.426 314.802C172.886 315.042 172.262 315.162 171.554 315.162ZM180.958 315.162C180.202 315.162 179.524 315.036 178.924 314.784C178.324 314.52 177.85 314.16 177.502 313.704C177.154 313.236 176.962 312.702 176.926 312.102H178.618C178.666 312.594 178.894 312.996 179.302 313.308C179.722 313.62 180.268 313.776 180.94 313.776C181.564 313.776 182.056 313.638 182.416 313.362C182.776 313.086 182.956 312.738 182.956 312.318C182.956 311.886 182.764 311.568 182.38 311.364C181.996 311.148 181.402 310.938 180.598 310.734C179.866 310.542 179.266 310.35 178.798 310.158C178.342 309.954 177.946 309.66 177.61 309.276C177.286 308.88 177.124 308.364 177.124 307.728C177.124 307.224 177.274 306.762 177.574 306.342C177.874 305.922 178.3 305.592 178.852 305.352C179.404 305.1 180.034 304.974 180.742 304.974C181.834 304.974 182.716 305.25 183.388 305.802C184.06 306.354 184.42 307.11 184.468 308.07H182.83C182.794 307.554 182.584 307.14 182.2 306.828C181.828 306.516 181.324 306.36 180.688 306.36C180.1 306.36 179.632 306.486 179.284 306.738C178.936 306.99 178.762 307.32 178.762 307.728C178.762 308.052 178.864 308.322 179.068 308.538C179.284 308.742 179.548 308.91 179.86 309.042C180.184 309.162 180.628 309.3 181.192 309.456C181.9 309.648 182.476 309.84 182.92 310.032C183.364 310.212 183.742 310.488 184.054 310.86C184.378 311.232 184.546 311.718 184.558 312.318C184.558 312.858 184.408 313.344 184.108 313.776C183.808 314.208 183.382 314.55 182.83 314.802C182.29 315.042 181.666 315.162 180.958 315.162ZM195.737 304.974C196.589 304.974 197.333 305.16 197.969 305.532C198.617 305.904 199.097 306.372 199.409 306.936V305.136H201.065V315.216C201.065 316.116 200.873 316.914 200.489 317.61C200.105 318.318 199.553 318.87 198.833 319.266C198.125 319.662 197.297 319.86 196.349 319.86C195.053 319.86 193.973 319.554 193.109 318.942C192.245 318.33 191.735 317.496 191.579 316.44H193.199C193.379 317.04 193.751 317.52 194.315 317.88C194.879 318.252 195.557 318.438 196.349 318.438C197.249 318.438 197.981 318.156 198.545 317.592C199.121 317.028 199.409 316.236 199.409 315.216V313.146C199.085 313.722 198.605 314.202 197.969 314.586C197.333 314.97 196.589 315.162 195.737 315.162C194.861 315.162 194.063 314.946 193.343 314.514C192.635 314.082 192.077 313.476 191.669 312.696C191.261 311.916 191.057 311.028 191.057 310.032C191.057 309.024 191.261 308.142 191.669 307.386C192.077 306.618 192.635 306.024 193.343 305.604C194.063 305.184 194.861 304.974 195.737 304.974ZM199.409 310.05C199.409 309.306 199.259 308.658 198.959 308.106C198.659 307.554 198.251 307.134 197.735 306.846C197.231 306.546 196.673 306.396 196.061 306.396C195.449 306.396 194.891 306.54 194.387 306.828C193.883 307.116 193.481 307.536 193.181 308.088C192.881 308.64 192.731 309.288 192.731 310.032C192.731 310.788 192.881 311.448 193.181 312.012C193.481 312.564 193.883 312.99 194.387 313.29C194.891 313.578 195.449 313.722 196.061 313.722C196.673 313.722 197.231 313.578 197.735 313.29C198.251 312.99 198.659 312.564 198.959 312.012C199.259 311.448 199.409 310.794 199.409 310.05ZM205.471 306.738C205.759 306.174 206.167 305.736 206.695 305.424C207.235 305.112 207.889 304.956 208.657 304.956V306.648H208.225C206.389 306.648 205.471 307.644 205.471 309.636V315H203.833V305.136H205.471V306.738ZM214.85 315.162C213.926 315.162 213.086 314.952 212.33 314.532C211.586 314.112 210.998 313.518 210.566 312.75C210.146 311.97 209.936 311.07 209.936 310.05C209.936 309.042 210.152 308.154 210.584 307.386C211.028 306.606 211.628 306.012 212.384 305.604C213.14 305.184 213.986 304.974 214.922 304.974C215.858 304.974 216.704 305.184 217.46 305.604C218.216 306.012 218.81 306.6 219.242 307.368C219.686 308.136 219.908 309.03 219.908 310.05C219.908 311.07 219.68 311.97 219.224 312.75C218.78 313.518 218.174 314.112 217.406 314.532C216.638 314.952 215.786 315.162 214.85 315.162ZM214.85 313.722C215.438 313.722 215.99 313.584 216.506 313.308C217.022 313.032 217.436 312.618 217.748 312.066C218.072 311.514 218.234 310.842 218.234 310.05C218.234 309.258 218.078 308.586 217.766 308.034C217.454 307.482 217.046 307.074 216.542 306.81C216.038 306.534 215.492 306.396 214.904 306.396C214.304 306.396 213.752 306.534 213.248 306.81C212.756 307.074 212.36 307.482 212.06 308.034C211.76 308.586 211.61 309.258 211.61 310.05C211.61 310.854 211.754 311.532 212.042 312.084C212.342 312.636 212.738 313.05 213.23 313.326C213.722 313.59 214.262 313.722 214.85 313.722ZM235.202 305.136L232.124 315H230.432L228.056 307.17L225.68 315H223.988L220.892 305.136H222.566L224.834 313.416L227.282 305.136H228.956L231.35 313.434L233.582 305.136H235.202ZM238.825 306.486V312.3C238.825 312.78 238.927 313.122 239.131 313.326C239.335 313.518 239.689 313.614 240.193 313.614H241.399V315H239.923C239.011 315 238.327 314.79 237.871 314.37C237.415 313.95 237.187 313.26 237.187 312.3V306.486H235.909V305.136H237.187V302.652H238.825V305.136H241.399V306.486H238.825ZM248.28 304.956C249.024 304.956 249.696 305.118 250.296 305.442C250.896 305.754 251.364 306.228 251.7 306.864C252.048 307.5 252.222 308.274 252.222 309.186V315H250.602V309.42C250.602 308.436 250.356 307.686 249.864 307.17C249.372 306.642 248.7 306.378 247.848 306.378C246.984 306.378 246.294 306.648 245.778 307.188C245.274 307.728 245.022 308.514 245.022 309.546V315H243.384V301.68H245.022V306.54C245.346 306.036 245.79 305.646 246.354 305.37C246.93 305.094 247.572 304.956 248.28 304.956Z" fill="#6B6B6B"/>
<g clip-path="url(#clip0_2111_134)">
<circle cx="180" cy="391.5" r="22.5" fill="#F3F4F6"/>
<path d="M179.911 396.411L181.089 397.589L186.678 392L181.089 386.411L179.911 387.589L183.488 391.166H175.5V392.833H183.488L179.911 396.411Z" fill="#4C40F7"/>
</g>
</g>
<defs>
<filter id="filter0_d_2111_134" x="0" y="0" width="360" height="466" filterUnits="userSpaceOnUse" color-interpolation-filters="sRGB">
<feFlood flood-opacity="0" result="BackgroundImageFix"/>
<feColorMatrix in="SourceAlpha" type="matrix" values="0 0 0 0 0 0 0 0 0 0 0 0 0 0 0 0 0 0 127 0" result="hardAlpha"/>
<feOffset dy="4"/>
<feGaussianBlur stdDeviation="2"/>
<feComposite in2="hardAlpha" operator="out"/>
<feColorMatrix type="matrix" values="0 0 0 0 0 0 0 0 0 0 0 0 0 0 0 0 0 0 0.25 0"/>
<feBlend mode="normal" in2="BackgroundImageFix" result="effect1_dropShadow_2111_134"/>
<feBlend mode="normal" in="SourceGraphic" in2="effect1_dropShadow_2111_134" result="shape"/>
</filter>
<filter id="filter1_d_2111_134" x="127.5" y="44" width="105" height="105" filterUnits="userSpaceOnUse" color-interpolation-filters="sRGB">
<feFlood flood-opacity="0" result="BackgroundImageFix"/>
<feColorMatrix in="SourceAlpha" type="matrix" values="0 0 0 0 0 0 0 0 0 0 0 0 0 0 0 0 0 0 127 0" result="hardAlpha"/>
<feOffset dy="4"/>
<feGaussianBlur stdDeviation="2"/>
<feComposite in2="hardAlpha" operator="out"/>
<feColorMatrix type="matrix" values="0 0 0 0 0 0 0 0 0 0 0 0 0 0 0 0 0 0 0.25 0"/>
<feBlend mode="normal" in2="BackgroundImageFix" result="effect1_dropShadow_2111_134"/>
<feBlend mode="normal" in="SourceGraphic" in2="effect1_dropShadow_2111_134" result="shape"/>
</filter>
<clipPath id="clip0_2111_134">
<rect width="45" height="45" fill="white" transform="translate(157.5 369)"/>
</clipPath>
</defs>
</svg>
