<svg width="372" height="478" viewBox="0 0 372 478" fill="none" xmlns="http://www.w3.org/2000/svg">
<g filter="url(#filter0_d_2111_46)">
<rect x="10" width="352" height="458" rx="20" fill="#4C40F7" shape-rendering="crispEdges"/>
<g filter="url(#filter1_d_2111_46)">
<circle cx="186" cy="92.5" r="48.5" fill="white"/>
<rect width="40" height="40" transform="translate(166 73)" fill="white"/>
<path d="M194.333 76.3335H177.667C175.828 76.3335 174.333 77.8285 174.333 79.6668V106.333C174.333 108.172 175.828 109.667 177.667 109.667H194.333C196.172 109.667 197.667 108.172 197.667 106.333V79.6668C197.667 77.8285 196.172 76.3335 194.333 76.3335ZM177.667 101.332V81.3335H194.333L194.337 101.332H177.667Z" fill="#4C40F7"/>
</g>
<path d="M104.27 203.34H98.7101L97.7901 206H94.8501L99.8701 192.02H103.13L108.15 206H105.19L104.27 203.34ZM103.51 201.1L101.49 195.26L99.4701 201.1H103.51ZM112.826 196.52C113.186 196.013 113.68 195.593 114.306 195.26C114.946 194.913 115.673 194.74 116.486 194.74C117.433 194.74 118.286 194.973 119.046 195.44C119.82 195.907 120.426 196.573 120.866 197.44C121.32 198.293 121.546 199.287 121.546 200.42C121.546 201.553 121.32 202.56 120.866 203.44C120.426 204.307 119.82 204.98 119.046 205.46C118.286 205.94 117.433 206.18 116.486 206.18C115.673 206.18 114.953 206.013 114.326 205.68C113.713 205.347 113.213 204.927 112.826 204.42V211.28H110.026V194.92H112.826V196.52ZM118.686 200.42C118.686 199.753 118.546 199.18 118.266 198.7C118 198.207 117.64 197.833 117.186 197.58C116.746 197.327 116.266 197.2 115.746 197.2C115.24 197.2 114.76 197.333 114.306 197.6C113.866 197.853 113.506 198.227 113.226 198.72C112.96 199.213 112.826 199.793 112.826 200.46C112.826 201.127 112.96 201.707 113.226 202.2C113.506 202.693 113.866 203.073 114.306 203.34C114.76 203.593 115.24 203.72 115.746 203.72C116.266 203.72 116.746 203.587 117.186 203.32C117.64 203.053 118 202.673 118.266 202.18C118.546 201.687 118.686 201.1 118.686 200.42ZM126.381 196.52C126.741 196.013 127.235 195.593 127.861 195.26C128.501 194.913 129.228 194.74 130.041 194.74C130.988 194.74 131.841 194.973 132.601 195.44C133.375 195.907 133.981 196.573 134.421 197.44C134.875 198.293 135.101 199.287 135.101 200.42C135.101 201.553 134.875 202.56 134.421 203.44C133.981 204.307 133.375 204.98 132.601 205.46C131.841 205.94 130.988 206.18 130.041 206.18C129.228 206.18 128.508 206.013 127.881 205.68C127.268 205.347 126.768 204.927 126.381 204.42V211.28H123.581V194.92H126.381V196.52ZM132.241 200.42C132.241 199.753 132.101 199.18 131.821 198.7C131.555 198.207 131.195 197.833 130.741 197.58C130.301 197.327 129.821 197.2 129.301 197.2C128.795 197.2 128.315 197.333 127.861 197.6C127.421 197.853 127.061 198.227 126.781 198.72C126.515 199.213 126.381 199.793 126.381 200.46C126.381 201.127 126.515 201.707 126.781 202.2C127.061 202.693 127.421 203.073 127.861 203.34C128.315 203.593 128.795 203.72 129.301 203.72C129.821 203.72 130.301 203.587 130.741 203.32C131.195 203.053 131.555 202.673 131.821 202.18C132.101 201.687 132.241 201.1 132.241 200.42ZM146.781 192.04C148.248 192.04 149.535 192.327 150.641 192.9C151.761 193.473 152.621 194.293 153.221 195.36C153.835 196.413 154.141 197.64 154.141 199.04C154.141 200.44 153.835 201.667 153.221 202.72C152.621 203.76 151.761 204.567 150.641 205.14C149.535 205.713 148.248 206 146.781 206H141.901V192.04H146.781ZM146.681 203.62C148.148 203.62 149.281 203.22 150.081 202.42C150.881 201.62 151.281 200.493 151.281 199.04C151.281 197.587 150.881 196.453 150.081 195.64C149.281 194.813 148.148 194.4 146.681 194.4H144.701V203.62H146.681ZM166.537 200.22C166.537 200.62 166.511 200.98 166.457 201.3H158.357C158.424 202.1 158.704 202.727 159.197 203.18C159.691 203.633 160.297 203.86 161.017 203.86C162.057 203.86 162.797 203.413 163.237 202.52H166.257C165.937 203.587 165.324 204.467 164.417 205.16C163.511 205.84 162.397 206.18 161.077 206.18C160.011 206.18 159.051 205.947 158.197 205.48C157.357 205 156.697 204.327 156.217 203.46C155.751 202.593 155.517 201.593 155.517 200.46C155.517 199.313 155.751 198.307 156.217 197.44C156.684 196.573 157.337 195.907 158.177 195.44C159.017 194.973 159.984 194.74 161.077 194.74C162.131 194.74 163.071 194.967 163.897 195.42C164.737 195.873 165.384 196.52 165.837 197.36C166.304 198.187 166.537 199.14 166.537 200.22ZM163.637 199.42C163.624 198.7 163.364 198.127 162.857 197.7C162.351 197.26 161.731 197.04 160.997 197.04C160.304 197.04 159.717 197.253 159.237 197.68C158.771 198.093 158.484 198.673 158.377 199.42H163.637ZM173.201 203.42L176.001 194.92H178.981L174.881 206H171.481L167.401 194.92H170.401L173.201 203.42ZM190.854 200.22C190.854 200.62 190.827 200.98 190.774 201.3H182.674C182.74 202.1 183.02 202.727 183.514 203.18C184.007 203.633 184.614 203.86 185.334 203.86C186.374 203.86 187.114 203.413 187.554 202.52H190.574C190.254 203.587 189.64 204.467 188.734 205.16C187.827 205.84 186.714 206.18 185.394 206.18C184.327 206.18 183.367 205.947 182.514 205.48C181.674 205 181.014 204.327 180.534 203.46C180.067 202.593 179.834 201.593 179.834 200.46C179.834 199.313 180.067 198.307 180.534 197.44C181 196.573 181.654 195.907 182.494 195.44C183.334 194.973 184.3 194.74 185.394 194.74C186.447 194.74 187.387 194.967 188.214 195.42C189.054 195.873 189.7 196.52 190.154 197.36C190.62 198.187 190.854 199.14 190.854 200.22ZM187.954 199.42C187.94 198.7 187.68 198.127 187.174 197.7C186.667 197.26 186.047 197.04 185.314 197.04C184.62 197.04 184.034 197.253 183.554 197.68C183.087 198.093 182.8 198.673 182.694 199.42H187.954ZM195.698 191.2V206H192.898V191.2H195.698ZM203.384 206.18C202.317 206.18 201.357 205.947 200.504 205.48C199.651 205 198.977 204.327 198.484 203.46C198.004 202.593 197.764 201.593 197.764 200.46C197.764 199.327 198.011 198.327 198.504 197.46C199.011 196.593 199.697 195.927 200.564 195.46C201.431 194.98 202.397 194.74 203.464 194.74C204.531 194.74 205.497 194.98 206.364 195.46C207.231 195.927 207.911 196.593 208.404 197.46C208.911 198.327 209.164 199.327 209.164 200.46C209.164 201.593 208.904 202.593 208.384 203.46C207.877 204.327 207.184 205 206.304 205.48C205.437 205.947 204.464 206.18 203.384 206.18ZM203.384 203.74C203.891 203.74 204.364 203.62 204.804 203.38C205.257 203.127 205.617 202.753 205.884 202.26C206.151 201.767 206.284 201.167 206.284 200.46C206.284 199.407 206.004 198.6 205.444 198.04C204.897 197.467 204.224 197.18 203.424 197.18C202.624 197.18 201.951 197.467 201.404 198.04C200.871 198.6 200.604 199.407 200.604 200.46C200.604 201.513 200.864 202.327 201.384 202.9C201.917 203.46 202.584 203.74 203.384 203.74ZM214.018 196.52C214.378 196.013 214.871 195.593 215.498 195.26C216.138 194.913 216.865 194.74 217.678 194.74C218.625 194.74 219.478 194.973 220.238 195.44C221.011 195.907 221.618 196.573 222.058 197.44C222.511 198.293 222.738 199.287 222.738 200.42C222.738 201.553 222.511 202.56 222.058 203.44C221.618 204.307 221.011 204.98 220.238 205.46C219.478 205.94 218.625 206.18 217.678 206.18C216.865 206.18 216.145 206.013 215.518 205.68C214.905 205.347 214.405 204.927 214.018 204.42V211.28H211.218V194.92H214.018V196.52ZM219.878 200.42C219.878 199.753 219.738 199.18 219.458 198.7C219.191 198.207 218.831 197.833 218.378 197.58C217.938 197.327 217.458 197.2 216.938 197.2C216.431 197.2 215.951 197.333 215.498 197.6C215.058 197.853 214.698 198.227 214.418 198.72C214.151 199.213 214.018 199.793 214.018 200.46C214.018 201.127 214.151 201.707 214.418 202.2C214.698 202.693 215.058 203.073 215.498 203.34C215.951 203.593 216.431 203.72 216.938 203.72C217.458 203.72 217.938 203.587 218.378 203.32C218.831 203.053 219.191 202.673 219.458 202.18C219.738 201.687 219.878 201.1 219.878 200.42ZM238.533 194.76C239.893 194.76 240.986 195.18 241.813 196.02C242.653 196.847 243.073 198.007 243.073 199.5V206H240.273V199.88C240.273 199.013 240.053 198.353 239.613 197.9C239.173 197.433 238.573 197.2 237.813 197.2C237.053 197.2 236.446 197.433 235.993 197.9C235.553 198.353 235.333 199.013 235.333 199.88V206H232.533V199.88C232.533 199.013 232.313 198.353 231.873 197.9C231.433 197.433 230.833 197.2 230.073 197.2C229.299 197.2 228.686 197.433 228.233 197.9C227.793 198.353 227.573 199.013 227.573 199.88V206H224.773V194.92H227.573V196.26C227.933 195.793 228.393 195.427 228.953 195.16C229.526 194.893 230.153 194.76 230.833 194.76C231.699 194.76 232.473 194.947 233.153 195.32C233.833 195.68 234.359 196.2 234.733 196.88C235.093 196.24 235.613 195.727 236.293 195.34C236.986 194.953 237.733 194.76 238.533 194.76ZM256.03 200.22C256.03 200.62 256.003 200.98 255.95 201.3H247.85C247.916 202.1 248.196 202.727 248.69 203.18C249.183 203.633 249.79 203.86 250.51 203.86C251.55 203.86 252.29 203.413 252.73 202.52H255.75C255.43 203.587 254.816 204.467 253.91 205.16C253.003 205.84 251.89 206.18 250.57 206.18C249.503 206.18 248.543 205.947 247.69 205.48C246.85 205 246.19 204.327 245.71 203.46C245.243 202.593 245.01 201.593 245.01 200.46C245.01 199.313 245.243 198.307 245.71 197.44C246.176 196.573 246.83 195.907 247.67 195.44C248.51 194.973 249.476 194.74 250.57 194.74C251.623 194.74 252.563 194.967 253.39 195.42C254.23 195.873 254.876 196.52 255.33 197.36C255.796 198.187 256.03 199.14 256.03 200.22ZM253.13 199.42C253.116 198.7 252.856 198.127 252.35 197.7C251.843 197.26 251.223 197.04 250.49 197.04C249.796 197.04 249.21 197.253 248.73 197.68C248.263 198.093 247.976 198.673 247.87 199.42H253.13ZM264.213 194.76C265.533 194.76 266.6 195.18 267.413 196.02C268.227 196.847 268.633 198.007 268.633 199.5V206H265.833V199.88C265.833 199 265.613 198.327 265.173 197.86C264.733 197.38 264.133 197.14 263.373 197.14C262.6 197.14 261.987 197.38 261.533 197.86C261.093 198.327 260.873 199 260.873 199.88V206H258.073V194.92H260.873V196.3C261.247 195.82 261.72 195.447 262.293 195.18C262.88 194.9 263.52 194.76 264.213 194.76ZM274.556 197.22V202.58C274.556 202.953 274.643 203.227 274.816 203.4C275.003 203.56 275.309 203.64 275.736 203.64H277.036V206H275.276C272.916 206 271.736 204.853 271.736 202.56V197.22H270.416V194.92H271.736V192.18H274.556V194.92H277.036V197.22H274.556Z" fill="white"/>
<path d="M82.1286 238.454L78.4926 251H76.6566L73.7406 240.902L70.7166 251L68.8986 251.018L65.3886 238.454H67.1346L69.8706 249.092L72.8946 238.454H74.7306L77.6106 249.056L80.3646 238.454H82.1286ZM92.9212 245.69C92.9212 246.002 92.9032 246.332 92.8672 246.68H84.9832C85.0432 247.652 85.3732 248.414 85.9732 248.966C86.5852 249.506 87.3232 249.776 88.1872 249.776C88.8952 249.776 89.4832 249.614 89.9512 249.29C90.4312 248.954 90.7672 248.51 90.9592 247.958H92.7232C92.4592 248.906 91.9312 249.68 91.1392 250.28C90.3472 250.868 89.3632 251.162 88.1872 251.162C87.2512 251.162 86.4112 250.952 85.6672 250.532C84.9352 250.112 84.3592 249.518 83.9392 248.75C83.5192 247.97 83.3092 247.07 83.3092 246.05C83.3092 245.03 83.5132 244.136 83.9212 243.368C84.3292 242.6 84.8992 242.012 85.6312 241.604C86.3752 241.184 87.2272 240.974 88.1872 240.974C89.1232 240.974 89.9512 241.178 90.6712 241.586C91.3912 241.994 91.9432 242.558 92.3272 243.278C92.7232 243.986 92.9212 244.79 92.9212 245.69ZM91.2292 245.348C91.2292 244.724 91.0912 244.19 90.8152 243.746C90.5392 243.29 90.1612 242.948 89.6812 242.72C89.2132 242.48 88.6912 242.36 88.1152 242.36C87.2872 242.36 86.5792 242.624 85.9912 243.152C85.4152 243.68 85.0852 244.412 85.0012 245.348H91.2292ZM104.778 240.956C105.522 240.956 106.194 241.118 106.794 241.442C107.394 241.754 107.862 242.228 108.198 242.864C108.546 243.5 108.72 244.274 108.72 245.186V251H107.1V245.42C107.1 244.436 106.854 243.686 106.362 243.17C105.87 242.642 105.198 242.378 104.346 242.378C103.482 242.378 102.792 242.648 102.276 243.188C101.772 243.728 101.52 244.514 101.52 245.546V251H99.8821V237.68H101.52V242.54C101.844 242.036 102.288 241.646 102.852 241.37C103.428 241.094 104.07 240.956 104.778 240.956ZM120.396 245.69C120.396 246.002 120.378 246.332 120.342 246.68H112.458C112.518 247.652 112.848 248.414 113.448 248.966C114.06 249.506 114.798 249.776 115.662 249.776C116.37 249.776 116.958 249.614 117.426 249.29C117.906 248.954 118.242 248.51 118.434 247.958H120.198C119.934 248.906 119.406 249.68 118.614 250.28C117.822 250.868 116.838 251.162 115.662 251.162C114.726 251.162 113.886 250.952 113.142 250.532C112.41 250.112 111.834 249.518 111.414 248.75C110.994 247.97 110.784 247.07 110.784 246.05C110.784 245.03 110.988 244.136 111.396 243.368C111.804 242.6 112.374 242.012 113.106 241.604C113.85 241.184 114.702 240.974 115.662 240.974C116.598 240.974 117.426 241.178 118.146 241.586C118.866 241.994 119.418 242.558 119.802 243.278C120.198 243.986 120.396 244.79 120.396 245.69ZM118.704 245.348C118.704 244.724 118.566 244.19 118.29 243.746C118.014 243.29 117.636 242.948 117.156 242.72C116.688 242.48 116.166 242.36 115.59 242.36C114.762 242.36 114.054 242.624 113.466 243.152C112.89 243.68 112.56 244.412 112.476 245.348H118.704ZM124.196 237.68V251H122.558V237.68H124.196ZM128.626 242.954C128.95 242.39 129.43 241.922 130.066 241.55C130.714 241.166 131.464 240.974 132.316 240.974C133.192 240.974 133.984 241.184 134.692 241.604C135.412 242.024 135.976 242.618 136.384 243.386C136.792 244.142 136.996 245.024 136.996 246.032C136.996 247.028 136.792 247.916 136.384 248.696C135.976 249.476 135.412 250.082 134.692 250.514C133.984 250.946 133.192 251.162 132.316 251.162C131.476 251.162 130.732 250.976 130.084 250.604C129.448 250.22 128.962 249.746 128.626 249.182V255.68H126.988V241.136H128.626V242.954ZM135.322 246.032C135.322 245.288 135.172 244.64 134.872 244.088C134.572 243.536 134.164 243.116 133.648 242.828C133.144 242.54 132.586 242.396 131.974 242.396C131.374 242.396 130.816 242.546 130.3 242.846C129.796 243.134 129.388 243.56 129.076 244.124C128.776 244.676 128.626 245.318 128.626 246.05C128.626 246.794 128.776 247.448 129.076 248.012C129.388 248.564 129.796 248.99 130.3 249.29C130.816 249.578 131.374 249.722 131.974 249.722C132.586 249.722 133.144 249.578 133.648 249.29C134.164 248.99 134.572 248.564 134.872 248.012C135.172 247.448 135.322 246.788 135.322 246.032ZM143.338 246.032C143.338 245.024 143.542 244.142 143.95 243.386C144.358 242.618 144.916 242.024 145.624 241.604C146.344 241.184 147.148 240.974 148.036 240.974C148.804 240.974 149.518 241.154 150.178 241.514C150.838 241.862 151.342 242.324 151.69 242.9V237.68H153.346V251H151.69V249.146C151.366 249.734 150.886 250.22 150.25 250.604C149.614 250.976 148.87 251.162 148.018 251.162C147.142 251.162 146.344 250.946 145.624 250.514C144.916 250.082 144.358 249.476 143.95 248.696C143.542 247.916 143.338 247.028 143.338 246.032ZM151.69 246.05C151.69 245.306 151.54 244.658 151.24 244.106C150.94 243.554 150.532 243.134 150.016 242.846C149.512 242.546 148.954 242.396 148.342 242.396C147.73 242.396 147.172 242.54 146.668 242.828C146.164 243.116 145.762 243.536 145.462 244.088C145.162 244.64 145.012 245.288 145.012 246.032C145.012 246.788 145.162 247.448 145.462 248.012C145.762 248.564 146.164 248.99 146.668 249.29C147.172 249.578 147.73 249.722 148.342 249.722C148.954 249.722 149.512 249.578 150.016 249.29C150.532 248.99 150.94 248.564 151.24 248.012C151.54 247.448 151.69 246.794 151.69 246.05ZM165.115 245.69C165.115 246.002 165.097 246.332 165.061 246.68H157.177C157.237 247.652 157.567 248.414 158.167 248.966C158.779 249.506 159.517 249.776 160.381 249.776C161.089 249.776 161.677 249.614 162.145 249.29C162.625 248.954 162.961 248.51 163.153 247.958H164.917C164.653 248.906 164.125 249.68 163.333 250.28C162.541 250.868 161.557 251.162 160.381 251.162C159.445 251.162 158.605 250.952 157.861 250.532C157.129 250.112 156.553 249.518 156.133 248.75C155.713 247.97 155.503 247.07 155.503 246.05C155.503 245.03 155.707 244.136 156.115 243.368C156.523 242.6 157.093 242.012 157.825 241.604C158.569 241.184 159.421 240.974 160.381 240.974C161.317 240.974 162.145 241.178 162.865 241.586C163.585 241.994 164.137 242.558 164.521 243.278C164.917 243.986 165.115 244.79 165.115 245.69ZM163.423 245.348C163.423 244.724 163.285 244.19 163.009 243.746C162.733 243.29 162.355 242.948 161.875 242.72C161.407 242.48 160.885 242.36 160.309 242.36C159.481 242.36 158.773 242.624 158.185 243.152C157.609 243.68 157.279 244.412 157.195 245.348H163.423ZM170.949 249.488L174.009 241.136H175.755L171.885 251H169.977L166.107 241.136H167.871L170.949 249.488ZM186.366 245.69C186.366 246.002 186.348 246.332 186.312 246.68H178.428C178.488 247.652 178.818 248.414 179.418 248.966C180.03 249.506 180.768 249.776 181.632 249.776C182.34 249.776 182.928 249.614 183.396 249.29C183.876 248.954 184.212 248.51 184.404 247.958H186.168C185.904 248.906 185.376 249.68 184.584 250.28C183.792 250.868 182.808 251.162 181.632 251.162C180.696 251.162 179.856 250.952 179.112 250.532C178.38 250.112 177.804 249.518 177.384 248.75C176.964 247.97 176.754 247.07 176.754 246.05C176.754 245.03 176.958 244.136 177.366 243.368C177.774 242.6 178.344 242.012 179.076 241.604C179.82 241.184 180.672 240.974 181.632 240.974C182.568 240.974 183.396 241.178 184.116 241.586C184.836 241.994 185.388 242.558 185.772 243.278C186.168 243.986 186.366 244.79 186.366 245.69ZM184.674 245.348C184.674 244.724 184.536 244.19 184.26 243.746C183.984 243.29 183.606 242.948 183.126 242.72C182.658 242.48 182.136 242.36 181.56 242.36C180.732 242.36 180.024 242.624 179.436 243.152C178.86 243.68 178.53 244.412 178.446 245.348H184.674ZM190.167 237.68V251H188.529V237.68H190.167ZM197.26 251.162C196.336 251.162 195.496 250.952 194.74 250.532C193.996 250.112 193.408 249.518 192.976 248.75C192.556 247.97 192.346 247.07 192.346 246.05C192.346 245.042 192.562 244.154 192.994 243.386C193.438 242.606 194.038 242.012 194.794 241.604C195.55 241.184 196.396 240.974 197.332 240.974C198.268 240.974 199.114 241.184 199.87 241.604C200.626 242.012 201.22 242.6 201.652 243.368C202.096 244.136 202.318 245.03 202.318 246.05C202.318 247.07 202.09 247.97 201.634 248.75C201.19 249.518 200.584 250.112 199.816 250.532C199.048 250.952 198.196 251.162 197.26 251.162ZM197.26 249.722C197.848 249.722 198.4 249.584 198.916 249.308C199.432 249.032 199.846 248.618 200.158 248.066C200.482 247.514 200.644 246.842 200.644 246.05C200.644 245.258 200.488 244.586 200.176 244.034C199.864 243.482 199.456 243.074 198.952 242.81C198.448 242.534 197.902 242.396 197.314 242.396C196.714 242.396 196.162 242.534 195.658 242.81C195.166 243.074 194.77 243.482 194.47 244.034C194.17 244.586 194.02 245.258 194.02 246.05C194.02 246.854 194.164 247.532 194.452 248.084C194.752 248.636 195.148 249.05 195.64 249.326C196.132 249.59 196.672 249.722 197.26 249.722ZM206.11 242.954C206.434 242.39 206.914 241.922 207.55 241.55C208.198 241.166 208.948 240.974 209.8 240.974C210.676 240.974 211.468 241.184 212.176 241.604C212.896 242.024 213.46 242.618 213.868 243.386C214.276 244.142 214.48 245.024 214.48 246.032C214.48 247.028 214.276 247.916 213.868 248.696C213.46 249.476 212.896 250.082 212.176 250.514C211.468 250.946 210.676 251.162 209.8 251.162C208.96 251.162 208.216 250.976 207.568 250.604C206.932 250.22 206.446 249.746 206.11 249.182V255.68H204.472V241.136H206.11V242.954ZM212.806 246.032C212.806 245.288 212.656 244.64 212.356 244.088C212.056 243.536 211.648 243.116 211.132 242.828C210.628 242.54 210.07 242.396 209.458 242.396C208.858 242.396 208.3 242.546 207.784 242.846C207.28 243.134 206.872 243.56 206.56 244.124C206.26 244.676 206.11 245.318 206.11 246.05C206.11 246.794 206.26 247.448 206.56 248.012C206.872 248.564 207.28 248.99 207.784 249.29C208.3 249.578 208.858 249.722 209.458 249.722C210.07 249.722 210.628 249.578 211.132 249.29C211.648 248.99 212.056 248.564 212.356 248.012C212.656 247.448 212.806 246.788 212.806 246.032ZM220.823 246.05C220.823 245.03 221.027 244.142 221.435 243.386C221.843 242.618 222.407 242.024 223.127 241.604C223.859 241.184 224.693 240.974 225.629 240.974C226.841 240.974 227.837 241.268 228.617 241.856C229.409 242.444 229.931 243.26 230.183 244.304H228.419C228.251 243.704 227.921 243.23 227.429 242.882C226.949 242.534 226.349 242.36 225.629 242.36C224.693 242.36 223.937 242.684 223.361 243.332C222.785 243.968 222.497 244.874 222.497 246.05C222.497 247.238 222.785 248.156 223.361 248.804C223.937 249.452 224.693 249.776 225.629 249.776C226.349 249.776 226.949 249.608 227.429 249.272C227.909 248.936 228.239 248.456 228.419 247.832H230.183C229.919 248.84 229.391 249.65 228.599 250.262C227.807 250.862 226.817 251.162 225.629 251.162C224.693 251.162 223.859 250.952 223.127 250.532C222.407 250.112 221.843 249.518 221.435 248.75C221.027 247.982 220.823 247.082 220.823 246.05ZM236.67 251.162C235.746 251.162 234.906 250.952 234.15 250.532C233.406 250.112 232.818 249.518 232.386 248.75C231.966 247.97 231.756 247.07 231.756 246.05C231.756 245.042 231.972 244.154 232.404 243.386C232.848 242.606 233.448 242.012 234.204 241.604C234.96 241.184 235.806 240.974 236.742 240.974C237.678 240.974 238.524 241.184 239.28 241.604C240.036 242.012 240.63 242.6 241.062 243.368C241.506 244.136 241.728 245.03 241.728 246.05C241.728 247.07 241.5 247.97 241.044 248.75C240.6 249.518 239.994 250.112 239.226 250.532C238.458 250.952 237.606 251.162 236.67 251.162ZM236.67 249.722C237.258 249.722 237.81 249.584 238.326 249.308C238.842 249.032 239.256 248.618 239.568 248.066C239.892 247.514 240.054 246.842 240.054 246.05C240.054 245.258 239.898 244.586 239.586 244.034C239.274 243.482 238.866 243.074 238.362 242.81C237.858 242.534 237.312 242.396 236.724 242.396C236.124 242.396 235.572 242.534 235.068 242.81C234.576 243.074 234.18 243.482 233.88 244.034C233.58 244.586 233.43 245.258 233.43 246.05C233.43 246.854 233.574 247.532 233.862 248.084C234.162 248.636 234.558 249.05 235.05 249.326C235.542 249.59 236.082 249.722 236.67 249.722ZM255.744 240.956C256.512 240.956 257.196 241.118 257.796 241.442C258.396 241.754 258.87 242.228 259.218 242.864C259.566 243.5 259.74 244.274 259.74 245.186V251H258.12V245.42C258.12 244.436 257.874 243.686 257.382 243.17C256.902 242.642 256.248 242.378 255.42 242.378C254.568 242.378 253.89 242.654 253.386 243.206C252.882 243.746 252.63 244.532 252.63 245.564V251H251.01V245.42C251.01 244.436 250.764 243.686 250.272 243.17C249.792 242.642 249.138 242.378 248.31 242.378C247.458 242.378 246.78 242.654 246.276 243.206C245.772 243.746 245.52 244.532 245.52 245.564V251H243.882V241.136H245.52V242.558C245.844 242.042 246.276 241.646 246.816 241.37C247.368 241.094 247.974 240.956 248.634 240.956C249.462 240.956 250.194 241.142 250.83 241.514C251.466 241.886 251.94 242.432 252.252 243.152C252.528 242.456 252.984 241.916 253.62 241.532C254.256 241.148 254.964 240.956 255.744 240.956ZM264.065 242.954C264.389 242.39 264.869 241.922 265.505 241.55C266.153 241.166 266.903 240.974 267.755 240.974C268.631 240.974 269.423 241.184 270.131 241.604C270.851 242.024 271.415 242.618 271.823 243.386C272.231 244.142 272.435 245.024 272.435 246.032C272.435 247.028 272.231 247.916 271.823 248.696C271.415 249.476 270.851 250.082 270.131 250.514C269.423 250.946 268.631 251.162 267.755 251.162C266.915 251.162 266.171 250.976 265.523 250.604C264.887 250.22 264.401 249.746 264.065 249.182V255.68H262.427V241.136H264.065V242.954ZM270.761 246.032C270.761 245.288 270.611 244.64 270.311 244.088C270.011 243.536 269.603 243.116 269.087 242.828C268.583 242.54 268.025 242.396 267.413 242.396C266.813 242.396 266.255 242.546 265.739 242.846C265.235 243.134 264.827 243.56 264.515 244.124C264.215 244.676 264.065 245.318 264.065 246.05C264.065 246.794 264.215 247.448 264.515 248.012C264.827 248.564 265.235 248.99 265.739 249.29C266.255 249.578 266.813 249.722 267.413 249.722C268.025 249.722 268.583 249.578 269.087 249.29C269.603 248.99 270.011 248.564 270.311 248.012C270.611 247.448 270.761 246.788 270.761 246.032ZM273.979 246.032C273.979 245.024 274.183 244.142 274.591 243.386C274.999 242.618 275.557 242.024 276.265 241.604C276.985 241.184 277.783 240.974 278.659 240.974C279.523 240.974 280.273 241.16 280.909 241.532C281.545 241.904 282.019 242.372 282.331 242.936V241.136H283.987V251H282.331V249.164C282.007 249.74 281.521 250.22 280.873 250.604C280.237 250.976 279.493 251.162 278.641 251.162C277.765 251.162 276.973 250.946 276.265 250.514C275.557 250.082 274.999 249.476 274.591 248.696C274.183 247.916 273.979 247.028 273.979 246.032ZM282.331 246.05C282.331 245.306 282.181 244.658 281.881 244.106C281.581 243.554 281.173 243.134 280.657 242.846C280.153 242.546 279.595 242.396 278.983 242.396C278.371 242.396 277.813 242.54 277.309 242.828C276.805 243.116 276.403 243.536 276.103 244.088C275.803 244.64 275.653 245.288 275.653 246.032C275.653 246.788 275.803 247.448 276.103 248.012C276.403 248.564 276.805 248.99 277.309 249.29C277.813 249.578 278.371 249.722 278.983 249.722C279.595 249.722 280.153 249.578 280.657 249.29C281.173 248.99 281.581 248.564 281.881 248.012C282.181 247.448 282.331 246.794 282.331 246.05ZM291.561 240.956C292.761 240.956 293.733 241.322 294.477 242.054C295.221 242.774 295.593 243.818 295.593 245.186V251H293.973V245.42C293.973 244.436 293.727 243.686 293.235 243.17C292.743 242.642 292.071 242.378 291.219 242.378C290.355 242.378 289.665 242.648 289.149 243.188C288.645 243.728 288.393 244.514 288.393 245.546V251H286.755V241.136H288.393V242.54C288.717 242.036 289.155 241.646 289.707 241.37C290.271 241.094 290.889 240.956 291.561 240.956ZM306.765 241.136L300.825 255.644H299.133L301.077 250.892L297.099 241.136H298.917L302.013 249.128L305.073 241.136H306.765ZM90.914 272.956C91.682 272.956 92.366 273.118 92.966 273.442C93.566 273.754 94.04 274.228 94.388 274.864C94.736 275.5 94.91 276.274 94.91 277.186V283H93.29V277.42C93.29 276.436 93.044 275.686 92.552 275.17C92.072 274.642 91.418 274.378 90.59 274.378C89.738 274.378 89.06 274.654 88.556 275.206C88.052 275.746 87.8 276.532 87.8 277.564V283H86.18V277.42C86.18 276.436 85.934 275.686 85.442 275.17C84.962 274.642 84.308 274.378 83.48 274.378C82.628 274.378 81.95 274.654 81.446 275.206C80.942 275.746 80.69 276.532 80.69 277.564V283H79.052V273.136H80.69V274.558C81.014 274.042 81.446 273.646 81.986 273.37C82.538 273.094 83.144 272.956 83.804 272.956C84.632 272.956 85.364 273.142 86 273.514C86.636 273.886 87.11 274.432 87.422 275.152C87.698 274.456 88.154 273.916 88.79 273.532C89.426 273.148 90.134 272.956 90.914 272.956ZM101.899 283.162C100.975 283.162 100.135 282.952 99.3789 282.532C98.6349 282.112 98.0469 281.518 97.6149 280.75C97.1949 279.97 96.9849 279.07 96.9849 278.05C96.9849 277.042 97.2009 276.154 97.6329 275.386C98.0769 274.606 98.6769 274.012 99.4329 273.604C100.189 273.184 101.035 272.974 101.971 272.974C102.907 272.974 103.753 273.184 104.509 273.604C105.265 274.012 105.859 274.6 106.291 275.368C106.735 276.136 106.957 277.03 106.957 278.05C106.957 279.07 106.729 279.97 106.273 280.75C105.829 281.518 105.223 282.112 104.455 282.532C103.687 282.952 102.835 283.162 101.899 283.162ZM101.899 281.722C102.487 281.722 103.039 281.584 103.555 281.308C104.071 281.032 104.485 280.618 104.797 280.066C105.121 279.514 105.283 278.842 105.283 278.05C105.283 277.258 105.127 276.586 104.815 276.034C104.503 275.482 104.095 275.074 103.591 274.81C103.087 274.534 102.541 274.396 101.953 274.396C101.353 274.396 100.801 274.534 100.297 274.81C99.8049 275.074 99.4089 275.482 99.1089 276.034C98.8089 276.586 98.6589 277.258 98.6589 278.05C98.6589 278.854 98.8029 279.532 99.0909 280.084C99.3909 280.636 99.7869 281.05 100.279 281.326C100.771 281.59 101.311 281.722 101.899 281.722ZM110.749 274.972C111.085 274.384 111.577 273.904 112.225 273.532C112.873 273.16 113.611 272.974 114.439 272.974C115.327 272.974 116.125 273.184 116.833 273.604C117.541 274.024 118.099 274.618 118.507 275.386C118.915 276.142 119.119 277.024 119.119 278.032C119.119 279.028 118.915 279.916 118.507 280.696C118.099 281.476 117.535 282.082 116.815 282.514C116.107 282.946 115.315 283.162 114.439 283.162C113.587 283.162 112.837 282.976 112.189 282.604C111.553 282.232 111.073 281.758 110.749 281.182V283H109.111V269.68H110.749V274.972ZM117.445 278.032C117.445 277.288 117.295 276.64 116.995 276.088C116.695 275.536 116.287 275.116 115.771 274.828C115.267 274.54 114.709 274.396 114.097 274.396C113.497 274.396 112.939 274.546 112.423 274.846C111.919 275.134 111.511 275.56 111.199 276.124C110.899 276.676 110.749 277.318 110.749 278.05C110.749 278.794 110.899 279.448 111.199 280.012C111.511 280.564 111.919 280.99 112.423 281.29C112.939 281.578 113.497 281.722 114.097 281.722C114.709 281.722 115.267 281.578 115.771 281.29C116.287 280.99 116.695 280.564 116.995 280.012C117.295 279.448 117.445 278.788 117.445 278.032ZM122.121 271.534C121.809 271.534 121.545 271.426 121.329 271.21C121.113 270.994 121.005 270.73 121.005 270.418C121.005 270.106 121.113 269.842 121.329 269.626C121.545 269.41 121.809 269.302 122.121 269.302C122.421 269.302 122.673 269.41 122.877 269.626C123.093 269.842 123.201 270.106 123.201 270.418C123.201 270.73 123.093 270.994 122.877 271.21C122.673 271.426 122.421 271.534 122.121 271.534ZM122.913 273.136V283H121.275V273.136H122.913ZM127.342 269.68V283H125.704V269.68H127.342ZM139.134 277.69C139.134 278.002 139.116 278.332 139.08 278.68H131.196C131.256 279.652 131.586 280.414 132.186 280.966C132.798 281.506 133.536 281.776 134.4 281.776C135.108 281.776 135.696 281.614 136.164 281.29C136.644 280.954 136.98 280.51 137.172 279.958H138.936C138.672 280.906 138.144 281.68 137.352 282.28C136.56 282.868 135.576 283.162 134.4 283.162C133.464 283.162 132.624 282.952 131.88 282.532C131.148 282.112 130.572 281.518 130.152 280.75C129.732 279.97 129.522 279.07 129.522 278.05C129.522 277.03 129.726 276.136 130.134 275.368C130.542 274.6 131.112 274.012 131.844 273.604C132.588 273.184 133.44 272.974 134.4 272.974C135.336 272.974 136.164 273.178 136.884 273.586C137.604 273.994 138.156 274.558 138.54 275.278C138.936 275.986 139.134 276.79 139.134 277.69ZM137.442 277.348C137.442 276.724 137.304 276.19 137.028 275.746C136.752 275.29 136.374 274.948 135.894 274.72C135.426 274.48 134.904 274.36 134.328 274.36C133.5 274.36 132.792 274.624 132.204 275.152C131.628 275.68 131.298 276.412 131.214 277.348H137.442ZM145.483 278.032C145.483 277.024 145.687 276.142 146.095 275.386C146.503 274.618 147.061 274.024 147.769 273.604C148.489 273.184 149.287 272.974 150.163 272.974C151.027 272.974 151.777 273.16 152.413 273.532C153.049 273.904 153.523 274.372 153.835 274.936V273.136H155.491V283H153.835V281.164C153.511 281.74 153.025 282.22 152.377 282.604C151.741 282.976 150.997 283.162 150.145 283.162C149.269 283.162 148.477 282.946 147.769 282.514C147.061 282.082 146.503 281.476 146.095 280.696C145.687 279.916 145.483 279.028 145.483 278.032ZM153.835 278.05C153.835 277.306 153.685 276.658 153.385 276.106C153.085 275.554 152.677 275.134 152.161 274.846C151.657 274.546 151.099 274.396 150.487 274.396C149.875 274.396 149.317 274.54 148.813 274.828C148.309 275.116 147.907 275.536 147.607 276.088C147.307 276.64 147.157 277.288 147.157 278.032C147.157 278.788 147.307 279.448 147.607 280.012C147.907 280.564 148.309 280.99 148.813 281.29C149.317 281.578 149.875 281.722 150.487 281.722C151.099 281.722 151.657 281.578 152.161 281.29C152.677 280.99 153.085 280.564 153.385 280.012C153.685 279.448 153.835 278.794 153.835 278.05ZM159.897 274.954C160.221 274.39 160.701 273.922 161.337 273.55C161.985 273.166 162.735 272.974 163.587 272.974C164.463 272.974 165.255 273.184 165.963 273.604C166.683 274.024 167.247 274.618 167.655 275.386C168.063 276.142 168.267 277.024 168.267 278.032C168.267 279.028 168.063 279.916 167.655 280.696C167.247 281.476 166.683 282.082 165.963 282.514C165.255 282.946 164.463 283.162 163.587 283.162C162.747 283.162 162.003 282.976 161.355 282.604C160.719 282.22 160.233 281.746 159.897 281.182V287.68H158.259V273.136H159.897V274.954ZM166.593 278.032C166.593 277.288 166.443 276.64 166.143 276.088C165.843 275.536 165.435 275.116 164.919 274.828C164.415 274.54 163.857 274.396 163.245 274.396C162.645 274.396 162.087 274.546 161.571 274.846C161.067 275.134 160.659 275.56 160.347 276.124C160.047 276.676 159.897 277.318 159.897 278.05C159.897 278.794 160.047 279.448 160.347 280.012C160.659 280.564 161.067 280.99 161.571 281.29C162.087 281.578 162.645 281.722 163.245 281.722C163.857 281.722 164.415 281.578 164.919 281.29C165.435 280.99 165.843 280.564 166.143 280.012C166.443 279.448 166.593 278.788 166.593 278.032ZM172.061 274.954C172.385 274.39 172.865 273.922 173.501 273.55C174.149 273.166 174.899 272.974 175.751 272.974C176.627 272.974 177.419 273.184 178.127 273.604C178.847 274.024 179.411 274.618 179.819 275.386C180.227 276.142 180.431 277.024 180.431 278.032C180.431 279.028 180.227 279.916 179.819 280.696C179.411 281.476 178.847 282.082 178.127 282.514C177.419 282.946 176.627 283.162 175.751 283.162C174.911 283.162 174.167 282.976 173.519 282.604C172.883 282.22 172.397 281.746 172.061 281.182V287.68H170.423V273.136H172.061V274.954ZM178.757 278.032C178.757 277.288 178.607 276.64 178.307 276.088C178.007 275.536 177.599 275.116 177.083 274.828C176.579 274.54 176.021 274.396 175.409 274.396C174.809 274.396 174.251 274.546 173.735 274.846C173.231 275.134 172.823 275.56 172.511 276.124C172.211 276.676 172.061 277.318 172.061 278.05C172.061 278.794 172.211 279.448 172.511 280.012C172.823 280.564 173.231 280.99 173.735 281.29C174.251 281.578 174.809 281.722 175.409 281.722C176.021 281.722 176.579 281.578 177.083 281.29C177.599 280.99 178.007 280.564 178.307 280.012C178.607 279.448 178.757 278.788 178.757 278.032ZM186.079 283.162C185.323 283.162 184.645 283.036 184.045 282.784C183.445 282.52 182.971 282.16 182.623 281.704C182.275 281.236 182.083 280.702 182.047 280.102H183.739C183.787 280.594 184.015 280.996 184.423 281.308C184.843 281.62 185.389 281.776 186.061 281.776C186.685 281.776 187.177 281.638 187.537 281.362C187.897 281.086 188.077 280.738 188.077 280.318C188.077 279.886 187.885 279.568 187.501 279.364C187.117 279.148 186.523 278.938 185.719 278.734C184.987 278.542 184.387 278.35 183.919 278.158C183.463 277.954 183.067 277.66 182.731 277.276C182.407 276.88 182.245 276.364 182.245 275.728C182.245 275.224 182.395 274.762 182.695 274.342C182.995 273.922 183.421 273.592 183.973 273.352C184.525 273.1 185.155 272.974 185.863 272.974C186.955 272.974 187.837 273.25 188.509 273.802C189.181 274.354 189.541 275.11 189.589 276.07H187.951C187.915 275.554 187.705 275.14 187.321 274.828C186.949 274.516 186.445 274.36 185.809 274.36C185.221 274.36 184.753 274.486 184.405 274.738C184.057 274.99 183.883 275.32 183.883 275.728C183.883 276.052 183.985 276.322 184.189 276.538C184.405 276.742 184.669 276.91 184.981 277.042C185.305 277.162 185.749 277.3 186.313 277.456C187.021 277.648 187.597 277.84 188.041 278.032C188.485 278.212 188.863 278.488 189.175 278.86C189.499 279.232 189.667 279.718 189.679 280.318C189.679 280.858 189.529 281.344 189.229 281.776C188.929 282.208 188.503 282.55 187.951 282.802C187.411 283.042 186.787 283.162 186.079 283.162ZM198.788 274.486V280.3C198.788 280.78 198.89 281.122 199.094 281.326C199.298 281.518 199.652 281.614 200.156 281.614H201.362V283H199.886C198.974 283 198.29 282.79 197.834 282.37C197.378 281.95 197.15 281.26 197.15 280.3V274.486H195.872V273.136H197.15V270.652H198.788V273.136H201.362V274.486H198.788ZM207.649 283.162C206.725 283.162 205.885 282.952 205.129 282.532C204.385 282.112 203.797 281.518 203.365 280.75C202.945 279.97 202.735 279.07 202.735 278.05C202.735 277.042 202.951 276.154 203.383 275.386C203.827 274.606 204.427 274.012 205.183 273.604C205.939 273.184 206.785 272.974 207.721 272.974C208.657 272.974 209.503 273.184 210.259 273.604C211.015 274.012 211.609 274.6 212.041 275.368C212.485 276.136 212.707 277.03 212.707 278.05C212.707 279.07 212.479 279.97 212.023 280.75C211.579 281.518 210.973 282.112 210.205 282.532C209.437 282.952 208.585 283.162 207.649 283.162ZM207.649 281.722C208.237 281.722 208.789 281.584 209.305 281.308C209.821 281.032 210.235 280.618 210.547 280.066C210.871 279.514 211.033 278.842 211.033 278.05C211.033 277.258 210.877 276.586 210.565 276.034C210.253 275.482 209.845 275.074 209.341 274.81C208.837 274.534 208.291 274.396 207.703 274.396C207.103 274.396 206.551 274.534 206.047 274.81C205.555 275.074 205.159 275.482 204.859 276.034C204.559 276.586 204.409 277.258 204.409 278.05C204.409 278.854 204.553 279.532 204.841 280.084C205.141 280.636 205.537 281.05 206.029 281.326C206.521 281.59 207.061 281.722 207.649 281.722ZM221.297 274.972C221.633 274.384 222.125 273.904 222.773 273.532C223.421 273.16 224.159 272.974 224.987 272.974C225.875 272.974 226.673 273.184 227.381 273.604C228.089 274.024 228.647 274.618 229.055 275.386C229.463 276.142 229.667 277.024 229.667 278.032C229.667 279.028 229.463 279.916 229.055 280.696C228.647 281.476 228.083 282.082 227.363 282.514C226.655 282.946 225.863 283.162 224.987 283.162C224.135 283.162 223.385 282.976 222.737 282.604C222.101 282.232 221.621 281.758 221.297 281.182V283H219.659V269.68H221.297V274.972ZM227.993 278.032C227.993 277.288 227.843 276.64 227.543 276.088C227.243 275.536 226.835 275.116 226.319 274.828C225.815 274.54 225.257 274.396 224.645 274.396C224.045 274.396 223.487 274.546 222.971 274.846C222.467 275.134 222.059 275.56 221.747 276.124C221.447 276.676 221.297 277.318 221.297 278.05C221.297 278.794 221.447 279.448 221.747 280.012C222.059 280.564 222.467 280.99 222.971 281.29C223.487 281.578 224.045 281.722 224.645 281.722C225.257 281.722 225.815 281.578 226.319 281.29C226.835 280.99 227.243 280.564 227.543 280.012C227.843 279.448 227.993 278.788 227.993 278.032ZM240.824 277.69C240.824 278.002 240.806 278.332 240.77 278.68H232.886C232.946 279.652 233.276 280.414 233.876 280.966C234.488 281.506 235.226 281.776 236.09 281.776C236.798 281.776 237.386 281.614 237.854 281.29C238.334 280.954 238.67 280.51 238.862 279.958H240.626C240.362 280.906 239.834 281.68 239.042 282.28C238.25 282.868 237.266 283.162 236.09 283.162C235.154 283.162 234.314 282.952 233.57 282.532C232.838 282.112 232.262 281.518 231.842 280.75C231.422 279.97 231.212 279.07 231.212 278.05C231.212 277.03 231.416 276.136 231.824 275.368C232.232 274.6 232.802 274.012 233.534 273.604C234.278 273.184 235.13 272.974 236.09 272.974C237.026 272.974 237.854 273.178 238.574 273.586C239.294 273.994 239.846 274.558 240.23 275.278C240.626 275.986 240.824 276.79 240.824 277.69ZM239.132 277.348C239.132 276.724 238.994 276.19 238.718 275.746C238.442 275.29 238.064 274.948 237.584 274.72C237.116 274.48 236.594 274.36 236.018 274.36C235.19 274.36 234.482 274.624 233.894 275.152C233.318 275.68 232.988 276.412 232.904 277.348H239.132ZM259.646 272.956C260.414 272.956 261.098 273.118 261.698 273.442C262.298 273.754 262.772 274.228 263.12 274.864C263.468 275.5 263.642 276.274 263.642 277.186V283H262.022V277.42C262.022 276.436 261.776 275.686 261.284 275.17C260.804 274.642 260.15 274.378 259.322 274.378C258.47 274.378 257.792 274.654 257.288 275.206C256.784 275.746 256.532 276.532 256.532 277.564V283H254.912V277.42C254.912 276.436 254.666 275.686 254.174 275.17C253.694 274.642 253.04 274.378 252.212 274.378C251.36 274.378 250.682 274.654 250.178 275.206C249.674 275.746 249.422 276.532 249.422 277.564V283H247.784V273.136H249.422V274.558C249.746 274.042 250.178 273.646 250.718 273.37C251.27 273.094 251.876 272.956 252.536 272.956C253.364 272.956 254.096 273.142 254.732 273.514C255.368 273.886 255.842 274.432 256.154 275.152C256.43 274.456 256.886 273.916 257.522 273.532C258.158 273.148 258.866 272.956 259.646 272.956ZM270.631 283.162C269.707 283.162 268.867 282.952 268.111 282.532C267.367 282.112 266.779 281.518 266.347 280.75C265.927 279.97 265.717 279.07 265.717 278.05C265.717 277.042 265.933 276.154 266.365 275.386C266.809 274.606 267.409 274.012 268.165 273.604C268.921 273.184 269.767 272.974 270.703 272.974C271.639 272.974 272.485 273.184 273.241 273.604C273.997 274.012 274.591 274.6 275.023 275.368C275.467 276.136 275.689 277.03 275.689 278.05C275.689 279.07 275.461 279.97 275.005 280.75C274.561 281.518 273.955 282.112 273.187 282.532C272.419 282.952 271.567 283.162 270.631 283.162ZM270.631 281.722C271.219 281.722 271.771 281.584 272.287 281.308C272.803 281.032 273.217 280.618 273.529 280.066C273.853 279.514 274.015 278.842 274.015 278.05C274.015 277.258 273.859 276.586 273.547 276.034C273.235 275.482 272.827 275.074 272.323 274.81C271.819 274.534 271.273 274.396 270.685 274.396C270.085 274.396 269.533 274.534 269.029 274.81C268.537 275.074 268.141 275.482 267.841 276.034C267.541 276.586 267.391 277.258 267.391 278.05C267.391 278.854 267.535 279.532 267.823 280.084C268.123 280.636 268.519 281.05 269.011 281.326C269.503 281.59 270.043 281.722 270.631 281.722ZM279.481 274.738C279.769 274.174 280.177 273.736 280.705 273.424C281.245 273.112 281.899 272.956 282.667 272.956V274.648H282.235C280.399 274.648 279.481 275.644 279.481 277.636V283H277.843V273.136H279.481V274.738ZM293.558 277.69C293.558 278.002 293.54 278.332 293.504 278.68H285.62C285.68 279.652 286.01 280.414 286.61 280.966C287.222 281.506 287.96 281.776 288.824 281.776C289.532 281.776 290.12 281.614 290.588 281.29C291.068 280.954 291.404 280.51 291.596 279.958H293.36C293.096 280.906 292.568 281.68 291.776 282.28C290.984 282.868 290 283.162 288.824 283.162C287.888 283.162 287.048 282.952 286.304 282.532C285.572 282.112 284.996 281.518 284.576 280.75C284.156 279.97 283.946 279.07 283.946 278.05C283.946 277.03 284.15 276.136 284.558 275.368C284.966 274.6 285.536 274.012 286.268 273.604C287.012 273.184 287.864 272.974 288.824 272.974C289.76 272.974 290.588 273.178 291.308 273.586C292.028 273.994 292.58 274.558 292.964 275.278C293.36 275.986 293.558 276.79 293.558 277.69ZM291.866 277.348C291.866 276.724 291.728 276.19 291.452 275.746C291.176 275.29 290.798 274.948 290.318 274.72C289.85 274.48 289.328 274.36 288.752 274.36C287.924 274.36 287.216 274.624 286.628 275.152C286.052 275.68 285.722 276.412 285.638 277.348H291.866ZM67.4713 306.954C67.7953 306.39 68.2753 305.922 68.9113 305.55C69.5593 305.166 70.3093 304.974 71.1613 304.974C72.0373 304.974 72.8293 305.184 73.5373 305.604C74.2573 306.024 74.8213 306.618 75.2293 307.386C75.6373 308.142 75.8413 309.024 75.8413 310.032C75.8413 311.028 75.6373 311.916 75.2293 312.696C74.8213 313.476 74.2573 314.082 73.5373 314.514C72.8293 314.946 72.0373 315.162 71.1613 315.162C70.3213 315.162 69.5773 314.976 68.9293 314.604C68.2933 314.22 67.8073 313.746 67.4713 313.182V319.68H65.8333V305.136H67.4713V306.954ZM74.1673 310.032C74.1673 309.288 74.0173 308.64 73.7173 308.088C73.4173 307.536 73.0093 307.116 72.4933 306.828C71.9893 306.54 71.4313 306.396 70.8193 306.396C70.2193 306.396 69.6613 306.546 69.1453 306.846C68.6413 307.134 68.2333 307.56 67.9213 308.124C67.6213 308.676 67.4713 309.318 67.4713 310.05C67.4713 310.794 67.6213 311.448 67.9213 312.012C68.2333 312.564 68.6413 312.99 69.1453 313.29C69.6613 313.578 70.2193 313.722 70.8193 313.722C71.4313 313.722 71.9893 313.578 72.4933 313.29C73.0093 312.99 73.4173 312.564 73.7173 312.012C74.0173 311.448 74.1673 310.788 74.1673 310.032ZM79.6353 306.738C79.9233 306.174 80.3313 305.736 80.8593 305.424C81.3993 305.112 82.0533 304.956 82.8213 304.956V306.648H82.3893C80.5533 306.648 79.6353 307.644 79.6353 309.636V315H77.9973V305.136H79.6353V306.738ZM89.0142 315.162C88.0902 315.162 87.2502 314.952 86.4942 314.532C85.7502 314.112 85.1622 313.518 84.7302 312.75C84.3102 311.97 84.1002 311.07 84.1002 310.05C84.1002 309.042 84.3162 308.154 84.7482 307.386C85.1922 306.606 85.7922 306.012 86.5482 305.604C87.3042 305.184 88.1502 304.974 89.0862 304.974C90.0222 304.974 90.8682 305.184 91.6242 305.604C92.3802 306.012 92.9742 306.6 93.4062 307.368C93.8502 308.136 94.0722 309.03 94.0722 310.05C94.0722 311.07 93.8442 311.97 93.3882 312.75C92.9442 313.518 92.3382 314.112 91.5702 314.532C90.8022 314.952 89.9502 315.162 89.0142 315.162ZM89.0142 313.722C89.6022 313.722 90.1542 313.584 90.6702 313.308C91.1862 313.032 91.6002 312.618 91.9122 312.066C92.2362 311.514 92.3982 310.842 92.3982 310.05C92.3982 309.258 92.2422 308.586 91.9302 308.034C91.6182 307.482 91.2102 307.074 90.7062 306.81C90.2022 306.534 89.6562 306.396 89.0682 306.396C88.4682 306.396 87.9162 306.534 87.4122 306.81C86.9202 307.074 86.5242 307.482 86.2242 308.034C85.9242 308.586 85.7742 309.258 85.7742 310.05C85.7742 310.854 85.9182 311.532 86.2062 312.084C86.5062 312.636 86.9022 313.05 87.3942 313.326C87.8862 313.59 88.4262 313.722 89.0142 313.722ZM100.24 306.486H98.1698V315H96.5318V306.486H95.2538V305.136H96.5318V304.434C96.5318 303.33 96.8138 302.526 97.3778 302.022C97.9538 301.506 98.8718 301.248 100.132 301.248V302.616C99.4118 302.616 98.9018 302.76 98.6018 303.048C98.3138 303.324 98.1698 303.786 98.1698 304.434V305.136H100.24V306.486ZM111.15 309.69C111.15 310.002 111.132 310.332 111.096 310.68H103.212C103.272 311.652 103.602 312.414 104.202 312.966C104.814 313.506 105.552 313.776 106.416 313.776C107.124 313.776 107.712 313.614 108.18 313.29C108.66 312.954 108.996 312.51 109.188 311.958H110.952C110.688 312.906 110.16 313.68 109.368 314.28C108.576 314.868 107.592 315.162 106.416 315.162C105.48 315.162 104.64 314.952 103.896 314.532C103.164 314.112 102.588 313.518 102.168 312.75C101.748 311.97 101.538 311.07 101.538 310.05C101.538 309.03 101.742 308.136 102.15 307.368C102.558 306.6 103.128 306.012 103.86 305.604C104.604 305.184 105.456 304.974 106.416 304.974C107.352 304.974 108.18 305.178 108.9 305.586C109.62 305.994 110.172 306.558 110.556 307.278C110.952 307.986 111.15 308.79 111.15 309.69ZM109.458 309.348C109.458 308.724 109.32 308.19 109.044 307.746C108.768 307.29 108.39 306.948 107.91 306.72C107.442 306.48 106.92 306.36 106.344 306.36C105.516 306.36 104.808 306.624 104.22 307.152C103.644 307.68 103.314 308.412 103.23 309.348H109.458ZM116.804 315.162C116.048 315.162 115.37 315.036 114.77 314.784C114.17 314.52 113.696 314.16 113.348 313.704C113 313.236 112.808 312.702 112.772 312.102H114.464C114.512 312.594 114.74 312.996 115.148 313.308C115.568 313.62 116.114 313.776 116.786 313.776C117.41 313.776 117.902 313.638 118.262 313.362C118.622 313.086 118.802 312.738 118.802 312.318C118.802 311.886 118.61 311.568 118.226 311.364C117.842 311.148 117.248 310.938 116.444 310.734C115.712 310.542 115.112 310.35 114.644 310.158C114.188 309.954 113.792 309.66 113.456 309.276C113.132 308.88 112.97 308.364 112.97 307.728C112.97 307.224 113.12 306.762 113.42 306.342C113.72 305.922 114.146 305.592 114.698 305.352C115.25 305.1 115.88 304.974 116.588 304.974C117.68 304.974 118.562 305.25 119.234 305.802C119.906 306.354 120.266 307.11 120.314 308.07H118.676C118.64 307.554 118.43 307.14 118.046 306.828C117.674 306.516 117.17 306.36 116.534 306.36C115.946 306.36 115.478 306.486 115.13 306.738C114.782 306.99 114.608 307.32 114.608 307.728C114.608 308.052 114.71 308.322 114.914 308.538C115.13 308.742 115.394 308.91 115.706 309.042C116.03 309.162 116.474 309.3 117.038 309.456C117.746 309.648 118.322 309.84 118.766 310.032C119.21 310.212 119.588 310.488 119.9 310.86C120.224 311.232 120.392 311.718 120.404 312.318C120.404 312.858 120.254 313.344 119.954 313.776C119.654 314.208 119.228 314.55 118.676 314.802C118.136 315.042 117.512 315.162 116.804 315.162ZM126.208 315.162C125.452 315.162 124.774 315.036 124.174 314.784C123.574 314.52 123.1 314.16 122.752 313.704C122.404 313.236 122.212 312.702 122.176 312.102H123.868C123.916 312.594 124.144 312.996 124.552 313.308C124.972 313.62 125.518 313.776 126.19 313.776C126.814 313.776 127.306 313.638 127.666 313.362C128.026 313.086 128.206 312.738 128.206 312.318C128.206 311.886 128.014 311.568 127.63 311.364C127.246 311.148 126.652 310.938 125.848 310.734C125.116 310.542 124.516 310.35 124.048 310.158C123.592 309.954 123.196 309.66 122.86 309.276C122.536 308.88 122.374 308.364 122.374 307.728C122.374 307.224 122.524 306.762 122.824 306.342C123.124 305.922 123.55 305.592 124.102 305.352C124.654 305.1 125.284 304.974 125.992 304.974C127.084 304.974 127.966 305.25 128.638 305.802C129.31 306.354 129.67 307.11 129.718 308.07H128.08C128.044 307.554 127.834 307.14 127.45 306.828C127.078 306.516 126.574 306.36 125.938 306.36C125.35 306.36 124.882 306.486 124.534 306.738C124.186 306.99 124.012 307.32 124.012 307.728C124.012 308.052 124.114 308.322 124.318 308.538C124.534 308.742 124.798 308.91 125.11 309.042C125.434 309.162 125.878 309.3 126.442 309.456C127.15 309.648 127.726 309.84 128.17 310.032C128.614 310.212 128.992 310.488 129.304 310.86C129.628 311.232 129.796 311.718 129.808 312.318C129.808 312.858 129.658 313.344 129.358 313.776C129.058 314.208 128.632 314.55 128.08 314.802C127.54 315.042 126.916 315.162 126.208 315.162ZM132.966 303.534C132.654 303.534 132.39 303.426 132.174 303.21C131.958 302.994 131.85 302.73 131.85 302.418C131.85 302.106 131.958 301.842 132.174 301.626C132.39 301.41 132.654 301.302 132.966 301.302C133.266 301.302 133.518 301.41 133.722 301.626C133.938 301.842 134.046 302.106 134.046 302.418C134.046 302.73 133.938 302.994 133.722 303.21C133.518 303.426 133.266 303.534 132.966 303.534ZM133.758 305.136V315H132.12V305.136H133.758ZM140.852 315.162C139.928 315.162 139.088 314.952 138.332 314.532C137.588 314.112 137 313.518 136.568 312.75C136.148 311.97 135.938 311.07 135.938 310.05C135.938 309.042 136.154 308.154 136.586 307.386C137.03 306.606 137.63 306.012 138.386 305.604C139.142 305.184 139.988 304.974 140.924 304.974C141.86 304.974 142.706 305.184 143.462 305.604C144.218 306.012 144.812 306.6 145.244 307.368C145.688 308.136 145.91 309.03 145.91 310.05C145.91 311.07 145.682 311.97 145.226 312.75C144.782 313.518 144.176 314.112 143.408 314.532C142.64 314.952 141.788 315.162 140.852 315.162ZM140.852 313.722C141.44 313.722 141.992 313.584 142.508 313.308C143.024 313.032 143.438 312.618 143.75 312.066C144.074 311.514 144.236 310.842 144.236 310.05C144.236 309.258 144.08 308.586 143.768 308.034C143.456 307.482 143.048 307.074 142.544 306.81C142.04 306.534 141.494 306.396 140.906 306.396C140.306 306.396 139.754 306.534 139.25 306.81C138.758 307.074 138.362 307.482 138.062 308.034C137.762 308.586 137.612 309.258 137.612 310.05C137.612 310.854 137.756 311.532 138.044 312.084C138.344 312.636 138.74 313.05 139.232 313.326C139.724 313.59 140.264 313.722 140.852 313.722ZM152.87 304.956C154.07 304.956 155.042 305.322 155.786 306.054C156.53 306.774 156.902 307.818 156.902 309.186V315H155.282V309.42C155.282 308.436 155.036 307.686 154.544 307.17C154.052 306.642 153.38 306.378 152.528 306.378C151.664 306.378 150.974 306.648 150.458 307.188C149.954 307.728 149.702 308.514 149.702 309.546V315H148.064V305.136H149.702V306.54C150.026 306.036 150.464 305.646 151.016 305.37C151.58 305.094 152.198 304.956 152.87 304.956ZM158.965 310.032C158.965 309.024 159.169 308.142 159.577 307.386C159.985 306.618 160.543 306.024 161.251 305.604C161.971 305.184 162.769 304.974 163.645 304.974C164.509 304.974 165.259 305.16 165.895 305.532C166.531 305.904 167.005 306.372 167.317 306.936V305.136H168.973V315H167.317V313.164C166.993 313.74 166.507 314.22 165.859 314.604C165.223 314.976 164.479 315.162 163.627 315.162C162.751 315.162 161.959 314.946 161.251 314.514C160.543 314.082 159.985 313.476 159.577 312.696C159.169 311.916 158.965 311.028 158.965 310.032ZM167.317 310.05C167.317 309.306 167.167 308.658 166.867 308.106C166.567 307.554 166.159 307.134 165.643 306.846C165.139 306.546 164.581 306.396 163.969 306.396C163.357 306.396 162.799 306.54 162.295 306.828C161.791 307.116 161.389 307.536 161.089 308.088C160.789 308.64 160.639 309.288 160.639 310.032C160.639 310.788 160.789 311.448 161.089 312.012C161.389 312.564 161.791 312.99 162.295 313.29C162.799 313.578 163.357 313.722 163.969 313.722C164.581 313.722 165.139 313.578 165.643 313.29C166.159 312.99 166.567 312.564 166.867 312.012C167.167 311.448 167.317 310.794 167.317 310.05ZM173.379 301.68V315H171.741V301.68H173.379ZM180.358 310.032C180.358 309.024 180.562 308.142 180.97 307.386C181.378 306.618 181.936 306.024 182.644 305.604C183.364 305.184 184.162 304.974 185.038 304.974C185.902 304.974 186.652 305.16 187.288 305.532C187.924 305.904 188.398 306.372 188.71 306.936V305.136H190.366V315H188.71V313.164C188.386 313.74 187.9 314.22 187.252 314.604C186.616 314.976 185.872 315.162 185.02 315.162C184.144 315.162 183.352 314.946 182.644 314.514C181.936 314.082 181.378 313.476 180.97 312.696C180.562 311.916 180.358 311.028 180.358 310.032ZM188.71 310.05C188.71 309.306 188.56 308.658 188.26 308.106C187.96 307.554 187.552 307.134 187.036 306.846C186.532 306.546 185.974 306.396 185.362 306.396C184.75 306.396 184.192 306.54 183.688 306.828C183.184 307.116 182.782 307.536 182.482 308.088C182.182 308.64 182.032 309.288 182.032 310.032C182.032 310.788 182.182 311.448 182.482 312.012C182.782 312.564 183.184 312.99 183.688 313.29C184.192 313.578 184.75 313.722 185.362 313.722C185.974 313.722 186.532 313.578 187.036 313.29C187.552 312.99 187.96 312.564 188.26 312.012C188.56 311.448 188.71 310.794 188.71 310.05ZM197.94 304.956C199.14 304.956 200.112 305.322 200.856 306.054C201.6 306.774 201.972 307.818 201.972 309.186V315H200.352V309.42C200.352 308.436 200.106 307.686 199.614 307.17C199.122 306.642 198.45 306.378 197.598 306.378C196.734 306.378 196.044 306.648 195.528 307.188C195.024 307.728 194.772 308.514 194.772 309.546V315H193.134V305.136H194.772V306.54C195.096 306.036 195.534 305.646 196.086 305.37C196.65 305.094 197.268 304.956 197.94 304.956ZM204.036 310.032C204.036 309.024 204.24 308.142 204.648 307.386C205.056 306.618 205.614 306.024 206.322 305.604C207.042 305.184 207.846 304.974 208.734 304.974C209.502 304.974 210.216 305.154 210.876 305.514C211.536 305.862 212.04 306.324 212.388 306.9V301.68H214.044V315H212.388V313.146C212.064 313.734 211.584 314.22 210.948 314.604C210.312 314.976 209.568 315.162 208.716 315.162C207.84 315.162 207.042 314.946 206.322 314.514C205.614 314.082 205.056 313.476 204.648 312.696C204.24 311.916 204.036 311.028 204.036 310.032ZM212.388 310.05C212.388 309.306 212.238 308.658 211.938 308.106C211.638 307.554 211.23 307.134 210.714 306.846C210.21 306.546 209.652 306.396 209.04 306.396C208.428 306.396 207.87 306.54 207.366 306.828C206.862 307.116 206.46 307.536 206.16 308.088C205.86 308.64 205.71 309.288 205.71 310.032C205.71 310.788 205.86 311.448 206.16 312.012C206.46 312.564 206.862 312.99 207.366 313.29C207.87 313.578 208.428 313.722 209.04 313.722C209.652 313.722 210.21 313.578 210.714 313.29C211.23 312.99 211.638 312.564 211.938 312.012C212.238 311.448 212.388 310.794 212.388 310.05ZM220.999 310.032C220.999 309.024 221.203 308.142 221.611 307.386C222.019 306.618 222.577 306.024 223.285 305.604C224.005 305.184 224.803 304.974 225.679 304.974C226.543 304.974 227.293 305.16 227.929 305.532C228.565 305.904 229.039 306.372 229.351 306.936V305.136H231.007V315H229.351V313.164C229.027 313.74 228.541 314.22 227.893 314.604C227.257 314.976 226.513 315.162 225.661 315.162C224.785 315.162 223.993 314.946 223.285 314.514C222.577 314.082 222.019 313.476 221.611 312.696C221.203 311.916 220.999 311.028 220.999 310.032ZM229.351 310.05C229.351 309.306 229.201 308.658 228.901 308.106C228.601 307.554 228.193 307.134 227.677 306.846C227.173 306.546 226.615 306.396 226.003 306.396C225.391 306.396 224.833 306.54 224.329 306.828C223.825 307.116 223.423 307.536 223.123 308.088C222.823 308.64 222.673 309.288 222.673 310.032C222.673 310.788 222.823 311.448 223.123 312.012C223.423 312.564 223.825 312.99 224.329 313.29C224.833 313.578 225.391 313.722 226.003 313.722C226.615 313.722 227.173 313.578 227.677 313.29C228.193 312.99 228.601 312.564 228.901 312.012C229.201 311.448 229.351 310.794 229.351 310.05ZM235.773 306.486V312.3C235.773 312.78 235.875 313.122 236.079 313.326C236.283 313.518 236.637 313.614 237.141 313.614H238.347V315H236.871C235.959 315 235.275 314.79 234.819 314.37C234.363 313.95 234.135 313.26 234.135 312.3V306.486H232.857V305.136H234.135V302.652H235.773V305.136H238.347V306.486H235.773ZM242.329 306.486V312.3C242.329 312.78 242.431 313.122 242.635 313.326C242.839 313.518 243.193 313.614 243.697 313.614H244.903V315H243.427C242.515 315 241.831 314.79 241.375 314.37C240.919 313.95 240.691 313.26 240.691 312.3V306.486H239.413V305.136H240.691V302.652H242.329V305.136H244.903V306.486H242.329ZM248.526 306.738C248.814 306.174 249.222 305.736 249.75 305.424C250.29 305.112 250.944 304.956 251.712 304.956V306.648H251.28C249.444 306.648 248.526 307.644 248.526 309.636V315H246.888V305.136H248.526V306.738ZM252.991 310.032C252.991 309.024 253.195 308.142 253.603 307.386C254.011 306.618 254.569 306.024 255.277 305.604C255.997 305.184 256.795 304.974 257.671 304.974C258.535 304.974 259.285 305.16 259.921 305.532C260.557 305.904 261.031 306.372 261.343 306.936V305.136H262.999V315H261.343V313.164C261.019 313.74 260.533 314.22 259.885 314.604C259.249 314.976 258.505 315.162 257.653 315.162C256.777 315.162 255.985 314.946 255.277 314.514C254.569 314.082 254.011 313.476 253.603 312.696C253.195 311.916 252.991 311.028 252.991 310.032ZM261.343 310.05C261.343 309.306 261.193 308.658 260.893 308.106C260.593 307.554 260.185 307.134 259.669 306.846C259.165 306.546 258.607 306.396 257.995 306.396C257.383 306.396 256.825 306.54 256.321 306.828C255.817 307.116 255.415 307.536 255.115 308.088C254.815 308.64 254.665 309.288 254.665 310.032C254.665 310.788 254.815 311.448 255.115 312.012C255.415 312.564 255.817 312.99 256.321 313.29C256.825 313.578 257.383 313.722 257.995 313.722C258.607 313.722 259.165 313.578 259.669 313.29C260.185 312.99 260.593 312.564 260.893 312.012C261.193 311.448 261.343 310.794 261.343 310.05ZM265.155 310.05C265.155 309.03 265.359 308.142 265.767 307.386C266.175 306.618 266.739 306.024 267.459 305.604C268.191 305.184 269.025 304.974 269.961 304.974C271.173 304.974 272.169 305.268 272.949 305.856C273.741 306.444 274.263 307.26 274.515 308.304H272.751C272.583 307.704 272.253 307.23 271.761 306.882C271.281 306.534 270.681 306.36 269.961 306.36C269.025 306.36 268.269 306.684 267.693 307.332C267.117 307.968 266.829 308.874 266.829 310.05C266.829 311.238 267.117 312.156 267.693 312.804C268.269 313.452 269.025 313.776 269.961 313.776C270.681 313.776 271.281 313.608 271.761 313.272C272.241 312.936 272.571 312.456 272.751 311.832H274.515C274.251 312.84 273.723 313.65 272.931 314.262C272.139 314.862 271.149 315.162 269.961 315.162C269.025 315.162 268.191 314.952 267.459 314.532C266.739 314.112 266.175 313.518 265.767 312.75C265.359 311.982 265.155 311.082 265.155 310.05ZM278.698 306.486V312.3C278.698 312.78 278.8 313.122 279.004 313.326C279.208 313.518 279.562 313.614 280.066 313.614H281.272V315H279.796C278.884 315 278.2 314.79 277.744 314.37C277.288 313.95 277.06 313.26 277.06 312.3V306.486H275.782V305.136H277.06V302.652H278.698V305.136H281.272V306.486H278.698ZM284.103 303.534C283.791 303.534 283.527 303.426 283.311 303.21C283.095 302.994 282.987 302.73 282.987 302.418C282.987 302.106 283.095 301.842 283.311 301.626C283.527 301.41 283.791 301.302 284.103 301.302C284.403 301.302 284.655 301.41 284.859 301.626C285.075 301.842 285.183 302.106 285.183 302.418C285.183 302.73 285.075 302.994 284.859 303.21C284.655 303.426 284.403 303.534 284.103 303.534ZM284.895 305.136V315H283.257V305.136H284.895ZM291.359 313.488L294.419 305.136H296.165L292.295 315H290.387L286.517 305.136H288.281L291.359 313.488ZM306.777 309.69C306.777 310.002 306.759 310.332 306.723 310.68H298.839C298.899 311.652 299.229 312.414 299.829 312.966C300.441 313.506 301.179 313.776 302.043 313.776C302.751 313.776 303.339 313.614 303.807 313.29C304.287 312.954 304.623 312.51 304.815 311.958H306.579C306.315 312.906 305.787 313.68 304.995 314.28C304.203 314.868 303.219 315.162 302.043 315.162C301.107 315.162 300.267 314.952 299.523 314.532C298.791 314.112 298.215 313.518 297.795 312.75C297.375 311.97 297.165 311.07 297.165 310.05C297.165 309.03 297.369 308.136 297.777 307.368C298.185 306.6 298.755 306.012 299.487 305.604C300.231 305.184 301.083 304.974 302.043 304.974C302.979 304.974 303.807 305.178 304.527 305.586C305.247 305.994 305.799 306.558 306.183 307.278C306.579 307.986 306.777 308.79 306.777 309.69ZM305.085 309.348C305.085 308.724 304.947 308.19 304.671 307.746C304.395 307.29 304.017 306.948 303.537 306.72C303.069 306.48 302.547 306.36 301.971 306.36C301.143 306.36 300.435 306.624 299.847 307.152C299.271 307.68 298.941 308.412 298.857 309.348H305.085Z" fill="white"/>
<g clip-path="url(#clip0_2111_46)">
<circle cx="186" cy="391.5" r="22.5" fill="#F3F4F6"/>
<path d="M185.911 396.411L187.089 397.589L192.678 392L187.089 386.411L185.911 387.589L189.488 391.166H181.5V392.833H189.488L185.911 396.411Z" fill="#4C40F7"/>
</g>
</g>
<defs>
<filter id="filter0_d_2111_46" x="0" y="0" width="372" height="478" filterUnits="userSpaceOnUse" color-interpolation-filters="sRGB">
<feFlood flood-opacity="0" result="BackgroundImageFix"/>
<feColorMatrix in="SourceAlpha" type="matrix" values="0 0 0 0 0 0 0 0 0 0 0 0 0 0 0 0 0 0 127 0" result="hardAlpha"/>
<feOffset dy="10"/>
<feGaussianBlur stdDeviation="5"/>
<feComposite in2="hardAlpha" operator="out"/>
<feColorMatrix type="matrix" values="0 0 0 0 0.603846 0 0 0 0 0.874549 0 0 0 0 1 0 0 0 0.25 0"/>
<feBlend mode="normal" in2="BackgroundImageFix" result="effect1_dropShadow_2111_46"/>
<feBlend mode="normal" in="SourceGraphic" in2="effect1_dropShadow_2111_46" result="shape"/>
</filter>
<filter id="filter1_d_2111_46" x="107.5" y="29" width="157" height="157" filterUnits="userSpaceOnUse" color-interpolation-filters="sRGB">
<feFlood flood-opacity="0" result="BackgroundImageFix"/>
<feColorMatrix in="SourceAlpha" type="matrix" values="0 0 0 0 0 0 0 0 0 0 0 0 0 0 0 0 0 0 127 0" result="hardAlpha"/>
<feOffset dy="15"/>
<feGaussianBlur stdDeviation="15"/>
<feComposite in2="hardAlpha" operator="out"/>
<feColorMatrix type="matrix" values="0 0 0 0 1 0 0 0 0 1 0 0 0 0 1 0 0 0 1 0"/>
<feBlend mode="normal" in2="BackgroundImageFix" result="effect1_dropShadow_2111_46"/>
<feBlend mode="normal" in="SourceGraphic" in2="effect1_dropShadow_2111_46" result="shape"/>
</filter>
<clipPath id="clip0_2111_46">
<rect width="45" height="45" fill="white" transform="translate(163.5 369)"/>
</clipPath>
</defs>
</svg>
