<svg width="372" height="478" viewBox="0 0 372 478" fill="none" xmlns="http://www.w3.org/2000/svg">
<g filter="url(#filter0_d_2134_225)">
<rect x="10" width="352" height="458" rx="20" fill="#4C40F7" shape-rendering="crispEdges"/>
<g filter="url(#filter1_d_2134_225)">
<circle cx="186" cy="92.5" r="48.5" fill="white"/>
<path d="M187.062 75.3872C186.753 75.1659 186.383 75.0479 186.003 75.0498C185.623 75.0518 185.254 75.1737 184.948 75.3982C181.585 77.8347 171.333 86.1287 171.333 96.6667C171.333 102.62 174.905 107.746 180.012 110.043C179.139 108.813 178.668 107.342 178.667 105.833C178.636 99.9282 185.19 93.1962 185.468 93.0001C185.623 92.8892 185.809 92.8295 185.999 92.8295C186.19 92.8295 186.375 92.8892 186.53 93.0001C186.809 93.1962 193.333 98.4524 193.333 105.837C193.333 107.403 192.829 108.849 191.99 110.043C197.095 107.746 200.667 102.621 200.667 96.6759C200.667 85.9307 190.433 77.7797 187.062 75.3872Z" fill="#4C40F7"/>
</g>
<path d="M157.621 192.04V206H154.821V192.04H157.621ZM159.668 200.42C159.668 199.3 159.888 198.307 160.328 197.44C160.781 196.573 161.394 195.907 162.168 195.44C162.941 194.973 163.801 194.74 164.748 194.74C165.468 194.74 166.154 194.9 166.808 195.22C167.461 195.527 167.981 195.94 168.368 196.46V191.2H171.208V206H168.368V204.36C168.021 204.907 167.534 205.347 166.908 205.68C166.281 206.013 165.554 206.18 164.728 206.18C163.794 206.18 162.941 205.94 162.168 205.46C161.394 204.98 160.781 204.307 160.328 203.44C159.888 202.56 159.668 201.553 159.668 200.42ZM168.388 200.46C168.388 199.78 168.254 199.2 167.988 198.72C167.721 198.227 167.361 197.853 166.908 197.6C166.454 197.333 165.968 197.2 165.448 197.2C164.928 197.2 164.448 197.327 164.008 197.58C163.568 197.833 163.208 198.207 162.928 198.7C162.661 199.18 162.528 199.753 162.528 200.42C162.528 201.087 162.661 201.673 162.928 202.18C163.208 202.673 163.568 203.053 164.008 203.32C164.461 203.587 164.941 203.72 165.448 203.72C165.968 203.72 166.454 203.593 166.908 203.34C167.361 203.073 167.721 202.7 167.988 202.22C168.254 201.727 168.388 201.14 168.388 200.46ZM184.243 200.22C184.243 200.62 184.216 200.98 184.163 201.3H176.063C176.129 202.1 176.409 202.727 176.903 203.18C177.396 203.633 178.003 203.86 178.723 203.86C179.763 203.86 180.503 203.413 180.943 202.52H183.963C183.643 203.587 183.029 204.467 182.123 205.16C181.216 205.84 180.103 206.18 178.783 206.18C177.716 206.18 176.756 205.947 175.903 205.48C175.063 205 174.403 204.327 173.923 203.46C173.456 202.593 173.222 201.593 173.222 200.46C173.222 199.313 173.456 198.307 173.923 197.44C174.389 196.573 175.043 195.907 175.883 195.44C176.723 194.973 177.689 194.74 178.783 194.74C179.836 194.74 180.776 194.967 181.603 195.42C182.443 195.873 183.089 196.52 183.543 197.36C184.009 198.187 184.243 199.14 184.243 200.22ZM181.343 199.42C181.329 198.7 181.069 198.127 180.563 197.7C180.056 197.26 179.436 197.04 178.703 197.04C178.009 197.04 177.423 197.253 176.943 197.68C176.476 198.093 176.189 198.673 176.083 199.42H181.343ZM185.566 200.42C185.566 199.3 185.786 198.307 186.226 197.44C186.68 196.573 187.286 195.907 188.046 195.44C188.82 194.973 189.68 194.74 190.626 194.74C191.453 194.74 192.173 194.907 192.786 195.24C193.413 195.573 193.913 195.993 194.286 196.5V194.92H197.106V206H194.286V204.38C193.926 204.9 193.426 205.333 192.786 205.68C192.16 206.013 191.433 206.18 190.606 206.18C189.673 206.18 188.82 205.94 188.046 205.46C187.286 204.98 186.68 204.307 186.226 203.44C185.786 202.56 185.566 201.553 185.566 200.42ZM194.286 200.46C194.286 199.78 194.153 199.2 193.886 198.72C193.62 198.227 193.26 197.853 192.806 197.6C192.353 197.333 191.866 197.2 191.346 197.2C190.826 197.2 190.346 197.327 189.906 197.58C189.466 197.833 189.106 198.207 188.826 198.7C188.56 199.18 188.426 199.753 188.426 200.42C188.426 201.087 188.56 201.673 188.826 202.18C189.106 202.673 189.466 203.053 189.906 203.32C190.36 203.587 190.84 203.72 191.346 203.72C191.866 203.72 192.353 203.593 192.806 203.34C193.26 203.073 193.62 202.7 193.886 202.22C194.153 201.727 194.286 201.14 194.286 200.46ZM203.101 197.22V202.58C203.101 202.953 203.188 203.227 203.361 203.4C203.548 203.56 203.854 203.64 204.281 203.64H205.581V206H203.821C201.461 206 200.281 204.853 200.281 202.56V197.22H198.961V194.92H200.281V192.18H203.101V194.92H205.581V197.22H203.101ZM217.895 200.22C217.895 200.62 217.868 200.98 217.815 201.3H209.715C209.782 202.1 210.062 202.727 210.555 203.18C211.048 203.633 211.655 203.86 212.375 203.86C213.415 203.86 214.155 203.413 214.595 202.52H217.615C217.295 203.587 216.682 204.467 215.775 205.16C214.868 205.84 213.755 206.18 212.435 206.18C211.368 206.18 210.408 205.947 209.555 205.48C208.715 205 208.055 204.327 207.575 203.46C207.108 202.593 206.875 201.593 206.875 200.46C206.875 199.313 207.108 198.307 207.575 197.44C208.042 196.573 208.695 195.907 209.535 195.44C210.375 194.973 211.342 194.74 212.435 194.74C213.488 194.74 214.428 194.967 215.255 195.42C216.095 195.873 216.742 196.52 217.195 197.36C217.662 198.187 217.895 199.14 217.895 200.22ZM214.995 199.42C214.982 198.7 214.722 198.127 214.215 197.7C213.708 197.26 213.088 197.04 212.355 197.04C211.662 197.04 211.075 197.253 210.595 197.68C210.128 198.093 209.842 198.673 209.735 199.42H214.995Z" fill="white"/>
<path d="M70.0261 238.454L66.3901 251H64.5541L61.6381 240.902L58.6141 251L56.7961 251.018L53.2861 238.454H55.0321L57.7681 249.092L60.7921 238.454H62.6281L65.5081 249.056L68.2621 238.454H70.0261ZM80.8186 245.69C80.8186 246.002 80.8006 246.332 80.7646 246.68H72.8806C72.9406 247.652 73.2706 248.414 73.8706 248.966C74.4826 249.506 75.2206 249.776 76.0846 249.776C76.7926 249.776 77.3806 249.614 77.8486 249.29C78.3286 248.954 78.6646 248.51 78.8566 247.958H80.6206C80.3566 248.906 79.8286 249.68 79.0366 250.28C78.2446 250.868 77.2606 251.162 76.0846 251.162C75.1486 251.162 74.3086 250.952 73.5646 250.532C72.8326 250.112 72.2566 249.518 71.8366 248.75C71.4166 247.97 71.2066 247.07 71.2066 246.05C71.2066 245.03 71.4106 244.136 71.8186 243.368C72.2266 242.6 72.7966 242.012 73.5286 241.604C74.2726 241.184 75.1246 240.974 76.0846 240.974C77.0206 240.974 77.8486 241.178 78.5686 241.586C79.2886 241.994 79.8406 242.558 80.2246 243.278C80.6206 243.986 80.8186 244.79 80.8186 245.69ZM79.1266 245.348C79.1266 244.724 78.9886 244.19 78.7126 243.746C78.4366 243.29 78.0586 242.948 77.5786 242.72C77.1106 242.48 76.5886 242.36 76.0126 242.36C75.1846 242.36 74.4766 242.624 73.8886 243.152C73.3126 243.68 72.9826 244.412 72.8986 245.348H79.1266ZM92.6756 240.956C93.4196 240.956 94.0916 241.118 94.6916 241.442C95.2916 241.754 95.7596 242.228 96.0956 242.864C96.4436 243.5 96.6176 244.274 96.6176 245.186V251H94.9976V245.42C94.9976 244.436 94.7516 243.686 94.2596 243.17C93.7676 242.642 93.0956 242.378 92.2436 242.378C91.3796 242.378 90.6896 242.648 90.1736 243.188C89.6696 243.728 89.4176 244.514 89.4176 245.546V251H87.7796V237.68H89.4176V242.54C89.7416 242.036 90.1856 241.646 90.7496 241.37C91.3256 241.094 91.9676 240.956 92.6756 240.956ZM108.293 245.69C108.293 246.002 108.275 246.332 108.239 246.68H100.355C100.415 247.652 100.745 248.414 101.345 248.966C101.957 249.506 102.695 249.776 103.559 249.776C104.267 249.776 104.855 249.614 105.323 249.29C105.803 248.954 106.139 248.51 106.331 247.958H108.095C107.831 248.906 107.303 249.68 106.511 250.28C105.719 250.868 104.735 251.162 103.559 251.162C102.623 251.162 101.783 250.952 101.039 250.532C100.307 250.112 99.7312 249.518 99.3112 248.75C98.8912 247.97 98.6812 247.07 98.6812 246.05C98.6812 245.03 98.8852 244.136 99.2932 243.368C99.7012 242.6 100.271 242.012 101.003 241.604C101.747 241.184 102.599 240.974 103.559 240.974C104.495 240.974 105.323 241.178 106.043 241.586C106.763 241.994 107.315 242.558 107.699 243.278C108.095 243.986 108.293 244.79 108.293 245.69ZM106.601 245.348C106.601 244.724 106.463 244.19 106.187 243.746C105.911 243.29 105.533 242.948 105.053 242.72C104.585 242.48 104.063 242.36 103.487 242.36C102.659 242.36 101.951 242.624 101.363 243.152C100.787 243.68 100.457 244.412 100.373 245.348H106.601ZM112.093 237.68V251H110.455V237.68H112.093ZM116.523 242.954C116.847 242.39 117.327 241.922 117.963 241.55C118.611 241.166 119.361 240.974 120.213 240.974C121.089 240.974 121.881 241.184 122.589 241.604C123.309 242.024 123.873 242.618 124.281 243.386C124.689 244.142 124.893 245.024 124.893 246.032C124.893 247.028 124.689 247.916 124.281 248.696C123.873 249.476 123.309 250.082 122.589 250.514C121.881 250.946 121.089 251.162 120.213 251.162C119.373 251.162 118.629 250.976 117.981 250.604C117.345 250.22 116.859 249.746 116.523 249.182V255.68H114.885V241.136H116.523V242.954ZM123.219 246.032C123.219 245.288 123.069 244.64 122.769 244.088C122.469 243.536 122.061 243.116 121.545 242.828C121.041 242.54 120.483 242.396 119.871 242.396C119.271 242.396 118.713 242.546 118.197 242.846C117.693 243.134 117.285 243.56 116.973 244.124C116.673 244.676 116.523 245.318 116.523 246.05C116.523 246.794 116.673 247.448 116.973 248.012C117.285 248.564 117.693 248.99 118.197 249.29C118.713 249.578 119.271 249.722 119.871 249.722C120.483 249.722 121.041 249.578 121.545 249.29C122.061 248.99 122.469 248.564 122.769 248.012C123.069 247.448 123.219 246.788 123.219 246.032ZM140.344 241.136L134.404 255.644H132.712L134.656 250.892L130.678 241.136H132.496L135.592 249.128L138.652 241.136H140.344ZM146.292 251.162C145.368 251.162 144.528 250.952 143.772 250.532C143.028 250.112 142.44 249.518 142.008 248.75C141.588 247.97 141.378 247.07 141.378 246.05C141.378 245.042 141.594 244.154 142.026 243.386C142.47 242.606 143.07 242.012 143.826 241.604C144.582 241.184 145.428 240.974 146.364 240.974C147.3 240.974 148.146 241.184 148.902 241.604C149.658 242.012 150.252 242.6 150.684 243.368C151.128 244.136 151.35 245.03 151.35 246.05C151.35 247.07 151.122 247.97 150.666 248.75C150.222 249.518 149.616 250.112 148.848 250.532C148.08 250.952 147.228 251.162 146.292 251.162ZM146.292 249.722C146.88 249.722 147.432 249.584 147.948 249.308C148.464 249.032 148.878 248.618 149.19 248.066C149.514 247.514 149.676 246.842 149.676 246.05C149.676 245.258 149.52 244.586 149.208 244.034C148.896 243.482 148.488 243.074 147.984 242.81C147.48 242.534 146.934 242.396 146.346 242.396C145.746 242.396 145.194 242.534 144.69 242.81C144.198 243.074 143.802 243.482 143.502 244.034C143.202 244.586 143.052 245.258 143.052 246.05C143.052 246.854 143.196 247.532 143.484 248.084C143.784 248.636 144.18 249.05 144.672 249.326C145.164 249.59 145.704 249.722 146.292 249.722ZM162.252 241.136V251H160.614V249.542C160.302 250.046 159.864 250.442 159.3 250.73C158.748 251.006 158.136 251.144 157.464 251.144C156.696 251.144 156.006 250.988 155.394 250.676C154.782 250.352 154.296 249.872 153.936 249.236C153.588 248.6 153.414 247.826 153.414 246.914V241.136H155.034V246.698C155.034 247.67 155.28 248.42 155.772 248.948C156.264 249.464 156.936 249.722 157.788 249.722C158.664 249.722 159.354 249.452 159.858 248.912C160.362 248.372 160.614 247.586 160.614 246.554V241.136H162.252ZM169.205 246.032C169.205 245.024 169.409 244.142 169.817 243.386C170.225 242.618 170.783 242.024 171.491 241.604C172.211 241.184 173.015 240.974 173.903 240.974C174.671 240.974 175.385 241.154 176.045 241.514C176.705 241.862 177.209 242.324 177.557 242.9V237.68H179.213V251H177.557V249.146C177.233 249.734 176.753 250.22 176.117 250.604C175.481 250.976 174.737 251.162 173.885 251.162C173.009 251.162 172.211 250.946 171.491 250.514C170.783 250.082 170.225 249.476 169.817 248.696C169.409 247.916 169.205 247.028 169.205 246.032ZM177.557 246.05C177.557 245.306 177.407 244.658 177.107 244.106C176.807 243.554 176.399 243.134 175.883 242.846C175.379 242.546 174.821 242.396 174.209 242.396C173.597 242.396 173.039 242.54 172.535 242.828C172.031 243.116 171.629 243.536 171.329 244.088C171.029 244.64 170.879 245.288 170.879 246.032C170.879 246.788 171.029 247.448 171.329 248.012C171.629 248.564 172.031 248.99 172.535 249.29C173.039 249.578 173.597 249.722 174.209 249.722C174.821 249.722 175.379 249.578 175.883 249.29C176.399 248.99 176.807 248.564 177.107 248.012C177.407 247.448 177.557 246.794 177.557 246.05ZM190.981 245.69C190.981 246.002 190.963 246.332 190.927 246.68H183.043C183.103 247.652 183.433 248.414 184.033 248.966C184.645 249.506 185.383 249.776 186.247 249.776C186.955 249.776 187.543 249.614 188.011 249.29C188.491 248.954 188.827 248.51 189.019 247.958H190.783C190.519 248.906 189.991 249.68 189.199 250.28C188.407 250.868 187.423 251.162 186.247 251.162C185.311 251.162 184.471 250.952 183.727 250.532C182.995 250.112 182.419 249.518 181.999 248.75C181.579 247.97 181.369 247.07 181.369 246.05C181.369 245.03 181.573 244.136 181.981 243.368C182.389 242.6 182.959 242.012 183.691 241.604C184.435 241.184 185.287 240.974 186.247 240.974C187.183 240.974 188.011 241.178 188.731 241.586C189.451 241.994 190.003 242.558 190.387 243.278C190.783 243.986 190.981 244.79 190.981 245.69ZM189.289 245.348C189.289 244.724 189.151 244.19 188.875 243.746C188.599 243.29 188.221 242.948 187.741 242.72C187.273 242.48 186.751 242.36 186.175 242.36C185.347 242.36 184.639 242.624 184.051 243.152C183.475 243.68 183.145 244.412 183.061 245.348H189.289ZM196.815 249.488L199.875 241.136H201.621L197.751 251H195.843L191.973 241.136H193.737L196.815 249.488ZM212.233 245.69C212.233 246.002 212.215 246.332 212.179 246.68H204.295C204.355 247.652 204.685 248.414 205.285 248.966C205.897 249.506 206.635 249.776 207.499 249.776C208.207 249.776 208.795 249.614 209.263 249.29C209.743 248.954 210.079 248.51 210.271 247.958H212.035C211.771 248.906 211.243 249.68 210.451 250.28C209.659 250.868 208.675 251.162 207.499 251.162C206.563 251.162 205.723 250.952 204.979 250.532C204.247 250.112 203.671 249.518 203.251 248.75C202.831 247.97 202.621 247.07 202.621 246.05C202.621 245.03 202.825 244.136 203.233 243.368C203.641 242.6 204.211 242.012 204.943 241.604C205.687 241.184 206.539 240.974 207.499 240.974C208.435 240.974 209.263 241.178 209.983 241.586C210.703 241.994 211.255 242.558 211.639 243.278C212.035 243.986 212.233 244.79 212.233 245.69ZM210.541 245.348C210.541 244.724 210.403 244.19 210.127 243.746C209.851 243.29 209.473 242.948 208.993 242.72C208.525 242.48 208.003 242.36 207.427 242.36C206.599 242.36 205.891 242.624 205.303 243.152C204.727 243.68 204.397 244.412 204.313 245.348H210.541ZM216.033 237.68V251H214.395V237.68H216.033ZM223.126 251.162C222.202 251.162 221.362 250.952 220.606 250.532C219.862 250.112 219.274 249.518 218.842 248.75C218.422 247.97 218.212 247.07 218.212 246.05C218.212 245.042 218.428 244.154 218.86 243.386C219.304 242.606 219.904 242.012 220.66 241.604C221.416 241.184 222.262 240.974 223.198 240.974C224.134 240.974 224.98 241.184 225.736 241.604C226.492 242.012 227.086 242.6 227.518 243.368C227.962 244.136 228.184 245.03 228.184 246.05C228.184 247.07 227.956 247.97 227.5 248.75C227.056 249.518 226.45 250.112 225.682 250.532C224.914 250.952 224.062 251.162 223.126 251.162ZM223.126 249.722C223.714 249.722 224.266 249.584 224.782 249.308C225.298 249.032 225.712 248.618 226.024 248.066C226.348 247.514 226.51 246.842 226.51 246.05C226.51 245.258 226.354 244.586 226.042 244.034C225.73 243.482 225.322 243.074 224.818 242.81C224.314 242.534 223.768 242.396 223.18 242.396C222.58 242.396 222.028 242.534 221.524 242.81C221.032 243.074 220.636 243.482 220.336 244.034C220.036 244.586 219.886 245.258 219.886 246.05C219.886 246.854 220.03 247.532 220.318 248.084C220.618 248.636 221.014 249.05 221.506 249.326C221.998 249.59 222.538 249.722 223.126 249.722ZM231.976 242.954C232.3 242.39 232.78 241.922 233.416 241.55C234.064 241.166 234.814 240.974 235.666 240.974C236.542 240.974 237.334 241.184 238.042 241.604C238.762 242.024 239.326 242.618 239.734 243.386C240.142 244.142 240.346 245.024 240.346 246.032C240.346 247.028 240.142 247.916 239.734 248.696C239.326 249.476 238.762 250.082 238.042 250.514C237.334 250.946 236.542 251.162 235.666 251.162C234.826 251.162 234.082 250.976 233.434 250.604C232.798 250.22 232.312 249.746 231.976 249.182V255.68H230.338V241.136H231.976V242.954ZM238.672 246.032C238.672 245.288 238.522 244.64 238.222 244.088C237.922 243.536 237.514 243.116 236.998 242.828C236.494 242.54 235.936 242.396 235.324 242.396C234.724 242.396 234.166 242.546 233.65 242.846C233.146 243.134 232.738 243.56 232.426 244.124C232.126 244.676 231.976 245.318 231.976 246.05C231.976 246.794 232.126 247.448 232.426 248.012C232.738 248.564 233.146 248.99 233.65 249.29C234.166 249.578 234.724 249.722 235.324 249.722C235.936 249.722 236.494 249.578 236.998 249.29C237.514 248.99 237.922 248.564 238.222 248.012C238.522 247.448 238.672 246.788 238.672 246.032ZM246.689 246.05C246.689 245.03 246.893 244.142 247.301 243.386C247.709 242.618 248.273 242.024 248.993 241.604C249.725 241.184 250.559 240.974 251.495 240.974C252.707 240.974 253.703 241.268 254.483 241.856C255.275 242.444 255.797 243.26 256.049 244.304H254.285C254.117 243.704 253.787 243.23 253.295 242.882C252.815 242.534 252.215 242.36 251.495 242.36C250.559 242.36 249.803 242.684 249.227 243.332C248.651 243.968 248.363 244.874 248.363 246.05C248.363 247.238 248.651 248.156 249.227 248.804C249.803 249.452 250.559 249.776 251.495 249.776C252.215 249.776 252.815 249.608 253.295 249.272C253.775 248.936 254.105 248.456 254.285 247.832H256.049C255.785 248.84 255.257 249.65 254.465 250.262C253.673 250.862 252.683 251.162 251.495 251.162C250.559 251.162 249.725 250.952 248.993 250.532C248.273 250.112 247.709 249.518 247.301 248.75C246.893 247.982 246.689 247.082 246.689 246.05ZM259.873 242.738C260.161 242.174 260.569 241.736 261.097 241.424C261.637 241.112 262.291 240.956 263.059 240.956V242.648H262.627C260.791 242.648 259.873 243.644 259.873 245.636V251H258.235V241.136H259.873V242.738ZM273.949 245.69C273.949 246.002 273.931 246.332 273.895 246.68H266.011C266.071 247.652 266.401 248.414 267.001 248.966C267.613 249.506 268.351 249.776 269.215 249.776C269.923 249.776 270.511 249.614 270.979 249.29C271.459 248.954 271.795 248.51 271.987 247.958H273.751C273.487 248.906 272.959 249.68 272.167 250.28C271.375 250.868 270.391 251.162 269.215 251.162C268.279 251.162 267.439 250.952 266.695 250.532C265.963 250.112 265.387 249.518 264.967 248.75C264.547 247.97 264.337 247.07 264.337 246.05C264.337 245.03 264.541 244.136 264.949 243.368C265.357 242.6 265.927 242.012 266.659 241.604C267.403 241.184 268.255 240.974 269.215 240.974C270.151 240.974 270.979 241.178 271.699 241.586C272.419 241.994 272.971 242.558 273.355 243.278C273.751 243.986 273.949 244.79 273.949 245.69ZM272.257 245.348C272.257 244.724 272.119 244.19 271.843 243.746C271.567 243.29 271.189 242.948 270.709 242.72C270.241 242.48 269.719 242.36 269.143 242.36C268.315 242.36 267.607 242.624 267.019 243.152C266.443 243.68 266.113 244.412 266.029 245.348H272.257ZM275.5 246.032C275.5 245.024 275.704 244.142 276.112 243.386C276.52 242.618 277.078 242.024 277.786 241.604C278.506 241.184 279.304 240.974 280.18 240.974C281.044 240.974 281.794 241.16 282.43 241.532C283.066 241.904 283.54 242.372 283.852 242.936V241.136H285.508V251H283.852V249.164C283.528 249.74 283.042 250.22 282.394 250.604C281.758 250.976 281.014 251.162 280.162 251.162C279.286 251.162 278.494 250.946 277.786 250.514C277.078 250.082 276.52 249.476 276.112 248.696C275.704 247.916 275.5 247.028 275.5 246.032ZM283.852 246.05C283.852 245.306 283.702 244.658 283.402 244.106C283.102 243.554 282.694 243.134 282.178 242.846C281.674 242.546 281.116 242.396 280.504 242.396C279.892 242.396 279.334 242.54 278.83 242.828C278.326 243.116 277.924 243.536 277.624 244.088C277.324 244.64 277.174 245.288 277.174 246.032C277.174 246.788 277.324 247.448 277.624 248.012C277.924 248.564 278.326 248.99 278.83 249.29C279.334 249.578 279.892 249.722 280.504 249.722C281.116 249.722 281.674 249.578 282.178 249.29C282.694 248.99 283.102 248.564 283.402 248.012C283.702 247.448 283.852 246.794 283.852 246.05ZM290.274 242.486V248.3C290.274 248.78 290.376 249.122 290.58 249.326C290.784 249.518 291.138 249.614 291.642 249.614H292.848V251H291.372C290.46 251 289.776 250.79 289.32 250.37C288.864 249.95 288.636 249.26 288.636 248.3V242.486H287.358V241.136H288.636V238.652H290.274V241.136H292.848V242.486H290.274ZM295.678 239.534C295.366 239.534 295.102 239.426 294.886 239.21C294.67 238.994 294.562 238.73 294.562 238.418C294.562 238.106 294.67 237.842 294.886 237.626C295.102 237.41 295.366 237.302 295.678 237.302C295.978 237.302 296.23 237.41 296.434 237.626C296.65 237.842 296.758 238.106 296.758 238.418C296.758 238.73 296.65 238.994 296.434 239.21C296.23 239.426 295.978 239.534 295.678 239.534ZM296.47 241.136V251H294.832V241.136H296.47ZM302.934 249.488L305.994 241.136H307.74L303.87 251H301.962L298.092 241.136H299.856L302.934 249.488ZM318.352 245.69C318.352 246.002 318.334 246.332 318.298 246.68H310.414C310.474 247.652 310.804 248.414 311.404 248.966C312.016 249.506 312.754 249.776 313.618 249.776C314.326 249.776 314.914 249.614 315.382 249.29C315.862 248.954 316.198 248.51 316.39 247.958H318.154C317.89 248.906 317.362 249.68 316.57 250.28C315.778 250.868 314.794 251.162 313.618 251.162C312.682 251.162 311.842 250.952 311.098 250.532C310.366 250.112 309.79 249.518 309.37 248.75C308.95 247.97 308.74 247.07 308.74 246.05C308.74 245.03 308.944 244.136 309.352 243.368C309.76 242.6 310.33 242.012 311.062 241.604C311.806 241.184 312.658 240.974 313.618 240.974C314.554 240.974 315.382 241.178 316.102 241.586C316.822 241.994 317.374 242.558 317.758 243.278C318.154 243.986 318.352 244.79 318.352 245.69ZM316.66 245.348C316.66 244.724 316.522 244.19 316.246 243.746C315.97 243.29 315.592 242.948 315.112 242.72C314.644 242.48 314.122 242.36 313.546 242.36C312.718 242.36 312.01 242.624 311.422 243.152C310.846 243.68 310.516 244.412 310.432 245.348H316.66ZM45.9722 271.534C45.6602 271.534 45.3962 271.426 45.1802 271.21C44.9642 270.994 44.8562 270.73 44.8562 270.418C44.8562 270.106 44.9642 269.842 45.1802 269.626C45.3962 269.41 45.6602 269.302 45.9722 269.302C46.2722 269.302 46.5242 269.41 46.7282 269.626C46.9442 269.842 47.0522 270.106 47.0522 270.418C47.0522 270.73 46.9442 270.994 46.7282 271.21C46.5242 271.426 46.2722 271.534 45.9722 271.534ZM46.7642 273.136V283H45.1262V273.136H46.7642ZM48.9439 278.032C48.9439 277.024 49.1479 276.142 49.5559 275.386C49.9639 274.618 50.5219 274.024 51.2299 273.604C51.9499 273.184 52.7539 272.974 53.6419 272.974C54.4099 272.974 55.1239 273.154 55.7839 273.514C56.4439 273.862 56.9479 274.324 57.2959 274.9V269.68H58.9519V283H57.2959V281.146C56.9719 281.734 56.4919 282.22 55.8559 282.604C55.2199 282.976 54.4759 283.162 53.6239 283.162C52.7479 283.162 51.9499 282.946 51.2299 282.514C50.5219 282.082 49.9639 281.476 49.5559 280.696C49.1479 279.916 48.9439 279.028 48.9439 278.032ZM57.2959 278.05C57.2959 277.306 57.1459 276.658 56.8459 276.106C56.5459 275.554 56.1379 275.134 55.6219 274.846C55.1179 274.546 54.5599 274.396 53.9479 274.396C53.3359 274.396 52.7779 274.54 52.2739 274.828C51.7699 275.116 51.3679 275.536 51.0679 276.088C50.7679 276.64 50.6179 277.288 50.6179 278.032C50.6179 278.788 50.7679 279.448 51.0679 280.012C51.3679 280.564 51.7699 280.99 52.2739 281.29C52.7779 281.578 53.3359 281.722 53.9479 281.722C54.5599 281.722 55.1179 281.578 55.6219 281.29C56.1379 280.99 56.5459 280.564 56.8459 280.012C57.1459 279.448 57.2959 278.794 57.2959 278.05ZM70.72 277.69C70.72 278.002 70.702 278.332 70.666 278.68H62.782C62.842 279.652 63.172 280.414 63.772 280.966C64.384 281.506 65.122 281.776 65.986 281.776C66.694 281.776 67.282 281.614 67.75 281.29C68.23 280.954 68.566 280.51 68.758 279.958H70.522C70.258 280.906 69.73 281.68 68.938 282.28C68.146 282.868 67.162 283.162 65.986 283.162C65.05 283.162 64.21 282.952 63.466 282.532C62.734 282.112 62.158 281.518 61.738 280.75C61.318 279.97 61.108 279.07 61.108 278.05C61.108 277.03 61.312 276.136 61.72 275.368C62.128 274.6 62.698 274.012 63.43 273.604C64.174 273.184 65.026 272.974 65.986 272.974C66.922 272.974 67.75 273.178 68.47 273.586C69.19 273.994 69.742 274.558 70.126 275.278C70.522 275.986 70.72 276.79 70.72 277.69ZM69.028 277.348C69.028 276.724 68.89 276.19 68.614 275.746C68.338 275.29 67.96 274.948 67.48 274.72C67.012 274.48 66.49 274.36 65.914 274.36C65.086 274.36 64.378 274.624 63.79 275.152C63.214 275.68 62.884 276.412 62.8 277.348H69.028ZM72.2701 278.032C72.2701 277.024 72.4741 276.142 72.8821 275.386C73.2901 274.618 73.8481 274.024 74.5561 273.604C75.2761 273.184 76.0741 272.974 76.9501 272.974C77.8141 272.974 78.5641 273.16 79.2001 273.532C79.8361 273.904 80.3101 274.372 80.6221 274.936V273.136H82.2781V283H80.6221V281.164C80.2981 281.74 79.8121 282.22 79.1641 282.604C78.5281 282.976 77.7841 283.162 76.9321 283.162C76.0561 283.162 75.2641 282.946 74.5561 282.514C73.8481 282.082 73.2901 281.476 72.8821 280.696C72.4741 279.916 72.2701 279.028 72.2701 278.032ZM80.6221 278.05C80.6221 277.306 80.4721 276.658 80.1721 276.106C79.8721 275.554 79.4641 275.134 78.9481 274.846C78.4441 274.546 77.8861 274.396 77.2741 274.396C76.6621 274.396 76.1041 274.54 75.6001 274.828C75.0961 275.116 74.6941 275.536 74.3941 276.088C74.0941 276.64 73.9441 277.288 73.9441 278.032C73.9441 278.788 74.0941 279.448 74.3941 280.012C74.6941 280.564 75.0961 280.99 75.6001 281.29C76.1041 281.578 76.6621 281.722 77.2741 281.722C77.8861 281.722 78.4441 281.578 78.9481 281.29C79.4641 280.99 79.8721 280.564 80.1721 280.012C80.4721 279.448 80.6221 278.794 80.6221 278.05ZM88.5382 283.162C87.7822 283.162 87.1042 283.036 86.5042 282.784C85.9042 282.52 85.4302 282.16 85.0822 281.704C84.7342 281.236 84.5422 280.702 84.5062 280.102H86.1982C86.2462 280.594 86.4742 280.996 86.8822 281.308C87.3022 281.62 87.8482 281.776 88.5202 281.776C89.1442 281.776 89.6362 281.638 89.9962 281.362C90.3562 281.086 90.5362 280.738 90.5362 280.318C90.5362 279.886 90.3442 279.568 89.9602 279.364C89.5762 279.148 88.9822 278.938 88.1782 278.734C87.4462 278.542 86.8462 278.35 86.3782 278.158C85.9222 277.954 85.5262 277.66 85.1902 277.276C84.8662 276.88 84.7042 276.364 84.7042 275.728C84.7042 275.224 84.8542 274.762 85.1542 274.342C85.4542 273.922 85.8802 273.592 86.4322 273.352C86.9842 273.1 87.6142 272.974 88.3222 272.974C89.4142 272.974 90.2962 273.25 90.9682 273.802C91.6402 274.354 92.0002 275.11 92.0482 276.07H90.4102C90.3742 275.554 90.1642 275.14 89.7802 274.828C89.4082 274.516 88.9042 274.36 88.2682 274.36C87.6802 274.36 87.2122 274.486 86.8642 274.738C86.5162 274.99 86.3422 275.32 86.3422 275.728C86.3422 276.052 86.4442 276.322 86.6482 276.538C86.8642 276.742 87.1282 276.91 87.4402 277.042C87.7642 277.162 88.2082 277.3 88.7722 277.456C89.4802 277.648 90.0562 277.84 90.5002 278.032C90.9442 278.212 91.3222 278.488 91.6342 278.86C91.9582 279.232 92.1262 279.718 92.1382 280.318C92.1382 280.858 91.9882 281.344 91.6882 281.776C91.3882 282.208 90.9622 282.55 90.4102 282.802C89.8702 283.042 89.2462 283.162 88.5382 283.162ZM102.741 283.162C101.985 283.162 101.307 283.036 100.707 282.784C100.107 282.52 99.6333 282.16 99.2853 281.704C98.9373 281.236 98.7453 280.702 98.7093 280.102H100.401C100.449 280.594 100.677 280.996 101.085 281.308C101.505 281.62 102.051 281.776 102.723 281.776C103.347 281.776 103.839 281.638 104.199 281.362C104.559 281.086 104.739 280.738 104.739 280.318C104.739 279.886 104.547 279.568 104.163 279.364C103.779 279.148 103.185 278.938 102.381 278.734C101.649 278.542 101.049 278.35 100.581 278.158C100.125 277.954 99.7293 277.66 99.3933 277.276C99.0693 276.88 98.9073 276.364 98.9073 275.728C98.9073 275.224 99.0573 274.762 99.3573 274.342C99.6573 273.922 100.083 273.592 100.635 273.352C101.187 273.1 101.817 272.974 102.525 272.974C103.617 272.974 104.499 273.25 105.171 273.802C105.843 274.354 106.203 275.11 106.251 276.07H104.613C104.577 275.554 104.367 275.14 103.983 274.828C103.611 274.516 103.107 274.36 102.471 274.36C101.883 274.36 101.415 274.486 101.067 274.738C100.719 274.99 100.545 275.32 100.545 275.728C100.545 276.052 100.647 276.322 100.851 276.538C101.067 276.742 101.331 276.91 101.643 277.042C101.967 277.162 102.411 277.3 102.975 277.456C103.683 277.648 104.259 277.84 104.703 278.032C105.147 278.212 105.525 278.488 105.837 278.86C106.161 279.232 106.329 279.718 106.341 280.318C106.341 280.858 106.191 281.344 105.891 281.776C105.591 282.208 105.165 282.55 104.613 282.802C104.073 283.042 103.449 283.162 102.741 283.162ZM112.956 283.162C112.032 283.162 111.192 282.952 110.436 282.532C109.692 282.112 109.104 281.518 108.672 280.75C108.252 279.97 108.042 279.07 108.042 278.05C108.042 277.042 108.258 276.154 108.69 275.386C109.134 274.606 109.734 274.012 110.49 273.604C111.246 273.184 112.092 272.974 113.028 272.974C113.964 272.974 114.81 273.184 115.566 273.604C116.322 274.012 116.916 274.6 117.348 275.368C117.792 276.136 118.014 277.03 118.014 278.05C118.014 279.07 117.786 279.97 117.33 280.75C116.886 281.518 116.28 282.112 115.512 282.532C114.744 282.952 113.892 283.162 112.956 283.162ZM112.956 281.722C113.544 281.722 114.096 281.584 114.612 281.308C115.128 281.032 115.542 280.618 115.854 280.066C116.178 279.514 116.34 278.842 116.34 278.05C116.34 277.258 116.184 276.586 115.872 276.034C115.56 275.482 115.152 275.074 114.648 274.81C114.144 274.534 113.598 274.396 113.01 274.396C112.41 274.396 111.858 274.534 111.354 274.81C110.862 275.074 110.466 275.482 110.166 276.034C109.866 276.586 109.716 277.258 109.716 278.05C109.716 278.854 109.86 279.532 110.148 280.084C110.448 280.636 110.844 281.05 111.336 281.326C111.828 281.59 112.368 281.722 112.956 281.722ZM126.964 274.486V280.3C126.964 280.78 127.066 281.122 127.27 281.326C127.474 281.518 127.828 281.614 128.332 281.614H129.538V283H128.062C127.15 283 126.466 282.79 126.01 282.37C125.554 281.95 125.326 281.26 125.326 280.3V274.486H124.048V273.136H125.326V270.652H126.964V273.136H129.538V274.486H126.964ZM136.419 272.956C137.163 272.956 137.835 273.118 138.435 273.442C139.035 273.754 139.503 274.228 139.839 274.864C140.187 275.5 140.361 276.274 140.361 277.186V283H138.741V277.42C138.741 276.436 138.495 275.686 138.003 275.17C137.511 274.642 136.839 274.378 135.987 274.378C135.123 274.378 134.433 274.648 133.917 275.188C133.413 275.728 133.161 276.514 133.161 277.546V283H131.523V269.68H133.161V274.54C133.485 274.036 133.929 273.646 134.493 273.37C135.069 273.094 135.711 272.956 136.419 272.956ZM142.424 278.032C142.424 277.024 142.628 276.142 143.036 275.386C143.444 274.618 144.002 274.024 144.71 273.604C145.43 273.184 146.228 272.974 147.104 272.974C147.968 272.974 148.718 273.16 149.354 273.532C149.99 273.904 150.464 274.372 150.776 274.936V273.136H152.432V283H150.776V281.164C150.452 281.74 149.966 282.22 149.318 282.604C148.682 282.976 147.938 283.162 147.086 283.162C146.21 283.162 145.418 282.946 144.71 282.514C144.002 282.082 143.444 281.476 143.036 280.696C142.628 279.916 142.424 279.028 142.424 278.032ZM150.776 278.05C150.776 277.306 150.626 276.658 150.326 276.106C150.026 275.554 149.618 275.134 149.102 274.846C148.598 274.546 148.04 274.396 147.428 274.396C146.816 274.396 146.258 274.54 145.754 274.828C145.25 275.116 144.848 275.536 144.548 276.088C144.248 276.64 144.098 277.288 144.098 278.032C144.098 278.788 144.248 279.448 144.548 280.012C144.848 280.564 145.25 280.99 145.754 281.29C146.258 281.578 146.816 281.722 147.428 281.722C148.04 281.722 148.598 281.578 149.102 281.29C149.618 280.99 150.026 280.564 150.326 280.012C150.626 279.448 150.776 278.794 150.776 278.05ZM157.198 274.486V280.3C157.198 280.78 157.3 281.122 157.504 281.326C157.708 281.518 158.062 281.614 158.566 281.614H159.772V283H158.296C157.384 283 156.7 282.79 156.244 282.37C155.788 281.95 155.56 281.26 155.56 280.3V274.486H154.282V273.136H155.56V270.652H157.198V273.136H159.772V274.486H157.198ZM175.052 273.136L169.112 287.644H167.42L169.364 282.892L165.386 273.136H167.204L170.3 281.128L173.36 273.136H175.052ZM181.001 283.162C180.077 283.162 179.237 282.952 178.481 282.532C177.737 282.112 177.149 281.518 176.717 280.75C176.297 279.97 176.087 279.07 176.087 278.05C176.087 277.042 176.303 276.154 176.735 275.386C177.179 274.606 177.779 274.012 178.535 273.604C179.291 273.184 180.137 272.974 181.073 272.974C182.009 272.974 182.855 273.184 183.611 273.604C184.367 274.012 184.961 274.6 185.393 275.368C185.837 276.136 186.059 277.03 186.059 278.05C186.059 279.07 185.831 279.97 185.375 280.75C184.931 281.518 184.325 282.112 183.557 282.532C182.789 282.952 181.937 283.162 181.001 283.162ZM181.001 281.722C181.589 281.722 182.141 281.584 182.657 281.308C183.173 281.032 183.587 280.618 183.899 280.066C184.223 279.514 184.385 278.842 184.385 278.05C184.385 277.258 184.229 276.586 183.917 276.034C183.605 275.482 183.197 275.074 182.693 274.81C182.189 274.534 181.643 274.396 181.055 274.396C180.455 274.396 179.903 274.534 179.399 274.81C178.907 275.074 178.511 275.482 178.211 276.034C177.911 276.586 177.761 277.258 177.761 278.05C177.761 278.854 177.905 279.532 178.193 280.084C178.493 280.636 178.889 281.05 179.381 281.326C179.873 281.59 180.413 281.722 181.001 281.722ZM196.96 273.136V283H195.322V281.542C195.01 282.046 194.572 282.442 194.008 282.73C193.456 283.006 192.844 283.144 192.172 283.144C191.404 283.144 190.714 282.988 190.102 282.676C189.49 282.352 189.004 281.872 188.644 281.236C188.296 280.6 188.122 279.826 188.122 278.914V273.136H189.742V278.698C189.742 279.67 189.988 280.42 190.48 280.948C190.972 281.464 191.644 281.722 192.496 281.722C193.372 281.722 194.062 281.452 194.566 280.912C195.07 280.372 195.322 279.586 195.322 278.554V273.136H196.96ZM201.364 274.738C201.652 274.174 202.06 273.736 202.588 273.424C203.128 273.112 203.782 272.956 204.55 272.956V274.648H204.118C202.282 274.648 201.364 275.644 201.364 277.636V283H199.726V273.136H201.364V274.738ZM212.878 274.972C213.214 274.384 213.706 273.904 214.354 273.532C215.002 273.16 215.74 272.974 216.568 272.974C217.456 272.974 218.254 273.184 218.962 273.604C219.67 274.024 220.228 274.618 220.636 275.386C221.044 276.142 221.248 277.024 221.248 278.032C221.248 279.028 221.044 279.916 220.636 280.696C220.228 281.476 219.664 282.082 218.944 282.514C218.236 282.946 217.444 283.162 216.568 283.162C215.716 283.162 214.966 282.976 214.318 282.604C213.682 282.232 213.202 281.758 212.878 281.182V283H211.24V269.68H212.878V274.972ZM219.574 278.032C219.574 277.288 219.424 276.64 219.124 276.088C218.824 275.536 218.416 275.116 217.9 274.828C217.396 274.54 216.838 274.396 216.226 274.396C215.626 274.396 215.068 274.546 214.552 274.846C214.048 275.134 213.64 275.56 213.328 276.124C213.028 276.676 212.878 277.318 212.878 278.05C212.878 278.794 213.028 279.448 213.328 280.012C213.64 280.564 214.048 280.99 214.552 281.29C215.068 281.578 215.626 281.722 216.226 281.722C216.838 281.722 217.396 281.578 217.9 281.29C218.416 280.99 218.824 280.564 219.124 280.012C219.424 279.448 219.574 278.788 219.574 278.032ZM232.152 273.136V283H230.514V281.542C230.202 282.046 229.764 282.442 229.2 282.73C228.648 283.006 228.036 283.144 227.364 283.144C226.596 283.144 225.906 282.988 225.294 282.676C224.682 282.352 224.196 281.872 223.836 281.236C223.488 280.6 223.314 279.826 223.314 278.914V273.136H224.934V278.698C224.934 279.67 225.18 280.42 225.672 280.948C226.164 281.464 226.836 281.722 227.688 281.722C228.564 281.722 229.254 281.452 229.758 280.912C230.262 280.372 230.514 279.586 230.514 278.554V273.136H232.152ZM238.409 283.162C237.653 283.162 236.975 283.036 236.375 282.784C235.775 282.52 235.301 282.16 234.953 281.704C234.605 281.236 234.413 280.702 234.377 280.102H236.069C236.117 280.594 236.345 280.996 236.753 281.308C237.173 281.62 237.719 281.776 238.391 281.776C239.015 281.776 239.507 281.638 239.867 281.362C240.227 281.086 240.407 280.738 240.407 280.318C240.407 279.886 240.215 279.568 239.831 279.364C239.447 279.148 238.853 278.938 238.049 278.734C237.317 278.542 236.717 278.35 236.249 278.158C235.793 277.954 235.397 277.66 235.061 277.276C234.737 276.88 234.575 276.364 234.575 275.728C234.575 275.224 234.725 274.762 235.025 274.342C235.325 273.922 235.751 273.592 236.303 273.352C236.855 273.1 237.485 272.974 238.193 272.974C239.285 272.974 240.167 273.25 240.839 273.802C241.511 274.354 241.871 275.11 241.919 276.07H240.281C240.245 275.554 240.035 275.14 239.651 274.828C239.279 274.516 238.775 274.36 238.139 274.36C237.551 274.36 237.083 274.486 236.735 274.738C236.387 274.99 236.213 275.32 236.213 275.728C236.213 276.052 236.315 276.322 236.519 276.538C236.735 276.742 236.999 276.91 237.311 277.042C237.635 277.162 238.079 277.3 238.643 277.456C239.351 277.648 239.927 277.84 240.371 278.032C240.815 278.212 241.193 278.488 241.505 278.86C241.829 279.232 241.997 279.718 242.009 280.318C242.009 280.858 241.859 281.344 241.559 281.776C241.259 282.208 240.833 282.55 240.281 282.802C239.741 283.042 239.117 283.162 238.409 283.162ZM245.168 271.534C244.856 271.534 244.592 271.426 244.376 271.21C244.16 270.994 244.052 270.73 244.052 270.418C244.052 270.106 244.16 269.842 244.376 269.626C244.592 269.41 244.856 269.302 245.168 269.302C245.468 269.302 245.72 269.41 245.924 269.626C246.14 269.842 246.248 270.106 246.248 270.418C246.248 270.73 246.14 270.994 245.924 271.21C245.72 271.426 245.468 271.534 245.168 271.534ZM245.96 273.136V283H244.322V273.136H245.96ZM253.557 272.956C254.757 272.956 255.729 273.322 256.473 274.054C257.217 274.774 257.589 275.818 257.589 277.186V283H255.969V277.42C255.969 276.436 255.723 275.686 255.231 275.17C254.739 274.642 254.067 274.378 253.215 274.378C252.351 274.378 251.661 274.648 251.145 275.188C250.641 275.728 250.389 276.514 250.389 277.546V283H248.751V273.136H250.389V274.54C250.713 274.036 251.151 273.646 251.703 273.37C252.267 273.094 252.885 272.956 253.557 272.956ZM269.265 277.69C269.265 278.002 269.247 278.332 269.211 278.68H261.327C261.387 279.652 261.717 280.414 262.317 280.966C262.929 281.506 263.667 281.776 264.531 281.776C265.239 281.776 265.827 281.614 266.295 281.29C266.775 280.954 267.111 280.51 267.303 279.958H269.067C268.803 280.906 268.275 281.68 267.483 282.28C266.691 282.868 265.707 283.162 264.531 283.162C263.595 283.162 262.755 282.952 262.011 282.532C261.279 282.112 260.703 281.518 260.283 280.75C259.863 279.97 259.653 279.07 259.653 278.05C259.653 277.03 259.857 276.136 260.265 275.368C260.673 274.6 261.243 274.012 261.975 273.604C262.719 273.184 263.571 272.974 264.531 272.974C265.467 272.974 266.295 273.178 267.015 273.586C267.735 273.994 268.287 274.558 268.671 275.278C269.067 275.986 269.265 276.79 269.265 277.69ZM267.573 277.348C267.573 276.724 267.435 276.19 267.159 275.746C266.883 275.29 266.505 274.948 266.025 274.72C265.557 274.48 265.035 274.36 264.459 274.36C263.631 274.36 262.923 274.624 262.335 275.152C261.759 275.68 261.429 276.412 261.345 277.348H267.573ZM274.919 283.162C274.163 283.162 273.485 283.036 272.885 282.784C272.285 282.52 271.811 282.16 271.463 281.704C271.115 281.236 270.923 280.702 270.887 280.102H272.579C272.627 280.594 272.855 280.996 273.263 281.308C273.683 281.62 274.229 281.776 274.901 281.776C275.525 281.776 276.017 281.638 276.377 281.362C276.737 281.086 276.917 280.738 276.917 280.318C276.917 279.886 276.725 279.568 276.341 279.364C275.957 279.148 275.363 278.938 274.559 278.734C273.827 278.542 273.227 278.35 272.759 278.158C272.303 277.954 271.907 277.66 271.571 277.276C271.247 276.88 271.085 276.364 271.085 275.728C271.085 275.224 271.235 274.762 271.535 274.342C271.835 273.922 272.261 273.592 272.813 273.352C273.365 273.1 273.995 272.974 274.703 272.974C275.795 272.974 276.677 273.25 277.349 273.802C278.021 274.354 278.381 275.11 278.429 276.07H276.791C276.755 275.554 276.545 275.14 276.161 274.828C275.789 274.516 275.285 274.36 274.649 274.36C274.061 274.36 273.593 274.486 273.245 274.738C272.897 274.99 272.723 275.32 272.723 275.728C272.723 276.052 272.825 276.322 273.029 276.538C273.245 276.742 273.509 276.91 273.821 277.042C274.145 277.162 274.589 277.3 275.153 277.456C275.861 277.648 276.437 277.84 276.881 278.032C277.325 278.212 277.703 278.488 278.015 278.86C278.339 279.232 278.507 279.718 278.519 280.318C278.519 280.858 278.369 281.344 278.069 281.776C277.769 282.208 277.343 282.55 276.791 282.802C276.251 283.042 275.627 283.162 274.919 283.162ZM284.323 283.162C283.567 283.162 282.889 283.036 282.289 282.784C281.689 282.52 281.215 282.16 280.867 281.704C280.519 281.236 280.327 280.702 280.291 280.102H281.983C282.031 280.594 282.259 280.996 282.667 281.308C283.087 281.62 283.633 281.776 284.305 281.776C284.929 281.776 285.421 281.638 285.781 281.362C286.141 281.086 286.321 280.738 286.321 280.318C286.321 279.886 286.129 279.568 285.745 279.364C285.361 279.148 284.767 278.938 283.963 278.734C283.231 278.542 282.631 278.35 282.163 278.158C281.707 277.954 281.311 277.66 280.975 277.276C280.651 276.88 280.489 276.364 280.489 275.728C280.489 275.224 280.639 274.762 280.939 274.342C281.239 273.922 281.665 273.592 282.217 273.352C282.769 273.1 283.399 272.974 284.107 272.974C285.199 272.974 286.081 273.25 286.753 273.802C287.425 274.354 287.785 275.11 287.833 276.07H286.195C286.159 275.554 285.949 275.14 285.565 274.828C285.193 274.516 284.689 274.36 284.053 274.36C283.465 274.36 282.997 274.486 282.649 274.738C282.301 274.99 282.127 275.32 282.127 275.728C282.127 276.052 282.229 276.322 282.433 276.538C282.649 276.742 282.913 276.91 283.225 277.042C283.549 277.162 283.993 277.3 284.557 277.456C285.265 277.648 285.841 277.84 286.285 278.032C286.729 278.212 287.107 278.488 287.419 278.86C287.743 279.232 287.911 279.718 287.923 280.318C287.923 280.858 287.773 281.344 287.473 281.776C287.173 282.208 286.747 282.55 286.195 282.802C285.655 283.042 285.031 283.162 284.323 283.162ZM294.422 278.05C294.422 277.03 294.626 276.142 295.034 275.386C295.442 274.618 296.006 274.024 296.726 273.604C297.458 273.184 298.292 272.974 299.228 272.974C300.44 272.974 301.436 273.268 302.216 273.856C303.008 274.444 303.53 275.26 303.782 276.304H302.018C301.85 275.704 301.52 275.23 301.028 274.882C300.548 274.534 299.948 274.36 299.228 274.36C298.292 274.36 297.536 274.684 296.96 275.332C296.384 275.968 296.096 276.874 296.096 278.05C296.096 279.238 296.384 280.156 296.96 280.804C297.536 281.452 298.292 281.776 299.228 281.776C299.948 281.776 300.548 281.608 301.028 281.272C301.508 280.936 301.838 280.456 302.018 279.832H303.782C303.518 280.84 302.99 281.65 302.198 282.262C301.406 282.862 300.416 283.162 299.228 283.162C298.292 283.162 297.458 282.952 296.726 282.532C296.006 282.112 295.442 281.518 295.034 280.75C294.626 279.982 294.422 279.082 294.422 278.05ZM305.356 278.032C305.356 277.024 305.56 276.142 305.968 275.386C306.376 274.618 306.934 274.024 307.642 273.604C308.362 273.184 309.16 272.974 310.036 272.974C310.9 272.974 311.65 273.16 312.286 273.532C312.922 273.904 313.396 274.372 313.708 274.936V273.136H315.364V283H313.708V281.164C313.384 281.74 312.898 282.22 312.25 282.604C311.614 282.976 310.87 283.162 310.018 283.162C309.142 283.162 308.35 282.946 307.642 282.514C306.934 282.082 306.376 281.476 305.968 280.696C305.56 279.916 305.356 279.028 305.356 278.032ZM313.708 278.05C313.708 277.306 313.558 276.658 313.258 276.106C312.958 275.554 312.55 275.134 312.034 274.846C311.53 274.546 310.972 274.396 310.36 274.396C309.748 274.396 309.19 274.54 308.686 274.828C308.182 275.116 307.78 275.536 307.48 276.088C307.18 276.64 307.03 277.288 307.03 278.032C307.03 278.788 307.18 279.448 307.48 280.012C307.78 280.564 308.182 280.99 308.686 281.29C309.19 281.578 309.748 281.722 310.36 281.722C310.972 281.722 311.53 281.578 312.034 281.29C312.55 280.99 312.958 280.564 313.258 280.012C313.558 279.448 313.708 278.794 313.708 278.05ZM322.938 272.956C324.138 272.956 325.11 273.322 325.854 274.054C326.598 274.774 326.97 275.818 326.97 277.186V283H325.35V277.42C325.35 276.436 325.104 275.686 324.612 275.17C324.12 274.642 323.448 274.378 322.596 274.378C321.732 274.378 321.042 274.648 320.526 275.188C320.022 275.728 319.77 276.514 319.77 277.546V283H318.132V273.136H319.77V274.54C320.094 274.036 320.532 273.646 321.084 273.37C321.648 273.094 322.266 272.956 322.938 272.956ZM109.004 304.974C109.856 304.974 110.6 305.16 111.236 305.532C111.884 305.904 112.364 306.372 112.676 306.936V305.136H114.332V315.216C114.332 316.116 114.14 316.914 113.756 317.61C113.372 318.318 112.82 318.87 112.1 319.266C111.392 319.662 110.564 319.86 109.616 319.86C108.32 319.86 107.24 319.554 106.376 318.942C105.512 318.33 105.002 317.496 104.846 316.44H106.466C106.646 317.04 107.018 317.52 107.582 317.88C108.146 318.252 108.824 318.438 109.616 318.438C110.516 318.438 111.248 318.156 111.812 317.592C112.388 317.028 112.676 316.236 112.676 315.216V313.146C112.352 313.722 111.872 314.202 111.236 314.586C110.6 314.97 109.856 315.162 109.004 315.162C108.128 315.162 107.33 314.946 106.61 314.514C105.902 314.082 105.344 313.476 104.936 312.696C104.528 311.916 104.324 311.028 104.324 310.032C104.324 309.024 104.528 308.142 104.936 307.386C105.344 306.618 105.902 306.024 106.61 305.604C107.33 305.184 108.128 304.974 109.004 304.974ZM112.676 310.05C112.676 309.306 112.526 308.658 112.226 308.106C111.926 307.554 111.518 307.134 111.002 306.846C110.498 306.546 109.94 306.396 109.328 306.396C108.716 306.396 108.158 306.54 107.654 306.828C107.15 307.116 106.748 307.536 106.448 308.088C106.148 308.64 105.998 309.288 105.998 310.032C105.998 310.788 106.148 311.448 106.448 312.012C106.748 312.564 107.15 312.99 107.654 313.29C108.158 313.578 108.716 313.722 109.328 313.722C109.94 313.722 110.498 313.578 111.002 313.29C111.518 312.99 111.926 312.564 112.226 312.012C112.526 311.448 112.676 310.794 112.676 310.05ZM118.738 306.738C119.026 306.174 119.434 305.736 119.962 305.424C120.502 305.112 121.156 304.956 121.924 304.956V306.648H121.492C119.656 306.648 118.738 307.644 118.738 309.636V315H117.1V305.136H118.738V306.738ZM128.117 315.162C127.193 315.162 126.353 314.952 125.597 314.532C124.853 314.112 124.265 313.518 123.833 312.75C123.413 311.97 123.203 311.07 123.203 310.05C123.203 309.042 123.419 308.154 123.851 307.386C124.295 306.606 124.895 306.012 125.651 305.604C126.407 305.184 127.253 304.974 128.189 304.974C129.125 304.974 129.971 305.184 130.727 305.604C131.483 306.012 132.077 306.6 132.509 307.368C132.953 308.136 133.175 309.03 133.175 310.05C133.175 311.07 132.947 311.97 132.491 312.75C132.047 313.518 131.441 314.112 130.673 314.532C129.905 314.952 129.053 315.162 128.117 315.162ZM128.117 313.722C128.705 313.722 129.257 313.584 129.773 313.308C130.289 313.032 130.703 312.618 131.015 312.066C131.339 311.514 131.501 310.842 131.501 310.05C131.501 309.258 131.345 308.586 131.033 308.034C130.721 307.482 130.313 307.074 129.809 306.81C129.305 306.534 128.759 306.396 128.171 306.396C127.571 306.396 127.019 306.534 126.515 306.81C126.023 307.074 125.627 307.482 125.327 308.034C125.027 308.586 124.877 309.258 124.877 310.05C124.877 310.854 125.021 311.532 125.309 312.084C125.609 312.636 126.005 313.05 126.497 313.326C126.989 313.59 127.529 313.722 128.117 313.722ZM148.468 305.136L145.39 315H143.698L141.322 307.17L138.946 315H137.254L134.158 305.136H135.832L138.1 313.416L140.548 305.136H142.222L144.616 313.434L146.848 305.136H148.468ZM166.755 304.956C167.523 304.956 168.207 305.118 168.807 305.442C169.407 305.754 169.881 306.228 170.229 306.864C170.577 307.5 170.751 308.274 170.751 309.186V315H169.131V309.42C169.131 308.436 168.885 307.686 168.393 307.17C167.913 306.642 167.259 306.378 166.431 306.378C165.579 306.378 164.901 306.654 164.397 307.206C163.893 307.746 163.641 308.532 163.641 309.564V315H162.021V309.42C162.021 308.436 161.775 307.686 161.283 307.17C160.803 306.642 160.149 306.378 159.321 306.378C158.469 306.378 157.791 306.654 157.287 307.206C156.783 307.746 156.531 308.532 156.531 309.564V315H154.893V305.136H156.531V306.558C156.855 306.042 157.287 305.646 157.827 305.37C158.379 305.094 158.985 304.956 159.645 304.956C160.473 304.956 161.205 305.142 161.841 305.514C162.477 305.886 162.951 306.432 163.263 307.152C163.539 306.456 163.995 305.916 164.631 305.532C165.267 305.148 165.975 304.956 166.755 304.956ZM177.74 315.162C176.816 315.162 175.976 314.952 175.22 314.532C174.476 314.112 173.888 313.518 173.456 312.75C173.036 311.97 172.826 311.07 172.826 310.05C172.826 309.042 173.042 308.154 173.474 307.386C173.918 306.606 174.518 306.012 175.274 305.604C176.03 305.184 176.876 304.974 177.812 304.974C178.748 304.974 179.594 305.184 180.35 305.604C181.106 306.012 181.7 306.6 182.132 307.368C182.576 308.136 182.798 309.03 182.798 310.05C182.798 311.07 182.57 311.97 182.114 312.75C181.67 313.518 181.064 314.112 180.296 314.532C179.528 314.952 178.676 315.162 177.74 315.162ZM177.74 313.722C178.328 313.722 178.88 313.584 179.396 313.308C179.912 313.032 180.326 312.618 180.638 312.066C180.962 311.514 181.124 310.842 181.124 310.05C181.124 309.258 180.968 308.586 180.656 308.034C180.344 307.482 179.936 307.074 179.432 306.81C178.928 306.534 178.382 306.396 177.794 306.396C177.194 306.396 176.642 306.534 176.138 306.81C175.646 307.074 175.25 307.482 174.95 308.034C174.65 308.586 174.5 309.258 174.5 310.05C174.5 310.854 174.644 311.532 174.932 312.084C175.232 312.636 175.628 313.05 176.12 313.326C176.612 313.59 177.152 313.722 177.74 313.722ZM186.589 306.738C186.877 306.174 187.285 305.736 187.813 305.424C188.353 305.112 189.007 304.956 189.775 304.956V306.648H189.343C187.507 306.648 186.589 307.644 186.589 309.636V315H184.951V305.136H186.589V306.738ZM200.666 309.69C200.666 310.002 200.648 310.332 200.612 310.68H192.728C192.788 311.652 193.118 312.414 193.718 312.966C194.33 313.506 195.068 313.776 195.932 313.776C196.64 313.776 197.228 313.614 197.696 313.29C198.176 312.954 198.512 312.51 198.704 311.958H200.468C200.204 312.906 199.676 313.68 198.884 314.28C198.092 314.868 197.108 315.162 195.932 315.162C194.996 315.162 194.156 314.952 193.412 314.532C192.68 314.112 192.104 313.518 191.684 312.75C191.264 311.97 191.054 311.07 191.054 310.05C191.054 309.03 191.258 308.136 191.666 307.368C192.074 306.6 192.644 306.012 193.376 305.604C194.12 305.184 194.972 304.974 195.932 304.974C196.868 304.974 197.696 305.178 198.416 305.586C199.136 305.994 199.688 306.558 200.072 307.278C200.468 307.986 200.666 308.79 200.666 309.69ZM198.974 309.348C198.974 308.724 198.836 308.19 198.56 307.746C198.284 307.29 197.906 306.948 197.426 306.72C196.958 306.48 196.436 306.36 195.86 306.36C195.032 306.36 194.324 306.624 193.736 307.152C193.16 307.68 192.83 308.412 192.746 309.348H198.974ZM209.265 306.738C209.553 306.174 209.961 305.736 210.489 305.424C211.029 305.112 211.683 304.956 212.451 304.956V306.648H212.019C210.183 306.648 209.265 307.644 209.265 309.636V315H207.627V305.136H209.265V306.738ZM213.73 310.032C213.73 309.024 213.934 308.142 214.342 307.386C214.75 306.618 215.308 306.024 216.016 305.604C216.736 305.184 217.534 304.974 218.41 304.974C219.274 304.974 220.024 305.16 220.66 305.532C221.296 305.904 221.77 306.372 222.082 306.936V305.136H223.738V315H222.082V313.164C221.758 313.74 221.272 314.22 220.624 314.604C219.988 314.976 219.244 315.162 218.392 315.162C217.516 315.162 216.724 314.946 216.016 314.514C215.308 314.082 214.75 313.476 214.342 312.696C213.934 311.916 213.73 311.028 213.73 310.032ZM222.082 310.05C222.082 309.306 221.932 308.658 221.632 308.106C221.332 307.554 220.924 307.134 220.408 306.846C219.904 306.546 219.346 306.396 218.734 306.396C218.122 306.396 217.564 306.54 217.06 306.828C216.556 307.116 216.154 307.536 215.854 308.088C215.554 308.64 215.404 309.288 215.404 310.032C215.404 310.788 215.554 311.448 215.854 312.012C216.154 312.564 216.556 312.99 217.06 313.29C217.564 313.578 218.122 313.722 218.734 313.722C219.346 313.722 219.904 313.578 220.408 313.29C220.924 312.99 221.332 312.564 221.632 312.012C221.932 311.448 222.082 310.794 222.082 310.05ZM228.144 306.954C228.468 306.39 228.948 305.922 229.584 305.55C230.232 305.166 230.982 304.974 231.834 304.974C232.71 304.974 233.502 305.184 234.21 305.604C234.93 306.024 235.494 306.618 235.902 307.386C236.31 308.142 236.514 309.024 236.514 310.032C236.514 311.028 236.31 311.916 235.902 312.696C235.494 313.476 234.93 314.082 234.21 314.514C233.502 314.946 232.71 315.162 231.834 315.162C230.994 315.162 230.25 314.976 229.602 314.604C228.966 314.22 228.48 313.746 228.144 313.182V319.68H226.506V305.136H228.144V306.954ZM234.84 310.032C234.84 309.288 234.69 308.64 234.39 308.088C234.09 307.536 233.682 307.116 233.166 306.828C232.662 306.54 232.104 306.396 231.492 306.396C230.892 306.396 230.334 306.546 229.818 306.846C229.314 307.134 228.906 307.56 228.594 308.124C228.294 308.676 228.144 309.318 228.144 310.05C228.144 310.794 228.294 311.448 228.594 312.012C228.906 312.564 229.314 312.99 229.818 313.29C230.334 313.578 230.892 313.722 231.492 313.722C232.104 313.722 232.662 313.578 233.166 313.29C233.682 312.99 234.09 312.564 234.39 312.012C234.69 311.448 234.84 310.788 234.84 310.032ZM239.516 303.534C239.204 303.534 238.94 303.426 238.724 303.21C238.508 302.994 238.4 302.73 238.4 302.418C238.4 302.106 238.508 301.842 238.724 301.626C238.94 301.41 239.204 301.302 239.516 301.302C239.816 301.302 240.068 301.41 240.272 301.626C240.488 301.842 240.596 302.106 240.596 302.418C240.596 302.73 240.488 302.994 240.272 303.21C240.068 303.426 239.816 303.534 239.516 303.534ZM240.308 305.136V315H238.67V305.136H240.308ZM242.488 310.032C242.488 309.024 242.692 308.142 243.1 307.386C243.508 306.618 244.066 306.024 244.774 305.604C245.494 305.184 246.298 304.974 247.186 304.974C247.954 304.974 248.668 305.154 249.328 305.514C249.988 305.862 250.492 306.324 250.84 306.9V301.68H252.496V315H250.84V313.146C250.516 313.734 250.036 314.22 249.4 314.604C248.764 314.976 248.02 315.162 247.168 315.162C246.292 315.162 245.494 314.946 244.774 314.514C244.066 314.082 243.508 313.476 243.1 312.696C242.692 311.916 242.488 311.028 242.488 310.032ZM250.84 310.05C250.84 309.306 250.69 308.658 250.39 308.106C250.09 307.554 249.682 307.134 249.166 306.846C248.662 306.546 248.104 306.396 247.492 306.396C246.88 306.396 246.322 306.54 245.818 306.828C245.314 307.116 244.912 307.536 244.612 308.088C244.312 308.64 244.162 309.288 244.162 310.032C244.162 310.788 244.312 311.448 244.612 312.012C244.912 312.564 245.314 312.99 245.818 313.29C246.322 313.578 246.88 313.722 247.492 313.722C248.104 313.722 248.662 313.578 249.166 313.29C249.682 312.99 250.09 312.564 250.39 312.012C250.69 311.448 250.84 310.794 250.84 310.05ZM256.902 301.68V315H255.264V301.68H256.902ZM268.19 305.136L262.25 319.644H260.558L262.502 314.892L258.524 305.136H260.342L263.438 313.128L266.498 305.136H268.19Z" fill="white"/>
<g clip-path="url(#clip0_2134_225)">
<circle cx="186" cy="391.5" r="22.5" fill="white"/>
<path d="M185.911 396.411L187.089 397.589L192.678 392L187.089 386.411L185.911 387.589L189.488 391.166H181.5V392.833H189.488L185.911 396.411Z" fill="#6157F7"/>
</g>
</g>
<defs>
<filter id="filter0_d_2134_225" x="0" y="0" width="372" height="478" filterUnits="userSpaceOnUse" color-interpolation-filters="sRGB">
<feFlood flood-opacity="0" result="BackgroundImageFix"/>
<feColorMatrix in="SourceAlpha" type="matrix" values="0 0 0 0 0 0 0 0 0 0 0 0 0 0 0 0 0 0 127 0" result="hardAlpha"/>
<feOffset dy="10"/>
<feGaussianBlur stdDeviation="5"/>
<feComposite in2="hardAlpha" operator="out"/>
<feColorMatrix type="matrix" values="0 0 0 0 0.603846 0 0 0 0 0.874549 0 0 0 0 1 0 0 0 0.25 0"/>
<feBlend mode="normal" in2="BackgroundImageFix" result="effect1_dropShadow_2134_225"/>
<feBlend mode="normal" in="SourceGraphic" in2="effect1_dropShadow_2134_225" result="shape"/>
</filter>
<filter id="filter1_d_2134_225" x="107.5" y="29" width="157" height="157" filterUnits="userSpaceOnUse" color-interpolation-filters="sRGB">
<feFlood flood-opacity="0" result="BackgroundImageFix"/>
<feColorMatrix in="SourceAlpha" type="matrix" values="0 0 0 0 0 0 0 0 0 0 0 0 0 0 0 0 0 0 127 0" result="hardAlpha"/>
<feOffset dy="15"/>
<feGaussianBlur stdDeviation="15"/>
<feComposite in2="hardAlpha" operator="out"/>
<feColorMatrix type="matrix" values="0 0 0 0 1 0 0 0 0 1 0 0 0 0 1 0 0 0 1 0"/>
<feBlend mode="normal" in2="BackgroundImageFix" result="effect1_dropShadow_2134_225"/>
<feBlend mode="normal" in="SourceGraphic" in2="effect1_dropShadow_2134_225" result="shape"/>
</filter>
<clipPath id="clip0_2134_225">
<rect width="45" height="45" fill="white" transform="translate(163.5 369)"/>
</clipPath>
</defs>
</svg>
