<svg width="360" height="466" viewBox="0 0 360 466" fill="none" xmlns="http://www.w3.org/2000/svg">
<g filter="url(#filter0_d_2111_121)">
<rect x="4" width="352" height="458" rx="20" fill="#F0F0F0" shape-rendering="crispEdges"/>
<g filter="url(#filter1_d_2111_121)">
<circle cx="180" cy="92.5" r="48.5" fill="#FFCC00"/>
<rect width="40" height="40" transform="translate(160 73)" fill="#FFCC00"/>
<path d="M188.333 76.3335H171.667C169.828 76.3335 168.333 77.8285 168.333 79.6668V106.333C168.333 108.172 169.828 109.667 171.667 109.667H188.333C190.172 109.667 191.667 108.172 191.667 106.333V79.6668C191.667 77.8285 190.172 76.3335 188.333 76.3335ZM171.667 101.332V81.3335H188.333L188.337 101.332H171.667Z" fill="#F0F0F0"/>
</g>
<path d="M98.2701 203.34H92.7101L91.7901 206H88.8501L93.8701 192.02H97.1301L102.15 206H99.1901L98.2701 203.34ZM97.5101 201.1L95.4901 195.26L93.4701 201.1H97.5101ZM106.826 196.52C107.186 196.013 107.68 195.593 108.306 195.26C108.946 194.913 109.673 194.74 110.486 194.74C111.433 194.74 112.286 194.973 113.046 195.44C113.82 195.907 114.426 196.573 114.866 197.44C115.32 198.293 115.546 199.287 115.546 200.42C115.546 201.553 115.32 202.56 114.866 203.44C114.426 204.307 113.82 204.98 113.046 205.46C112.286 205.94 111.433 206.18 110.486 206.18C109.673 206.18 108.953 206.013 108.326 205.68C107.713 205.347 107.213 204.927 106.826 204.42V211.28H104.026V194.92H106.826V196.52ZM112.686 200.42C112.686 199.753 112.546 199.18 112.266 198.7C112 198.207 111.64 197.833 111.186 197.58C110.746 197.327 110.266 197.2 109.746 197.2C109.24 197.2 108.76 197.333 108.306 197.6C107.866 197.853 107.506 198.227 107.226 198.72C106.96 199.213 106.826 199.793 106.826 200.46C106.826 201.127 106.96 201.707 107.226 202.2C107.506 202.693 107.866 203.073 108.306 203.34C108.76 203.593 109.24 203.72 109.746 203.72C110.266 203.72 110.746 203.587 111.186 203.32C111.64 203.053 112 202.673 112.266 202.18C112.546 201.687 112.686 201.1 112.686 200.42ZM120.381 196.52C120.741 196.013 121.235 195.593 121.861 195.26C122.501 194.913 123.228 194.74 124.041 194.74C124.988 194.74 125.841 194.973 126.601 195.44C127.375 195.907 127.981 196.573 128.421 197.44C128.875 198.293 129.101 199.287 129.101 200.42C129.101 201.553 128.875 202.56 128.421 203.44C127.981 204.307 127.375 204.98 126.601 205.46C125.841 205.94 124.988 206.18 124.041 206.18C123.228 206.18 122.508 206.013 121.881 205.68C121.268 205.347 120.768 204.927 120.381 204.42V211.28H117.581V194.92H120.381V196.52ZM126.241 200.42C126.241 199.753 126.101 199.18 125.821 198.7C125.555 198.207 125.195 197.833 124.741 197.58C124.301 197.327 123.821 197.2 123.301 197.2C122.795 197.2 122.315 197.333 121.861 197.6C121.421 197.853 121.061 198.227 120.781 198.72C120.515 199.213 120.381 199.793 120.381 200.46C120.381 201.127 120.515 201.707 120.781 202.2C121.061 202.693 121.421 203.073 121.861 203.34C122.315 203.593 122.795 203.72 123.301 203.72C123.821 203.72 124.301 203.587 124.741 203.32C125.195 203.053 125.555 202.673 125.821 202.18C126.101 201.687 126.241 201.1 126.241 200.42ZM140.781 192.04C142.248 192.04 143.535 192.327 144.641 192.9C145.761 193.473 146.621 194.293 147.221 195.36C147.835 196.413 148.141 197.64 148.141 199.04C148.141 200.44 147.835 201.667 147.221 202.72C146.621 203.76 145.761 204.567 144.641 205.14C143.535 205.713 142.248 206 140.781 206H135.901V192.04H140.781ZM140.681 203.62C142.148 203.62 143.281 203.22 144.081 202.42C144.881 201.62 145.281 200.493 145.281 199.04C145.281 197.587 144.881 196.453 144.081 195.64C143.281 194.813 142.148 194.4 140.681 194.4H138.701V203.62H140.681ZM160.537 200.22C160.537 200.62 160.511 200.98 160.457 201.3H152.357C152.424 202.1 152.704 202.727 153.197 203.18C153.691 203.633 154.297 203.86 155.017 203.86C156.057 203.86 156.797 203.413 157.237 202.52H160.257C159.937 203.587 159.324 204.467 158.417 205.16C157.511 205.84 156.397 206.18 155.077 206.18C154.011 206.18 153.051 205.947 152.197 205.48C151.357 205 150.697 204.327 150.217 203.46C149.751 202.593 149.517 201.593 149.517 200.46C149.517 199.313 149.751 198.307 150.217 197.44C150.684 196.573 151.337 195.907 152.177 195.44C153.017 194.973 153.984 194.74 155.077 194.74C156.131 194.74 157.071 194.967 157.897 195.42C158.737 195.873 159.384 196.52 159.837 197.36C160.304 198.187 160.537 199.14 160.537 200.22ZM157.637 199.42C157.624 198.7 157.364 198.127 156.857 197.7C156.351 197.26 155.731 197.04 154.997 197.04C154.304 197.04 153.717 197.253 153.237 197.68C152.771 198.093 152.484 198.673 152.377 199.42H157.637ZM167.201 203.42L170.001 194.92H172.981L168.881 206H165.481L161.401 194.92H164.401L167.201 203.42ZM184.854 200.22C184.854 200.62 184.827 200.98 184.774 201.3H176.674C176.74 202.1 177.02 202.727 177.514 203.18C178.007 203.633 178.614 203.86 179.334 203.86C180.374 203.86 181.114 203.413 181.554 202.52H184.574C184.254 203.587 183.64 204.467 182.734 205.16C181.827 205.84 180.714 206.18 179.394 206.18C178.327 206.18 177.367 205.947 176.514 205.48C175.674 205 175.014 204.327 174.534 203.46C174.067 202.593 173.834 201.593 173.834 200.46C173.834 199.313 174.067 198.307 174.534 197.44C175 196.573 175.654 195.907 176.494 195.44C177.334 194.973 178.3 194.74 179.394 194.74C180.447 194.74 181.387 194.967 182.214 195.42C183.054 195.873 183.7 196.52 184.154 197.36C184.62 198.187 184.854 199.14 184.854 200.22ZM181.954 199.42C181.94 198.7 181.68 198.127 181.174 197.7C180.667 197.26 180.047 197.04 179.314 197.04C178.62 197.04 178.034 197.253 177.554 197.68C177.087 198.093 176.8 198.673 176.694 199.42H181.954ZM189.698 191.2V206H186.898V191.2H189.698ZM197.384 206.18C196.317 206.18 195.357 205.947 194.504 205.48C193.651 205 192.977 204.327 192.484 203.46C192.004 202.593 191.764 201.593 191.764 200.46C191.764 199.327 192.011 198.327 192.504 197.46C193.011 196.593 193.697 195.927 194.564 195.46C195.431 194.98 196.397 194.74 197.464 194.74C198.531 194.74 199.497 194.98 200.364 195.46C201.231 195.927 201.911 196.593 202.404 197.46C202.911 198.327 203.164 199.327 203.164 200.46C203.164 201.593 202.904 202.593 202.384 203.46C201.877 204.327 201.184 205 200.304 205.48C199.437 205.947 198.464 206.18 197.384 206.18ZM197.384 203.74C197.891 203.74 198.364 203.62 198.804 203.38C199.257 203.127 199.617 202.753 199.884 202.26C200.151 201.767 200.284 201.167 200.284 200.46C200.284 199.407 200.004 198.6 199.444 198.04C198.897 197.467 198.224 197.18 197.424 197.18C196.624 197.18 195.951 197.467 195.404 198.04C194.871 198.6 194.604 199.407 194.604 200.46C194.604 201.513 194.864 202.327 195.384 202.9C195.917 203.46 196.584 203.74 197.384 203.74ZM208.018 196.52C208.378 196.013 208.871 195.593 209.498 195.26C210.138 194.913 210.865 194.74 211.678 194.74C212.625 194.74 213.478 194.973 214.238 195.44C215.011 195.907 215.618 196.573 216.058 197.44C216.511 198.293 216.738 199.287 216.738 200.42C216.738 201.553 216.511 202.56 216.058 203.44C215.618 204.307 215.011 204.98 214.238 205.46C213.478 205.94 212.625 206.18 211.678 206.18C210.865 206.18 210.145 206.013 209.518 205.68C208.905 205.347 208.405 204.927 208.018 204.42V211.28H205.218V194.92H208.018V196.52ZM213.878 200.42C213.878 199.753 213.738 199.18 213.458 198.7C213.191 198.207 212.831 197.833 212.378 197.58C211.938 197.327 211.458 197.2 210.938 197.2C210.431 197.2 209.951 197.333 209.498 197.6C209.058 197.853 208.698 198.227 208.418 198.72C208.151 199.213 208.018 199.793 208.018 200.46C208.018 201.127 208.151 201.707 208.418 202.2C208.698 202.693 209.058 203.073 209.498 203.34C209.951 203.593 210.431 203.72 210.938 203.72C211.458 203.72 211.938 203.587 212.378 203.32C212.831 203.053 213.191 202.673 213.458 202.18C213.738 201.687 213.878 201.1 213.878 200.42ZM232.533 194.76C233.893 194.76 234.986 195.18 235.813 196.02C236.653 196.847 237.073 198.007 237.073 199.5V206H234.273V199.88C234.273 199.013 234.053 198.353 233.613 197.9C233.173 197.433 232.573 197.2 231.813 197.2C231.053 197.2 230.446 197.433 229.993 197.9C229.553 198.353 229.333 199.013 229.333 199.88V206H226.533V199.88C226.533 199.013 226.313 198.353 225.873 197.9C225.433 197.433 224.833 197.2 224.073 197.2C223.299 197.2 222.686 197.433 222.233 197.9C221.793 198.353 221.573 199.013 221.573 199.88V206H218.773V194.92H221.573V196.26C221.933 195.793 222.393 195.427 222.953 195.16C223.526 194.893 224.153 194.76 224.833 194.76C225.699 194.76 226.473 194.947 227.153 195.32C227.833 195.68 228.359 196.2 228.733 196.88C229.093 196.24 229.613 195.727 230.293 195.34C230.986 194.953 231.733 194.76 232.533 194.76ZM250.03 200.22C250.03 200.62 250.003 200.98 249.95 201.3H241.85C241.916 202.1 242.196 202.727 242.69 203.18C243.183 203.633 243.79 203.86 244.51 203.86C245.55 203.86 246.29 203.413 246.73 202.52H249.75C249.43 203.587 248.816 204.467 247.91 205.16C247.003 205.84 245.89 206.18 244.57 206.18C243.503 206.18 242.543 205.947 241.69 205.48C240.85 205 240.19 204.327 239.71 203.46C239.243 202.593 239.01 201.593 239.01 200.46C239.01 199.313 239.243 198.307 239.71 197.44C240.176 196.573 240.83 195.907 241.67 195.44C242.51 194.973 243.476 194.74 244.57 194.74C245.623 194.74 246.563 194.967 247.39 195.42C248.23 195.873 248.876 196.52 249.33 197.36C249.796 198.187 250.03 199.14 250.03 200.22ZM247.13 199.42C247.116 198.7 246.856 198.127 246.35 197.7C245.843 197.26 245.223 197.04 244.49 197.04C243.796 197.04 243.21 197.253 242.73 197.68C242.263 198.093 241.976 198.673 241.87 199.42H247.13ZM258.213 194.76C259.533 194.76 260.6 195.18 261.413 196.02C262.227 196.847 262.633 198.007 262.633 199.5V206H259.833V199.88C259.833 199 259.613 198.327 259.173 197.86C258.733 197.38 258.133 197.14 257.373 197.14C256.6 197.14 255.987 197.38 255.533 197.86C255.093 198.327 254.873 199 254.873 199.88V206H252.073V194.92H254.873V196.3C255.247 195.82 255.72 195.447 256.293 195.18C256.88 194.9 257.52 194.76 258.213 194.76ZM268.556 197.22V202.58C268.556 202.953 268.643 203.227 268.816 203.4C269.003 203.56 269.309 203.64 269.736 203.64H271.036V206H269.276C266.916 206 265.736 204.853 265.736 202.56V197.22H264.416V194.92H265.736V192.18H268.556V194.92H271.036V197.22H268.556Z" fill="#111029"/>
<path d="M76.1286 238.454L72.4926 251H70.6566L67.7406 240.902L64.7166 251L62.8986 251.018L59.3886 238.454H61.1346L63.8706 249.092L66.8946 238.454H68.7306L71.6106 249.056L74.3646 238.454H76.1286ZM86.9212 245.69C86.9212 246.002 86.9032 246.332 86.8672 246.68H78.9832C79.0432 247.652 79.3732 248.414 79.9732 248.966C80.5852 249.506 81.3232 249.776 82.1872 249.776C82.8952 249.776 83.4832 249.614 83.9512 249.29C84.4312 248.954 84.7672 248.51 84.9592 247.958H86.7232C86.4592 248.906 85.9312 249.68 85.1392 250.28C84.3472 250.868 83.3632 251.162 82.1872 251.162C81.2512 251.162 80.4112 250.952 79.6672 250.532C78.9352 250.112 78.3592 249.518 77.9392 248.75C77.5192 247.97 77.3092 247.07 77.3092 246.05C77.3092 245.03 77.5132 244.136 77.9212 243.368C78.3292 242.6 78.8992 242.012 79.6312 241.604C80.3752 241.184 81.2272 240.974 82.1872 240.974C83.1232 240.974 83.9512 241.178 84.6712 241.586C85.3912 241.994 85.9432 242.558 86.3272 243.278C86.7232 243.986 86.9212 244.79 86.9212 245.69ZM85.2292 245.348C85.2292 244.724 85.0912 244.19 84.8152 243.746C84.5392 243.29 84.1612 242.948 83.6812 242.72C83.2132 242.48 82.6912 242.36 82.1152 242.36C81.2872 242.36 80.5792 242.624 79.9912 243.152C79.4152 243.68 79.0852 244.412 79.0012 245.348H85.2292ZM98.7781 240.956C99.5221 240.956 100.194 241.118 100.794 241.442C101.394 241.754 101.862 242.228 102.198 242.864C102.546 243.5 102.72 244.274 102.72 245.186V251H101.1V245.42C101.1 244.436 100.854 243.686 100.362 243.17C99.8701 242.642 99.1981 242.378 98.3461 242.378C97.4821 242.378 96.7921 242.648 96.2761 243.188C95.7721 243.728 95.5201 244.514 95.5201 245.546V251H93.8821V237.68H95.5201V242.54C95.8441 242.036 96.2881 241.646 96.8521 241.37C97.4281 241.094 98.0701 240.956 98.7781 240.956ZM114.396 245.69C114.396 246.002 114.378 246.332 114.342 246.68H106.458C106.518 247.652 106.848 248.414 107.448 248.966C108.06 249.506 108.798 249.776 109.662 249.776C110.37 249.776 110.958 249.614 111.426 249.29C111.906 248.954 112.242 248.51 112.434 247.958H114.198C113.934 248.906 113.406 249.68 112.614 250.28C111.822 250.868 110.838 251.162 109.662 251.162C108.726 251.162 107.886 250.952 107.142 250.532C106.41 250.112 105.834 249.518 105.414 248.75C104.994 247.97 104.784 247.07 104.784 246.05C104.784 245.03 104.988 244.136 105.396 243.368C105.804 242.6 106.374 242.012 107.106 241.604C107.85 241.184 108.702 240.974 109.662 240.974C110.598 240.974 111.426 241.178 112.146 241.586C112.866 241.994 113.418 242.558 113.802 243.278C114.198 243.986 114.396 244.79 114.396 245.69ZM112.704 245.348C112.704 244.724 112.566 244.19 112.29 243.746C112.014 243.29 111.636 242.948 111.156 242.72C110.688 242.48 110.166 242.36 109.59 242.36C108.762 242.36 108.054 242.624 107.466 243.152C106.89 243.68 106.56 244.412 106.476 245.348H112.704ZM118.196 237.68V251H116.558V237.68H118.196ZM122.626 242.954C122.95 242.39 123.43 241.922 124.066 241.55C124.714 241.166 125.464 240.974 126.316 240.974C127.192 240.974 127.984 241.184 128.692 241.604C129.412 242.024 129.976 242.618 130.384 243.386C130.792 244.142 130.996 245.024 130.996 246.032C130.996 247.028 130.792 247.916 130.384 248.696C129.976 249.476 129.412 250.082 128.692 250.514C127.984 250.946 127.192 251.162 126.316 251.162C125.476 251.162 124.732 250.976 124.084 250.604C123.448 250.22 122.962 249.746 122.626 249.182V255.68H120.988V241.136H122.626V242.954ZM129.322 246.032C129.322 245.288 129.172 244.64 128.872 244.088C128.572 243.536 128.164 243.116 127.648 242.828C127.144 242.54 126.586 242.396 125.974 242.396C125.374 242.396 124.816 242.546 124.3 242.846C123.796 243.134 123.388 243.56 123.076 244.124C122.776 244.676 122.626 245.318 122.626 246.05C122.626 246.794 122.776 247.448 123.076 248.012C123.388 248.564 123.796 248.99 124.3 249.29C124.816 249.578 125.374 249.722 125.974 249.722C126.586 249.722 127.144 249.578 127.648 249.29C128.164 248.99 128.572 248.564 128.872 248.012C129.172 247.448 129.322 246.788 129.322 246.032ZM137.338 246.032C137.338 245.024 137.542 244.142 137.95 243.386C138.358 242.618 138.916 242.024 139.624 241.604C140.344 241.184 141.148 240.974 142.036 240.974C142.804 240.974 143.518 241.154 144.178 241.514C144.838 241.862 145.342 242.324 145.69 242.9V237.68H147.346V251H145.69V249.146C145.366 249.734 144.886 250.22 144.25 250.604C143.614 250.976 142.87 251.162 142.018 251.162C141.142 251.162 140.344 250.946 139.624 250.514C138.916 250.082 138.358 249.476 137.95 248.696C137.542 247.916 137.338 247.028 137.338 246.032ZM145.69 246.05C145.69 245.306 145.54 244.658 145.24 244.106C144.94 243.554 144.532 243.134 144.016 242.846C143.512 242.546 142.954 242.396 142.342 242.396C141.73 242.396 141.172 242.54 140.668 242.828C140.164 243.116 139.762 243.536 139.462 244.088C139.162 244.64 139.012 245.288 139.012 246.032C139.012 246.788 139.162 247.448 139.462 248.012C139.762 248.564 140.164 248.99 140.668 249.29C141.172 249.578 141.73 249.722 142.342 249.722C142.954 249.722 143.512 249.578 144.016 249.29C144.532 248.99 144.94 248.564 145.24 248.012C145.54 247.448 145.69 246.794 145.69 246.05ZM159.115 245.69C159.115 246.002 159.097 246.332 159.061 246.68H151.177C151.237 247.652 151.567 248.414 152.167 248.966C152.779 249.506 153.517 249.776 154.381 249.776C155.089 249.776 155.677 249.614 156.145 249.29C156.625 248.954 156.961 248.51 157.153 247.958H158.917C158.653 248.906 158.125 249.68 157.333 250.28C156.541 250.868 155.557 251.162 154.381 251.162C153.445 251.162 152.605 250.952 151.861 250.532C151.129 250.112 150.553 249.518 150.133 248.75C149.713 247.97 149.503 247.07 149.503 246.05C149.503 245.03 149.707 244.136 150.115 243.368C150.523 242.6 151.093 242.012 151.825 241.604C152.569 241.184 153.421 240.974 154.381 240.974C155.317 240.974 156.145 241.178 156.865 241.586C157.585 241.994 158.137 242.558 158.521 243.278C158.917 243.986 159.115 244.79 159.115 245.69ZM157.423 245.348C157.423 244.724 157.285 244.19 157.009 243.746C156.733 243.29 156.355 242.948 155.875 242.72C155.407 242.48 154.885 242.36 154.309 242.36C153.481 242.36 152.773 242.624 152.185 243.152C151.609 243.68 151.279 244.412 151.195 245.348H157.423ZM164.949 249.488L168.009 241.136H169.755L165.885 251H163.977L160.107 241.136H161.871L164.949 249.488ZM180.366 245.69C180.366 246.002 180.348 246.332 180.312 246.68H172.428C172.488 247.652 172.818 248.414 173.418 248.966C174.03 249.506 174.768 249.776 175.632 249.776C176.34 249.776 176.928 249.614 177.396 249.29C177.876 248.954 178.212 248.51 178.404 247.958H180.168C179.904 248.906 179.376 249.68 178.584 250.28C177.792 250.868 176.808 251.162 175.632 251.162C174.696 251.162 173.856 250.952 173.112 250.532C172.38 250.112 171.804 249.518 171.384 248.75C170.964 247.97 170.754 247.07 170.754 246.05C170.754 245.03 170.958 244.136 171.366 243.368C171.774 242.6 172.344 242.012 173.076 241.604C173.82 241.184 174.672 240.974 175.632 240.974C176.568 240.974 177.396 241.178 178.116 241.586C178.836 241.994 179.388 242.558 179.772 243.278C180.168 243.986 180.366 244.79 180.366 245.69ZM178.674 245.348C178.674 244.724 178.536 244.19 178.26 243.746C177.984 243.29 177.606 242.948 177.126 242.72C176.658 242.48 176.136 242.36 175.56 242.36C174.732 242.36 174.024 242.624 173.436 243.152C172.86 243.68 172.53 244.412 172.446 245.348H178.674ZM184.167 237.68V251H182.529V237.68H184.167ZM191.26 251.162C190.336 251.162 189.496 250.952 188.74 250.532C187.996 250.112 187.408 249.518 186.976 248.75C186.556 247.97 186.346 247.07 186.346 246.05C186.346 245.042 186.562 244.154 186.994 243.386C187.438 242.606 188.038 242.012 188.794 241.604C189.55 241.184 190.396 240.974 191.332 240.974C192.268 240.974 193.114 241.184 193.87 241.604C194.626 242.012 195.22 242.6 195.652 243.368C196.096 244.136 196.318 245.03 196.318 246.05C196.318 247.07 196.09 247.97 195.634 248.75C195.19 249.518 194.584 250.112 193.816 250.532C193.048 250.952 192.196 251.162 191.26 251.162ZM191.26 249.722C191.848 249.722 192.4 249.584 192.916 249.308C193.432 249.032 193.846 248.618 194.158 248.066C194.482 247.514 194.644 246.842 194.644 246.05C194.644 245.258 194.488 244.586 194.176 244.034C193.864 243.482 193.456 243.074 192.952 242.81C192.448 242.534 191.902 242.396 191.314 242.396C190.714 242.396 190.162 242.534 189.658 242.81C189.166 243.074 188.77 243.482 188.47 244.034C188.17 244.586 188.02 245.258 188.02 246.05C188.02 246.854 188.164 247.532 188.452 248.084C188.752 248.636 189.148 249.05 189.64 249.326C190.132 249.59 190.672 249.722 191.26 249.722ZM200.11 242.954C200.434 242.39 200.914 241.922 201.55 241.55C202.198 241.166 202.948 240.974 203.8 240.974C204.676 240.974 205.468 241.184 206.176 241.604C206.896 242.024 207.46 242.618 207.868 243.386C208.276 244.142 208.48 245.024 208.48 246.032C208.48 247.028 208.276 247.916 207.868 248.696C207.46 249.476 206.896 250.082 206.176 250.514C205.468 250.946 204.676 251.162 203.8 251.162C202.96 251.162 202.216 250.976 201.568 250.604C200.932 250.22 200.446 249.746 200.11 249.182V255.68H198.472V241.136H200.11V242.954ZM206.806 246.032C206.806 245.288 206.656 244.64 206.356 244.088C206.056 243.536 205.648 243.116 205.132 242.828C204.628 242.54 204.07 242.396 203.458 242.396C202.858 242.396 202.3 242.546 201.784 242.846C201.28 243.134 200.872 243.56 200.56 244.124C200.26 244.676 200.11 245.318 200.11 246.05C200.11 246.794 200.26 247.448 200.56 248.012C200.872 248.564 201.28 248.99 201.784 249.29C202.3 249.578 202.858 249.722 203.458 249.722C204.07 249.722 204.628 249.578 205.132 249.29C205.648 248.99 206.056 248.564 206.356 248.012C206.656 247.448 206.806 246.788 206.806 246.032ZM214.823 246.05C214.823 245.03 215.027 244.142 215.435 243.386C215.843 242.618 216.407 242.024 217.127 241.604C217.859 241.184 218.693 240.974 219.629 240.974C220.841 240.974 221.837 241.268 222.617 241.856C223.409 242.444 223.931 243.26 224.183 244.304H222.419C222.251 243.704 221.921 243.23 221.429 242.882C220.949 242.534 220.349 242.36 219.629 242.36C218.693 242.36 217.937 242.684 217.361 243.332C216.785 243.968 216.497 244.874 216.497 246.05C216.497 247.238 216.785 248.156 217.361 248.804C217.937 249.452 218.693 249.776 219.629 249.776C220.349 249.776 220.949 249.608 221.429 249.272C221.909 248.936 222.239 248.456 222.419 247.832H224.183C223.919 248.84 223.391 249.65 222.599 250.262C221.807 250.862 220.817 251.162 219.629 251.162C218.693 251.162 217.859 250.952 217.127 250.532C216.407 250.112 215.843 249.518 215.435 248.75C215.027 247.982 214.823 247.082 214.823 246.05ZM230.67 251.162C229.746 251.162 228.906 250.952 228.15 250.532C227.406 250.112 226.818 249.518 226.386 248.75C225.966 247.97 225.756 247.07 225.756 246.05C225.756 245.042 225.972 244.154 226.404 243.386C226.848 242.606 227.448 242.012 228.204 241.604C228.96 241.184 229.806 240.974 230.742 240.974C231.678 240.974 232.524 241.184 233.28 241.604C234.036 242.012 234.63 242.6 235.062 243.368C235.506 244.136 235.728 245.03 235.728 246.05C235.728 247.07 235.5 247.97 235.044 248.75C234.6 249.518 233.994 250.112 233.226 250.532C232.458 250.952 231.606 251.162 230.67 251.162ZM230.67 249.722C231.258 249.722 231.81 249.584 232.326 249.308C232.842 249.032 233.256 248.618 233.568 248.066C233.892 247.514 234.054 246.842 234.054 246.05C234.054 245.258 233.898 244.586 233.586 244.034C233.274 243.482 232.866 243.074 232.362 242.81C231.858 242.534 231.312 242.396 230.724 242.396C230.124 242.396 229.572 242.534 229.068 242.81C228.576 243.074 228.18 243.482 227.88 244.034C227.58 244.586 227.43 245.258 227.43 246.05C227.43 246.854 227.574 247.532 227.862 248.084C228.162 248.636 228.558 249.05 229.05 249.326C229.542 249.59 230.082 249.722 230.67 249.722ZM249.744 240.956C250.512 240.956 251.196 241.118 251.796 241.442C252.396 241.754 252.87 242.228 253.218 242.864C253.566 243.5 253.74 244.274 253.74 245.186V251H252.12V245.42C252.12 244.436 251.874 243.686 251.382 243.17C250.902 242.642 250.248 242.378 249.42 242.378C248.568 242.378 247.89 242.654 247.386 243.206C246.882 243.746 246.63 244.532 246.63 245.564V251H245.01V245.42C245.01 244.436 244.764 243.686 244.272 243.17C243.792 242.642 243.138 242.378 242.31 242.378C241.458 242.378 240.78 242.654 240.276 243.206C239.772 243.746 239.52 244.532 239.52 245.564V251H237.882V241.136H239.52V242.558C239.844 242.042 240.276 241.646 240.816 241.37C241.368 241.094 241.974 240.956 242.634 240.956C243.462 240.956 244.194 241.142 244.83 241.514C245.466 241.886 245.94 242.432 246.252 243.152C246.528 242.456 246.984 241.916 247.62 241.532C248.256 241.148 248.964 240.956 249.744 240.956ZM258.065 242.954C258.389 242.39 258.869 241.922 259.505 241.55C260.153 241.166 260.903 240.974 261.755 240.974C262.631 240.974 263.423 241.184 264.131 241.604C264.851 242.024 265.415 242.618 265.823 243.386C266.231 244.142 266.435 245.024 266.435 246.032C266.435 247.028 266.231 247.916 265.823 248.696C265.415 249.476 264.851 250.082 264.131 250.514C263.423 250.946 262.631 251.162 261.755 251.162C260.915 251.162 260.171 250.976 259.523 250.604C258.887 250.22 258.401 249.746 258.065 249.182V255.68H256.427V241.136H258.065V242.954ZM264.761 246.032C264.761 245.288 264.611 244.64 264.311 244.088C264.011 243.536 263.603 243.116 263.087 242.828C262.583 242.54 262.025 242.396 261.413 242.396C260.813 242.396 260.255 242.546 259.739 242.846C259.235 243.134 258.827 243.56 258.515 244.124C258.215 244.676 258.065 245.318 258.065 246.05C258.065 246.794 258.215 247.448 258.515 248.012C258.827 248.564 259.235 248.99 259.739 249.29C260.255 249.578 260.813 249.722 261.413 249.722C262.025 249.722 262.583 249.578 263.087 249.29C263.603 248.99 264.011 248.564 264.311 248.012C264.611 247.448 264.761 246.788 264.761 246.032ZM267.979 246.032C267.979 245.024 268.183 244.142 268.591 243.386C268.999 242.618 269.557 242.024 270.265 241.604C270.985 241.184 271.783 240.974 272.659 240.974C273.523 240.974 274.273 241.16 274.909 241.532C275.545 241.904 276.019 242.372 276.331 242.936V241.136H277.987V251H276.331V249.164C276.007 249.74 275.521 250.22 274.873 250.604C274.237 250.976 273.493 251.162 272.641 251.162C271.765 251.162 270.973 250.946 270.265 250.514C269.557 250.082 268.999 249.476 268.591 248.696C268.183 247.916 267.979 247.028 267.979 246.032ZM276.331 246.05C276.331 245.306 276.181 244.658 275.881 244.106C275.581 243.554 275.173 243.134 274.657 242.846C274.153 242.546 273.595 242.396 272.983 242.396C272.371 242.396 271.813 242.54 271.309 242.828C270.805 243.116 270.403 243.536 270.103 244.088C269.803 244.64 269.653 245.288 269.653 246.032C269.653 246.788 269.803 247.448 270.103 248.012C270.403 248.564 270.805 248.99 271.309 249.29C271.813 249.578 272.371 249.722 272.983 249.722C273.595 249.722 274.153 249.578 274.657 249.29C275.173 248.99 275.581 248.564 275.881 248.012C276.181 247.448 276.331 246.794 276.331 246.05ZM285.561 240.956C286.761 240.956 287.733 241.322 288.477 242.054C289.221 242.774 289.593 243.818 289.593 245.186V251H287.973V245.42C287.973 244.436 287.727 243.686 287.235 243.17C286.743 242.642 286.071 242.378 285.219 242.378C284.355 242.378 283.665 242.648 283.149 243.188C282.645 243.728 282.393 244.514 282.393 245.546V251H280.755V241.136H282.393V242.54C282.717 242.036 283.155 241.646 283.707 241.37C284.271 241.094 284.889 240.956 285.561 240.956ZM300.765 241.136L294.825 255.644H293.133L295.077 250.892L291.099 241.136H292.917L296.013 249.128L299.073 241.136H300.765ZM84.914 272.956C85.682 272.956 86.366 273.118 86.966 273.442C87.566 273.754 88.04 274.228 88.388 274.864C88.736 275.5 88.91 276.274 88.91 277.186V283H87.29V277.42C87.29 276.436 87.044 275.686 86.552 275.17C86.072 274.642 85.418 274.378 84.59 274.378C83.738 274.378 83.06 274.654 82.556 275.206C82.052 275.746 81.8 276.532 81.8 277.564V283H80.18V277.42C80.18 276.436 79.934 275.686 79.442 275.17C78.962 274.642 78.308 274.378 77.48 274.378C76.628 274.378 75.95 274.654 75.446 275.206C74.942 275.746 74.69 276.532 74.69 277.564V283H73.052V273.136H74.69V274.558C75.014 274.042 75.446 273.646 75.986 273.37C76.538 273.094 77.144 272.956 77.804 272.956C78.632 272.956 79.364 273.142 80 273.514C80.636 273.886 81.11 274.432 81.422 275.152C81.698 274.456 82.154 273.916 82.79 273.532C83.426 273.148 84.134 272.956 84.914 272.956ZM95.8989 283.162C94.9749 283.162 94.1349 282.952 93.3789 282.532C92.6349 282.112 92.0469 281.518 91.6149 280.75C91.1949 279.97 90.9849 279.07 90.9849 278.05C90.9849 277.042 91.2009 276.154 91.6329 275.386C92.0769 274.606 92.6769 274.012 93.4329 273.604C94.1889 273.184 95.0349 272.974 95.9709 272.974C96.9069 272.974 97.7529 273.184 98.5089 273.604C99.2649 274.012 99.8589 274.6 100.291 275.368C100.735 276.136 100.957 277.03 100.957 278.05C100.957 279.07 100.729 279.97 100.273 280.75C99.8289 281.518 99.2229 282.112 98.4549 282.532C97.6869 282.952 96.8349 283.162 95.8989 283.162ZM95.8989 281.722C96.4869 281.722 97.0389 281.584 97.5549 281.308C98.0709 281.032 98.4849 280.618 98.7969 280.066C99.1209 279.514 99.2829 278.842 99.2829 278.05C99.2829 277.258 99.1269 276.586 98.8149 276.034C98.5029 275.482 98.0949 275.074 97.5909 274.81C97.0869 274.534 96.5409 274.396 95.9529 274.396C95.3529 274.396 94.8009 274.534 94.2969 274.81C93.8049 275.074 93.4089 275.482 93.1089 276.034C92.8089 276.586 92.6589 277.258 92.6589 278.05C92.6589 278.854 92.8029 279.532 93.0909 280.084C93.3909 280.636 93.7869 281.05 94.2789 281.326C94.7709 281.59 95.3109 281.722 95.8989 281.722ZM104.749 274.972C105.085 274.384 105.577 273.904 106.225 273.532C106.873 273.16 107.611 272.974 108.439 272.974C109.327 272.974 110.125 273.184 110.833 273.604C111.541 274.024 112.099 274.618 112.507 275.386C112.915 276.142 113.119 277.024 113.119 278.032C113.119 279.028 112.915 279.916 112.507 280.696C112.099 281.476 111.535 282.082 110.815 282.514C110.107 282.946 109.315 283.162 108.439 283.162C107.587 283.162 106.837 282.976 106.189 282.604C105.553 282.232 105.073 281.758 104.749 281.182V283H103.111V269.68H104.749V274.972ZM111.445 278.032C111.445 277.288 111.295 276.64 110.995 276.088C110.695 275.536 110.287 275.116 109.771 274.828C109.267 274.54 108.709 274.396 108.097 274.396C107.497 274.396 106.939 274.546 106.423 274.846C105.919 275.134 105.511 275.56 105.199 276.124C104.899 276.676 104.749 277.318 104.749 278.05C104.749 278.794 104.899 279.448 105.199 280.012C105.511 280.564 105.919 280.99 106.423 281.29C106.939 281.578 107.497 281.722 108.097 281.722C108.709 281.722 109.267 281.578 109.771 281.29C110.287 280.99 110.695 280.564 110.995 280.012C111.295 279.448 111.445 278.788 111.445 278.032ZM116.121 271.534C115.809 271.534 115.545 271.426 115.329 271.21C115.113 270.994 115.005 270.73 115.005 270.418C115.005 270.106 115.113 269.842 115.329 269.626C115.545 269.41 115.809 269.302 116.121 269.302C116.421 269.302 116.673 269.41 116.877 269.626C117.093 269.842 117.201 270.106 117.201 270.418C117.201 270.73 117.093 270.994 116.877 271.21C116.673 271.426 116.421 271.534 116.121 271.534ZM116.913 273.136V283H115.275V273.136H116.913ZM121.342 269.68V283H119.704V269.68H121.342ZM133.134 277.69C133.134 278.002 133.116 278.332 133.08 278.68H125.196C125.256 279.652 125.586 280.414 126.186 280.966C126.798 281.506 127.536 281.776 128.4 281.776C129.108 281.776 129.696 281.614 130.164 281.29C130.644 280.954 130.98 280.51 131.172 279.958H132.936C132.672 280.906 132.144 281.68 131.352 282.28C130.56 282.868 129.576 283.162 128.4 283.162C127.464 283.162 126.624 282.952 125.88 282.532C125.148 282.112 124.572 281.518 124.152 280.75C123.732 279.97 123.522 279.07 123.522 278.05C123.522 277.03 123.726 276.136 124.134 275.368C124.542 274.6 125.112 274.012 125.844 273.604C126.588 273.184 127.44 272.974 128.4 272.974C129.336 272.974 130.164 273.178 130.884 273.586C131.604 273.994 132.156 274.558 132.54 275.278C132.936 275.986 133.134 276.79 133.134 277.69ZM131.442 277.348C131.442 276.724 131.304 276.19 131.028 275.746C130.752 275.29 130.374 274.948 129.894 274.72C129.426 274.48 128.904 274.36 128.328 274.36C127.5 274.36 126.792 274.624 126.204 275.152C125.628 275.68 125.298 276.412 125.214 277.348H131.442ZM139.483 278.032C139.483 277.024 139.687 276.142 140.095 275.386C140.503 274.618 141.061 274.024 141.769 273.604C142.489 273.184 143.287 272.974 144.163 272.974C145.027 272.974 145.777 273.16 146.413 273.532C147.049 273.904 147.523 274.372 147.835 274.936V273.136H149.491V283H147.835V281.164C147.511 281.74 147.025 282.22 146.377 282.604C145.741 282.976 144.997 283.162 144.145 283.162C143.269 283.162 142.477 282.946 141.769 282.514C141.061 282.082 140.503 281.476 140.095 280.696C139.687 279.916 139.483 279.028 139.483 278.032ZM147.835 278.05C147.835 277.306 147.685 276.658 147.385 276.106C147.085 275.554 146.677 275.134 146.161 274.846C145.657 274.546 145.099 274.396 144.487 274.396C143.875 274.396 143.317 274.54 142.813 274.828C142.309 275.116 141.907 275.536 141.607 276.088C141.307 276.64 141.157 277.288 141.157 278.032C141.157 278.788 141.307 279.448 141.607 280.012C141.907 280.564 142.309 280.99 142.813 281.29C143.317 281.578 143.875 281.722 144.487 281.722C145.099 281.722 145.657 281.578 146.161 281.29C146.677 280.99 147.085 280.564 147.385 280.012C147.685 279.448 147.835 278.794 147.835 278.05ZM153.897 274.954C154.221 274.39 154.701 273.922 155.337 273.55C155.985 273.166 156.735 272.974 157.587 272.974C158.463 272.974 159.255 273.184 159.963 273.604C160.683 274.024 161.247 274.618 161.655 275.386C162.063 276.142 162.267 277.024 162.267 278.032C162.267 279.028 162.063 279.916 161.655 280.696C161.247 281.476 160.683 282.082 159.963 282.514C159.255 282.946 158.463 283.162 157.587 283.162C156.747 283.162 156.003 282.976 155.355 282.604C154.719 282.22 154.233 281.746 153.897 281.182V287.68H152.259V273.136H153.897V274.954ZM160.593 278.032C160.593 277.288 160.443 276.64 160.143 276.088C159.843 275.536 159.435 275.116 158.919 274.828C158.415 274.54 157.857 274.396 157.245 274.396C156.645 274.396 156.087 274.546 155.571 274.846C155.067 275.134 154.659 275.56 154.347 276.124C154.047 276.676 153.897 277.318 153.897 278.05C153.897 278.794 154.047 279.448 154.347 280.012C154.659 280.564 155.067 280.99 155.571 281.29C156.087 281.578 156.645 281.722 157.245 281.722C157.857 281.722 158.415 281.578 158.919 281.29C159.435 280.99 159.843 280.564 160.143 280.012C160.443 279.448 160.593 278.788 160.593 278.032ZM166.061 274.954C166.385 274.39 166.865 273.922 167.501 273.55C168.149 273.166 168.899 272.974 169.751 272.974C170.627 272.974 171.419 273.184 172.127 273.604C172.847 274.024 173.411 274.618 173.819 275.386C174.227 276.142 174.431 277.024 174.431 278.032C174.431 279.028 174.227 279.916 173.819 280.696C173.411 281.476 172.847 282.082 172.127 282.514C171.419 282.946 170.627 283.162 169.751 283.162C168.911 283.162 168.167 282.976 167.519 282.604C166.883 282.22 166.397 281.746 166.061 281.182V287.68H164.423V273.136H166.061V274.954ZM172.757 278.032C172.757 277.288 172.607 276.64 172.307 276.088C172.007 275.536 171.599 275.116 171.083 274.828C170.579 274.54 170.021 274.396 169.409 274.396C168.809 274.396 168.251 274.546 167.735 274.846C167.231 275.134 166.823 275.56 166.511 276.124C166.211 276.676 166.061 277.318 166.061 278.05C166.061 278.794 166.211 279.448 166.511 280.012C166.823 280.564 167.231 280.99 167.735 281.29C168.251 281.578 168.809 281.722 169.409 281.722C170.021 281.722 170.579 281.578 171.083 281.29C171.599 280.99 172.007 280.564 172.307 280.012C172.607 279.448 172.757 278.788 172.757 278.032ZM180.079 283.162C179.323 283.162 178.645 283.036 178.045 282.784C177.445 282.52 176.971 282.16 176.623 281.704C176.275 281.236 176.083 280.702 176.047 280.102H177.739C177.787 280.594 178.015 280.996 178.423 281.308C178.843 281.62 179.389 281.776 180.061 281.776C180.685 281.776 181.177 281.638 181.537 281.362C181.897 281.086 182.077 280.738 182.077 280.318C182.077 279.886 181.885 279.568 181.501 279.364C181.117 279.148 180.523 278.938 179.719 278.734C178.987 278.542 178.387 278.35 177.919 278.158C177.463 277.954 177.067 277.66 176.731 277.276C176.407 276.88 176.245 276.364 176.245 275.728C176.245 275.224 176.395 274.762 176.695 274.342C176.995 273.922 177.421 273.592 177.973 273.352C178.525 273.1 179.155 272.974 179.863 272.974C180.955 272.974 181.837 273.25 182.509 273.802C183.181 274.354 183.541 275.11 183.589 276.07H181.951C181.915 275.554 181.705 275.14 181.321 274.828C180.949 274.516 180.445 274.36 179.809 274.36C179.221 274.36 178.753 274.486 178.405 274.738C178.057 274.99 177.883 275.32 177.883 275.728C177.883 276.052 177.985 276.322 178.189 276.538C178.405 276.742 178.669 276.91 178.981 277.042C179.305 277.162 179.749 277.3 180.313 277.456C181.021 277.648 181.597 277.84 182.041 278.032C182.485 278.212 182.863 278.488 183.175 278.86C183.499 279.232 183.667 279.718 183.679 280.318C183.679 280.858 183.529 281.344 183.229 281.776C182.929 282.208 182.503 282.55 181.951 282.802C181.411 283.042 180.787 283.162 180.079 283.162ZM192.788 274.486V280.3C192.788 280.78 192.89 281.122 193.094 281.326C193.298 281.518 193.652 281.614 194.156 281.614H195.362V283H193.886C192.974 283 192.29 282.79 191.834 282.37C191.378 281.95 191.15 281.26 191.15 280.3V274.486H189.872V273.136H191.15V270.652H192.788V273.136H195.362V274.486H192.788ZM201.649 283.162C200.725 283.162 199.885 282.952 199.129 282.532C198.385 282.112 197.797 281.518 197.365 280.75C196.945 279.97 196.735 279.07 196.735 278.05C196.735 277.042 196.951 276.154 197.383 275.386C197.827 274.606 198.427 274.012 199.183 273.604C199.939 273.184 200.785 272.974 201.721 272.974C202.657 272.974 203.503 273.184 204.259 273.604C205.015 274.012 205.609 274.6 206.041 275.368C206.485 276.136 206.707 277.03 206.707 278.05C206.707 279.07 206.479 279.97 206.023 280.75C205.579 281.518 204.973 282.112 204.205 282.532C203.437 282.952 202.585 283.162 201.649 283.162ZM201.649 281.722C202.237 281.722 202.789 281.584 203.305 281.308C203.821 281.032 204.235 280.618 204.547 280.066C204.871 279.514 205.033 278.842 205.033 278.05C205.033 277.258 204.877 276.586 204.565 276.034C204.253 275.482 203.845 275.074 203.341 274.81C202.837 274.534 202.291 274.396 201.703 274.396C201.103 274.396 200.551 274.534 200.047 274.81C199.555 275.074 199.159 275.482 198.859 276.034C198.559 276.586 198.409 277.258 198.409 278.05C198.409 278.854 198.553 279.532 198.841 280.084C199.141 280.636 199.537 281.05 200.029 281.326C200.521 281.59 201.061 281.722 201.649 281.722ZM215.297 274.972C215.633 274.384 216.125 273.904 216.773 273.532C217.421 273.16 218.159 272.974 218.987 272.974C219.875 272.974 220.673 273.184 221.381 273.604C222.089 274.024 222.647 274.618 223.055 275.386C223.463 276.142 223.667 277.024 223.667 278.032C223.667 279.028 223.463 279.916 223.055 280.696C222.647 281.476 222.083 282.082 221.363 282.514C220.655 282.946 219.863 283.162 218.987 283.162C218.135 283.162 217.385 282.976 216.737 282.604C216.101 282.232 215.621 281.758 215.297 281.182V283H213.659V269.68H215.297V274.972ZM221.993 278.032C221.993 277.288 221.843 276.64 221.543 276.088C221.243 275.536 220.835 275.116 220.319 274.828C219.815 274.54 219.257 274.396 218.645 274.396C218.045 274.396 217.487 274.546 216.971 274.846C216.467 275.134 216.059 275.56 215.747 276.124C215.447 276.676 215.297 277.318 215.297 278.05C215.297 278.794 215.447 279.448 215.747 280.012C216.059 280.564 216.467 280.99 216.971 281.29C217.487 281.578 218.045 281.722 218.645 281.722C219.257 281.722 219.815 281.578 220.319 281.29C220.835 280.99 221.243 280.564 221.543 280.012C221.843 279.448 221.993 278.788 221.993 278.032ZM234.824 277.69C234.824 278.002 234.806 278.332 234.77 278.68H226.886C226.946 279.652 227.276 280.414 227.876 280.966C228.488 281.506 229.226 281.776 230.09 281.776C230.798 281.776 231.386 281.614 231.854 281.29C232.334 280.954 232.67 280.51 232.862 279.958H234.626C234.362 280.906 233.834 281.68 233.042 282.28C232.25 282.868 231.266 283.162 230.09 283.162C229.154 283.162 228.314 282.952 227.57 282.532C226.838 282.112 226.262 281.518 225.842 280.75C225.422 279.97 225.212 279.07 225.212 278.05C225.212 277.03 225.416 276.136 225.824 275.368C226.232 274.6 226.802 274.012 227.534 273.604C228.278 273.184 229.13 272.974 230.09 272.974C231.026 272.974 231.854 273.178 232.574 273.586C233.294 273.994 233.846 274.558 234.23 275.278C234.626 275.986 234.824 276.79 234.824 277.69ZM233.132 277.348C233.132 276.724 232.994 276.19 232.718 275.746C232.442 275.29 232.064 274.948 231.584 274.72C231.116 274.48 230.594 274.36 230.018 274.36C229.19 274.36 228.482 274.624 227.894 275.152C227.318 275.68 226.988 276.412 226.904 277.348H233.132ZM253.646 272.956C254.414 272.956 255.098 273.118 255.698 273.442C256.298 273.754 256.772 274.228 257.12 274.864C257.468 275.5 257.642 276.274 257.642 277.186V283H256.022V277.42C256.022 276.436 255.776 275.686 255.284 275.17C254.804 274.642 254.15 274.378 253.322 274.378C252.47 274.378 251.792 274.654 251.288 275.206C250.784 275.746 250.532 276.532 250.532 277.564V283H248.912V277.42C248.912 276.436 248.666 275.686 248.174 275.17C247.694 274.642 247.04 274.378 246.212 274.378C245.36 274.378 244.682 274.654 244.178 275.206C243.674 275.746 243.422 276.532 243.422 277.564V283H241.784V273.136H243.422V274.558C243.746 274.042 244.178 273.646 244.718 273.37C245.27 273.094 245.876 272.956 246.536 272.956C247.364 272.956 248.096 273.142 248.732 273.514C249.368 273.886 249.842 274.432 250.154 275.152C250.43 274.456 250.886 273.916 251.522 273.532C252.158 273.148 252.866 272.956 253.646 272.956ZM264.631 283.162C263.707 283.162 262.867 282.952 262.111 282.532C261.367 282.112 260.779 281.518 260.347 280.75C259.927 279.97 259.717 279.07 259.717 278.05C259.717 277.042 259.933 276.154 260.365 275.386C260.809 274.606 261.409 274.012 262.165 273.604C262.921 273.184 263.767 272.974 264.703 272.974C265.639 272.974 266.485 273.184 267.241 273.604C267.997 274.012 268.591 274.6 269.023 275.368C269.467 276.136 269.689 277.03 269.689 278.05C269.689 279.07 269.461 279.97 269.005 280.75C268.561 281.518 267.955 282.112 267.187 282.532C266.419 282.952 265.567 283.162 264.631 283.162ZM264.631 281.722C265.219 281.722 265.771 281.584 266.287 281.308C266.803 281.032 267.217 280.618 267.529 280.066C267.853 279.514 268.015 278.842 268.015 278.05C268.015 277.258 267.859 276.586 267.547 276.034C267.235 275.482 266.827 275.074 266.323 274.81C265.819 274.534 265.273 274.396 264.685 274.396C264.085 274.396 263.533 274.534 263.029 274.81C262.537 275.074 262.141 275.482 261.841 276.034C261.541 276.586 261.391 277.258 261.391 278.05C261.391 278.854 261.535 279.532 261.823 280.084C262.123 280.636 262.519 281.05 263.011 281.326C263.503 281.59 264.043 281.722 264.631 281.722ZM273.481 274.738C273.769 274.174 274.177 273.736 274.705 273.424C275.245 273.112 275.899 272.956 276.667 272.956V274.648H276.235C274.399 274.648 273.481 275.644 273.481 277.636V283H271.843V273.136H273.481V274.738ZM287.558 277.69C287.558 278.002 287.54 278.332 287.504 278.68H279.62C279.68 279.652 280.01 280.414 280.61 280.966C281.222 281.506 281.96 281.776 282.824 281.776C283.532 281.776 284.12 281.614 284.588 281.29C285.068 280.954 285.404 280.51 285.596 279.958H287.36C287.096 280.906 286.568 281.68 285.776 282.28C284.984 282.868 284 283.162 282.824 283.162C281.888 283.162 281.048 282.952 280.304 282.532C279.572 282.112 278.996 281.518 278.576 280.75C278.156 279.97 277.946 279.07 277.946 278.05C277.946 277.03 278.15 276.136 278.558 275.368C278.966 274.6 279.536 274.012 280.268 273.604C281.012 273.184 281.864 272.974 282.824 272.974C283.76 272.974 284.588 273.178 285.308 273.586C286.028 273.994 286.58 274.558 286.964 275.278C287.36 275.986 287.558 276.79 287.558 277.69ZM285.866 277.348C285.866 276.724 285.728 276.19 285.452 275.746C285.176 275.29 284.798 274.948 284.318 274.72C283.85 274.48 283.328 274.36 282.752 274.36C281.924 274.36 281.216 274.624 280.628 275.152C280.052 275.68 279.722 276.412 279.638 277.348H285.866ZM61.4713 306.954C61.7953 306.39 62.2753 305.922 62.9113 305.55C63.5593 305.166 64.3093 304.974 65.1613 304.974C66.0373 304.974 66.8293 305.184 67.5373 305.604C68.2573 306.024 68.8213 306.618 69.2293 307.386C69.6373 308.142 69.8413 309.024 69.8413 310.032C69.8413 311.028 69.6373 311.916 69.2293 312.696C68.8213 313.476 68.2573 314.082 67.5373 314.514C66.8293 314.946 66.0373 315.162 65.1613 315.162C64.3213 315.162 63.5773 314.976 62.9293 314.604C62.2933 314.22 61.8073 313.746 61.4713 313.182V319.68H59.8333V305.136H61.4713V306.954ZM68.1673 310.032C68.1673 309.288 68.0173 308.64 67.7173 308.088C67.4173 307.536 67.0093 307.116 66.4933 306.828C65.9893 306.54 65.4313 306.396 64.8193 306.396C64.2193 306.396 63.6613 306.546 63.1453 306.846C62.6413 307.134 62.2333 307.56 61.9213 308.124C61.6213 308.676 61.4713 309.318 61.4713 310.05C61.4713 310.794 61.6213 311.448 61.9213 312.012C62.2333 312.564 62.6413 312.99 63.1453 313.29C63.6613 313.578 64.2193 313.722 64.8193 313.722C65.4313 313.722 65.9893 313.578 66.4933 313.29C67.0093 312.99 67.4173 312.564 67.7173 312.012C68.0173 311.448 68.1673 310.788 68.1673 310.032ZM73.6353 306.738C73.9233 306.174 74.3313 305.736 74.8593 305.424C75.3993 305.112 76.0533 304.956 76.8213 304.956V306.648H76.3893C74.5533 306.648 73.6353 307.644 73.6353 309.636V315H71.9973V305.136H73.6353V306.738ZM83.0142 315.162C82.0902 315.162 81.2502 314.952 80.4942 314.532C79.7502 314.112 79.1622 313.518 78.7302 312.75C78.3102 311.97 78.1002 311.07 78.1002 310.05C78.1002 309.042 78.3162 308.154 78.7482 307.386C79.1922 306.606 79.7922 306.012 80.5482 305.604C81.3042 305.184 82.1502 304.974 83.0862 304.974C84.0222 304.974 84.8682 305.184 85.6242 305.604C86.3802 306.012 86.9742 306.6 87.4062 307.368C87.8502 308.136 88.0722 309.03 88.0722 310.05C88.0722 311.07 87.8442 311.97 87.3882 312.75C86.9442 313.518 86.3382 314.112 85.5702 314.532C84.8022 314.952 83.9502 315.162 83.0142 315.162ZM83.0142 313.722C83.6022 313.722 84.1542 313.584 84.6702 313.308C85.1862 313.032 85.6002 312.618 85.9122 312.066C86.2362 311.514 86.3982 310.842 86.3982 310.05C86.3982 309.258 86.2422 308.586 85.9302 308.034C85.6182 307.482 85.2102 307.074 84.7062 306.81C84.2022 306.534 83.6562 306.396 83.0682 306.396C82.4682 306.396 81.9162 306.534 81.4122 306.81C80.9202 307.074 80.5242 307.482 80.2242 308.034C79.9242 308.586 79.7742 309.258 79.7742 310.05C79.7742 310.854 79.9182 311.532 80.2062 312.084C80.5062 312.636 80.9022 313.05 81.3942 313.326C81.8862 313.59 82.4262 313.722 83.0142 313.722ZM94.2398 306.486H92.1698V315H90.5318V306.486H89.2538V305.136H90.5318V304.434C90.5318 303.33 90.8138 302.526 91.3778 302.022C91.9538 301.506 92.8718 301.248 94.1318 301.248V302.616C93.4118 302.616 92.9018 302.76 92.6018 303.048C92.3138 303.324 92.1698 303.786 92.1698 304.434V305.136H94.2398V306.486ZM105.15 309.69C105.15 310.002 105.132 310.332 105.096 310.68H97.2117C97.2717 311.652 97.6017 312.414 98.2017 312.966C98.8137 313.506 99.5517 313.776 100.416 313.776C101.124 313.776 101.712 313.614 102.18 313.29C102.66 312.954 102.996 312.51 103.188 311.958H104.952C104.688 312.906 104.16 313.68 103.368 314.28C102.576 314.868 101.592 315.162 100.416 315.162C99.4797 315.162 98.6397 314.952 97.8957 314.532C97.1637 314.112 96.5877 313.518 96.1677 312.75C95.7477 311.97 95.5377 311.07 95.5377 310.05C95.5377 309.03 95.7417 308.136 96.1497 307.368C96.5577 306.6 97.1277 306.012 97.8597 305.604C98.6037 305.184 99.4557 304.974 100.416 304.974C101.352 304.974 102.18 305.178 102.9 305.586C103.62 305.994 104.172 306.558 104.556 307.278C104.952 307.986 105.15 308.79 105.15 309.69ZM103.458 309.348C103.458 308.724 103.32 308.19 103.044 307.746C102.768 307.29 102.39 306.948 101.91 306.72C101.442 306.48 100.92 306.36 100.344 306.36C99.5157 306.36 98.8077 306.624 98.2197 307.152C97.6437 307.68 97.3137 308.412 97.2297 309.348H103.458ZM110.804 315.162C110.048 315.162 109.37 315.036 108.77 314.784C108.17 314.52 107.696 314.16 107.348 313.704C107 313.236 106.808 312.702 106.772 312.102H108.464C108.512 312.594 108.74 312.996 109.148 313.308C109.568 313.62 110.114 313.776 110.786 313.776C111.41 313.776 111.902 313.638 112.262 313.362C112.622 313.086 112.802 312.738 112.802 312.318C112.802 311.886 112.61 311.568 112.226 311.364C111.842 311.148 111.248 310.938 110.444 310.734C109.712 310.542 109.112 310.35 108.644 310.158C108.188 309.954 107.792 309.66 107.456 309.276C107.132 308.88 106.97 308.364 106.97 307.728C106.97 307.224 107.12 306.762 107.42 306.342C107.72 305.922 108.146 305.592 108.698 305.352C109.25 305.1 109.88 304.974 110.588 304.974C111.68 304.974 112.562 305.25 113.234 305.802C113.906 306.354 114.266 307.11 114.314 308.07H112.676C112.64 307.554 112.43 307.14 112.046 306.828C111.674 306.516 111.17 306.36 110.534 306.36C109.946 306.36 109.478 306.486 109.13 306.738C108.782 306.99 108.608 307.32 108.608 307.728C108.608 308.052 108.71 308.322 108.914 308.538C109.13 308.742 109.394 308.91 109.706 309.042C110.03 309.162 110.474 309.3 111.038 309.456C111.746 309.648 112.322 309.84 112.766 310.032C113.21 310.212 113.588 310.488 113.9 310.86C114.224 311.232 114.392 311.718 114.404 312.318C114.404 312.858 114.254 313.344 113.954 313.776C113.654 314.208 113.228 314.55 112.676 314.802C112.136 315.042 111.512 315.162 110.804 315.162ZM120.208 315.162C119.452 315.162 118.774 315.036 118.174 314.784C117.574 314.52 117.1 314.16 116.752 313.704C116.404 313.236 116.212 312.702 116.176 312.102H117.868C117.916 312.594 118.144 312.996 118.552 313.308C118.972 313.62 119.518 313.776 120.19 313.776C120.814 313.776 121.306 313.638 121.666 313.362C122.026 313.086 122.206 312.738 122.206 312.318C122.206 311.886 122.014 311.568 121.63 311.364C121.246 311.148 120.652 310.938 119.848 310.734C119.116 310.542 118.516 310.35 118.048 310.158C117.592 309.954 117.196 309.66 116.86 309.276C116.536 308.88 116.374 308.364 116.374 307.728C116.374 307.224 116.524 306.762 116.824 306.342C117.124 305.922 117.55 305.592 118.102 305.352C118.654 305.1 119.284 304.974 119.992 304.974C121.084 304.974 121.966 305.25 122.638 305.802C123.31 306.354 123.67 307.11 123.718 308.07H122.08C122.044 307.554 121.834 307.14 121.45 306.828C121.078 306.516 120.574 306.36 119.938 306.36C119.35 306.36 118.882 306.486 118.534 306.738C118.186 306.99 118.012 307.32 118.012 307.728C118.012 308.052 118.114 308.322 118.318 308.538C118.534 308.742 118.798 308.91 119.11 309.042C119.434 309.162 119.878 309.3 120.442 309.456C121.15 309.648 121.726 309.84 122.17 310.032C122.614 310.212 122.992 310.488 123.304 310.86C123.628 311.232 123.796 311.718 123.808 312.318C123.808 312.858 123.658 313.344 123.358 313.776C123.058 314.208 122.632 314.55 122.08 314.802C121.54 315.042 120.916 315.162 120.208 315.162ZM126.966 303.534C126.654 303.534 126.39 303.426 126.174 303.21C125.958 302.994 125.85 302.73 125.85 302.418C125.85 302.106 125.958 301.842 126.174 301.626C126.39 301.41 126.654 301.302 126.966 301.302C127.266 301.302 127.518 301.41 127.722 301.626C127.938 301.842 128.046 302.106 128.046 302.418C128.046 302.73 127.938 302.994 127.722 303.21C127.518 303.426 127.266 303.534 126.966 303.534ZM127.758 305.136V315H126.12V305.136H127.758ZM134.852 315.162C133.928 315.162 133.088 314.952 132.332 314.532C131.588 314.112 131 313.518 130.568 312.75C130.148 311.97 129.938 311.07 129.938 310.05C129.938 309.042 130.154 308.154 130.586 307.386C131.03 306.606 131.63 306.012 132.386 305.604C133.142 305.184 133.988 304.974 134.924 304.974C135.86 304.974 136.706 305.184 137.462 305.604C138.218 306.012 138.812 306.6 139.244 307.368C139.688 308.136 139.91 309.03 139.91 310.05C139.91 311.07 139.682 311.97 139.226 312.75C138.782 313.518 138.176 314.112 137.408 314.532C136.64 314.952 135.788 315.162 134.852 315.162ZM134.852 313.722C135.44 313.722 135.992 313.584 136.508 313.308C137.024 313.032 137.438 312.618 137.75 312.066C138.074 311.514 138.236 310.842 138.236 310.05C138.236 309.258 138.08 308.586 137.768 308.034C137.456 307.482 137.048 307.074 136.544 306.81C136.04 306.534 135.494 306.396 134.906 306.396C134.306 306.396 133.754 306.534 133.25 306.81C132.758 307.074 132.362 307.482 132.062 308.034C131.762 308.586 131.612 309.258 131.612 310.05C131.612 310.854 131.756 311.532 132.044 312.084C132.344 312.636 132.74 313.05 133.232 313.326C133.724 313.59 134.264 313.722 134.852 313.722ZM146.87 304.956C148.07 304.956 149.042 305.322 149.786 306.054C150.53 306.774 150.902 307.818 150.902 309.186V315H149.282V309.42C149.282 308.436 149.036 307.686 148.544 307.17C148.052 306.642 147.38 306.378 146.528 306.378C145.664 306.378 144.974 306.648 144.458 307.188C143.954 307.728 143.702 308.514 143.702 309.546V315H142.064V305.136H143.702V306.54C144.026 306.036 144.464 305.646 145.016 305.37C145.58 305.094 146.198 304.956 146.87 304.956ZM152.965 310.032C152.965 309.024 153.169 308.142 153.577 307.386C153.985 306.618 154.543 306.024 155.251 305.604C155.971 305.184 156.769 304.974 157.645 304.974C158.509 304.974 159.259 305.16 159.895 305.532C160.531 305.904 161.005 306.372 161.317 306.936V305.136H162.973V315H161.317V313.164C160.993 313.74 160.507 314.22 159.859 314.604C159.223 314.976 158.479 315.162 157.627 315.162C156.751 315.162 155.959 314.946 155.251 314.514C154.543 314.082 153.985 313.476 153.577 312.696C153.169 311.916 152.965 311.028 152.965 310.032ZM161.317 310.05C161.317 309.306 161.167 308.658 160.867 308.106C160.567 307.554 160.159 307.134 159.643 306.846C159.139 306.546 158.581 306.396 157.969 306.396C157.357 306.396 156.799 306.54 156.295 306.828C155.791 307.116 155.389 307.536 155.089 308.088C154.789 308.64 154.639 309.288 154.639 310.032C154.639 310.788 154.789 311.448 155.089 312.012C155.389 312.564 155.791 312.99 156.295 313.29C156.799 313.578 157.357 313.722 157.969 313.722C158.581 313.722 159.139 313.578 159.643 313.29C160.159 312.99 160.567 312.564 160.867 312.012C161.167 311.448 161.317 310.794 161.317 310.05ZM167.379 301.68V315H165.741V301.68H167.379ZM174.358 310.032C174.358 309.024 174.562 308.142 174.97 307.386C175.378 306.618 175.936 306.024 176.644 305.604C177.364 305.184 178.162 304.974 179.038 304.974C179.902 304.974 180.652 305.16 181.288 305.532C181.924 305.904 182.398 306.372 182.71 306.936V305.136H184.366V315H182.71V313.164C182.386 313.74 181.9 314.22 181.252 314.604C180.616 314.976 179.872 315.162 179.02 315.162C178.144 315.162 177.352 314.946 176.644 314.514C175.936 314.082 175.378 313.476 174.97 312.696C174.562 311.916 174.358 311.028 174.358 310.032ZM182.71 310.05C182.71 309.306 182.56 308.658 182.26 308.106C181.96 307.554 181.552 307.134 181.036 306.846C180.532 306.546 179.974 306.396 179.362 306.396C178.75 306.396 178.192 306.54 177.688 306.828C177.184 307.116 176.782 307.536 176.482 308.088C176.182 308.64 176.032 309.288 176.032 310.032C176.032 310.788 176.182 311.448 176.482 312.012C176.782 312.564 177.184 312.99 177.688 313.29C178.192 313.578 178.75 313.722 179.362 313.722C179.974 313.722 180.532 313.578 181.036 313.29C181.552 312.99 181.96 312.564 182.26 312.012C182.56 311.448 182.71 310.794 182.71 310.05ZM191.94 304.956C193.14 304.956 194.112 305.322 194.856 306.054C195.6 306.774 195.972 307.818 195.972 309.186V315H194.352V309.42C194.352 308.436 194.106 307.686 193.614 307.17C193.122 306.642 192.45 306.378 191.598 306.378C190.734 306.378 190.044 306.648 189.528 307.188C189.024 307.728 188.772 308.514 188.772 309.546V315H187.134V305.136H188.772V306.54C189.096 306.036 189.534 305.646 190.086 305.37C190.65 305.094 191.268 304.956 191.94 304.956ZM198.036 310.032C198.036 309.024 198.24 308.142 198.648 307.386C199.056 306.618 199.614 306.024 200.322 305.604C201.042 305.184 201.846 304.974 202.734 304.974C203.502 304.974 204.216 305.154 204.876 305.514C205.536 305.862 206.04 306.324 206.388 306.9V301.68H208.044V315H206.388V313.146C206.064 313.734 205.584 314.22 204.948 314.604C204.312 314.976 203.568 315.162 202.716 315.162C201.84 315.162 201.042 314.946 200.322 314.514C199.614 314.082 199.056 313.476 198.648 312.696C198.24 311.916 198.036 311.028 198.036 310.032ZM206.388 310.05C206.388 309.306 206.238 308.658 205.938 308.106C205.638 307.554 205.23 307.134 204.714 306.846C204.21 306.546 203.652 306.396 203.04 306.396C202.428 306.396 201.87 306.54 201.366 306.828C200.862 307.116 200.46 307.536 200.16 308.088C199.86 308.64 199.71 309.288 199.71 310.032C199.71 310.788 199.86 311.448 200.16 312.012C200.46 312.564 200.862 312.99 201.366 313.29C201.87 313.578 202.428 313.722 203.04 313.722C203.652 313.722 204.21 313.578 204.714 313.29C205.23 312.99 205.638 312.564 205.938 312.012C206.238 311.448 206.388 310.794 206.388 310.05ZM214.999 310.032C214.999 309.024 215.203 308.142 215.611 307.386C216.019 306.618 216.577 306.024 217.285 305.604C218.005 305.184 218.803 304.974 219.679 304.974C220.543 304.974 221.293 305.16 221.929 305.532C222.565 305.904 223.039 306.372 223.351 306.936V305.136H225.007V315H223.351V313.164C223.027 313.74 222.541 314.22 221.893 314.604C221.257 314.976 220.513 315.162 219.661 315.162C218.785 315.162 217.993 314.946 217.285 314.514C216.577 314.082 216.019 313.476 215.611 312.696C215.203 311.916 214.999 311.028 214.999 310.032ZM223.351 310.05C223.351 309.306 223.201 308.658 222.901 308.106C222.601 307.554 222.193 307.134 221.677 306.846C221.173 306.546 220.615 306.396 220.003 306.396C219.391 306.396 218.833 306.54 218.329 306.828C217.825 307.116 217.423 307.536 217.123 308.088C216.823 308.64 216.673 309.288 216.673 310.032C216.673 310.788 216.823 311.448 217.123 312.012C217.423 312.564 217.825 312.99 218.329 313.29C218.833 313.578 219.391 313.722 220.003 313.722C220.615 313.722 221.173 313.578 221.677 313.29C222.193 312.99 222.601 312.564 222.901 312.012C223.201 311.448 223.351 310.794 223.351 310.05ZM229.773 306.486V312.3C229.773 312.78 229.875 313.122 230.079 313.326C230.283 313.518 230.637 313.614 231.141 313.614H232.347V315H230.871C229.959 315 229.275 314.79 228.819 314.37C228.363 313.95 228.135 313.26 228.135 312.3V306.486H226.857V305.136H228.135V302.652H229.773V305.136H232.347V306.486H229.773ZM236.329 306.486V312.3C236.329 312.78 236.431 313.122 236.635 313.326C236.839 313.518 237.193 313.614 237.697 313.614H238.903V315H237.427C236.515 315 235.831 314.79 235.375 314.37C234.919 313.95 234.691 313.26 234.691 312.3V306.486H233.413V305.136H234.691V302.652H236.329V305.136H238.903V306.486H236.329ZM242.526 306.738C242.814 306.174 243.222 305.736 243.75 305.424C244.29 305.112 244.944 304.956 245.712 304.956V306.648H245.28C243.444 306.648 242.526 307.644 242.526 309.636V315H240.888V305.136H242.526V306.738ZM246.991 310.032C246.991 309.024 247.195 308.142 247.603 307.386C248.011 306.618 248.569 306.024 249.277 305.604C249.997 305.184 250.795 304.974 251.671 304.974C252.535 304.974 253.285 305.16 253.921 305.532C254.557 305.904 255.031 306.372 255.343 306.936V305.136H256.999V315H255.343V313.164C255.019 313.74 254.533 314.22 253.885 314.604C253.249 314.976 252.505 315.162 251.653 315.162C250.777 315.162 249.985 314.946 249.277 314.514C248.569 314.082 248.011 313.476 247.603 312.696C247.195 311.916 246.991 311.028 246.991 310.032ZM255.343 310.05C255.343 309.306 255.193 308.658 254.893 308.106C254.593 307.554 254.185 307.134 253.669 306.846C253.165 306.546 252.607 306.396 251.995 306.396C251.383 306.396 250.825 306.54 250.321 306.828C249.817 307.116 249.415 307.536 249.115 308.088C248.815 308.64 248.665 309.288 248.665 310.032C248.665 310.788 248.815 311.448 249.115 312.012C249.415 312.564 249.817 312.99 250.321 313.29C250.825 313.578 251.383 313.722 251.995 313.722C252.607 313.722 253.165 313.578 253.669 313.29C254.185 312.99 254.593 312.564 254.893 312.012C255.193 311.448 255.343 310.794 255.343 310.05ZM259.155 310.05C259.155 309.03 259.359 308.142 259.767 307.386C260.175 306.618 260.739 306.024 261.459 305.604C262.191 305.184 263.025 304.974 263.961 304.974C265.173 304.974 266.169 305.268 266.949 305.856C267.741 306.444 268.263 307.26 268.515 308.304H266.751C266.583 307.704 266.253 307.23 265.761 306.882C265.281 306.534 264.681 306.36 263.961 306.36C263.025 306.36 262.269 306.684 261.693 307.332C261.117 307.968 260.829 308.874 260.829 310.05C260.829 311.238 261.117 312.156 261.693 312.804C262.269 313.452 263.025 313.776 263.961 313.776C264.681 313.776 265.281 313.608 265.761 313.272C266.241 312.936 266.571 312.456 266.751 311.832H268.515C268.251 312.84 267.723 313.65 266.931 314.262C266.139 314.862 265.149 315.162 263.961 315.162C263.025 315.162 262.191 314.952 261.459 314.532C260.739 314.112 260.175 313.518 259.767 312.75C259.359 311.982 259.155 311.082 259.155 310.05ZM272.698 306.486V312.3C272.698 312.78 272.8 313.122 273.004 313.326C273.208 313.518 273.562 313.614 274.066 313.614H275.272V315H273.796C272.884 315 272.2 314.79 271.744 314.37C271.288 313.95 271.06 313.26 271.06 312.3V306.486H269.782V305.136H271.06V302.652H272.698V305.136H275.272V306.486H272.698ZM278.103 303.534C277.791 303.534 277.527 303.426 277.311 303.21C277.095 302.994 276.987 302.73 276.987 302.418C276.987 302.106 277.095 301.842 277.311 301.626C277.527 301.41 277.791 301.302 278.103 301.302C278.403 301.302 278.655 301.41 278.859 301.626C279.075 301.842 279.183 302.106 279.183 302.418C279.183 302.73 279.075 302.994 278.859 303.21C278.655 303.426 278.403 303.534 278.103 303.534ZM278.895 305.136V315H277.257V305.136H278.895ZM285.359 313.488L288.419 305.136H290.165L286.295 315H284.387L280.517 305.136H282.281L285.359 313.488ZM300.777 309.69C300.777 310.002 300.759 310.332 300.723 310.68H292.839C292.899 311.652 293.229 312.414 293.829 312.966C294.441 313.506 295.179 313.776 296.043 313.776C296.751 313.776 297.339 313.614 297.807 313.29C298.287 312.954 298.623 312.51 298.815 311.958H300.579C300.315 312.906 299.787 313.68 298.995 314.28C298.203 314.868 297.219 315.162 296.043 315.162C295.107 315.162 294.267 314.952 293.523 314.532C292.791 314.112 292.215 313.518 291.795 312.75C291.375 311.97 291.165 311.07 291.165 310.05C291.165 309.03 291.369 308.136 291.777 307.368C292.185 306.6 292.755 306.012 293.487 305.604C294.231 305.184 295.083 304.974 296.043 304.974C296.979 304.974 297.807 305.178 298.527 305.586C299.247 305.994 299.799 306.558 300.183 307.278C300.579 307.986 300.777 308.79 300.777 309.69ZM299.085 309.348C299.085 308.724 298.947 308.19 298.671 307.746C298.395 307.29 298.017 306.948 297.537 306.72C297.069 306.48 296.547 306.36 295.971 306.36C295.143 306.36 294.435 306.624 293.847 307.152C293.271 307.68 292.941 308.412 292.857 309.348H299.085Z" fill="#6B6B6B"/>
<g clip-path="url(#clip0_2111_121)">
<circle cx="180" cy="391.5" r="22.5" fill="#F3F4F6"/>
<path d="M179.911 396.411L181.089 397.589L186.678 392L181.089 386.411L179.911 387.589L183.488 391.166H175.5V392.833H183.488L179.911 396.411Z" fill="#4C40F7"/>
</g>
</g>
<defs>
<filter id="filter0_d_2111_121" x="0" y="0" width="360" height="466" filterUnits="userSpaceOnUse" color-interpolation-filters="sRGB">
<feFlood flood-opacity="0" result="BackgroundImageFix"/>
<feColorMatrix in="SourceAlpha" type="matrix" values="0 0 0 0 0 0 0 0 0 0 0 0 0 0 0 0 0 0 127 0" result="hardAlpha"/>
<feOffset dy="4"/>
<feGaussianBlur stdDeviation="2"/>
<feComposite in2="hardAlpha" operator="out"/>
<feColorMatrix type="matrix" values="0 0 0 0 0 0 0 0 0 0 0 0 0 0 0 0 0 0 0.25 0"/>
<feBlend mode="normal" in2="BackgroundImageFix" result="effect1_dropShadow_2111_121"/>
<feBlend mode="normal" in="SourceGraphic" in2="effect1_dropShadow_2111_121" result="shape"/>
</filter>
<filter id="filter1_d_2111_121" x="127.5" y="44" width="105" height="105" filterUnits="userSpaceOnUse" color-interpolation-filters="sRGB">
<feFlood flood-opacity="0" result="BackgroundImageFix"/>
<feColorMatrix in="SourceAlpha" type="matrix" values="0 0 0 0 0 0 0 0 0 0 0 0 0 0 0 0 0 0 127 0" result="hardAlpha"/>
<feOffset dy="4"/>
<feGaussianBlur stdDeviation="2"/>
<feComposite in2="hardAlpha" operator="out"/>
<feColorMatrix type="matrix" values="0 0 0 0 0 0 0 0 0 0 0 0 0 0 0 0 0 0 0.25 0"/>
<feBlend mode="normal" in2="BackgroundImageFix" result="effect1_dropShadow_2111_121"/>
<feBlend mode="normal" in="SourceGraphic" in2="effect1_dropShadow_2111_121" result="shape"/>
</filter>
<clipPath id="clip0_2111_121">
<rect width="45" height="45" fill="white" transform="translate(157.5 369)"/>
</clipPath>
</defs>
</svg>
