<svg width="360" height="466" viewBox="0 0 360 466" fill="none" xmlns="http://www.w3.org/2000/svg">
<g filter="url(#filter0_d_2111_2)">
<rect x="4" width="352" height="458" rx="20" fill="#F0F0F0" shape-rendering="crispEdges"/>
<g filter="url(#filter1_d_2111_2)">
<circle cx="180" cy="92.5" r="48.5" fill="#282828"/>
<path d="M181.062 75.3872C180.753 75.1659 180.383 75.0479 180.003 75.0498C179.623 75.0518 179.254 75.1737 178.948 75.3982C175.585 77.8347 165.333 86.1287 165.333 96.6667C165.333 102.62 168.905 107.746 174.012 110.043C173.139 108.813 172.668 107.342 172.667 105.833C172.636 99.9282 179.19 93.1962 179.468 93.0001C179.623 92.8892 179.809 92.8295 179.999 92.8295C180.19 92.8295 180.375 92.8892 180.53 93.0001C180.809 93.1962 187.333 98.4524 187.333 105.837C187.333 107.403 186.829 108.849 185.99 110.043C191.095 107.746 194.667 102.621 194.667 96.6759C194.667 85.9307 184.433 77.7797 181.062 75.3872Z" fill="#F0F0F0"/>
</g>
<path d="M151.621 192.04V206H148.821V192.04H151.621ZM153.668 200.42C153.668 199.3 153.888 198.307 154.328 197.44C154.781 196.573 155.394 195.907 156.168 195.44C156.941 194.973 157.801 194.74 158.748 194.74C159.468 194.74 160.154 194.9 160.808 195.22C161.461 195.527 161.981 195.94 162.368 196.46V191.2H165.208V206H162.368V204.36C162.021 204.907 161.534 205.347 160.908 205.68C160.281 206.013 159.554 206.18 158.728 206.18C157.794 206.18 156.941 205.94 156.168 205.46C155.394 204.98 154.781 204.307 154.328 203.44C153.888 202.56 153.668 201.553 153.668 200.42ZM162.388 200.46C162.388 199.78 162.254 199.2 161.988 198.72C161.721 198.227 161.361 197.853 160.908 197.6C160.454 197.333 159.968 197.2 159.448 197.2C158.928 197.2 158.448 197.327 158.008 197.58C157.568 197.833 157.208 198.207 156.928 198.7C156.661 199.18 156.528 199.753 156.528 200.42C156.528 201.087 156.661 201.673 156.928 202.18C157.208 202.673 157.568 203.053 158.008 203.32C158.461 203.587 158.941 203.72 159.448 203.72C159.968 203.72 160.454 203.593 160.908 203.34C161.361 203.073 161.721 202.7 161.988 202.22C162.254 201.727 162.388 201.14 162.388 200.46ZM178.243 200.22C178.243 200.62 178.216 200.98 178.163 201.3H170.063C170.129 202.1 170.409 202.727 170.903 203.18C171.396 203.633 172.003 203.86 172.723 203.86C173.763 203.86 174.503 203.413 174.943 202.52H177.963C177.643 203.587 177.029 204.467 176.123 205.16C175.216 205.84 174.103 206.18 172.783 206.18C171.716 206.18 170.756 205.947 169.903 205.48C169.063 205 168.403 204.327 167.923 203.46C167.456 202.593 167.222 201.593 167.222 200.46C167.222 199.313 167.456 198.307 167.923 197.44C168.389 196.573 169.043 195.907 169.883 195.44C170.723 194.973 171.689 194.74 172.783 194.74C173.836 194.74 174.776 194.967 175.603 195.42C176.443 195.873 177.089 196.52 177.543 197.36C178.009 198.187 178.243 199.14 178.243 200.22ZM175.343 199.42C175.329 198.7 175.069 198.127 174.563 197.7C174.056 197.26 173.436 197.04 172.703 197.04C172.009 197.04 171.423 197.253 170.943 197.68C170.476 198.093 170.189 198.673 170.083 199.42H175.343ZM179.566 200.42C179.566 199.3 179.786 198.307 180.226 197.44C180.68 196.573 181.286 195.907 182.046 195.44C182.82 194.973 183.68 194.74 184.626 194.74C185.453 194.74 186.173 194.907 186.786 195.24C187.413 195.573 187.913 195.993 188.286 196.5V194.92H191.106V206H188.286V204.38C187.926 204.9 187.426 205.333 186.786 205.68C186.16 206.013 185.433 206.18 184.606 206.18C183.673 206.18 182.82 205.94 182.046 205.46C181.286 204.98 180.68 204.307 180.226 203.44C179.786 202.56 179.566 201.553 179.566 200.42ZM188.286 200.46C188.286 199.78 188.153 199.2 187.886 198.72C187.62 198.227 187.26 197.853 186.806 197.6C186.353 197.333 185.866 197.2 185.346 197.2C184.826 197.2 184.346 197.327 183.906 197.58C183.466 197.833 183.106 198.207 182.826 198.7C182.56 199.18 182.426 199.753 182.426 200.42C182.426 201.087 182.56 201.673 182.826 202.18C183.106 202.673 183.466 203.053 183.906 203.32C184.36 203.587 184.84 203.72 185.346 203.72C185.866 203.72 186.353 203.593 186.806 203.34C187.26 203.073 187.62 202.7 187.886 202.22C188.153 201.727 188.286 201.14 188.286 200.46ZM197.101 197.22V202.58C197.101 202.953 197.188 203.227 197.361 203.4C197.548 203.56 197.854 203.64 198.281 203.64H199.581V206H197.821C195.461 206 194.281 204.853 194.281 202.56V197.22H192.961V194.92H194.281V192.18H197.101V194.92H199.581V197.22H197.101ZM211.895 200.22C211.895 200.62 211.868 200.98 211.815 201.3H203.715C203.782 202.1 204.062 202.727 204.555 203.18C205.048 203.633 205.655 203.86 206.375 203.86C207.415 203.86 208.155 203.413 208.595 202.52H211.615C211.295 203.587 210.682 204.467 209.775 205.16C208.868 205.84 207.755 206.18 206.435 206.18C205.368 206.18 204.408 205.947 203.555 205.48C202.715 205 202.055 204.327 201.575 203.46C201.108 202.593 200.875 201.593 200.875 200.46C200.875 199.313 201.108 198.307 201.575 197.44C202.042 196.573 202.695 195.907 203.535 195.44C204.375 194.973 205.342 194.74 206.435 194.74C207.488 194.74 208.428 194.967 209.255 195.42C210.095 195.873 210.742 196.52 211.195 197.36C211.662 198.187 211.895 199.14 211.895 200.22ZM208.995 199.42C208.982 198.7 208.722 198.127 208.215 197.7C207.708 197.26 207.088 197.04 206.355 197.04C205.662 197.04 205.075 197.253 204.595 197.68C204.128 198.093 203.842 198.673 203.735 199.42H208.995Z" fill="#282828"/>
<path d="M64.0261 238.454L60.3901 251H58.5541L55.6381 240.902L52.6141 251L50.7961 251.018L47.2861 238.454H49.0321L51.7681 249.092L54.7921 238.454H56.6281L59.5081 249.056L62.2621 238.454H64.0261ZM74.8186 245.69C74.8186 246.002 74.8006 246.332 74.7646 246.68H66.8806C66.9406 247.652 67.2706 248.414 67.8706 248.966C68.4826 249.506 69.2206 249.776 70.0846 249.776C70.7926 249.776 71.3806 249.614 71.8486 249.29C72.3286 248.954 72.6646 248.51 72.8566 247.958H74.6206C74.3566 248.906 73.8286 249.68 73.0366 250.28C72.2446 250.868 71.2606 251.162 70.0846 251.162C69.1486 251.162 68.3086 250.952 67.5646 250.532C66.8326 250.112 66.2566 249.518 65.8366 248.75C65.4166 247.97 65.2066 247.07 65.2066 246.05C65.2066 245.03 65.4106 244.136 65.8186 243.368C66.2266 242.6 66.7966 242.012 67.5286 241.604C68.2726 241.184 69.1246 240.974 70.0846 240.974C71.0206 240.974 71.8486 241.178 72.5686 241.586C73.2886 241.994 73.8406 242.558 74.2246 243.278C74.6206 243.986 74.8186 244.79 74.8186 245.69ZM73.1266 245.348C73.1266 244.724 72.9886 244.19 72.7126 243.746C72.4366 243.29 72.0586 242.948 71.5786 242.72C71.1106 242.48 70.5886 242.36 70.0126 242.36C69.1846 242.36 68.4766 242.624 67.8886 243.152C67.3126 243.68 66.9826 244.412 66.8986 245.348H73.1266ZM86.6756 240.956C87.4196 240.956 88.0916 241.118 88.6916 241.442C89.2916 241.754 89.7596 242.228 90.0956 242.864C90.4436 243.5 90.6176 244.274 90.6176 245.186V251H88.9976V245.42C88.9976 244.436 88.7516 243.686 88.2596 243.17C87.7676 242.642 87.0956 242.378 86.2436 242.378C85.3796 242.378 84.6896 242.648 84.1736 243.188C83.6696 243.728 83.4176 244.514 83.4176 245.546V251H81.7796V237.68H83.4176V242.54C83.7416 242.036 84.1856 241.646 84.7496 241.37C85.3256 241.094 85.9676 240.956 86.6756 240.956ZM102.293 245.69C102.293 246.002 102.275 246.332 102.239 246.68H94.3552C94.4152 247.652 94.7452 248.414 95.3452 248.966C95.9572 249.506 96.6952 249.776 97.5592 249.776C98.2672 249.776 98.8552 249.614 99.3232 249.29C99.8032 248.954 100.139 248.51 100.331 247.958H102.095C101.831 248.906 101.303 249.68 100.511 250.28C99.7192 250.868 98.7352 251.162 97.5592 251.162C96.6232 251.162 95.7832 250.952 95.0392 250.532C94.3072 250.112 93.7312 249.518 93.3112 248.75C92.8912 247.97 92.6812 247.07 92.6812 246.05C92.6812 245.03 92.8852 244.136 93.2932 243.368C93.7012 242.6 94.2712 242.012 95.0032 241.604C95.7472 241.184 96.5992 240.974 97.5592 240.974C98.4952 240.974 99.3232 241.178 100.043 241.586C100.763 241.994 101.315 242.558 101.699 243.278C102.095 243.986 102.293 244.79 102.293 245.69ZM100.601 245.348C100.601 244.724 100.463 244.19 100.187 243.746C99.9112 243.29 99.5332 242.948 99.0532 242.72C98.5852 242.48 98.0632 242.36 97.4872 242.36C96.6592 242.36 95.9512 242.624 95.3632 243.152C94.7872 243.68 94.4572 244.412 94.3732 245.348H100.601ZM106.093 237.68V251H104.455V237.68H106.093ZM110.523 242.954C110.847 242.39 111.327 241.922 111.963 241.55C112.611 241.166 113.361 240.974 114.213 240.974C115.089 240.974 115.881 241.184 116.589 241.604C117.309 242.024 117.873 242.618 118.281 243.386C118.689 244.142 118.893 245.024 118.893 246.032C118.893 247.028 118.689 247.916 118.281 248.696C117.873 249.476 117.309 250.082 116.589 250.514C115.881 250.946 115.089 251.162 114.213 251.162C113.373 251.162 112.629 250.976 111.981 250.604C111.345 250.22 110.859 249.746 110.523 249.182V255.68H108.885V241.136H110.523V242.954ZM117.219 246.032C117.219 245.288 117.069 244.64 116.769 244.088C116.469 243.536 116.061 243.116 115.545 242.828C115.041 242.54 114.483 242.396 113.871 242.396C113.271 242.396 112.713 242.546 112.197 242.846C111.693 243.134 111.285 243.56 110.973 244.124C110.673 244.676 110.523 245.318 110.523 246.05C110.523 246.794 110.673 247.448 110.973 248.012C111.285 248.564 111.693 248.99 112.197 249.29C112.713 249.578 113.271 249.722 113.871 249.722C114.483 249.722 115.041 249.578 115.545 249.29C116.061 248.99 116.469 248.564 116.769 248.012C117.069 247.448 117.219 246.788 117.219 246.032ZM134.344 241.136L128.404 255.644H126.712L128.656 250.892L124.678 241.136H126.496L129.592 249.128L132.652 241.136H134.344ZM140.292 251.162C139.368 251.162 138.528 250.952 137.772 250.532C137.028 250.112 136.44 249.518 136.008 248.75C135.588 247.97 135.378 247.07 135.378 246.05C135.378 245.042 135.594 244.154 136.026 243.386C136.47 242.606 137.07 242.012 137.826 241.604C138.582 241.184 139.428 240.974 140.364 240.974C141.3 240.974 142.146 241.184 142.902 241.604C143.658 242.012 144.252 242.6 144.684 243.368C145.128 244.136 145.35 245.03 145.35 246.05C145.35 247.07 145.122 247.97 144.666 248.75C144.222 249.518 143.616 250.112 142.848 250.532C142.08 250.952 141.228 251.162 140.292 251.162ZM140.292 249.722C140.88 249.722 141.432 249.584 141.948 249.308C142.464 249.032 142.878 248.618 143.19 248.066C143.514 247.514 143.676 246.842 143.676 246.05C143.676 245.258 143.52 244.586 143.208 244.034C142.896 243.482 142.488 243.074 141.984 242.81C141.48 242.534 140.934 242.396 140.346 242.396C139.746 242.396 139.194 242.534 138.69 242.81C138.198 243.074 137.802 243.482 137.502 244.034C137.202 244.586 137.052 245.258 137.052 246.05C137.052 246.854 137.196 247.532 137.484 248.084C137.784 248.636 138.18 249.05 138.672 249.326C139.164 249.59 139.704 249.722 140.292 249.722ZM156.252 241.136V251H154.614V249.542C154.302 250.046 153.864 250.442 153.3 250.73C152.748 251.006 152.136 251.144 151.464 251.144C150.696 251.144 150.006 250.988 149.394 250.676C148.782 250.352 148.296 249.872 147.936 249.236C147.588 248.6 147.414 247.826 147.414 246.914V241.136H149.034V246.698C149.034 247.67 149.28 248.42 149.772 248.948C150.264 249.464 150.936 249.722 151.788 249.722C152.664 249.722 153.354 249.452 153.858 248.912C154.362 248.372 154.614 247.586 154.614 246.554V241.136H156.252ZM163.205 246.032C163.205 245.024 163.409 244.142 163.817 243.386C164.225 242.618 164.783 242.024 165.491 241.604C166.211 241.184 167.015 240.974 167.903 240.974C168.671 240.974 169.385 241.154 170.045 241.514C170.705 241.862 171.209 242.324 171.557 242.9V237.68H173.213V251H171.557V249.146C171.233 249.734 170.753 250.22 170.117 250.604C169.481 250.976 168.737 251.162 167.885 251.162C167.009 251.162 166.211 250.946 165.491 250.514C164.783 250.082 164.225 249.476 163.817 248.696C163.409 247.916 163.205 247.028 163.205 246.032ZM171.557 246.05C171.557 245.306 171.407 244.658 171.107 244.106C170.807 243.554 170.399 243.134 169.883 242.846C169.379 242.546 168.821 242.396 168.209 242.396C167.597 242.396 167.039 242.54 166.535 242.828C166.031 243.116 165.629 243.536 165.329 244.088C165.029 244.64 164.879 245.288 164.879 246.032C164.879 246.788 165.029 247.448 165.329 248.012C165.629 248.564 166.031 248.99 166.535 249.29C167.039 249.578 167.597 249.722 168.209 249.722C168.821 249.722 169.379 249.578 169.883 249.29C170.399 248.99 170.807 248.564 171.107 248.012C171.407 247.448 171.557 246.794 171.557 246.05ZM184.981 245.69C184.981 246.002 184.963 246.332 184.927 246.68H177.043C177.103 247.652 177.433 248.414 178.033 248.966C178.645 249.506 179.383 249.776 180.247 249.776C180.955 249.776 181.543 249.614 182.011 249.29C182.491 248.954 182.827 248.51 183.019 247.958H184.783C184.519 248.906 183.991 249.68 183.199 250.28C182.407 250.868 181.423 251.162 180.247 251.162C179.311 251.162 178.471 250.952 177.727 250.532C176.995 250.112 176.419 249.518 175.999 248.75C175.579 247.97 175.369 247.07 175.369 246.05C175.369 245.03 175.573 244.136 175.981 243.368C176.389 242.6 176.959 242.012 177.691 241.604C178.435 241.184 179.287 240.974 180.247 240.974C181.183 240.974 182.011 241.178 182.731 241.586C183.451 241.994 184.003 242.558 184.387 243.278C184.783 243.986 184.981 244.79 184.981 245.69ZM183.289 245.348C183.289 244.724 183.151 244.19 182.875 243.746C182.599 243.29 182.221 242.948 181.741 242.72C181.273 242.48 180.751 242.36 180.175 242.36C179.347 242.36 178.639 242.624 178.051 243.152C177.475 243.68 177.145 244.412 177.061 245.348H183.289ZM190.815 249.488L193.875 241.136H195.621L191.751 251H189.843L185.973 241.136H187.737L190.815 249.488ZM206.233 245.69C206.233 246.002 206.215 246.332 206.179 246.68H198.295C198.355 247.652 198.685 248.414 199.285 248.966C199.897 249.506 200.635 249.776 201.499 249.776C202.207 249.776 202.795 249.614 203.263 249.29C203.743 248.954 204.079 248.51 204.271 247.958H206.035C205.771 248.906 205.243 249.68 204.451 250.28C203.659 250.868 202.675 251.162 201.499 251.162C200.563 251.162 199.723 250.952 198.979 250.532C198.247 250.112 197.671 249.518 197.251 248.75C196.831 247.97 196.621 247.07 196.621 246.05C196.621 245.03 196.825 244.136 197.233 243.368C197.641 242.6 198.211 242.012 198.943 241.604C199.687 241.184 200.539 240.974 201.499 240.974C202.435 240.974 203.263 241.178 203.983 241.586C204.703 241.994 205.255 242.558 205.639 243.278C206.035 243.986 206.233 244.79 206.233 245.69ZM204.541 245.348C204.541 244.724 204.403 244.19 204.127 243.746C203.851 243.29 203.473 242.948 202.993 242.72C202.525 242.48 202.003 242.36 201.427 242.36C200.599 242.36 199.891 242.624 199.303 243.152C198.727 243.68 198.397 244.412 198.313 245.348H204.541ZM210.033 237.68V251H208.395V237.68H210.033ZM217.126 251.162C216.202 251.162 215.362 250.952 214.606 250.532C213.862 250.112 213.274 249.518 212.842 248.75C212.422 247.97 212.212 247.07 212.212 246.05C212.212 245.042 212.428 244.154 212.86 243.386C213.304 242.606 213.904 242.012 214.66 241.604C215.416 241.184 216.262 240.974 217.198 240.974C218.134 240.974 218.98 241.184 219.736 241.604C220.492 242.012 221.086 242.6 221.518 243.368C221.962 244.136 222.184 245.03 222.184 246.05C222.184 247.07 221.956 247.97 221.5 248.75C221.056 249.518 220.45 250.112 219.682 250.532C218.914 250.952 218.062 251.162 217.126 251.162ZM217.126 249.722C217.714 249.722 218.266 249.584 218.782 249.308C219.298 249.032 219.712 248.618 220.024 248.066C220.348 247.514 220.51 246.842 220.51 246.05C220.51 245.258 220.354 244.586 220.042 244.034C219.73 243.482 219.322 243.074 218.818 242.81C218.314 242.534 217.768 242.396 217.18 242.396C216.58 242.396 216.028 242.534 215.524 242.81C215.032 243.074 214.636 243.482 214.336 244.034C214.036 244.586 213.886 245.258 213.886 246.05C213.886 246.854 214.03 247.532 214.318 248.084C214.618 248.636 215.014 249.05 215.506 249.326C215.998 249.59 216.538 249.722 217.126 249.722ZM225.976 242.954C226.3 242.39 226.78 241.922 227.416 241.55C228.064 241.166 228.814 240.974 229.666 240.974C230.542 240.974 231.334 241.184 232.042 241.604C232.762 242.024 233.326 242.618 233.734 243.386C234.142 244.142 234.346 245.024 234.346 246.032C234.346 247.028 234.142 247.916 233.734 248.696C233.326 249.476 232.762 250.082 232.042 250.514C231.334 250.946 230.542 251.162 229.666 251.162C228.826 251.162 228.082 250.976 227.434 250.604C226.798 250.22 226.312 249.746 225.976 249.182V255.68H224.338V241.136H225.976V242.954ZM232.672 246.032C232.672 245.288 232.522 244.64 232.222 244.088C231.922 243.536 231.514 243.116 230.998 242.828C230.494 242.54 229.936 242.396 229.324 242.396C228.724 242.396 228.166 242.546 227.65 242.846C227.146 243.134 226.738 243.56 226.426 244.124C226.126 244.676 225.976 245.318 225.976 246.05C225.976 246.794 226.126 247.448 226.426 248.012C226.738 248.564 227.146 248.99 227.65 249.29C228.166 249.578 228.724 249.722 229.324 249.722C229.936 249.722 230.494 249.578 230.998 249.29C231.514 248.99 231.922 248.564 232.222 248.012C232.522 247.448 232.672 246.788 232.672 246.032ZM240.689 246.05C240.689 245.03 240.893 244.142 241.301 243.386C241.709 242.618 242.273 242.024 242.993 241.604C243.725 241.184 244.559 240.974 245.495 240.974C246.707 240.974 247.703 241.268 248.483 241.856C249.275 242.444 249.797 243.26 250.049 244.304H248.285C248.117 243.704 247.787 243.23 247.295 242.882C246.815 242.534 246.215 242.36 245.495 242.36C244.559 242.36 243.803 242.684 243.227 243.332C242.651 243.968 242.363 244.874 242.363 246.05C242.363 247.238 242.651 248.156 243.227 248.804C243.803 249.452 244.559 249.776 245.495 249.776C246.215 249.776 246.815 249.608 247.295 249.272C247.775 248.936 248.105 248.456 248.285 247.832H250.049C249.785 248.84 249.257 249.65 248.465 250.262C247.673 250.862 246.683 251.162 245.495 251.162C244.559 251.162 243.725 250.952 242.993 250.532C242.273 250.112 241.709 249.518 241.301 248.75C240.893 247.982 240.689 247.082 240.689 246.05ZM253.873 242.738C254.161 242.174 254.569 241.736 255.097 241.424C255.637 241.112 256.291 240.956 257.059 240.956V242.648H256.627C254.791 242.648 253.873 243.644 253.873 245.636V251H252.235V241.136H253.873V242.738ZM267.949 245.69C267.949 246.002 267.931 246.332 267.895 246.68H260.011C260.071 247.652 260.401 248.414 261.001 248.966C261.613 249.506 262.351 249.776 263.215 249.776C263.923 249.776 264.511 249.614 264.979 249.29C265.459 248.954 265.795 248.51 265.987 247.958H267.751C267.487 248.906 266.959 249.68 266.167 250.28C265.375 250.868 264.391 251.162 263.215 251.162C262.279 251.162 261.439 250.952 260.695 250.532C259.963 250.112 259.387 249.518 258.967 248.75C258.547 247.97 258.337 247.07 258.337 246.05C258.337 245.03 258.541 244.136 258.949 243.368C259.357 242.6 259.927 242.012 260.659 241.604C261.403 241.184 262.255 240.974 263.215 240.974C264.151 240.974 264.979 241.178 265.699 241.586C266.419 241.994 266.971 242.558 267.355 243.278C267.751 243.986 267.949 244.79 267.949 245.69ZM266.257 245.348C266.257 244.724 266.119 244.19 265.843 243.746C265.567 243.29 265.189 242.948 264.709 242.72C264.241 242.48 263.719 242.36 263.143 242.36C262.315 242.36 261.607 242.624 261.019 243.152C260.443 243.68 260.113 244.412 260.029 245.348H266.257ZM269.5 246.032C269.5 245.024 269.704 244.142 270.112 243.386C270.52 242.618 271.078 242.024 271.786 241.604C272.506 241.184 273.304 240.974 274.18 240.974C275.044 240.974 275.794 241.16 276.43 241.532C277.066 241.904 277.54 242.372 277.852 242.936V241.136H279.508V251H277.852V249.164C277.528 249.74 277.042 250.22 276.394 250.604C275.758 250.976 275.014 251.162 274.162 251.162C273.286 251.162 272.494 250.946 271.786 250.514C271.078 250.082 270.52 249.476 270.112 248.696C269.704 247.916 269.5 247.028 269.5 246.032ZM277.852 246.05C277.852 245.306 277.702 244.658 277.402 244.106C277.102 243.554 276.694 243.134 276.178 242.846C275.674 242.546 275.116 242.396 274.504 242.396C273.892 242.396 273.334 242.54 272.83 242.828C272.326 243.116 271.924 243.536 271.624 244.088C271.324 244.64 271.174 245.288 271.174 246.032C271.174 246.788 271.324 247.448 271.624 248.012C271.924 248.564 272.326 248.99 272.83 249.29C273.334 249.578 273.892 249.722 274.504 249.722C275.116 249.722 275.674 249.578 276.178 249.29C276.694 248.99 277.102 248.564 277.402 248.012C277.702 247.448 277.852 246.794 277.852 246.05ZM284.274 242.486V248.3C284.274 248.78 284.376 249.122 284.58 249.326C284.784 249.518 285.138 249.614 285.642 249.614H286.848V251H285.372C284.46 251 283.776 250.79 283.32 250.37C282.864 249.95 282.636 249.26 282.636 248.3V242.486H281.358V241.136H282.636V238.652H284.274V241.136H286.848V242.486H284.274ZM289.678 239.534C289.366 239.534 289.102 239.426 288.886 239.21C288.67 238.994 288.562 238.73 288.562 238.418C288.562 238.106 288.67 237.842 288.886 237.626C289.102 237.41 289.366 237.302 289.678 237.302C289.978 237.302 290.23 237.41 290.434 237.626C290.65 237.842 290.758 238.106 290.758 238.418C290.758 238.73 290.65 238.994 290.434 239.21C290.23 239.426 289.978 239.534 289.678 239.534ZM290.47 241.136V251H288.832V241.136H290.47ZM296.934 249.488L299.994 241.136H301.74L297.87 251H295.962L292.092 241.136H293.856L296.934 249.488ZM312.352 245.69C312.352 246.002 312.334 246.332 312.298 246.68H304.414C304.474 247.652 304.804 248.414 305.404 248.966C306.016 249.506 306.754 249.776 307.618 249.776C308.326 249.776 308.914 249.614 309.382 249.29C309.862 248.954 310.198 248.51 310.39 247.958H312.154C311.89 248.906 311.362 249.68 310.57 250.28C309.778 250.868 308.794 251.162 307.618 251.162C306.682 251.162 305.842 250.952 305.098 250.532C304.366 250.112 303.79 249.518 303.37 248.75C302.95 247.97 302.74 247.07 302.74 246.05C302.74 245.03 302.944 244.136 303.352 243.368C303.76 242.6 304.33 242.012 305.062 241.604C305.806 241.184 306.658 240.974 307.618 240.974C308.554 240.974 309.382 241.178 310.102 241.586C310.822 241.994 311.374 242.558 311.758 243.278C312.154 243.986 312.352 244.79 312.352 245.69ZM310.66 245.348C310.66 244.724 310.522 244.19 310.246 243.746C309.97 243.29 309.592 242.948 309.112 242.72C308.644 242.48 308.122 242.36 307.546 242.36C306.718 242.36 306.01 242.624 305.422 243.152C304.846 243.68 304.516 244.412 304.432 245.348H310.66ZM39.9722 271.534C39.6602 271.534 39.3962 271.426 39.1802 271.21C38.9642 270.994 38.8562 270.73 38.8562 270.418C38.8562 270.106 38.9642 269.842 39.1802 269.626C39.3962 269.41 39.6602 269.302 39.9722 269.302C40.2722 269.302 40.5242 269.41 40.7282 269.626C40.9442 269.842 41.0522 270.106 41.0522 270.418C41.0522 270.73 40.9442 270.994 40.7282 271.21C40.5242 271.426 40.2722 271.534 39.9722 271.534ZM40.7642 273.136V283H39.1262V273.136H40.7642ZM42.9439 278.032C42.9439 277.024 43.1479 276.142 43.5559 275.386C43.9639 274.618 44.5219 274.024 45.2299 273.604C45.9499 273.184 46.7539 272.974 47.6419 272.974C48.4099 272.974 49.1239 273.154 49.7839 273.514C50.4439 273.862 50.9479 274.324 51.2959 274.9V269.68H52.9519V283H51.2959V281.146C50.9719 281.734 50.4919 282.22 49.8559 282.604C49.2199 282.976 48.4759 283.162 47.6239 283.162C46.7479 283.162 45.9499 282.946 45.2299 282.514C44.5219 282.082 43.9639 281.476 43.5559 280.696C43.1479 279.916 42.9439 279.028 42.9439 278.032ZM51.2959 278.05C51.2959 277.306 51.1459 276.658 50.8459 276.106C50.5459 275.554 50.1379 275.134 49.6219 274.846C49.1179 274.546 48.5599 274.396 47.9479 274.396C47.3359 274.396 46.7779 274.54 46.2739 274.828C45.7699 275.116 45.3679 275.536 45.0679 276.088C44.7679 276.64 44.6179 277.288 44.6179 278.032C44.6179 278.788 44.7679 279.448 45.0679 280.012C45.3679 280.564 45.7699 280.99 46.2739 281.29C46.7779 281.578 47.3359 281.722 47.9479 281.722C48.5599 281.722 49.1179 281.578 49.6219 281.29C50.1379 280.99 50.5459 280.564 50.8459 280.012C51.1459 279.448 51.2959 278.794 51.2959 278.05ZM64.72 277.69C64.72 278.002 64.702 278.332 64.666 278.68H56.782C56.842 279.652 57.172 280.414 57.772 280.966C58.384 281.506 59.122 281.776 59.986 281.776C60.694 281.776 61.282 281.614 61.75 281.29C62.23 280.954 62.566 280.51 62.758 279.958H64.522C64.258 280.906 63.73 281.68 62.938 282.28C62.146 282.868 61.162 283.162 59.986 283.162C59.05 283.162 58.21 282.952 57.466 282.532C56.734 282.112 56.158 281.518 55.738 280.75C55.318 279.97 55.108 279.07 55.108 278.05C55.108 277.03 55.312 276.136 55.72 275.368C56.128 274.6 56.698 274.012 57.43 273.604C58.174 273.184 59.026 272.974 59.986 272.974C60.922 272.974 61.75 273.178 62.47 273.586C63.19 273.994 63.742 274.558 64.126 275.278C64.522 275.986 64.72 276.79 64.72 277.69ZM63.028 277.348C63.028 276.724 62.89 276.19 62.614 275.746C62.338 275.29 61.96 274.948 61.48 274.72C61.012 274.48 60.49 274.36 59.914 274.36C59.086 274.36 58.378 274.624 57.79 275.152C57.214 275.68 56.884 276.412 56.8 277.348H63.028ZM66.2701 278.032C66.2701 277.024 66.4741 276.142 66.8821 275.386C67.2901 274.618 67.8481 274.024 68.5561 273.604C69.2761 273.184 70.0741 272.974 70.9501 272.974C71.8141 272.974 72.5641 273.16 73.2001 273.532C73.8361 273.904 74.3101 274.372 74.6221 274.936V273.136H76.2781V283H74.6221V281.164C74.2981 281.74 73.8121 282.22 73.1641 282.604C72.5281 282.976 71.7841 283.162 70.9321 283.162C70.0561 283.162 69.2641 282.946 68.5561 282.514C67.8481 282.082 67.2901 281.476 66.8821 280.696C66.4741 279.916 66.2701 279.028 66.2701 278.032ZM74.6221 278.05C74.6221 277.306 74.4721 276.658 74.1721 276.106C73.8721 275.554 73.4641 275.134 72.9481 274.846C72.4441 274.546 71.8861 274.396 71.2741 274.396C70.6621 274.396 70.1041 274.54 69.6001 274.828C69.0961 275.116 68.6941 275.536 68.3941 276.088C68.0941 276.64 67.9441 277.288 67.9441 278.032C67.9441 278.788 68.0941 279.448 68.3941 280.012C68.6941 280.564 69.0961 280.99 69.6001 281.29C70.1041 281.578 70.6621 281.722 71.2741 281.722C71.8861 281.722 72.4441 281.578 72.9481 281.29C73.4641 280.99 73.8721 280.564 74.1721 280.012C74.4721 279.448 74.6221 278.794 74.6221 278.05ZM82.5382 283.162C81.7822 283.162 81.1042 283.036 80.5042 282.784C79.9042 282.52 79.4302 282.16 79.0822 281.704C78.7342 281.236 78.5422 280.702 78.5062 280.102H80.1982C80.2462 280.594 80.4742 280.996 80.8822 281.308C81.3022 281.62 81.8482 281.776 82.5202 281.776C83.1442 281.776 83.6362 281.638 83.9962 281.362C84.3562 281.086 84.5362 280.738 84.5362 280.318C84.5362 279.886 84.3442 279.568 83.9602 279.364C83.5762 279.148 82.9822 278.938 82.1782 278.734C81.4462 278.542 80.8462 278.35 80.3782 278.158C79.9222 277.954 79.5262 277.66 79.1902 277.276C78.8662 276.88 78.7042 276.364 78.7042 275.728C78.7042 275.224 78.8542 274.762 79.1542 274.342C79.4542 273.922 79.8802 273.592 80.4322 273.352C80.9842 273.1 81.6142 272.974 82.3222 272.974C83.4142 272.974 84.2962 273.25 84.9682 273.802C85.6402 274.354 86.0002 275.11 86.0482 276.07H84.4102C84.3742 275.554 84.1642 275.14 83.7802 274.828C83.4082 274.516 82.9042 274.36 82.2682 274.36C81.6802 274.36 81.2122 274.486 80.8642 274.738C80.5162 274.99 80.3422 275.32 80.3422 275.728C80.3422 276.052 80.4442 276.322 80.6482 276.538C80.8642 276.742 81.1282 276.91 81.4402 277.042C81.7642 277.162 82.2082 277.3 82.7722 277.456C83.4802 277.648 84.0562 277.84 84.5002 278.032C84.9442 278.212 85.3222 278.488 85.6342 278.86C85.9582 279.232 86.1262 279.718 86.1382 280.318C86.1382 280.858 85.9882 281.344 85.6882 281.776C85.3882 282.208 84.9622 282.55 84.4102 282.802C83.8702 283.042 83.2462 283.162 82.5382 283.162ZM96.7413 283.162C95.9853 283.162 95.3073 283.036 94.7073 282.784C94.1073 282.52 93.6333 282.16 93.2853 281.704C92.9373 281.236 92.7453 280.702 92.7093 280.102H94.4013C94.4493 280.594 94.6773 280.996 95.0853 281.308C95.5053 281.62 96.0513 281.776 96.7233 281.776C97.3473 281.776 97.8393 281.638 98.1993 281.362C98.5593 281.086 98.7393 280.738 98.7393 280.318C98.7393 279.886 98.5473 279.568 98.1633 279.364C97.7793 279.148 97.1853 278.938 96.3813 278.734C95.6493 278.542 95.0493 278.35 94.5813 278.158C94.1253 277.954 93.7293 277.66 93.3933 277.276C93.0693 276.88 92.9073 276.364 92.9073 275.728C92.9073 275.224 93.0573 274.762 93.3573 274.342C93.6573 273.922 94.0833 273.592 94.6353 273.352C95.1873 273.1 95.8173 272.974 96.5253 272.974C97.6173 272.974 98.4993 273.25 99.1713 273.802C99.8433 274.354 100.203 275.11 100.251 276.07H98.6133C98.5773 275.554 98.3673 275.14 97.9833 274.828C97.6113 274.516 97.1073 274.36 96.4713 274.36C95.8833 274.36 95.4153 274.486 95.0673 274.738C94.7193 274.99 94.5453 275.32 94.5453 275.728C94.5453 276.052 94.6473 276.322 94.8513 276.538C95.0673 276.742 95.3313 276.91 95.6433 277.042C95.9673 277.162 96.4113 277.3 96.9753 277.456C97.6833 277.648 98.2593 277.84 98.7033 278.032C99.1473 278.212 99.5253 278.488 99.8373 278.86C100.161 279.232 100.329 279.718 100.341 280.318C100.341 280.858 100.191 281.344 99.8913 281.776C99.5913 282.208 99.1653 282.55 98.6133 282.802C98.0733 283.042 97.4493 283.162 96.7413 283.162ZM106.956 283.162C106.032 283.162 105.192 282.952 104.436 282.532C103.692 282.112 103.104 281.518 102.672 280.75C102.252 279.97 102.042 279.07 102.042 278.05C102.042 277.042 102.258 276.154 102.69 275.386C103.134 274.606 103.734 274.012 104.49 273.604C105.246 273.184 106.092 272.974 107.028 272.974C107.964 272.974 108.81 273.184 109.566 273.604C110.322 274.012 110.916 274.6 111.348 275.368C111.792 276.136 112.014 277.03 112.014 278.05C112.014 279.07 111.786 279.97 111.33 280.75C110.886 281.518 110.28 282.112 109.512 282.532C108.744 282.952 107.892 283.162 106.956 283.162ZM106.956 281.722C107.544 281.722 108.096 281.584 108.612 281.308C109.128 281.032 109.542 280.618 109.854 280.066C110.178 279.514 110.34 278.842 110.34 278.05C110.34 277.258 110.184 276.586 109.872 276.034C109.56 275.482 109.152 275.074 108.648 274.81C108.144 274.534 107.598 274.396 107.01 274.396C106.41 274.396 105.858 274.534 105.354 274.81C104.862 275.074 104.466 275.482 104.166 276.034C103.866 276.586 103.716 277.258 103.716 278.05C103.716 278.854 103.86 279.532 104.148 280.084C104.448 280.636 104.844 281.05 105.336 281.326C105.828 281.59 106.368 281.722 106.956 281.722ZM120.964 274.486V280.3C120.964 280.78 121.066 281.122 121.27 281.326C121.474 281.518 121.828 281.614 122.332 281.614H123.538V283H122.062C121.15 283 120.466 282.79 120.01 282.37C119.554 281.95 119.326 281.26 119.326 280.3V274.486H118.048V273.136H119.326V270.652H120.964V273.136H123.538V274.486H120.964ZM130.419 272.956C131.163 272.956 131.835 273.118 132.435 273.442C133.035 273.754 133.503 274.228 133.839 274.864C134.187 275.5 134.361 276.274 134.361 277.186V283H132.741V277.42C132.741 276.436 132.495 275.686 132.003 275.17C131.511 274.642 130.839 274.378 129.987 274.378C129.123 274.378 128.433 274.648 127.917 275.188C127.413 275.728 127.161 276.514 127.161 277.546V283H125.523V269.68H127.161V274.54C127.485 274.036 127.929 273.646 128.493 273.37C129.069 273.094 129.711 272.956 130.419 272.956ZM136.424 278.032C136.424 277.024 136.628 276.142 137.036 275.386C137.444 274.618 138.002 274.024 138.71 273.604C139.43 273.184 140.228 272.974 141.104 272.974C141.968 272.974 142.718 273.16 143.354 273.532C143.99 273.904 144.464 274.372 144.776 274.936V273.136H146.432V283H144.776V281.164C144.452 281.74 143.966 282.22 143.318 282.604C142.682 282.976 141.938 283.162 141.086 283.162C140.21 283.162 139.418 282.946 138.71 282.514C138.002 282.082 137.444 281.476 137.036 280.696C136.628 279.916 136.424 279.028 136.424 278.032ZM144.776 278.05C144.776 277.306 144.626 276.658 144.326 276.106C144.026 275.554 143.618 275.134 143.102 274.846C142.598 274.546 142.04 274.396 141.428 274.396C140.816 274.396 140.258 274.54 139.754 274.828C139.25 275.116 138.848 275.536 138.548 276.088C138.248 276.64 138.098 277.288 138.098 278.032C138.098 278.788 138.248 279.448 138.548 280.012C138.848 280.564 139.25 280.99 139.754 281.29C140.258 281.578 140.816 281.722 141.428 281.722C142.04 281.722 142.598 281.578 143.102 281.29C143.618 280.99 144.026 280.564 144.326 280.012C144.626 279.448 144.776 278.794 144.776 278.05ZM151.198 274.486V280.3C151.198 280.78 151.3 281.122 151.504 281.326C151.708 281.518 152.062 281.614 152.566 281.614H153.772V283H152.296C151.384 283 150.7 282.79 150.244 282.37C149.788 281.95 149.56 281.26 149.56 280.3V274.486H148.282V273.136H149.56V270.652H151.198V273.136H153.772V274.486H151.198ZM169.052 273.136L163.112 287.644H161.42L163.364 282.892L159.386 273.136H161.204L164.3 281.128L167.36 273.136H169.052ZM175.001 283.162C174.077 283.162 173.237 282.952 172.481 282.532C171.737 282.112 171.149 281.518 170.717 280.75C170.297 279.97 170.087 279.07 170.087 278.05C170.087 277.042 170.303 276.154 170.735 275.386C171.179 274.606 171.779 274.012 172.535 273.604C173.291 273.184 174.137 272.974 175.073 272.974C176.009 272.974 176.855 273.184 177.611 273.604C178.367 274.012 178.961 274.6 179.393 275.368C179.837 276.136 180.059 277.03 180.059 278.05C180.059 279.07 179.831 279.97 179.375 280.75C178.931 281.518 178.325 282.112 177.557 282.532C176.789 282.952 175.937 283.162 175.001 283.162ZM175.001 281.722C175.589 281.722 176.141 281.584 176.657 281.308C177.173 281.032 177.587 280.618 177.899 280.066C178.223 279.514 178.385 278.842 178.385 278.05C178.385 277.258 178.229 276.586 177.917 276.034C177.605 275.482 177.197 275.074 176.693 274.81C176.189 274.534 175.643 274.396 175.055 274.396C174.455 274.396 173.903 274.534 173.399 274.81C172.907 275.074 172.511 275.482 172.211 276.034C171.911 276.586 171.761 277.258 171.761 278.05C171.761 278.854 171.905 279.532 172.193 280.084C172.493 280.636 172.889 281.05 173.381 281.326C173.873 281.59 174.413 281.722 175.001 281.722ZM190.96 273.136V283H189.322V281.542C189.01 282.046 188.572 282.442 188.008 282.73C187.456 283.006 186.844 283.144 186.172 283.144C185.404 283.144 184.714 282.988 184.102 282.676C183.49 282.352 183.004 281.872 182.644 281.236C182.296 280.6 182.122 279.826 182.122 278.914V273.136H183.742V278.698C183.742 279.67 183.988 280.42 184.48 280.948C184.972 281.464 185.644 281.722 186.496 281.722C187.372 281.722 188.062 281.452 188.566 280.912C189.07 280.372 189.322 279.586 189.322 278.554V273.136H190.96ZM195.364 274.738C195.652 274.174 196.06 273.736 196.588 273.424C197.128 273.112 197.782 272.956 198.55 272.956V274.648H198.118C196.282 274.648 195.364 275.644 195.364 277.636V283H193.726V273.136H195.364V274.738ZM206.878 274.972C207.214 274.384 207.706 273.904 208.354 273.532C209.002 273.16 209.74 272.974 210.568 272.974C211.456 272.974 212.254 273.184 212.962 273.604C213.67 274.024 214.228 274.618 214.636 275.386C215.044 276.142 215.248 277.024 215.248 278.032C215.248 279.028 215.044 279.916 214.636 280.696C214.228 281.476 213.664 282.082 212.944 282.514C212.236 282.946 211.444 283.162 210.568 283.162C209.716 283.162 208.966 282.976 208.318 282.604C207.682 282.232 207.202 281.758 206.878 281.182V283H205.24V269.68H206.878V274.972ZM213.574 278.032C213.574 277.288 213.424 276.64 213.124 276.088C212.824 275.536 212.416 275.116 211.9 274.828C211.396 274.54 210.838 274.396 210.226 274.396C209.626 274.396 209.068 274.546 208.552 274.846C208.048 275.134 207.64 275.56 207.328 276.124C207.028 276.676 206.878 277.318 206.878 278.05C206.878 278.794 207.028 279.448 207.328 280.012C207.64 280.564 208.048 280.99 208.552 281.29C209.068 281.578 209.626 281.722 210.226 281.722C210.838 281.722 211.396 281.578 211.9 281.29C212.416 280.99 212.824 280.564 213.124 280.012C213.424 279.448 213.574 278.788 213.574 278.032ZM226.152 273.136V283H224.514V281.542C224.202 282.046 223.764 282.442 223.2 282.73C222.648 283.006 222.036 283.144 221.364 283.144C220.596 283.144 219.906 282.988 219.294 282.676C218.682 282.352 218.196 281.872 217.836 281.236C217.488 280.6 217.314 279.826 217.314 278.914V273.136H218.934V278.698C218.934 279.67 219.18 280.42 219.672 280.948C220.164 281.464 220.836 281.722 221.688 281.722C222.564 281.722 223.254 281.452 223.758 280.912C224.262 280.372 224.514 279.586 224.514 278.554V273.136H226.152ZM232.409 283.162C231.653 283.162 230.975 283.036 230.375 282.784C229.775 282.52 229.301 282.16 228.953 281.704C228.605 281.236 228.413 280.702 228.377 280.102H230.069C230.117 280.594 230.345 280.996 230.753 281.308C231.173 281.62 231.719 281.776 232.391 281.776C233.015 281.776 233.507 281.638 233.867 281.362C234.227 281.086 234.407 280.738 234.407 280.318C234.407 279.886 234.215 279.568 233.831 279.364C233.447 279.148 232.853 278.938 232.049 278.734C231.317 278.542 230.717 278.35 230.249 278.158C229.793 277.954 229.397 277.66 229.061 277.276C228.737 276.88 228.575 276.364 228.575 275.728C228.575 275.224 228.725 274.762 229.025 274.342C229.325 273.922 229.751 273.592 230.303 273.352C230.855 273.1 231.485 272.974 232.193 272.974C233.285 272.974 234.167 273.25 234.839 273.802C235.511 274.354 235.871 275.11 235.919 276.07H234.281C234.245 275.554 234.035 275.14 233.651 274.828C233.279 274.516 232.775 274.36 232.139 274.36C231.551 274.36 231.083 274.486 230.735 274.738C230.387 274.99 230.213 275.32 230.213 275.728C230.213 276.052 230.315 276.322 230.519 276.538C230.735 276.742 230.999 276.91 231.311 277.042C231.635 277.162 232.079 277.3 232.643 277.456C233.351 277.648 233.927 277.84 234.371 278.032C234.815 278.212 235.193 278.488 235.505 278.86C235.829 279.232 235.997 279.718 236.009 280.318C236.009 280.858 235.859 281.344 235.559 281.776C235.259 282.208 234.833 282.55 234.281 282.802C233.741 283.042 233.117 283.162 232.409 283.162ZM239.168 271.534C238.856 271.534 238.592 271.426 238.376 271.21C238.16 270.994 238.052 270.73 238.052 270.418C238.052 270.106 238.16 269.842 238.376 269.626C238.592 269.41 238.856 269.302 239.168 269.302C239.468 269.302 239.72 269.41 239.924 269.626C240.14 269.842 240.248 270.106 240.248 270.418C240.248 270.73 240.14 270.994 239.924 271.21C239.72 271.426 239.468 271.534 239.168 271.534ZM239.96 273.136V283H238.322V273.136H239.96ZM247.557 272.956C248.757 272.956 249.729 273.322 250.473 274.054C251.217 274.774 251.589 275.818 251.589 277.186V283H249.969V277.42C249.969 276.436 249.723 275.686 249.231 275.17C248.739 274.642 248.067 274.378 247.215 274.378C246.351 274.378 245.661 274.648 245.145 275.188C244.641 275.728 244.389 276.514 244.389 277.546V283H242.751V273.136H244.389V274.54C244.713 274.036 245.151 273.646 245.703 273.37C246.267 273.094 246.885 272.956 247.557 272.956ZM263.265 277.69C263.265 278.002 263.247 278.332 263.211 278.68H255.327C255.387 279.652 255.717 280.414 256.317 280.966C256.929 281.506 257.667 281.776 258.531 281.776C259.239 281.776 259.827 281.614 260.295 281.29C260.775 280.954 261.111 280.51 261.303 279.958H263.067C262.803 280.906 262.275 281.68 261.483 282.28C260.691 282.868 259.707 283.162 258.531 283.162C257.595 283.162 256.755 282.952 256.011 282.532C255.279 282.112 254.703 281.518 254.283 280.75C253.863 279.97 253.653 279.07 253.653 278.05C253.653 277.03 253.857 276.136 254.265 275.368C254.673 274.6 255.243 274.012 255.975 273.604C256.719 273.184 257.571 272.974 258.531 272.974C259.467 272.974 260.295 273.178 261.015 273.586C261.735 273.994 262.287 274.558 262.671 275.278C263.067 275.986 263.265 276.79 263.265 277.69ZM261.573 277.348C261.573 276.724 261.435 276.19 261.159 275.746C260.883 275.29 260.505 274.948 260.025 274.72C259.557 274.48 259.035 274.36 258.459 274.36C257.631 274.36 256.923 274.624 256.335 275.152C255.759 275.68 255.429 276.412 255.345 277.348H261.573ZM268.919 283.162C268.163 283.162 267.485 283.036 266.885 282.784C266.285 282.52 265.811 282.16 265.463 281.704C265.115 281.236 264.923 280.702 264.887 280.102H266.579C266.627 280.594 266.855 280.996 267.263 281.308C267.683 281.62 268.229 281.776 268.901 281.776C269.525 281.776 270.017 281.638 270.377 281.362C270.737 281.086 270.917 280.738 270.917 280.318C270.917 279.886 270.725 279.568 270.341 279.364C269.957 279.148 269.363 278.938 268.559 278.734C267.827 278.542 267.227 278.35 266.759 278.158C266.303 277.954 265.907 277.66 265.571 277.276C265.247 276.88 265.085 276.364 265.085 275.728C265.085 275.224 265.235 274.762 265.535 274.342C265.835 273.922 266.261 273.592 266.813 273.352C267.365 273.1 267.995 272.974 268.703 272.974C269.795 272.974 270.677 273.25 271.349 273.802C272.021 274.354 272.381 275.11 272.429 276.07H270.791C270.755 275.554 270.545 275.14 270.161 274.828C269.789 274.516 269.285 274.36 268.649 274.36C268.061 274.36 267.593 274.486 267.245 274.738C266.897 274.99 266.723 275.32 266.723 275.728C266.723 276.052 266.825 276.322 267.029 276.538C267.245 276.742 267.509 276.91 267.821 277.042C268.145 277.162 268.589 277.3 269.153 277.456C269.861 277.648 270.437 277.84 270.881 278.032C271.325 278.212 271.703 278.488 272.015 278.86C272.339 279.232 272.507 279.718 272.519 280.318C272.519 280.858 272.369 281.344 272.069 281.776C271.769 282.208 271.343 282.55 270.791 282.802C270.251 283.042 269.627 283.162 268.919 283.162ZM278.323 283.162C277.567 283.162 276.889 283.036 276.289 282.784C275.689 282.52 275.215 282.16 274.867 281.704C274.519 281.236 274.327 280.702 274.291 280.102H275.983C276.031 280.594 276.259 280.996 276.667 281.308C277.087 281.62 277.633 281.776 278.305 281.776C278.929 281.776 279.421 281.638 279.781 281.362C280.141 281.086 280.321 280.738 280.321 280.318C280.321 279.886 280.129 279.568 279.745 279.364C279.361 279.148 278.767 278.938 277.963 278.734C277.231 278.542 276.631 278.35 276.163 278.158C275.707 277.954 275.311 277.66 274.975 277.276C274.651 276.88 274.489 276.364 274.489 275.728C274.489 275.224 274.639 274.762 274.939 274.342C275.239 273.922 275.665 273.592 276.217 273.352C276.769 273.1 277.399 272.974 278.107 272.974C279.199 272.974 280.081 273.25 280.753 273.802C281.425 274.354 281.785 275.11 281.833 276.07H280.195C280.159 275.554 279.949 275.14 279.565 274.828C279.193 274.516 278.689 274.36 278.053 274.36C277.465 274.36 276.997 274.486 276.649 274.738C276.301 274.99 276.127 275.32 276.127 275.728C276.127 276.052 276.229 276.322 276.433 276.538C276.649 276.742 276.913 276.91 277.225 277.042C277.549 277.162 277.993 277.3 278.557 277.456C279.265 277.648 279.841 277.84 280.285 278.032C280.729 278.212 281.107 278.488 281.419 278.86C281.743 279.232 281.911 279.718 281.923 280.318C281.923 280.858 281.773 281.344 281.473 281.776C281.173 282.208 280.747 282.55 280.195 282.802C279.655 283.042 279.031 283.162 278.323 283.162ZM288.422 278.05C288.422 277.03 288.626 276.142 289.034 275.386C289.442 274.618 290.006 274.024 290.726 273.604C291.458 273.184 292.292 272.974 293.228 272.974C294.44 272.974 295.436 273.268 296.216 273.856C297.008 274.444 297.53 275.26 297.782 276.304H296.018C295.85 275.704 295.52 275.23 295.028 274.882C294.548 274.534 293.948 274.36 293.228 274.36C292.292 274.36 291.536 274.684 290.96 275.332C290.384 275.968 290.096 276.874 290.096 278.05C290.096 279.238 290.384 280.156 290.96 280.804C291.536 281.452 292.292 281.776 293.228 281.776C293.948 281.776 294.548 281.608 295.028 281.272C295.508 280.936 295.838 280.456 296.018 279.832H297.782C297.518 280.84 296.99 281.65 296.198 282.262C295.406 282.862 294.416 283.162 293.228 283.162C292.292 283.162 291.458 282.952 290.726 282.532C290.006 282.112 289.442 281.518 289.034 280.75C288.626 279.982 288.422 279.082 288.422 278.05ZM299.356 278.032C299.356 277.024 299.56 276.142 299.968 275.386C300.376 274.618 300.934 274.024 301.642 273.604C302.362 273.184 303.16 272.974 304.036 272.974C304.9 272.974 305.65 273.16 306.286 273.532C306.922 273.904 307.396 274.372 307.708 274.936V273.136H309.364V283H307.708V281.164C307.384 281.74 306.898 282.22 306.25 282.604C305.614 282.976 304.87 283.162 304.018 283.162C303.142 283.162 302.35 282.946 301.642 282.514C300.934 282.082 300.376 281.476 299.968 280.696C299.56 279.916 299.356 279.028 299.356 278.032ZM307.708 278.05C307.708 277.306 307.558 276.658 307.258 276.106C306.958 275.554 306.55 275.134 306.034 274.846C305.53 274.546 304.972 274.396 304.36 274.396C303.748 274.396 303.19 274.54 302.686 274.828C302.182 275.116 301.78 275.536 301.48 276.088C301.18 276.64 301.03 277.288 301.03 278.032C301.03 278.788 301.18 279.448 301.48 280.012C301.78 280.564 302.182 280.99 302.686 281.29C303.19 281.578 303.748 281.722 304.36 281.722C304.972 281.722 305.53 281.578 306.034 281.29C306.55 280.99 306.958 280.564 307.258 280.012C307.558 279.448 307.708 278.794 307.708 278.05ZM316.938 272.956C318.138 272.956 319.11 273.322 319.854 274.054C320.598 274.774 320.97 275.818 320.97 277.186V283H319.35V277.42C319.35 276.436 319.104 275.686 318.612 275.17C318.12 274.642 317.448 274.378 316.596 274.378C315.732 274.378 315.042 274.648 314.526 275.188C314.022 275.728 313.77 276.514 313.77 277.546V283H312.132V273.136H313.77V274.54C314.094 274.036 314.532 273.646 315.084 273.37C315.648 273.094 316.266 272.956 316.938 272.956ZM103.004 304.974C103.856 304.974 104.6 305.16 105.236 305.532C105.884 305.904 106.364 306.372 106.676 306.936V305.136H108.332V315.216C108.332 316.116 108.14 316.914 107.756 317.61C107.372 318.318 106.82 318.87 106.1 319.266C105.392 319.662 104.564 319.86 103.616 319.86C102.32 319.86 101.24 319.554 100.376 318.942C99.5118 318.33 99.0018 317.496 98.8458 316.44H100.466C100.646 317.04 101.018 317.52 101.582 317.88C102.146 318.252 102.824 318.438 103.616 318.438C104.516 318.438 105.248 318.156 105.812 317.592C106.388 317.028 106.676 316.236 106.676 315.216V313.146C106.352 313.722 105.872 314.202 105.236 314.586C104.6 314.97 103.856 315.162 103.004 315.162C102.128 315.162 101.33 314.946 100.61 314.514C99.9018 314.082 99.3438 313.476 98.9358 312.696C98.5278 311.916 98.3238 311.028 98.3238 310.032C98.3238 309.024 98.5278 308.142 98.9358 307.386C99.3438 306.618 99.9018 306.024 100.61 305.604C101.33 305.184 102.128 304.974 103.004 304.974ZM106.676 310.05C106.676 309.306 106.526 308.658 106.226 308.106C105.926 307.554 105.518 307.134 105.002 306.846C104.498 306.546 103.94 306.396 103.328 306.396C102.716 306.396 102.158 306.54 101.654 306.828C101.15 307.116 100.748 307.536 100.448 308.088C100.148 308.64 99.9978 309.288 99.9978 310.032C99.9978 310.788 100.148 311.448 100.448 312.012C100.748 312.564 101.15 312.99 101.654 313.29C102.158 313.578 102.716 313.722 103.328 313.722C103.94 313.722 104.498 313.578 105.002 313.29C105.518 312.99 105.926 312.564 106.226 312.012C106.526 311.448 106.676 310.794 106.676 310.05ZM112.738 306.738C113.026 306.174 113.434 305.736 113.962 305.424C114.502 305.112 115.156 304.956 115.924 304.956V306.648H115.492C113.656 306.648 112.738 307.644 112.738 309.636V315H111.1V305.136H112.738V306.738ZM122.117 315.162C121.193 315.162 120.353 314.952 119.597 314.532C118.853 314.112 118.265 313.518 117.833 312.75C117.413 311.97 117.203 311.07 117.203 310.05C117.203 309.042 117.419 308.154 117.851 307.386C118.295 306.606 118.895 306.012 119.651 305.604C120.407 305.184 121.253 304.974 122.189 304.974C123.125 304.974 123.971 305.184 124.727 305.604C125.483 306.012 126.077 306.6 126.509 307.368C126.953 308.136 127.175 309.03 127.175 310.05C127.175 311.07 126.947 311.97 126.491 312.75C126.047 313.518 125.441 314.112 124.673 314.532C123.905 314.952 123.053 315.162 122.117 315.162ZM122.117 313.722C122.705 313.722 123.257 313.584 123.773 313.308C124.289 313.032 124.703 312.618 125.015 312.066C125.339 311.514 125.501 310.842 125.501 310.05C125.501 309.258 125.345 308.586 125.033 308.034C124.721 307.482 124.313 307.074 123.809 306.81C123.305 306.534 122.759 306.396 122.171 306.396C121.571 306.396 121.019 306.534 120.515 306.81C120.023 307.074 119.627 307.482 119.327 308.034C119.027 308.586 118.877 309.258 118.877 310.05C118.877 310.854 119.021 311.532 119.309 312.084C119.609 312.636 120.005 313.05 120.497 313.326C120.989 313.59 121.529 313.722 122.117 313.722ZM142.468 305.136L139.39 315H137.698L135.322 307.17L132.946 315H131.254L128.158 305.136H129.832L132.1 313.416L134.548 305.136H136.222L138.616 313.434L140.848 305.136H142.468ZM160.755 304.956C161.523 304.956 162.207 305.118 162.807 305.442C163.407 305.754 163.881 306.228 164.229 306.864C164.577 307.5 164.751 308.274 164.751 309.186V315H163.131V309.42C163.131 308.436 162.885 307.686 162.393 307.17C161.913 306.642 161.259 306.378 160.431 306.378C159.579 306.378 158.901 306.654 158.397 307.206C157.893 307.746 157.641 308.532 157.641 309.564V315H156.021V309.42C156.021 308.436 155.775 307.686 155.283 307.17C154.803 306.642 154.149 306.378 153.321 306.378C152.469 306.378 151.791 306.654 151.287 307.206C150.783 307.746 150.531 308.532 150.531 309.564V315H148.893V305.136H150.531V306.558C150.855 306.042 151.287 305.646 151.827 305.37C152.379 305.094 152.985 304.956 153.645 304.956C154.473 304.956 155.205 305.142 155.841 305.514C156.477 305.886 156.951 306.432 157.263 307.152C157.539 306.456 157.995 305.916 158.631 305.532C159.267 305.148 159.975 304.956 160.755 304.956ZM171.74 315.162C170.816 315.162 169.976 314.952 169.22 314.532C168.476 314.112 167.888 313.518 167.456 312.75C167.036 311.97 166.826 311.07 166.826 310.05C166.826 309.042 167.042 308.154 167.474 307.386C167.918 306.606 168.518 306.012 169.274 305.604C170.03 305.184 170.876 304.974 171.812 304.974C172.748 304.974 173.594 305.184 174.35 305.604C175.106 306.012 175.7 306.6 176.132 307.368C176.576 308.136 176.798 309.03 176.798 310.05C176.798 311.07 176.57 311.97 176.114 312.75C175.67 313.518 175.064 314.112 174.296 314.532C173.528 314.952 172.676 315.162 171.74 315.162ZM171.74 313.722C172.328 313.722 172.88 313.584 173.396 313.308C173.912 313.032 174.326 312.618 174.638 312.066C174.962 311.514 175.124 310.842 175.124 310.05C175.124 309.258 174.968 308.586 174.656 308.034C174.344 307.482 173.936 307.074 173.432 306.81C172.928 306.534 172.382 306.396 171.794 306.396C171.194 306.396 170.642 306.534 170.138 306.81C169.646 307.074 169.25 307.482 168.95 308.034C168.65 308.586 168.5 309.258 168.5 310.05C168.5 310.854 168.644 311.532 168.932 312.084C169.232 312.636 169.628 313.05 170.12 313.326C170.612 313.59 171.152 313.722 171.74 313.722ZM180.589 306.738C180.877 306.174 181.285 305.736 181.813 305.424C182.353 305.112 183.007 304.956 183.775 304.956V306.648H183.343C181.507 306.648 180.589 307.644 180.589 309.636V315H178.951V305.136H180.589V306.738ZM194.666 309.69C194.666 310.002 194.648 310.332 194.612 310.68H186.728C186.788 311.652 187.118 312.414 187.718 312.966C188.33 313.506 189.068 313.776 189.932 313.776C190.64 313.776 191.228 313.614 191.696 313.29C192.176 312.954 192.512 312.51 192.704 311.958H194.468C194.204 312.906 193.676 313.68 192.884 314.28C192.092 314.868 191.108 315.162 189.932 315.162C188.996 315.162 188.156 314.952 187.412 314.532C186.68 314.112 186.104 313.518 185.684 312.75C185.264 311.97 185.054 311.07 185.054 310.05C185.054 309.03 185.258 308.136 185.666 307.368C186.074 306.6 186.644 306.012 187.376 305.604C188.12 305.184 188.972 304.974 189.932 304.974C190.868 304.974 191.696 305.178 192.416 305.586C193.136 305.994 193.688 306.558 194.072 307.278C194.468 307.986 194.666 308.79 194.666 309.69ZM192.974 309.348C192.974 308.724 192.836 308.19 192.56 307.746C192.284 307.29 191.906 306.948 191.426 306.72C190.958 306.48 190.436 306.36 189.86 306.36C189.032 306.36 188.324 306.624 187.736 307.152C187.16 307.68 186.83 308.412 186.746 309.348H192.974ZM203.265 306.738C203.553 306.174 203.961 305.736 204.489 305.424C205.029 305.112 205.683 304.956 206.451 304.956V306.648H206.019C204.183 306.648 203.265 307.644 203.265 309.636V315H201.627V305.136H203.265V306.738ZM207.73 310.032C207.73 309.024 207.934 308.142 208.342 307.386C208.75 306.618 209.308 306.024 210.016 305.604C210.736 305.184 211.534 304.974 212.41 304.974C213.274 304.974 214.024 305.16 214.66 305.532C215.296 305.904 215.77 306.372 216.082 306.936V305.136H217.738V315H216.082V313.164C215.758 313.74 215.272 314.22 214.624 314.604C213.988 314.976 213.244 315.162 212.392 315.162C211.516 315.162 210.724 314.946 210.016 314.514C209.308 314.082 208.75 313.476 208.342 312.696C207.934 311.916 207.73 311.028 207.73 310.032ZM216.082 310.05C216.082 309.306 215.932 308.658 215.632 308.106C215.332 307.554 214.924 307.134 214.408 306.846C213.904 306.546 213.346 306.396 212.734 306.396C212.122 306.396 211.564 306.54 211.06 306.828C210.556 307.116 210.154 307.536 209.854 308.088C209.554 308.64 209.404 309.288 209.404 310.032C209.404 310.788 209.554 311.448 209.854 312.012C210.154 312.564 210.556 312.99 211.06 313.29C211.564 313.578 212.122 313.722 212.734 313.722C213.346 313.722 213.904 313.578 214.408 313.29C214.924 312.99 215.332 312.564 215.632 312.012C215.932 311.448 216.082 310.794 216.082 310.05ZM222.144 306.954C222.468 306.39 222.948 305.922 223.584 305.55C224.232 305.166 224.982 304.974 225.834 304.974C226.71 304.974 227.502 305.184 228.21 305.604C228.93 306.024 229.494 306.618 229.902 307.386C230.31 308.142 230.514 309.024 230.514 310.032C230.514 311.028 230.31 311.916 229.902 312.696C229.494 313.476 228.93 314.082 228.21 314.514C227.502 314.946 226.71 315.162 225.834 315.162C224.994 315.162 224.25 314.976 223.602 314.604C222.966 314.22 222.48 313.746 222.144 313.182V319.68H220.506V305.136H222.144V306.954ZM228.84 310.032C228.84 309.288 228.69 308.64 228.39 308.088C228.09 307.536 227.682 307.116 227.166 306.828C226.662 306.54 226.104 306.396 225.492 306.396C224.892 306.396 224.334 306.546 223.818 306.846C223.314 307.134 222.906 307.56 222.594 308.124C222.294 308.676 222.144 309.318 222.144 310.05C222.144 310.794 222.294 311.448 222.594 312.012C222.906 312.564 223.314 312.99 223.818 313.29C224.334 313.578 224.892 313.722 225.492 313.722C226.104 313.722 226.662 313.578 227.166 313.29C227.682 312.99 228.09 312.564 228.39 312.012C228.69 311.448 228.84 310.788 228.84 310.032ZM233.516 303.534C233.204 303.534 232.94 303.426 232.724 303.21C232.508 302.994 232.4 302.73 232.4 302.418C232.4 302.106 232.508 301.842 232.724 301.626C232.94 301.41 233.204 301.302 233.516 301.302C233.816 301.302 234.068 301.41 234.272 301.626C234.488 301.842 234.596 302.106 234.596 302.418C234.596 302.73 234.488 302.994 234.272 303.21C234.068 303.426 233.816 303.534 233.516 303.534ZM234.308 305.136V315H232.67V305.136H234.308ZM236.488 310.032C236.488 309.024 236.692 308.142 237.1 307.386C237.508 306.618 238.066 306.024 238.774 305.604C239.494 305.184 240.298 304.974 241.186 304.974C241.954 304.974 242.668 305.154 243.328 305.514C243.988 305.862 244.492 306.324 244.84 306.9V301.68H246.496V315H244.84V313.146C244.516 313.734 244.036 314.22 243.4 314.604C242.764 314.976 242.02 315.162 241.168 315.162C240.292 315.162 239.494 314.946 238.774 314.514C238.066 314.082 237.508 313.476 237.1 312.696C236.692 311.916 236.488 311.028 236.488 310.032ZM244.84 310.05C244.84 309.306 244.69 308.658 244.39 308.106C244.09 307.554 243.682 307.134 243.166 306.846C242.662 306.546 242.104 306.396 241.492 306.396C240.88 306.396 240.322 306.54 239.818 306.828C239.314 307.116 238.912 307.536 238.612 308.088C238.312 308.64 238.162 309.288 238.162 310.032C238.162 310.788 238.312 311.448 238.612 312.012C238.912 312.564 239.314 312.99 239.818 313.29C240.322 313.578 240.88 313.722 241.492 313.722C242.104 313.722 242.662 313.578 243.166 313.29C243.682 312.99 244.09 312.564 244.39 312.012C244.69 311.448 244.84 310.794 244.84 310.05ZM250.902 301.68V315H249.264V301.68H250.902ZM262.19 305.136L256.25 319.644H254.558L256.502 314.892L252.524 305.136H254.342L257.438 313.128L260.498 305.136H262.19Z" fill="#282828"/>
<g clip-path="url(#clip0_2111_2)">
<circle cx="180" cy="391.5" r="22.5" fill="#F3F4F6"/>
<path d="M179.911 396.411L181.089 397.589L186.678 392L181.089 386.411L179.911 387.589L183.488 391.166H175.5V392.833H183.488L179.911 396.411Z" fill="#6157F7"/>
</g>
</g>
<defs>
<filter id="filter0_d_2111_2" x="0" y="0" width="360" height="466" filterUnits="userSpaceOnUse" color-interpolation-filters="sRGB">
<feFlood flood-opacity="0" result="BackgroundImageFix"/>
<feColorMatrix in="SourceAlpha" type="matrix" values="0 0 0 0 0 0 0 0 0 0 0 0 0 0 0 0 0 0 127 0" result="hardAlpha"/>
<feOffset dy="4"/>
<feGaussianBlur stdDeviation="2"/>
<feComposite in2="hardAlpha" operator="out"/>
<feColorMatrix type="matrix" values="0 0 0 0 0 0 0 0 0 0 0 0 0 0 0 0 0 0 0.25 0"/>
<feBlend mode="normal" in2="BackgroundImageFix" result="effect1_dropShadow_2111_2"/>
<feBlend mode="normal" in="SourceGraphic" in2="effect1_dropShadow_2111_2" result="shape"/>
</filter>
<filter id="filter1_d_2111_2" x="127.5" y="44" width="105" height="105" filterUnits="userSpaceOnUse" color-interpolation-filters="sRGB">
<feFlood flood-opacity="0" result="BackgroundImageFix"/>
<feColorMatrix in="SourceAlpha" type="matrix" values="0 0 0 0 0 0 0 0 0 0 0 0 0 0 0 0 0 0 127 0" result="hardAlpha"/>
<feOffset dy="4"/>
<feGaussianBlur stdDeviation="2"/>
<feComposite in2="hardAlpha" operator="out"/>
<feColorMatrix type="matrix" values="0 0 0 0 0 0 0 0 0 0 0 0 0 0 0 0 0 0 0.25 0"/>
<feBlend mode="normal" in2="BackgroundImageFix" result="effect1_dropShadow_2111_2"/>
<feBlend mode="normal" in="SourceGraphic" in2="effect1_dropShadow_2111_2" result="shape"/>
</filter>
<clipPath id="clip0_2111_2">
<rect width="45" height="45" fill="white" transform="translate(157.5 369)"/>
</clipPath>
</defs>
</svg>
