<svg width="372" height="478" viewBox="0 0 372 478" fill="none" xmlns="http://www.w3.org/2000/svg">
<g filter="url(#filter0_d_2111_58)">
<rect x="10" width="352" height="458" rx="20" fill="#4C40F7" shape-rendering="crispEdges"/>
<g filter="url(#filter1_d_2111_58)">
<circle cx="186" cy="92.5" r="48.5" fill="white"/>
<rect width="40" height="40" transform="translate(165 73)" fill="white"/>
<path d="M200 84.6667H190C189.558 84.6667 189.134 84.8423 188.822 85.1548C188.509 85.4674 188.333 85.8913 188.333 86.3333V91.3333H185V79.6667C185 79.2246 184.825 78.8007 184.512 78.4882C184.199 78.1756 183.776 78 183.333 78H170C169.558 78 169.134 78.1756 168.822 78.4882C168.509 78.8007 168.333 79.2246 168.333 79.6667V106.333C168.333 106.775 168.509 107.199 168.822 107.512C169.134 107.824 169.558 108 170 108H200C200.442 108 200.866 107.824 201.179 107.512C201.491 107.199 201.667 106.775 201.667 106.333V86.3333C201.667 85.8913 201.491 85.4674 201.179 85.1548C200.866 84.8423 200.442 84.6667 200 84.6667ZM178.333 83H181.667V86.3333H178.333V83ZM175 99.6667H171.667V96.3333H175V99.6667ZM175 93H171.667V89.6667H175V93ZM175 86.3333H171.667V83H175V86.3333ZM181.667 99.6667H178.333V96.3333H181.667V99.6667ZM181.667 93H178.333V89.6667H181.667V93ZM196.667 99.6667H193.333V96.3333H196.667V99.6667ZM196.667 93H193.333V89.6667H196.667V93Z" fill="#4C40F7"/>
</g>
<path d="M110.945 198.84C111.731 198.987 112.378 199.38 112.885 200.02C113.391 200.66 113.645 201.393 113.645 202.22C113.645 202.967 113.458 203.627 113.085 204.2C112.725 204.76 112.198 205.2 111.505 205.52C110.811 205.84 109.991 206 109.045 206H103.025V192.04H108.785C109.731 192.04 110.545 192.193 111.225 192.5C111.918 192.807 112.438 193.233 112.785 193.78C113.145 194.327 113.325 194.947 113.325 195.64C113.325 196.453 113.105 197.133 112.665 197.68C112.238 198.227 111.665 198.613 110.945 198.84ZM105.825 197.8H108.385C109.051 197.8 109.565 197.653 109.925 197.36C110.285 197.053 110.465 196.62 110.465 196.06C110.465 195.5 110.285 195.067 109.925 194.76C109.565 194.453 109.051 194.3 108.385 194.3H105.825V197.8ZM108.645 203.72C109.325 203.72 109.851 203.56 110.225 203.24C110.611 202.92 110.805 202.467 110.805 201.88C110.805 201.28 110.605 200.813 110.205 200.48C109.805 200.133 109.265 199.96 108.585 199.96H105.825V203.72H108.645ZM126.336 194.92V206H123.516V204.6C123.156 205.08 122.683 205.46 122.096 205.74C121.523 206.007 120.896 206.14 120.216 206.14C119.349 206.14 118.583 205.96 117.916 205.6C117.249 205.227 116.723 204.687 116.336 203.98C115.963 203.26 115.776 202.407 115.776 201.42V194.92H118.576V201.02C118.576 201.9 118.796 202.58 119.236 203.06C119.676 203.527 120.276 203.76 121.036 203.76C121.809 203.76 122.416 203.527 122.856 203.06C123.296 202.58 123.516 201.9 123.516 201.02V194.92H126.336ZM133.339 206.18C132.432 206.18 131.619 206.02 130.899 205.7C130.179 205.367 129.605 204.92 129.179 204.36C128.765 203.8 128.539 203.18 128.499 202.5H131.319C131.372 202.927 131.579 203.28 131.939 203.56C132.312 203.84 132.772 203.98 133.319 203.98C133.852 203.98 134.265 203.873 134.559 203.66C134.865 203.447 135.019 203.173 135.019 202.84C135.019 202.48 134.832 202.213 134.459 202.04C134.099 201.853 133.519 201.653 132.719 201.44C131.892 201.24 131.212 201.033 130.679 200.82C130.159 200.607 129.705 200.28 129.319 199.84C128.945 199.4 128.759 198.807 128.759 198.06C128.759 197.447 128.932 196.887 129.279 196.38C129.639 195.873 130.145 195.473 130.799 195.18C131.465 194.887 132.245 194.74 133.139 194.74C134.459 194.74 135.512 195.073 136.299 195.74C137.085 196.393 137.519 197.28 137.599 198.4H134.919C134.879 197.96 134.692 197.613 134.359 197.36C134.039 197.093 133.605 196.96 133.059 196.96C132.552 196.96 132.159 197.053 131.879 197.24C131.612 197.427 131.479 197.687 131.479 198.02C131.479 198.393 131.665 198.68 132.039 198.88C132.412 199.067 132.992 199.26 133.779 199.46C134.579 199.66 135.239 199.867 135.759 200.08C136.279 200.293 136.725 200.627 137.099 201.08C137.485 201.52 137.685 202.107 137.699 202.84C137.699 203.48 137.519 204.053 137.159 204.56C136.812 205.067 136.305 205.467 135.639 205.76C134.985 206.04 134.219 206.18 133.339 206.18ZM141.417 193.6C140.924 193.6 140.511 193.447 140.177 193.14C139.857 192.82 139.697 192.427 139.697 191.96C139.697 191.493 139.857 191.107 140.177 190.8C140.511 190.48 140.924 190.32 141.417 190.32C141.911 190.32 142.317 190.48 142.637 190.8C142.971 191.107 143.137 191.493 143.137 191.96C143.137 192.427 142.971 192.82 142.637 193.14C142.317 193.447 141.911 193.6 141.417 193.6ZM142.797 194.92V206H139.997V194.92H142.797ZM151.704 194.76C153.024 194.76 154.09 195.18 154.904 196.02C155.717 196.847 156.124 198.007 156.124 199.5V206H153.324V199.88C153.324 199 153.104 198.327 152.664 197.86C152.224 197.38 151.624 197.14 150.864 197.14C150.09 197.14 149.477 197.38 149.024 197.86C148.584 198.327 148.364 199 148.364 199.88V206H145.564V194.92H148.364V196.3C148.737 195.82 149.21 195.447 149.784 195.18C150.37 194.9 151.01 194.76 151.704 194.76ZM169.086 200.22C169.086 200.62 169.06 200.98 169.006 201.3H160.906C160.973 202.1 161.253 202.727 161.746 203.18C162.24 203.633 162.846 203.86 163.566 203.86C164.606 203.86 165.346 203.413 165.786 202.52H168.806C168.486 203.587 167.873 204.467 166.966 205.16C166.06 205.84 164.946 206.18 163.626 206.18C162.56 206.18 161.6 205.947 160.746 205.48C159.906 205 159.246 204.327 158.766 203.46C158.3 202.593 158.066 201.593 158.066 200.46C158.066 199.313 158.3 198.307 158.766 197.44C159.233 196.573 159.886 195.907 160.726 195.44C161.566 194.973 162.533 194.74 163.626 194.74C164.68 194.74 165.62 194.967 166.446 195.42C167.286 195.873 167.933 196.52 168.386 197.36C168.853 198.187 169.086 199.14 169.086 200.22ZM166.186 199.42C166.173 198.7 165.913 198.127 165.406 197.7C164.9 197.26 164.28 197.04 163.546 197.04C162.853 197.04 162.266 197.253 161.786 197.68C161.32 198.093 161.033 198.673 160.926 199.42H166.186ZM175.37 206.18C174.463 206.18 173.65 206.02 172.93 205.7C172.21 205.367 171.637 204.92 171.21 204.36C170.797 203.8 170.57 203.18 170.53 202.5H173.35C173.403 202.927 173.61 203.28 173.97 203.56C174.343 203.84 174.803 203.98 175.35 203.98C175.883 203.98 176.297 203.873 176.59 203.66C176.897 203.447 177.05 203.173 177.05 202.84C177.05 202.48 176.863 202.213 176.49 202.04C176.13 201.853 175.55 201.653 174.75 201.44C173.923 201.24 173.243 201.033 172.71 200.82C172.19 200.607 171.737 200.28 171.35 199.84C170.977 199.4 170.79 198.807 170.79 198.06C170.79 197.447 170.963 196.887 171.31 196.38C171.67 195.873 172.177 195.473 172.83 195.18C173.497 194.887 174.277 194.74 175.17 194.74C176.49 194.74 177.543 195.073 178.33 195.74C179.117 196.393 179.55 197.28 179.63 198.4H176.95C176.91 197.96 176.723 197.613 176.39 197.36C176.07 197.093 175.637 196.96 175.09 196.96C174.583 196.96 174.19 197.053 173.91 197.24C173.643 197.427 173.51 197.687 173.51 198.02C173.51 198.393 173.697 198.68 174.07 198.88C174.443 199.067 175.023 199.26 175.81 199.46C176.61 199.66 177.27 199.867 177.79 200.08C178.31 200.293 178.757 200.627 179.13 201.08C179.517 201.52 179.717 202.107 179.73 202.84C179.73 203.48 179.55 204.053 179.19 204.56C178.843 205.067 178.337 205.467 177.67 205.76C177.017 206.04 176.25 206.18 175.37 206.18ZM186.268 206.18C185.362 206.18 184.548 206.02 183.828 205.7C183.108 205.367 182.535 204.92 182.108 204.36C181.695 203.8 181.468 203.18 181.428 202.5H184.248C184.302 202.927 184.508 203.28 184.868 203.56C185.242 203.84 185.702 203.98 186.248 203.98C186.782 203.98 187.195 203.873 187.488 203.66C187.795 203.447 187.948 203.173 187.948 202.84C187.948 202.48 187.762 202.213 187.388 202.04C187.028 201.853 186.448 201.653 185.648 201.44C184.822 201.24 184.142 201.033 183.608 200.82C183.088 200.607 182.635 200.28 182.248 199.84C181.875 199.4 181.688 198.807 181.688 198.06C181.688 197.447 181.862 196.887 182.208 196.38C182.568 195.873 183.075 195.473 183.728 195.18C184.395 194.887 185.175 194.74 186.068 194.74C187.388 194.74 188.442 195.073 189.228 195.74C190.015 196.393 190.448 197.28 190.528 198.4H187.848C187.808 197.96 187.622 197.613 187.288 197.36C186.968 197.093 186.535 196.96 185.988 196.96C185.482 196.96 185.088 197.053 184.808 197.24C184.542 197.427 184.408 197.687 184.408 198.02C184.408 198.393 184.595 198.68 184.968 198.88C185.342 199.067 185.922 199.26 186.708 199.46C187.508 199.66 188.168 199.867 188.688 200.08C189.208 200.293 189.655 200.627 190.028 201.08C190.415 201.52 190.615 202.107 190.628 202.84C190.628 203.48 190.448 204.053 190.088 204.56C189.742 205.067 189.235 205.467 188.568 205.76C187.915 206.04 187.148 206.18 186.268 206.18ZM207.413 196.24C207.093 195.653 206.653 195.207 206.093 194.9C205.533 194.593 204.879 194.44 204.133 194.44C203.306 194.44 202.573 194.627 201.933 195C201.293 195.373 200.793 195.907 200.433 196.6C200.073 197.293 199.893 198.093 199.893 199C199.893 199.933 200.073 200.747 200.433 201.44C200.806 202.133 201.319 202.667 201.973 203.04C202.626 203.413 203.386 203.6 204.253 203.6C205.319 203.6 206.193 203.32 206.872 202.76C207.553 202.187 207.999 201.393 208.213 200.38H203.413V198.24H210.973V200.68C210.786 201.653 210.386 202.553 209.773 203.38C209.159 204.207 208.366 204.873 207.393 205.38C206.433 205.873 205.353 206.12 204.153 206.12C202.806 206.12 201.586 205.82 200.493 205.22C199.413 204.607 198.559 203.76 197.933 202.68C197.319 201.6 197.013 200.373 197.013 199C197.013 197.627 197.319 196.4 197.933 195.32C198.559 194.227 199.413 193.38 200.493 192.78C201.586 192.167 202.799 191.86 204.133 191.86C205.706 191.86 207.073 192.247 208.233 193.02C209.393 193.78 210.193 194.853 210.633 196.24H207.413ZM215.844 196.64C216.204 196.053 216.671 195.593 217.244 195.26C217.831 194.927 218.497 194.76 219.244 194.76V197.7H218.504C217.624 197.7 216.957 197.907 216.504 198.32C216.064 198.733 215.844 199.453 215.844 200.48V206H213.044V194.92H215.844V196.64ZM226.05 206.18C224.983 206.18 224.023 205.947 223.17 205.48C222.317 205 221.643 204.327 221.15 203.46C220.67 202.593 220.43 201.593 220.43 200.46C220.43 199.327 220.677 198.327 221.17 197.46C221.677 196.593 222.363 195.927 223.23 195.46C224.097 194.98 225.063 194.74 226.13 194.74C227.197 194.74 228.163 194.98 229.03 195.46C229.897 195.927 230.577 196.593 231.07 197.46C231.577 198.327 231.83 199.327 231.83 200.46C231.83 201.593 231.57 202.593 231.05 203.46C230.543 204.327 229.85 205 228.97 205.48C228.103 205.947 227.13 206.18 226.05 206.18ZM226.05 203.74C226.557 203.74 227.03 203.62 227.47 203.38C227.923 203.127 228.283 202.753 228.55 202.26C228.817 201.767 228.95 201.167 228.95 200.46C228.95 199.407 228.67 198.6 228.11 198.04C227.563 197.467 226.89 197.18 226.09 197.18C225.29 197.18 224.617 197.467 224.07 198.04C223.537 198.6 223.27 199.407 223.27 200.46C223.27 201.513 223.53 202.327 224.05 202.9C224.583 203.46 225.25 203.74 226.05 203.74ZM249.244 194.92L246.004 206H242.984L240.964 198.26L238.944 206H235.904L232.644 194.92H235.484L237.444 203.36L239.564 194.92H242.524L244.604 203.34L246.564 194.92H249.244ZM254.019 197.22V202.58C254.019 202.953 254.106 203.227 254.279 203.4C254.466 203.56 254.772 203.64 255.199 203.64H256.499V206H254.739C252.379 206 251.199 204.853 251.199 202.56V197.22H249.879V194.92H251.199V192.18H254.019V194.92H256.499V197.22H254.019ZM264.753 194.76C265.593 194.76 266.339 194.947 266.993 195.32C267.646 195.68 268.153 196.22 268.513 196.94C268.886 197.647 269.073 198.5 269.073 199.5V206H266.273V199.88C266.273 199 266.053 198.327 265.613 197.86C265.173 197.38 264.573 197.14 263.813 197.14C263.039 197.14 262.426 197.38 261.973 197.86C261.533 198.327 261.313 199 261.313 199.88V206H258.513V191.2H261.313V196.3C261.673 195.82 262.153 195.447 262.753 195.18C263.353 194.9 264.019 194.76 264.753 194.76Z" fill="white"/>
<path d="M78.5163 238.454L74.8803 251H73.0443L70.1283 240.902L67.1043 251L65.2863 251.018L61.7763 238.454H63.5223L66.2583 249.092L69.2823 238.454H71.1183L73.9983 249.056L76.7523 238.454H78.5163ZM89.3089 245.69C89.3089 246.002 89.2909 246.332 89.2549 246.68H81.3709C81.4309 247.652 81.7609 248.414 82.3609 248.966C82.9729 249.506 83.7109 249.776 84.5749 249.776C85.2829 249.776 85.8709 249.614 86.3389 249.29C86.8189 248.954 87.1549 248.51 87.3469 247.958H89.1109C88.8469 248.906 88.3189 249.68 87.5269 250.28C86.7349 250.868 85.7509 251.162 84.5749 251.162C83.6389 251.162 82.7989 250.952 82.0549 250.532C81.3229 250.112 80.7469 249.518 80.3269 248.75C79.9069 247.97 79.6969 247.07 79.6969 246.05C79.6969 245.03 79.9009 244.136 80.3089 243.368C80.7169 242.6 81.2869 242.012 82.0189 241.604C82.7629 241.184 83.6149 240.974 84.5749 240.974C85.5109 240.974 86.3389 241.178 87.0589 241.586C87.7789 241.994 88.3309 242.558 88.7149 243.278C89.1109 243.986 89.3089 244.79 89.3089 245.69ZM87.6169 245.348C87.6169 244.724 87.4789 244.19 87.2029 243.746C86.9269 243.29 86.5489 242.948 86.0689 242.72C85.6009 242.48 85.0789 242.36 84.5029 242.36C83.6749 242.36 82.9669 242.624 82.3789 243.152C81.8029 243.68 81.4729 244.412 81.3889 245.348H87.6169ZM95.6578 246.032C95.6578 245.024 95.8618 244.142 96.2698 243.386C96.6778 242.618 97.2358 242.024 97.9438 241.604C98.6638 241.184 99.4618 240.974 100.338 240.974C101.202 240.974 101.952 241.16 102.588 241.532C103.224 241.904 103.698 242.372 104.01 242.936V241.136H105.666V251H104.01V249.164C103.686 249.74 103.2 250.22 102.552 250.604C101.916 250.976 101.172 251.162 100.32 251.162C99.4438 251.162 98.6518 250.946 97.9438 250.514C97.2358 250.082 96.6778 249.476 96.2698 248.696C95.8618 247.916 95.6578 247.028 95.6578 246.032ZM104.01 246.05C104.01 245.306 103.86 244.658 103.56 244.106C103.26 243.554 102.852 243.134 102.336 242.846C101.832 242.546 101.274 242.396 100.662 242.396C100.05 242.396 99.4918 242.54 98.9878 242.828C98.4838 243.116 98.0818 243.536 97.7818 244.088C97.4818 244.64 97.3318 245.288 97.3318 246.032C97.3318 246.788 97.4818 247.448 97.7818 248.012C98.0818 248.564 98.4838 248.99 98.9878 249.29C99.4918 249.578 100.05 249.722 100.662 249.722C101.274 249.722 101.832 249.578 102.336 249.29C102.852 248.99 103.26 248.564 103.56 248.012C103.86 247.448 104.01 246.794 104.01 246.05ZM110.072 237.68V251H108.434V237.68H110.072ZM116.356 251.162C115.6 251.162 114.922 251.036 114.322 250.784C113.722 250.52 113.248 250.16 112.9 249.704C112.552 249.236 112.36 248.702 112.324 248.102H114.016C114.064 248.594 114.292 248.996 114.7 249.308C115.12 249.62 115.666 249.776 116.338 249.776C116.962 249.776 117.454 249.638 117.814 249.362C118.174 249.086 118.354 248.738 118.354 248.318C118.354 247.886 118.162 247.568 117.778 247.364C117.394 247.148 116.8 246.938 115.996 246.734C115.264 246.542 114.664 246.35 114.196 246.158C113.74 245.954 113.344 245.66 113.008 245.276C112.684 244.88 112.522 244.364 112.522 243.728C112.522 243.224 112.672 242.762 112.972 242.342C113.272 241.922 113.698 241.592 114.25 241.352C114.802 241.1 115.432 240.974 116.14 240.974C117.232 240.974 118.114 241.25 118.786 241.802C119.458 242.354 119.818 243.11 119.866 244.07H118.228C118.192 243.554 117.982 243.14 117.598 242.828C117.226 242.516 116.722 242.36 116.086 242.36C115.498 242.36 115.03 242.486 114.682 242.738C114.334 242.99 114.16 243.32 114.16 243.728C114.16 244.052 114.262 244.322 114.466 244.538C114.682 244.742 114.946 244.91 115.258 245.042C115.582 245.162 116.026 245.3 116.59 245.456C117.298 245.648 117.874 245.84 118.318 246.032C118.762 246.212 119.14 246.488 119.452 246.86C119.776 247.232 119.944 247.718 119.956 248.318C119.956 248.858 119.806 249.344 119.506 249.776C119.206 250.208 118.78 250.55 118.228 250.802C117.688 251.042 117.064 251.162 116.356 251.162ZM126.57 251.162C125.646 251.162 124.806 250.952 124.05 250.532C123.306 250.112 122.718 249.518 122.286 248.75C121.866 247.97 121.656 247.07 121.656 246.05C121.656 245.042 121.872 244.154 122.304 243.386C122.748 242.606 123.348 242.012 124.104 241.604C124.86 241.184 125.706 240.974 126.642 240.974C127.578 240.974 128.424 241.184 129.18 241.604C129.936 242.012 130.53 242.6 130.962 243.368C131.406 244.136 131.628 245.03 131.628 246.05C131.628 247.07 131.4 247.97 130.944 248.75C130.5 249.518 129.894 250.112 129.126 250.532C128.358 250.952 127.506 251.162 126.57 251.162ZM126.57 249.722C127.158 249.722 127.71 249.584 128.226 249.308C128.742 249.032 129.156 248.618 129.468 248.066C129.792 247.514 129.954 246.842 129.954 246.05C129.954 245.258 129.798 244.586 129.486 244.034C129.174 243.482 128.766 243.074 128.262 242.81C127.758 242.534 127.212 242.396 126.624 242.396C126.024 242.396 125.472 242.534 124.968 242.81C124.476 243.074 124.08 243.482 123.78 244.034C123.48 244.586 123.33 245.258 123.33 246.05C123.33 246.854 123.474 247.532 123.762 248.084C124.062 248.636 124.458 249.05 124.95 249.326C125.442 249.59 125.982 249.722 126.57 249.722ZM140.218 242.954C140.542 242.39 141.022 241.922 141.658 241.55C142.306 241.166 143.056 240.974 143.908 240.974C144.784 240.974 145.576 241.184 146.284 241.604C147.004 242.024 147.568 242.618 147.976 243.386C148.384 244.142 148.588 245.024 148.588 246.032C148.588 247.028 148.384 247.916 147.976 248.696C147.568 249.476 147.004 250.082 146.284 250.514C145.576 250.946 144.784 251.162 143.908 251.162C143.068 251.162 142.324 250.976 141.676 250.604C141.04 250.22 140.554 249.746 140.218 249.182V255.68H138.58V241.136H140.218V242.954ZM146.914 246.032C146.914 245.288 146.764 244.64 146.464 244.088C146.164 243.536 145.756 243.116 145.24 242.828C144.736 242.54 144.178 242.396 143.566 242.396C142.966 242.396 142.408 242.546 141.892 242.846C141.388 243.134 140.98 243.56 140.668 244.124C140.368 244.676 140.218 245.318 140.218 246.05C140.218 246.794 140.368 247.448 140.668 248.012C140.98 248.564 141.388 248.99 141.892 249.29C142.408 249.578 142.966 249.722 143.566 249.722C144.178 249.722 144.736 249.578 145.24 249.29C145.756 248.99 146.164 248.564 146.464 248.012C146.764 247.448 146.914 246.788 146.914 246.032ZM152.382 242.738C152.67 242.174 153.078 241.736 153.606 241.424C154.146 241.112 154.8 240.956 155.568 240.956V242.648H155.136C153.3 242.648 152.382 243.644 152.382 245.636V251H150.744V241.136H152.382V242.738ZM161.761 251.162C160.837 251.162 159.997 250.952 159.241 250.532C158.497 250.112 157.909 249.518 157.477 248.75C157.057 247.97 156.847 247.07 156.847 246.05C156.847 245.042 157.063 244.154 157.495 243.386C157.939 242.606 158.539 242.012 159.295 241.604C160.051 241.184 160.897 240.974 161.833 240.974C162.769 240.974 163.615 241.184 164.371 241.604C165.127 242.012 165.721 242.6 166.153 243.368C166.597 244.136 166.819 245.03 166.819 246.05C166.819 247.07 166.591 247.97 166.135 248.75C165.691 249.518 165.085 250.112 164.317 250.532C163.549 250.952 162.697 251.162 161.761 251.162ZM161.761 249.722C162.349 249.722 162.901 249.584 163.417 249.308C163.933 249.032 164.347 248.618 164.659 248.066C164.983 247.514 165.145 246.842 165.145 246.05C165.145 245.258 164.989 244.586 164.677 244.034C164.365 243.482 163.957 243.074 163.453 242.81C162.949 242.534 162.403 242.396 161.815 242.396C161.215 242.396 160.663 242.534 160.159 242.81C159.667 243.074 159.271 243.482 158.971 244.034C158.671 244.586 158.521 245.258 158.521 246.05C158.521 246.854 158.665 247.532 158.953 248.084C159.253 248.636 159.649 249.05 160.141 249.326C160.633 249.59 161.173 249.722 161.761 249.722ZM172.645 249.488L175.705 241.136H177.451L173.581 251H171.673L167.803 241.136H169.567L172.645 249.488ZM179.909 239.534C179.597 239.534 179.333 239.426 179.117 239.21C178.901 238.994 178.793 238.73 178.793 238.418C178.793 238.106 178.901 237.842 179.117 237.626C179.333 237.41 179.597 237.302 179.909 237.302C180.209 237.302 180.461 237.41 180.665 237.626C180.881 237.842 180.989 238.106 180.989 238.418C180.989 238.73 180.881 238.994 180.665 239.21C180.461 239.426 180.209 239.534 179.909 239.534ZM180.701 241.136V251H179.063V241.136H180.701ZM182.88 246.032C182.88 245.024 183.084 244.142 183.492 243.386C183.9 242.618 184.458 242.024 185.166 241.604C185.886 241.184 186.69 240.974 187.578 240.974C188.346 240.974 189.06 241.154 189.72 241.514C190.38 241.862 190.884 242.324 191.232 242.9V237.68H192.888V251H191.232V249.146C190.908 249.734 190.428 250.22 189.792 250.604C189.156 250.976 188.412 251.162 187.56 251.162C186.684 251.162 185.886 250.946 185.166 250.514C184.458 250.082 183.9 249.476 183.492 248.696C183.084 247.916 182.88 247.028 182.88 246.032ZM191.232 246.05C191.232 245.306 191.082 244.658 190.782 244.106C190.482 243.554 190.074 243.134 189.558 242.846C189.054 242.546 188.496 242.396 187.884 242.396C187.272 242.396 186.714 242.54 186.21 242.828C185.706 243.116 185.304 243.536 185.004 244.088C184.704 244.64 184.554 245.288 184.554 246.032C184.554 246.788 184.704 247.448 185.004 248.012C185.304 248.564 185.706 248.99 186.21 249.29C186.714 249.578 187.272 249.722 187.884 249.722C188.496 249.722 189.054 249.578 189.558 249.29C190.074 248.99 190.482 248.564 190.782 248.012C191.082 247.448 191.232 246.794 191.232 246.05ZM204.657 245.69C204.657 246.002 204.639 246.332 204.603 246.68H196.719C196.779 247.652 197.109 248.414 197.709 248.966C198.321 249.506 199.059 249.776 199.923 249.776C200.631 249.776 201.219 249.614 201.687 249.29C202.167 248.954 202.503 248.51 202.695 247.958H204.459C204.195 248.906 203.667 249.68 202.875 250.28C202.083 250.868 201.099 251.162 199.923 251.162C198.987 251.162 198.147 250.952 197.403 250.532C196.671 250.112 196.095 249.518 195.675 248.75C195.255 247.97 195.045 247.07 195.045 246.05C195.045 245.03 195.249 244.136 195.657 243.368C196.065 242.6 196.635 242.012 197.367 241.604C198.111 241.184 198.963 240.974 199.923 240.974C200.859 240.974 201.687 241.178 202.407 241.586C203.127 241.994 203.679 242.558 204.063 243.278C204.459 243.986 204.657 244.79 204.657 245.69ZM202.965 245.348C202.965 244.724 202.827 244.19 202.551 243.746C202.275 243.29 201.897 242.948 201.417 242.72C200.949 242.48 200.427 242.36 199.851 242.36C199.023 242.36 198.315 242.624 197.727 243.152C197.151 243.68 196.821 244.412 196.737 245.348H202.965ZM215.109 251.162C214.353 251.162 213.675 251.036 213.075 250.784C212.475 250.52 212.001 250.16 211.653 249.704C211.305 249.236 211.113 248.702 211.077 248.102H212.769C212.817 248.594 213.045 248.996 213.453 249.308C213.873 249.62 214.419 249.776 215.091 249.776C215.715 249.776 216.207 249.638 216.567 249.362C216.927 249.086 217.107 248.738 217.107 248.318C217.107 247.886 216.915 247.568 216.531 247.364C216.147 247.148 215.553 246.938 214.749 246.734C214.017 246.542 213.417 246.35 212.949 246.158C212.493 245.954 212.097 245.66 211.761 245.276C211.437 244.88 211.275 244.364 211.275 243.728C211.275 243.224 211.425 242.762 211.725 242.342C212.025 241.922 212.451 241.592 213.003 241.352C213.555 241.1 214.185 240.974 214.893 240.974C215.985 240.974 216.867 241.25 217.539 241.802C218.211 242.354 218.571 243.11 218.619 244.07H216.981C216.945 243.554 216.735 243.14 216.351 242.828C215.979 242.516 215.475 242.36 214.839 242.36C214.251 242.36 213.783 242.486 213.435 242.738C213.087 242.99 212.913 243.32 212.913 243.728C212.913 244.052 213.015 244.322 213.219 244.538C213.435 244.742 213.699 244.91 214.011 245.042C214.335 245.162 214.779 245.3 215.343 245.456C216.051 245.648 216.627 245.84 217.071 246.032C217.515 246.212 217.893 246.488 218.205 246.86C218.529 247.232 218.697 247.718 218.709 248.318C218.709 248.858 218.559 249.344 218.259 249.776C217.959 250.208 217.533 250.55 216.981 250.802C216.441 251.042 215.817 251.162 215.109 251.162ZM230.022 245.69C230.022 246.002 230.004 246.332 229.968 246.68H222.084C222.144 247.652 222.474 248.414 223.074 248.966C223.686 249.506 224.424 249.776 225.288 249.776C225.996 249.776 226.584 249.614 227.052 249.29C227.532 248.954 227.868 248.51 228.06 247.958H229.824C229.56 248.906 229.032 249.68 228.24 250.28C227.448 250.868 226.464 251.162 225.288 251.162C224.352 251.162 223.512 250.952 222.768 250.532C222.036 250.112 221.46 249.518 221.04 248.75C220.62 247.97 220.41 247.07 220.41 246.05C220.41 245.03 220.614 244.136 221.022 243.368C221.43 242.6 222 242.012 222.732 241.604C223.476 241.184 224.328 240.974 225.288 240.974C226.224 240.974 227.052 241.178 227.772 241.586C228.492 241.994 229.044 242.558 229.428 243.278C229.824 243.986 230.022 244.79 230.022 245.69ZM228.33 245.348C228.33 244.724 228.192 244.19 227.916 243.746C227.64 243.29 227.262 242.948 226.782 242.72C226.314 242.48 225.792 242.36 225.216 242.36C224.388 242.36 223.68 242.624 223.092 243.152C222.516 243.68 222.186 244.412 222.102 245.348H228.33ZM233.822 242.738C234.11 242.174 234.518 241.736 235.046 241.424C235.586 241.112 236.24 240.956 237.008 240.956V242.648H236.576C234.74 242.648 233.822 243.644 233.822 245.636V251H232.184V241.136H233.822V242.738ZM242.571 249.488L245.631 241.136H247.377L243.507 251H241.599L237.729 241.136H239.493L242.571 249.488ZM249.835 239.534C249.523 239.534 249.259 239.426 249.043 239.21C248.827 238.994 248.719 238.73 248.719 238.418C248.719 238.106 248.827 237.842 249.043 237.626C249.259 237.41 249.523 237.302 249.835 237.302C250.135 237.302 250.387 237.41 250.591 237.626C250.807 237.842 250.915 238.106 250.915 238.418C250.915 238.73 250.807 238.994 250.591 239.21C250.387 239.426 250.135 239.534 249.835 239.534ZM250.627 241.136V251H248.989V241.136H250.627ZM252.806 246.05C252.806 245.03 253.01 244.142 253.418 243.386C253.826 242.618 254.39 242.024 255.11 241.604C255.842 241.184 256.676 240.974 257.612 240.974C258.824 240.974 259.82 241.268 260.6 241.856C261.392 242.444 261.914 243.26 262.166 244.304H260.402C260.234 243.704 259.904 243.23 259.412 242.882C258.932 242.534 258.332 242.36 257.612 242.36C256.676 242.36 255.92 242.684 255.344 243.332C254.768 243.968 254.48 244.874 254.48 246.05C254.48 247.238 254.768 248.156 255.344 248.804C255.92 249.452 256.676 249.776 257.612 249.776C258.332 249.776 258.932 249.608 259.412 249.272C259.892 248.936 260.222 248.456 260.402 247.832H262.166C261.902 248.84 261.374 249.65 260.582 250.262C259.79 250.862 258.8 251.162 257.612 251.162C256.676 251.162 255.842 250.952 255.11 250.532C254.39 250.112 253.826 249.518 253.418 248.75C253.01 247.982 252.806 247.082 252.806 246.05ZM273.352 245.69C273.352 246.002 273.334 246.332 273.298 246.68H265.414C265.474 247.652 265.804 248.414 266.404 248.966C267.016 249.506 267.754 249.776 268.618 249.776C269.326 249.776 269.914 249.614 270.382 249.29C270.862 248.954 271.198 248.51 271.39 247.958H273.154C272.89 248.906 272.362 249.68 271.57 250.28C270.778 250.868 269.794 251.162 268.618 251.162C267.682 251.162 266.842 250.952 266.098 250.532C265.366 250.112 264.79 249.518 264.37 248.75C263.95 247.97 263.74 247.07 263.74 246.05C263.74 245.03 263.944 244.136 264.352 243.368C264.76 242.6 265.33 242.012 266.062 241.604C266.806 241.184 267.658 240.974 268.618 240.974C269.554 240.974 270.382 241.178 271.102 241.586C271.822 241.994 272.374 242.558 272.758 243.278C273.154 243.986 273.352 244.79 273.352 245.69ZM271.66 245.348C271.66 244.724 271.522 244.19 271.246 243.746C270.97 243.29 270.592 242.948 270.112 242.72C269.644 242.48 269.122 242.36 268.546 242.36C267.718 242.36 267.01 242.624 266.422 243.152C265.846 243.68 265.516 244.412 265.432 245.348H271.66ZM279.006 251.162C278.25 251.162 277.572 251.036 276.972 250.784C276.372 250.52 275.898 250.16 275.55 249.704C275.202 249.236 275.01 248.702 274.974 248.102H276.666C276.714 248.594 276.942 248.996 277.35 249.308C277.77 249.62 278.316 249.776 278.988 249.776C279.612 249.776 280.104 249.638 280.464 249.362C280.824 249.086 281.004 248.738 281.004 248.318C281.004 247.886 280.812 247.568 280.428 247.364C280.044 247.148 279.45 246.938 278.646 246.734C277.914 246.542 277.314 246.35 276.846 246.158C276.39 245.954 275.994 245.66 275.658 245.276C275.334 244.88 275.172 244.364 275.172 243.728C275.172 243.224 275.322 242.762 275.622 242.342C275.922 241.922 276.348 241.592 276.9 241.352C277.452 241.1 278.082 240.974 278.79 240.974C279.882 240.974 280.764 241.25 281.436 241.802C282.108 242.354 282.468 243.11 282.516 244.07H280.878C280.842 243.554 280.632 243.14 280.248 242.828C279.876 242.516 279.372 242.36 278.736 242.36C278.148 242.36 277.68 242.486 277.332 242.738C276.984 242.99 276.81 243.32 276.81 243.728C276.81 244.052 276.912 244.322 277.116 244.538C277.332 244.742 277.596 244.91 277.908 245.042C278.232 245.162 278.676 245.3 279.24 245.456C279.948 245.648 280.524 245.84 280.968 246.032C281.412 246.212 281.79 246.488 282.102 246.86C282.426 247.232 282.594 247.718 282.606 248.318C282.606 248.858 282.456 249.344 282.156 249.776C281.856 250.208 281.43 250.55 280.878 250.802C280.338 251.042 279.714 251.162 279.006 251.162ZM291.355 242.972C291.691 242.384 292.183 241.904 292.831 241.532C293.479 241.16 294.217 240.974 295.045 240.974C295.933 240.974 296.731 241.184 297.439 241.604C298.147 242.024 298.705 242.618 299.113 243.386C299.521 244.142 299.725 245.024 299.725 246.032C299.725 247.028 299.521 247.916 299.113 248.696C298.705 249.476 298.141 250.082 297.421 250.514C296.713 250.946 295.921 251.162 295.045 251.162C294.193 251.162 293.443 250.976 292.795 250.604C292.159 250.232 291.679 249.758 291.355 249.182V251H289.717V237.68H291.355V242.972ZM298.051 246.032C298.051 245.288 297.901 244.64 297.601 244.088C297.301 243.536 296.893 243.116 296.377 242.828C295.873 242.54 295.315 242.396 294.703 242.396C294.103 242.396 293.545 242.546 293.029 242.846C292.525 243.134 292.117 243.56 291.805 244.124C291.505 244.676 291.355 245.318 291.355 246.05C291.355 246.794 291.505 247.448 291.805 248.012C292.117 248.564 292.525 248.99 293.029 249.29C293.545 249.578 294.103 249.722 294.703 249.722C295.315 249.722 295.873 249.578 296.377 249.29C296.893 248.99 297.301 248.564 297.601 248.012C297.901 247.448 298.051 246.788 298.051 246.032ZM310.377 241.136L304.437 255.644H302.745L304.689 250.892L300.711 241.136H302.529L305.625 249.128L308.685 241.136H310.377ZM84.1265 274.954C84.4505 274.39 84.9305 273.922 85.5665 273.55C86.2145 273.166 86.9645 272.974 87.8165 272.974C88.6925 272.974 89.4845 273.184 90.1925 273.604C90.9125 274.024 91.4765 274.618 91.8845 275.386C92.2925 276.142 92.4965 277.024 92.4965 278.032C92.4965 279.028 92.2925 279.916 91.8845 280.696C91.4765 281.476 90.9125 282.082 90.1925 282.514C89.4845 282.946 88.6925 283.162 87.8165 283.162C86.9765 283.162 86.2325 282.976 85.5845 282.604C84.9485 282.22 84.4625 281.746 84.1265 281.182V287.68H82.4885V273.136H84.1265V274.954ZM90.8225 278.032C90.8225 277.288 90.6725 276.64 90.3725 276.088C90.0725 275.536 89.6645 275.116 89.1485 274.828C88.6445 274.54 88.0865 274.396 87.4745 274.396C86.8745 274.396 86.3165 274.546 85.8005 274.846C85.2965 275.134 84.8885 275.56 84.5765 276.124C84.2765 276.676 84.1265 277.318 84.1265 278.05C84.1265 278.794 84.2765 279.448 84.5765 280.012C84.8885 280.564 85.2965 280.99 85.8005 281.29C86.3165 281.578 86.8745 281.722 87.4745 281.722C88.0865 281.722 88.6445 281.578 89.1485 281.29C89.6645 280.99 90.0725 280.564 90.3725 280.012C90.6725 279.448 90.8225 278.788 90.8225 278.032ZM96.2906 274.738C96.5786 274.174 96.9866 273.736 97.5146 273.424C98.0546 273.112 98.7086 272.956 99.4766 272.956V274.648H99.0446C97.2086 274.648 96.2906 275.644 96.2906 277.636V283H94.6526V273.136H96.2906V274.738ZM105.669 283.162C104.745 283.162 103.905 282.952 103.149 282.532C102.405 282.112 101.817 281.518 101.385 280.75C100.965 279.97 100.755 279.07 100.755 278.05C100.755 277.042 100.971 276.154 101.403 275.386C101.847 274.606 102.447 274.012 103.203 273.604C103.959 273.184 104.805 272.974 105.741 272.974C106.677 272.974 107.523 273.184 108.279 273.604C109.035 274.012 109.629 274.6 110.061 275.368C110.505 276.136 110.727 277.03 110.727 278.05C110.727 279.07 110.499 279.97 110.043 280.75C109.599 281.518 108.993 282.112 108.225 282.532C107.457 282.952 106.605 283.162 105.669 283.162ZM105.669 281.722C106.257 281.722 106.809 281.584 107.325 281.308C107.841 281.032 108.255 280.618 108.567 280.066C108.891 279.514 109.053 278.842 109.053 278.05C109.053 277.258 108.897 276.586 108.585 276.034C108.273 275.482 107.865 275.074 107.361 274.81C106.857 274.534 106.311 274.396 105.723 274.396C105.123 274.396 104.571 274.534 104.067 274.81C103.575 275.074 103.179 275.482 102.879 276.034C102.579 276.586 102.429 277.258 102.429 278.05C102.429 278.854 102.573 279.532 102.861 280.084C103.161 280.636 103.557 281.05 104.049 281.326C104.541 281.59 105.081 281.722 105.669 281.722ZM116.553 281.488L119.613 273.136H121.359L117.489 283H115.581L111.711 273.136H113.475L116.553 281.488ZM123.817 271.534C123.505 271.534 123.241 271.426 123.025 271.21C122.809 270.994 122.701 270.73 122.701 270.418C122.701 270.106 122.809 269.842 123.025 269.626C123.241 269.41 123.505 269.302 123.817 269.302C124.117 269.302 124.369 269.41 124.573 269.626C124.789 269.842 124.897 270.106 124.897 270.418C124.897 270.73 124.789 270.994 124.573 271.21C124.369 271.426 124.117 271.534 123.817 271.534ZM124.609 273.136V283H122.971V273.136H124.609ZM126.789 278.032C126.789 277.024 126.993 276.142 127.401 275.386C127.809 274.618 128.367 274.024 129.075 273.604C129.795 273.184 130.599 272.974 131.487 272.974C132.255 272.974 132.969 273.154 133.629 273.514C134.289 273.862 134.793 274.324 135.141 274.9V269.68H136.797V283H135.141V281.146C134.817 281.734 134.337 282.22 133.701 282.604C133.065 282.976 132.321 283.162 131.469 283.162C130.593 283.162 129.795 282.946 129.075 282.514C128.367 282.082 127.809 281.476 127.401 280.696C126.993 279.916 126.789 279.028 126.789 278.032ZM135.141 278.05C135.141 277.306 134.991 276.658 134.691 276.106C134.391 275.554 133.983 275.134 133.467 274.846C132.963 274.546 132.405 274.396 131.793 274.396C131.181 274.396 130.623 274.54 130.119 274.828C129.615 275.116 129.213 275.536 128.913 276.088C128.613 276.64 128.463 277.288 128.463 278.032C128.463 278.788 128.613 279.448 128.913 280.012C129.213 280.564 129.615 280.99 130.119 281.29C130.623 281.578 131.181 281.722 131.793 281.722C132.405 281.722 132.963 281.578 133.467 281.29C133.983 280.99 134.391 280.564 134.691 280.012C134.991 279.448 135.141 278.794 135.141 278.05ZM140.411 271.534C140.099 271.534 139.835 271.426 139.619 271.21C139.403 270.994 139.295 270.73 139.295 270.418C139.295 270.106 139.403 269.842 139.619 269.626C139.835 269.41 140.099 269.302 140.411 269.302C140.711 269.302 140.963 269.41 141.167 269.626C141.383 269.842 141.491 270.106 141.491 270.418C141.491 270.73 141.383 270.994 141.167 271.21C140.963 271.426 140.711 271.534 140.411 271.534ZM141.203 273.136V283H139.565V273.136H141.203ZM148.8 272.956C150 272.956 150.972 273.322 151.716 274.054C152.46 274.774 152.832 275.818 152.832 277.186V283H151.212V277.42C151.212 276.436 150.966 275.686 150.474 275.17C149.982 274.642 149.31 274.378 148.458 274.378C147.594 274.378 146.904 274.648 146.388 275.188C145.884 275.728 145.632 276.514 145.632 277.546V283H143.994V273.136H145.632V274.54C145.956 274.036 146.394 273.646 146.946 273.37C147.51 273.094 148.128 272.956 148.8 272.956ZM159.576 272.974C160.428 272.974 161.172 273.16 161.808 273.532C162.456 273.904 162.936 274.372 163.248 274.936V273.136H164.904V283.216C164.904 284.116 164.712 284.914 164.328 285.61C163.944 286.318 163.392 286.87 162.672 287.266C161.964 287.662 161.136 287.86 160.188 287.86C158.892 287.86 157.812 287.554 156.948 286.942C156.084 286.33 155.574 285.496 155.418 284.44H157.038C157.218 285.04 157.59 285.52 158.154 285.88C158.718 286.252 159.396 286.438 160.188 286.438C161.088 286.438 161.82 286.156 162.384 285.592C162.96 285.028 163.248 284.236 163.248 283.216V281.146C162.924 281.722 162.444 282.202 161.808 282.586C161.172 282.97 160.428 283.162 159.576 283.162C158.7 283.162 157.902 282.946 157.182 282.514C156.474 282.082 155.916 281.476 155.508 280.696C155.1 279.916 154.896 279.028 154.896 278.032C154.896 277.024 155.1 276.142 155.508 275.386C155.916 274.618 156.474 274.024 157.182 273.604C157.902 273.184 158.7 272.974 159.576 272.974ZM163.248 278.05C163.248 277.306 163.098 276.658 162.798 276.106C162.498 275.554 162.09 275.134 161.574 274.846C161.07 274.546 160.512 274.396 159.9 274.396C159.288 274.396 158.73 274.54 158.226 274.828C157.722 275.116 157.32 275.536 157.02 276.088C156.72 276.64 156.57 277.288 156.57 278.032C156.57 278.788 156.72 279.448 157.02 280.012C157.32 280.564 157.722 280.99 158.226 281.29C158.73 281.578 159.288 281.722 159.9 281.722C160.512 281.722 161.07 281.578 161.574 281.29C162.09 280.99 162.498 280.564 162.798 280.012C163.098 279.448 163.248 278.794 163.248 278.05ZM173.317 271.534C173.005 271.534 172.741 271.426 172.525 271.21C172.309 270.994 172.201 270.73 172.201 270.418C172.201 270.106 172.309 269.842 172.525 269.626C172.741 269.41 173.005 269.302 173.317 269.302C173.617 269.302 173.869 269.41 174.073 269.626C174.289 269.842 174.397 270.106 174.397 270.418C174.397 270.73 174.289 270.994 174.073 271.21C173.869 271.426 173.617 271.534 173.317 271.534ZM174.109 273.136V283H172.471V273.136H174.109ZM181.707 272.956C182.907 272.956 183.879 273.322 184.623 274.054C185.367 274.774 185.739 275.818 185.739 277.186V283H184.119V277.42C184.119 276.436 183.873 275.686 183.381 275.17C182.889 274.642 182.217 274.378 181.365 274.378C180.501 274.378 179.811 274.648 179.295 275.188C178.791 275.728 178.539 276.514 178.539 277.546V283H176.901V273.136H178.539V274.54C178.863 274.036 179.301 273.646 179.853 273.37C180.417 273.094 181.035 272.956 181.707 272.956ZM190.052 274.954C190.376 274.39 190.856 273.922 191.492 273.55C192.14 273.166 192.89 272.974 193.742 272.974C194.618 272.974 195.41 273.184 196.118 273.604C196.838 274.024 197.402 274.618 197.81 275.386C198.218 276.142 198.422 277.024 198.422 278.032C198.422 279.028 198.218 279.916 197.81 280.696C197.402 281.476 196.838 282.082 196.118 282.514C195.41 282.946 194.618 283.162 193.742 283.162C192.902 283.162 192.158 282.976 191.51 282.604C190.874 282.22 190.388 281.746 190.052 281.182V287.68H188.414V273.136H190.052V274.954ZM196.748 278.032C196.748 277.288 196.598 276.64 196.298 276.088C195.998 275.536 195.59 275.116 195.074 274.828C194.57 274.54 194.012 274.396 193.4 274.396C192.8 274.396 192.242 274.546 191.726 274.846C191.222 275.134 190.814 275.56 190.502 276.124C190.202 276.676 190.052 277.318 190.052 278.05C190.052 278.794 190.202 279.448 190.502 280.012C190.814 280.564 191.222 280.99 191.726 281.29C192.242 281.578 192.8 281.722 193.4 281.722C194.012 281.722 194.57 281.578 195.074 281.29C195.59 280.99 195.998 280.564 196.298 280.012C196.598 279.448 196.748 278.788 196.748 278.032ZM209.326 273.136V283H207.688V281.542C207.376 282.046 206.938 282.442 206.374 282.73C205.822 283.006 205.21 283.144 204.538 283.144C203.77 283.144 203.08 282.988 202.468 282.676C201.856 282.352 201.37 281.872 201.01 281.236C200.662 280.6 200.488 279.826 200.488 278.914V273.136H202.108V278.698C202.108 279.67 202.354 280.42 202.846 280.948C203.338 281.464 204.01 281.722 204.862 281.722C205.738 281.722 206.428 281.452 206.932 280.912C207.436 280.372 207.688 279.586 207.688 278.554V273.136H209.326ZM214.09 274.486V280.3C214.09 280.78 214.192 281.122 214.396 281.326C214.6 281.518 214.954 281.614 215.458 281.614H216.664V283H215.188C214.276 283 213.592 282.79 213.136 282.37C212.68 281.95 212.452 281.26 212.452 280.3V274.486H211.174V273.136H212.452V270.652H214.09V273.136H216.664V274.486H214.09ZM227.462 274.486H225.392V283H223.754V274.486H222.476V273.136H223.754V272.434C223.754 271.33 224.036 270.526 224.6 270.022C225.176 269.506 226.094 269.248 227.354 269.248V270.616C226.634 270.616 226.124 270.76 225.824 271.048C225.536 271.324 225.392 271.786 225.392 272.434V273.136H227.462V274.486ZM233.673 283.162C232.749 283.162 231.909 282.952 231.153 282.532C230.409 282.112 229.821 281.518 229.389 280.75C228.969 279.97 228.759 279.07 228.759 278.05C228.759 277.042 228.975 276.154 229.407 275.386C229.851 274.606 230.451 274.012 231.207 273.604C231.963 273.184 232.809 272.974 233.745 272.974C234.681 272.974 235.527 273.184 236.283 273.604C237.039 274.012 237.633 274.6 238.065 275.368C238.509 276.136 238.731 277.03 238.731 278.05C238.731 279.07 238.503 279.97 238.047 280.75C237.603 281.518 236.997 282.112 236.229 282.532C235.461 282.952 234.609 283.162 233.673 283.162ZM233.673 281.722C234.261 281.722 234.813 281.584 235.329 281.308C235.845 281.032 236.259 280.618 236.571 280.066C236.895 279.514 237.057 278.842 237.057 278.05C237.057 277.258 236.901 276.586 236.589 276.034C236.277 275.482 235.869 275.074 235.365 274.81C234.861 274.534 234.315 274.396 233.727 274.396C233.127 274.396 232.575 274.534 232.071 274.81C231.579 275.074 231.183 275.482 230.883 276.034C230.583 276.586 230.433 277.258 230.433 278.05C230.433 278.854 230.577 279.532 230.865 280.084C231.165 280.636 231.561 281.05 232.053 281.326C232.545 281.59 233.085 281.722 233.673 281.722ZM242.523 274.738C242.811 274.174 243.219 273.736 243.747 273.424C244.287 273.112 244.941 272.956 245.709 272.956V274.648H245.277C243.441 274.648 242.523 275.644 242.523 277.636V283H240.885V273.136H242.523V274.738ZM260.895 273.136L254.955 287.644H253.263L255.207 282.892L251.229 273.136H253.047L256.143 281.128L259.203 273.136H260.895ZM266.843 283.162C265.919 283.162 265.079 282.952 264.323 282.532C263.579 282.112 262.991 281.518 262.559 280.75C262.139 279.97 261.929 279.07 261.929 278.05C261.929 277.042 262.145 276.154 262.577 275.386C263.021 274.606 263.621 274.012 264.377 273.604C265.133 273.184 265.979 272.974 266.915 272.974C267.851 272.974 268.697 273.184 269.453 273.604C270.209 274.012 270.803 274.6 271.235 275.368C271.679 276.136 271.901 277.03 271.901 278.05C271.901 279.07 271.673 279.97 271.217 280.75C270.773 281.518 270.167 282.112 269.399 282.532C268.631 282.952 267.779 283.162 266.843 283.162ZM266.843 281.722C267.431 281.722 267.983 281.584 268.499 281.308C269.015 281.032 269.429 280.618 269.741 280.066C270.065 279.514 270.227 278.842 270.227 278.05C270.227 277.258 270.071 276.586 269.759 276.034C269.447 275.482 269.039 275.074 268.535 274.81C268.031 274.534 267.485 274.396 266.897 274.396C266.297 274.396 265.745 274.534 265.241 274.81C264.749 275.074 264.353 275.482 264.053 276.034C263.753 276.586 263.603 277.258 263.603 278.05C263.603 278.854 263.747 279.532 264.035 280.084C264.335 280.636 264.731 281.05 265.223 281.326C265.715 281.59 266.255 281.722 266.843 281.722ZM282.803 273.136V283H281.165V281.542C280.853 282.046 280.415 282.442 279.851 282.73C279.299 283.006 278.687 283.144 278.015 283.144C277.247 283.144 276.557 282.988 275.945 282.676C275.333 282.352 274.847 281.872 274.487 281.236C274.139 280.6 273.965 279.826 273.965 278.914V273.136H275.585V278.698C275.585 279.67 275.831 280.42 276.323 280.948C276.815 281.464 277.487 281.722 278.339 281.722C279.215 281.722 279.905 281.452 280.409 280.912C280.913 280.372 281.165 279.586 281.165 278.554V273.136H282.803ZM287.207 274.738C287.495 274.174 287.903 273.736 288.431 273.424C288.971 273.112 289.625 272.956 290.393 272.956V274.648H289.961C288.125 274.648 287.207 275.644 287.207 277.636V283H285.569V273.136H287.207V274.738ZM115.512 306.972C115.848 306.384 116.34 305.904 116.988 305.532C117.636 305.16 118.374 304.974 119.202 304.974C120.09 304.974 120.888 305.184 121.596 305.604C122.304 306.024 122.862 306.618 123.27 307.386C123.678 308.142 123.882 309.024 123.882 310.032C123.882 311.028 123.678 311.916 123.27 312.696C122.862 313.476 122.298 314.082 121.578 314.514C120.87 314.946 120.078 315.162 119.202 315.162C118.35 315.162 117.6 314.976 116.952 314.604C116.316 314.232 115.836 313.758 115.512 313.182V315H113.874V301.68H115.512V306.972ZM122.208 310.032C122.208 309.288 122.058 308.64 121.758 308.088C121.458 307.536 121.05 307.116 120.534 306.828C120.03 306.54 119.472 306.396 118.86 306.396C118.26 306.396 117.702 306.546 117.186 306.846C116.682 307.134 116.274 307.56 115.962 308.124C115.662 308.676 115.512 309.318 115.512 310.05C115.512 310.794 115.662 311.448 115.962 312.012C116.274 312.564 116.682 312.99 117.186 313.29C117.702 313.578 118.26 313.722 118.86 313.722C119.472 313.722 120.03 313.578 120.534 313.29C121.05 312.99 121.458 312.564 121.758 312.012C122.058 311.448 122.208 310.788 122.208 310.032ZM134.786 305.136V315H133.148V313.542C132.836 314.046 132.398 314.442 131.834 314.73C131.282 315.006 130.67 315.144 129.998 315.144C129.23 315.144 128.54 314.988 127.928 314.676C127.316 314.352 126.83 313.872 126.47 313.236C126.122 312.6 125.948 311.826 125.948 310.914V305.136H127.568V310.698C127.568 311.67 127.814 312.42 128.306 312.948C128.798 313.464 129.47 313.722 130.322 313.722C131.198 313.722 131.888 313.452 132.392 312.912C132.896 312.372 133.148 311.586 133.148 310.554V305.136H134.786ZM141.044 315.162C140.288 315.162 139.61 315.036 139.01 314.784C138.41 314.52 137.936 314.16 137.588 313.704C137.24 313.236 137.048 312.702 137.012 312.102H138.704C138.752 312.594 138.98 312.996 139.388 313.308C139.808 313.62 140.354 313.776 141.026 313.776C141.65 313.776 142.142 313.638 142.502 313.362C142.862 313.086 143.042 312.738 143.042 312.318C143.042 311.886 142.85 311.568 142.466 311.364C142.082 311.148 141.488 310.938 140.684 310.734C139.952 310.542 139.352 310.35 138.884 310.158C138.428 309.954 138.032 309.66 137.696 309.276C137.372 308.88 137.21 308.364 137.21 307.728C137.21 307.224 137.36 306.762 137.66 306.342C137.96 305.922 138.386 305.592 138.938 305.352C139.49 305.1 140.12 304.974 140.828 304.974C141.92 304.974 142.802 305.25 143.474 305.802C144.146 306.354 144.506 307.11 144.554 308.07H142.916C142.88 307.554 142.67 307.14 142.286 306.828C141.914 306.516 141.41 306.36 140.774 306.36C140.186 306.36 139.718 306.486 139.37 306.738C139.022 306.99 138.848 307.32 138.848 307.728C138.848 308.052 138.95 308.322 139.154 308.538C139.37 308.742 139.634 308.91 139.946 309.042C140.27 309.162 140.714 309.3 141.278 309.456C141.986 309.648 142.562 309.84 143.006 310.032C143.45 310.212 143.828 310.488 144.14 310.86C144.464 311.232 144.632 311.718 144.644 312.318C144.644 312.858 144.494 313.344 144.194 313.776C143.894 314.208 143.468 314.55 142.916 314.802C142.376 315.042 141.752 315.162 141.044 315.162ZM147.802 303.534C147.49 303.534 147.226 303.426 147.01 303.21C146.794 302.994 146.686 302.73 146.686 302.418C146.686 302.106 146.794 301.842 147.01 301.626C147.226 301.41 147.49 301.302 147.802 301.302C148.102 301.302 148.354 301.41 148.558 301.626C148.774 301.842 148.882 302.106 148.882 302.418C148.882 302.73 148.774 302.994 148.558 303.21C148.354 303.426 148.102 303.534 147.802 303.534ZM148.594 305.136V315H146.956V305.136H148.594ZM156.192 304.956C157.392 304.956 158.364 305.322 159.108 306.054C159.852 306.774 160.224 307.818 160.224 309.186V315H158.604V309.42C158.604 308.436 158.358 307.686 157.866 307.17C157.374 306.642 156.702 306.378 155.85 306.378C154.986 306.378 154.296 306.648 153.78 307.188C153.276 307.728 153.024 308.514 153.024 309.546V315H151.386V305.136H153.024V306.54C153.348 306.036 153.786 305.646 154.338 305.37C154.902 305.094 155.52 304.956 156.192 304.956ZM171.9 309.69C171.9 310.002 171.882 310.332 171.846 310.68H163.962C164.022 311.652 164.352 312.414 164.952 312.966C165.564 313.506 166.302 313.776 167.166 313.776C167.874 313.776 168.462 313.614 168.93 313.29C169.41 312.954 169.746 312.51 169.938 311.958H171.702C171.438 312.906 170.91 313.68 170.118 314.28C169.326 314.868 168.342 315.162 167.166 315.162C166.23 315.162 165.39 314.952 164.646 314.532C163.914 314.112 163.338 313.518 162.918 312.75C162.498 311.97 162.288 311.07 162.288 310.05C162.288 309.03 162.492 308.136 162.9 307.368C163.308 306.6 163.878 306.012 164.61 305.604C165.354 305.184 166.206 304.974 167.166 304.974C168.102 304.974 168.93 305.178 169.65 305.586C170.37 305.994 170.922 306.558 171.306 307.278C171.702 307.986 171.9 308.79 171.9 309.69ZM170.208 309.348C170.208 308.724 170.07 308.19 169.794 307.746C169.518 307.29 169.14 306.948 168.66 306.72C168.192 306.48 167.67 306.36 167.094 306.36C166.266 306.36 165.558 306.624 164.97 307.152C164.394 307.68 164.064 308.412 163.98 309.348H170.208ZM177.554 315.162C176.798 315.162 176.12 315.036 175.52 314.784C174.92 314.52 174.446 314.16 174.098 313.704C173.75 313.236 173.558 312.702 173.522 312.102H175.214C175.262 312.594 175.49 312.996 175.898 313.308C176.318 313.62 176.864 313.776 177.536 313.776C178.16 313.776 178.652 313.638 179.012 313.362C179.372 313.086 179.552 312.738 179.552 312.318C179.552 311.886 179.36 311.568 178.976 311.364C178.592 311.148 177.998 310.938 177.194 310.734C176.462 310.542 175.862 310.35 175.394 310.158C174.938 309.954 174.542 309.66 174.206 309.276C173.882 308.88 173.72 308.364 173.72 307.728C173.72 307.224 173.87 306.762 174.17 306.342C174.47 305.922 174.896 305.592 175.448 305.352C176 305.1 176.63 304.974 177.338 304.974C178.43 304.974 179.312 305.25 179.984 305.802C180.656 306.354 181.016 307.11 181.064 308.07H179.426C179.39 307.554 179.18 307.14 178.796 306.828C178.424 306.516 177.92 306.36 177.284 306.36C176.696 306.36 176.228 306.486 175.88 306.738C175.532 306.99 175.358 307.32 175.358 307.728C175.358 308.052 175.46 308.322 175.664 308.538C175.88 308.742 176.144 308.91 176.456 309.042C176.78 309.162 177.224 309.3 177.788 309.456C178.496 309.648 179.072 309.84 179.516 310.032C179.96 310.212 180.338 310.488 180.65 310.86C180.974 311.232 181.142 311.718 181.154 312.318C181.154 312.858 181.004 313.344 180.704 313.776C180.404 314.208 179.978 314.55 179.426 314.802C178.886 315.042 178.262 315.162 177.554 315.162ZM186.958 315.162C186.202 315.162 185.524 315.036 184.924 314.784C184.324 314.52 183.85 314.16 183.502 313.704C183.154 313.236 182.962 312.702 182.926 312.102H184.618C184.666 312.594 184.894 312.996 185.302 313.308C185.722 313.62 186.268 313.776 186.94 313.776C187.564 313.776 188.056 313.638 188.416 313.362C188.776 313.086 188.956 312.738 188.956 312.318C188.956 311.886 188.764 311.568 188.38 311.364C187.996 311.148 187.402 310.938 186.598 310.734C185.866 310.542 185.266 310.35 184.798 310.158C184.342 309.954 183.946 309.66 183.61 309.276C183.286 308.88 183.124 308.364 183.124 307.728C183.124 307.224 183.274 306.762 183.574 306.342C183.874 305.922 184.3 305.592 184.852 305.352C185.404 305.1 186.034 304.974 186.742 304.974C187.834 304.974 188.716 305.25 189.388 305.802C190.06 306.354 190.42 307.11 190.468 308.07H188.83C188.794 307.554 188.584 307.14 188.2 306.828C187.828 306.516 187.324 306.36 186.688 306.36C186.1 306.36 185.632 306.486 185.284 306.738C184.936 306.99 184.762 307.32 184.762 307.728C184.762 308.052 184.864 308.322 185.068 308.538C185.284 308.742 185.548 308.91 185.86 309.042C186.184 309.162 186.628 309.3 187.192 309.456C187.9 309.648 188.476 309.84 188.92 310.032C189.364 310.212 189.742 310.488 190.054 310.86C190.378 311.232 190.546 311.718 190.558 312.318C190.558 312.858 190.408 313.344 190.108 313.776C189.808 314.208 189.382 314.55 188.83 314.802C188.29 315.042 187.666 315.162 186.958 315.162ZM201.737 304.974C202.589 304.974 203.333 305.16 203.969 305.532C204.617 305.904 205.097 306.372 205.409 306.936V305.136H207.065V315.216C207.065 316.116 206.873 316.914 206.489 317.61C206.105 318.318 205.553 318.87 204.833 319.266C204.125 319.662 203.297 319.86 202.349 319.86C201.053 319.86 199.973 319.554 199.109 318.942C198.245 318.33 197.735 317.496 197.579 316.44H199.199C199.379 317.04 199.751 317.52 200.315 317.88C200.879 318.252 201.557 318.438 202.349 318.438C203.249 318.438 203.981 318.156 204.545 317.592C205.121 317.028 205.409 316.236 205.409 315.216V313.146C205.085 313.722 204.605 314.202 203.969 314.586C203.333 314.97 202.589 315.162 201.737 315.162C200.861 315.162 200.063 314.946 199.343 314.514C198.635 314.082 198.077 313.476 197.669 312.696C197.261 311.916 197.057 311.028 197.057 310.032C197.057 309.024 197.261 308.142 197.669 307.386C198.077 306.618 198.635 306.024 199.343 305.604C200.063 305.184 200.861 304.974 201.737 304.974ZM205.409 310.05C205.409 309.306 205.259 308.658 204.959 308.106C204.659 307.554 204.251 307.134 203.735 306.846C203.231 306.546 202.673 306.396 202.061 306.396C201.449 306.396 200.891 306.54 200.387 306.828C199.883 307.116 199.481 307.536 199.181 308.088C198.881 308.64 198.731 309.288 198.731 310.032C198.731 310.788 198.881 311.448 199.181 312.012C199.481 312.564 199.883 312.99 200.387 313.29C200.891 313.578 201.449 313.722 202.061 313.722C202.673 313.722 203.231 313.578 203.735 313.29C204.251 312.99 204.659 312.564 204.959 312.012C205.259 311.448 205.409 310.794 205.409 310.05ZM211.471 306.738C211.759 306.174 212.167 305.736 212.695 305.424C213.235 305.112 213.889 304.956 214.657 304.956V306.648H214.225C212.389 306.648 211.471 307.644 211.471 309.636V315H209.833V305.136H211.471V306.738ZM220.85 315.162C219.926 315.162 219.086 314.952 218.33 314.532C217.586 314.112 216.998 313.518 216.566 312.75C216.146 311.97 215.936 311.07 215.936 310.05C215.936 309.042 216.152 308.154 216.584 307.386C217.028 306.606 217.628 306.012 218.384 305.604C219.14 305.184 219.986 304.974 220.922 304.974C221.858 304.974 222.704 305.184 223.46 305.604C224.216 306.012 224.81 306.6 225.242 307.368C225.686 308.136 225.908 309.03 225.908 310.05C225.908 311.07 225.68 311.97 225.224 312.75C224.78 313.518 224.174 314.112 223.406 314.532C222.638 314.952 221.786 315.162 220.85 315.162ZM220.85 313.722C221.438 313.722 221.99 313.584 222.506 313.308C223.022 313.032 223.436 312.618 223.748 312.066C224.072 311.514 224.234 310.842 224.234 310.05C224.234 309.258 224.078 308.586 223.766 308.034C223.454 307.482 223.046 307.074 222.542 306.81C222.038 306.534 221.492 306.396 220.904 306.396C220.304 306.396 219.752 306.534 219.248 306.81C218.756 307.074 218.36 307.482 218.06 308.034C217.76 308.586 217.61 309.258 217.61 310.05C217.61 310.854 217.754 311.532 218.042 312.084C218.342 312.636 218.738 313.05 219.23 313.326C219.722 313.59 220.262 313.722 220.85 313.722ZM241.202 305.136L238.124 315H236.432L234.056 307.17L231.68 315H229.988L226.892 305.136H228.566L230.834 313.416L233.282 305.136H234.956L237.35 313.434L239.582 305.136H241.202ZM244.825 306.486V312.3C244.825 312.78 244.927 313.122 245.131 313.326C245.335 313.518 245.689 313.614 246.193 313.614H247.399V315H245.923C245.011 315 244.327 314.79 243.871 314.37C243.415 313.95 243.187 313.26 243.187 312.3V306.486H241.909V305.136H243.187V302.652H244.825V305.136H247.399V306.486H244.825ZM254.28 304.956C255.024 304.956 255.696 305.118 256.296 305.442C256.896 305.754 257.364 306.228 257.7 306.864C258.048 307.5 258.222 308.274 258.222 309.186V315H256.602V309.42C256.602 308.436 256.356 307.686 255.864 307.17C255.372 306.642 254.7 306.378 253.848 306.378C252.984 306.378 252.294 306.648 251.778 307.188C251.274 307.728 251.022 308.514 251.022 309.546V315H249.384V301.68H251.022V306.54C251.346 306.036 251.79 305.646 252.354 305.37C252.93 305.094 253.572 304.956 254.28 304.956Z" fill="white"/>
<g clip-path="url(#clip0_2111_58)">
<circle cx="186" cy="391.5" r="22.5" fill="#F3F4F6"/>
<path d="M185.911 396.411L187.089 397.589L192.678 392L187.089 386.411L185.911 387.589L189.488 391.166H181.5V392.833H189.488L185.911 396.411Z" fill="#4C40F7"/>
</g>
</g>
<defs>
<filter id="filter0_d_2111_58" x="0" y="0" width="372" height="478" filterUnits="userSpaceOnUse" color-interpolation-filters="sRGB">
<feFlood flood-opacity="0" result="BackgroundImageFix"/>
<feColorMatrix in="SourceAlpha" type="matrix" values="0 0 0 0 0 0 0 0 0 0 0 0 0 0 0 0 0 0 127 0" result="hardAlpha"/>
<feOffset dy="10"/>
<feGaussianBlur stdDeviation="5"/>
<feComposite in2="hardAlpha" operator="out"/>
<feColorMatrix type="matrix" values="0 0 0 0 0.603846 0 0 0 0 0.874549 0 0 0 0 1 0 0 0 0.25 0"/>
<feBlend mode="normal" in2="BackgroundImageFix" result="effect1_dropShadow_2111_58"/>
<feBlend mode="normal" in="SourceGraphic" in2="effect1_dropShadow_2111_58" result="shape"/>
</filter>
<filter id="filter1_d_2111_58" x="107.5" y="29" width="157" height="157" filterUnits="userSpaceOnUse" color-interpolation-filters="sRGB">
<feFlood flood-opacity="0" result="BackgroundImageFix"/>
<feColorMatrix in="SourceAlpha" type="matrix" values="0 0 0 0 0 0 0 0 0 0 0 0 0 0 0 0 0 0 127 0" result="hardAlpha"/>
<feOffset dy="15"/>
<feGaussianBlur stdDeviation="15"/>
<feComposite in2="hardAlpha" operator="out"/>
<feColorMatrix type="matrix" values="0 0 0 0 1 0 0 0 0 1 0 0 0 0 1 0 0 0 1 0"/>
<feBlend mode="normal" in2="BackgroundImageFix" result="effect1_dropShadow_2111_58"/>
<feBlend mode="normal" in="SourceGraphic" in2="effect1_dropShadow_2111_58" result="shape"/>
</filter>
<clipPath id="clip0_2111_58">
<rect width="45" height="45" fill="white" transform="translate(163.5 369)"/>
</clipPath>
</defs>
</svg>
