<svg width="360" height="466" viewBox="0 0 360 466" fill="none" xmlns="http://www.w3.org/2000/svg">
<g filter="url(#filter0_d_2104_24)">
<rect x="4" width="352" height="458" rx="20" fill="#F0F0F0" shape-rendering="crispEdges"/>
<g filter="url(#filter1_d_2104_24)">
<circle cx="180" cy="92.5" r="48.5" fill="#FF2D59"/>
<path d="M179.312 84.6651H172.837C172.152 84.6649 171.485 84.8752 170.924 85.2676C170.363 85.66 169.937 86.2154 169.703 86.8584L163.437 104.095C163.215 104.703 163.367 105.385 163.823 105.843L164.312 106.332L175.015 95.6284C175.013 95.5851 175.002 95.5417 175.002 95.4984C175.002 95.0039 175.148 94.5206 175.423 94.1095C175.698 93.6984 176.088 93.3779 176.545 93.1887C177.002 92.9995 177.504 92.95 177.989 93.0464C178.474 93.1429 178.92 93.381 179.269 93.7306C179.619 94.0803 179.857 94.5257 179.953 95.0107C180.05 95.4956 180 95.9983 179.811 96.4551C179.622 96.9119 179.302 97.3024 178.89 97.5771C178.479 97.8518 177.996 97.9984 177.502 97.9984C177.458 97.9984 177.415 97.9867 177.372 97.9851L166.668 108.688L167.157 109.177C167.381 109.401 167.664 109.557 167.974 109.626C168.284 109.694 168.607 109.673 168.905 109.563L186.142 103.295C186.785 103.061 187.34 102.635 187.732 102.074C188.125 101.514 188.335 100.846 188.335 100.162V93.6867L191.667 90.3567L182.643 81.3334L179.312 84.6651ZM193.233 88.1017L184.9 79.7684L188.433 76.2334L196.767 84.5667L193.233 88.1017Z" fill="#F0F0F0"/>
</g>
<path d="M151.299 192.04C152.766 192.04 154.052 192.327 155.159 192.9C156.279 193.473 157.139 194.293 157.739 195.36C158.352 196.413 158.659 197.64 158.659 199.04C158.659 200.44 158.352 201.667 157.739 202.72C157.139 203.76 156.279 204.567 155.159 205.14C154.052 205.713 152.766 206 151.299 206H146.419V192.04H151.299ZM151.199 203.62C152.666 203.62 153.799 203.22 154.599 202.42C155.399 201.62 155.799 200.493 155.799 199.04C155.799 197.587 155.399 196.453 154.599 195.64C153.799 194.813 152.666 194.4 151.199 194.4H149.219V203.62H151.199ZM171.055 200.22C171.055 200.62 171.028 200.98 170.975 201.3H162.875C162.942 202.1 163.222 202.727 163.715 203.18C164.208 203.633 164.815 203.86 165.535 203.86C166.575 203.86 167.315 203.413 167.755 202.52H170.775C170.455 203.587 169.842 204.467 168.935 205.16C168.028 205.84 166.915 206.18 165.595 206.18C164.528 206.18 163.568 205.947 162.715 205.48C161.875 205 161.215 204.327 160.735 203.46C160.268 202.593 160.035 201.593 160.035 200.46C160.035 199.313 160.268 198.307 160.735 197.44C161.202 196.573 161.855 195.907 162.695 195.44C163.535 194.973 164.502 194.74 165.595 194.74C166.648 194.74 167.588 194.967 168.415 195.42C169.255 195.873 169.902 196.52 170.355 197.36C170.822 198.187 171.055 199.14 171.055 200.22ZM168.155 199.42C168.142 198.7 167.882 198.127 167.375 197.7C166.868 197.26 166.248 197.04 165.515 197.04C164.822 197.04 164.235 197.253 163.755 197.68C163.288 198.093 163.002 198.673 162.895 199.42H168.155ZM177.339 206.18C176.432 206.18 175.619 206.02 174.899 205.7C174.179 205.367 173.605 204.92 173.179 204.36C172.765 203.8 172.539 203.18 172.499 202.5H175.319C175.372 202.927 175.579 203.28 175.939 203.56C176.312 203.84 176.772 203.98 177.319 203.98C177.852 203.98 178.265 203.873 178.559 203.66C178.865 203.447 179.019 203.173 179.019 202.84C179.019 202.48 178.832 202.213 178.459 202.04C178.099 201.853 177.519 201.653 176.719 201.44C175.892 201.24 175.212 201.033 174.679 200.82C174.159 200.607 173.705 200.28 173.319 199.84C172.945 199.4 172.759 198.807 172.759 198.06C172.759 197.447 172.932 196.887 173.279 196.38C173.639 195.873 174.145 195.473 174.799 195.18C175.465 194.887 176.245 194.74 177.139 194.74C178.459 194.74 179.512 195.073 180.299 195.74C181.085 196.393 181.519 197.28 181.599 198.4H178.919C178.879 197.96 178.692 197.613 178.359 197.36C178.039 197.093 177.605 196.96 177.059 196.96C176.552 196.96 176.159 197.053 175.879 197.24C175.612 197.427 175.479 197.687 175.479 198.02C175.479 198.393 175.665 198.68 176.039 198.88C176.412 199.067 176.992 199.26 177.779 199.46C178.579 199.66 179.239 199.867 179.759 200.08C180.279 200.293 180.725 200.627 181.099 201.08C181.485 201.52 181.685 202.107 181.699 202.84C181.699 203.48 181.519 204.053 181.159 204.56C180.812 205.067 180.305 205.467 179.639 205.76C178.985 206.04 178.219 206.18 177.339 206.18ZM185.417 193.6C184.924 193.6 184.511 193.447 184.177 193.14C183.857 192.82 183.697 192.427 183.697 191.96C183.697 191.493 183.857 191.107 184.177 190.8C184.511 190.48 184.924 190.32 185.417 190.32C185.911 190.32 186.317 190.48 186.637 190.8C186.971 191.107 187.137 191.493 187.137 191.96C187.137 192.427 186.971 192.82 186.637 193.14C186.317 193.447 185.911 193.6 185.417 193.6ZM186.797 194.92V206H183.997V194.92H186.797ZM193.904 194.74C194.73 194.74 195.457 194.907 196.084 195.24C196.71 195.56 197.204 195.98 197.564 196.5V194.92H200.384V206.08C200.384 207.107 200.177 208.02 199.764 208.82C199.35 209.633 198.73 210.273 197.904 210.74C197.077 211.22 196.077 211.46 194.904 211.46C193.33 211.46 192.037 211.093 191.024 210.36C190.024 209.627 189.457 208.627 189.324 207.36H192.104C192.25 207.867 192.564 208.267 193.044 208.56C193.537 208.867 194.13 209.02 194.824 209.02C195.637 209.02 196.297 208.773 196.804 208.28C197.31 207.8 197.564 207.067 197.564 206.08V204.36C197.204 204.88 196.704 205.313 196.064 205.66C195.437 206.007 194.717 206.18 193.904 206.18C192.97 206.18 192.117 205.94 191.344 205.46C190.57 204.98 189.957 204.307 189.504 203.44C189.064 202.56 188.844 201.553 188.844 200.42C188.844 199.3 189.064 198.307 189.504 197.44C189.957 196.573 190.564 195.907 191.324 195.44C192.097 194.973 192.957 194.74 193.904 194.74ZM197.564 200.46C197.564 199.78 197.43 199.2 197.164 198.72C196.897 198.227 196.537 197.853 196.084 197.6C195.63 197.333 195.144 197.2 194.624 197.2C194.104 197.2 193.624 197.327 193.184 197.58C192.744 197.833 192.384 198.207 192.104 198.7C191.837 199.18 191.704 199.753 191.704 200.42C191.704 201.087 191.837 201.673 192.104 202.18C192.384 202.673 192.744 203.053 193.184 203.32C193.637 203.587 194.117 203.72 194.624 203.72C195.144 203.72 195.63 203.593 196.084 203.34C196.537 203.073 196.897 202.7 197.164 202.22C197.43 201.727 197.564 201.14 197.564 200.46ZM209.258 194.76C210.578 194.76 211.645 195.18 212.458 196.02C213.272 196.847 213.678 198.007 213.678 199.5V206H210.878V199.88C210.878 199 210.658 198.327 210.218 197.86C209.778 197.38 209.178 197.14 208.418 197.14C207.645 197.14 207.032 197.38 206.578 197.86C206.138 198.327 205.918 199 205.918 199.88V206H203.118V194.92H205.918V196.3C206.292 195.82 206.765 195.447 207.338 195.18C207.925 194.9 208.565 194.76 209.258 194.76Z" fill="#111029"/>
<path d="M69.1765 238.454L65.5405 251H63.7045L60.7885 240.902L57.7645 251L55.9465 251.018L52.4365 238.454H54.1825L56.9185 249.092L59.9425 238.454H61.7785L64.6585 249.056L67.4125 238.454H69.1765ZM79.969 245.69C79.969 246.002 79.951 246.332 79.915 246.68H72.031C72.091 247.652 72.421 248.414 73.021 248.966C73.633 249.506 74.371 249.776 75.235 249.776C75.943 249.776 76.531 249.614 76.999 249.29C77.479 248.954 77.815 248.51 78.007 247.958H79.771C79.507 248.906 78.979 249.68 78.187 250.28C77.395 250.868 76.411 251.162 75.235 251.162C74.299 251.162 73.459 250.952 72.715 250.532C71.983 250.112 71.407 249.518 70.987 248.75C70.567 247.97 70.357 247.07 70.357 246.05C70.357 245.03 70.561 244.136 70.969 243.368C71.377 242.6 71.947 242.012 72.679 241.604C73.423 241.184 74.275 240.974 75.235 240.974C76.171 240.974 76.999 241.178 77.719 241.586C78.439 241.994 78.991 242.558 79.375 243.278C79.771 243.986 79.969 244.79 79.969 245.69ZM78.277 245.348C78.277 244.724 78.139 244.19 77.863 243.746C77.587 243.29 77.209 242.948 76.729 242.72C76.261 242.48 75.739 242.36 75.163 242.36C74.335 242.36 73.627 242.624 73.039 243.152C72.463 243.68 72.133 244.412 72.049 245.348H78.277ZM88.5679 242.954C88.8919 242.39 89.3719 241.922 90.0079 241.55C90.6559 241.166 91.4059 240.974 92.2579 240.974C93.1339 240.974 93.9259 241.184 94.6339 241.604C95.3539 242.024 95.9179 242.618 96.3259 243.386C96.7339 244.142 96.9379 245.024 96.9379 246.032C96.9379 247.028 96.7339 247.916 96.3259 248.696C95.9179 249.476 95.3539 250.082 94.6339 250.514C93.9259 250.946 93.1339 251.162 92.2579 251.162C91.4179 251.162 90.6739 250.976 90.0259 250.604C89.3899 250.22 88.9039 249.746 88.5679 249.182V255.68H86.9299V241.136H88.5679V242.954ZM95.2639 246.032C95.2639 245.288 95.1139 244.64 94.8139 244.088C94.5139 243.536 94.1059 243.116 93.5899 242.828C93.0859 242.54 92.5279 242.396 91.9159 242.396C91.3159 242.396 90.7579 242.546 90.2419 242.846C89.7379 243.134 89.3299 243.56 89.0179 244.124C88.7179 244.676 88.5679 245.318 88.5679 246.05C88.5679 246.794 88.7179 247.448 89.0179 248.012C89.3299 248.564 89.7379 248.99 90.2419 249.29C90.7579 249.578 91.3159 249.722 91.9159 249.722C92.5279 249.722 93.0859 249.578 93.5899 249.29C94.1059 248.99 94.5139 248.564 94.8139 248.012C95.1139 247.448 95.2639 246.788 95.2639 246.032ZM100.732 242.738C101.02 242.174 101.428 241.736 101.956 241.424C102.496 241.112 103.15 240.956 103.918 240.956V242.648H103.486C101.65 242.648 100.732 243.644 100.732 245.636V251H99.094V241.136H100.732V242.738ZM110.111 251.162C109.187 251.162 108.347 250.952 107.591 250.532C106.847 250.112 106.259 249.518 105.827 248.75C105.407 247.97 105.197 247.07 105.197 246.05C105.197 245.042 105.413 244.154 105.845 243.386C106.289 242.606 106.889 242.012 107.645 241.604C108.401 241.184 109.247 240.974 110.183 240.974C111.119 240.974 111.965 241.184 112.721 241.604C113.477 242.012 114.071 242.6 114.503 243.368C114.947 244.136 115.169 245.03 115.169 246.05C115.169 247.07 114.941 247.97 114.485 248.75C114.041 249.518 113.435 250.112 112.667 250.532C111.899 250.952 111.047 251.162 110.111 251.162ZM110.111 249.722C110.699 249.722 111.251 249.584 111.767 249.308C112.283 249.032 112.697 248.618 113.009 248.066C113.333 247.514 113.495 246.842 113.495 246.05C113.495 245.258 113.339 244.586 113.027 244.034C112.715 243.482 112.307 243.074 111.803 242.81C111.299 242.534 110.753 242.396 110.165 242.396C109.565 242.396 109.013 242.534 108.509 242.81C108.017 243.074 107.621 243.482 107.321 244.034C107.021 244.586 106.871 245.258 106.871 246.05C106.871 246.854 107.015 247.532 107.303 248.084C107.603 248.636 107.999 249.05 108.491 249.326C108.983 249.59 109.523 249.722 110.111 249.722ZM120.995 249.488L124.055 241.136H125.801L121.931 251H120.023L116.153 241.136H117.917L120.995 249.488ZM128.258 239.534C127.946 239.534 127.682 239.426 127.466 239.21C127.25 238.994 127.142 238.73 127.142 238.418C127.142 238.106 127.25 237.842 127.466 237.626C127.682 237.41 127.946 237.302 128.258 237.302C128.558 237.302 128.81 237.41 129.014 237.626C129.23 237.842 129.338 238.106 129.338 238.418C129.338 238.73 129.23 238.994 129.014 239.21C128.81 239.426 128.558 239.534 128.258 239.534ZM129.05 241.136V251H127.412V241.136H129.05ZM131.23 246.032C131.23 245.024 131.434 244.142 131.842 243.386C132.25 242.618 132.808 242.024 133.516 241.604C134.236 241.184 135.04 240.974 135.928 240.974C136.696 240.974 137.41 241.154 138.07 241.514C138.73 241.862 139.234 242.324 139.582 242.9V237.68H141.238V251H139.582V249.146C139.258 249.734 138.778 250.22 138.142 250.604C137.506 250.976 136.762 251.162 135.91 251.162C135.034 251.162 134.236 250.946 133.516 250.514C132.808 250.082 132.25 249.476 131.842 248.696C131.434 247.916 131.23 247.028 131.23 246.032ZM139.582 246.05C139.582 245.306 139.432 244.658 139.132 244.106C138.832 243.554 138.424 243.134 137.908 242.846C137.404 242.546 136.846 242.396 136.234 242.396C135.622 242.396 135.064 242.54 134.56 242.828C134.056 243.116 133.654 243.536 133.354 244.088C133.054 244.64 132.904 245.288 132.904 246.032C132.904 246.788 133.054 247.448 133.354 248.012C133.654 248.564 134.056 248.99 134.56 249.29C135.064 249.578 135.622 249.722 136.234 249.722C136.846 249.722 137.404 249.578 137.908 249.29C138.424 248.99 138.832 248.564 139.132 248.012C139.432 247.448 139.582 246.794 139.582 246.05ZM153.006 245.69C153.006 246.002 152.988 246.332 152.952 246.68H145.068C145.128 247.652 145.458 248.414 146.058 248.966C146.67 249.506 147.408 249.776 148.272 249.776C148.98 249.776 149.568 249.614 150.036 249.29C150.516 248.954 150.852 248.51 151.044 247.958H152.808C152.544 248.906 152.016 249.68 151.224 250.28C150.432 250.868 149.448 251.162 148.272 251.162C147.336 251.162 146.496 250.952 145.752 250.532C145.02 250.112 144.444 249.518 144.024 248.75C143.604 247.97 143.394 247.07 143.394 246.05C143.394 245.03 143.598 244.136 144.006 243.368C144.414 242.6 144.984 242.012 145.716 241.604C146.46 241.184 147.312 240.974 148.272 240.974C149.208 240.974 150.036 241.178 150.756 241.586C151.476 241.994 152.028 242.558 152.412 243.278C152.808 243.986 153.006 244.79 153.006 245.69ZM151.314 245.348C151.314 244.724 151.176 244.19 150.9 243.746C150.624 243.29 150.246 242.948 149.766 242.72C149.298 242.48 148.776 242.36 148.2 242.36C147.372 242.36 146.664 242.624 146.076 243.152C145.5 243.68 145.17 244.412 145.086 245.348H151.314ZM163.459 251.162C162.703 251.162 162.025 251.036 161.425 250.784C160.825 250.52 160.351 250.16 160.003 249.704C159.655 249.236 159.463 248.702 159.427 248.102H161.119C161.167 248.594 161.395 248.996 161.803 249.308C162.223 249.62 162.769 249.776 163.441 249.776C164.065 249.776 164.557 249.638 164.917 249.362C165.277 249.086 165.457 248.738 165.457 248.318C165.457 247.886 165.265 247.568 164.881 247.364C164.497 247.148 163.903 246.938 163.099 246.734C162.367 246.542 161.767 246.35 161.299 246.158C160.843 245.954 160.447 245.66 160.111 245.276C159.787 244.88 159.625 244.364 159.625 243.728C159.625 243.224 159.775 242.762 160.075 242.342C160.375 241.922 160.801 241.592 161.353 241.352C161.905 241.1 162.535 240.974 163.243 240.974C164.335 240.974 165.217 241.25 165.889 241.802C166.561 242.354 166.921 243.11 166.969 244.07H165.331C165.295 243.554 165.085 243.14 164.701 242.828C164.329 242.516 163.825 242.36 163.189 242.36C162.601 242.36 162.133 242.486 161.785 242.738C161.437 242.99 161.263 243.32 161.263 243.728C161.263 244.052 161.365 244.322 161.569 244.538C161.785 244.742 162.049 244.91 162.361 245.042C162.685 245.162 163.129 245.3 163.693 245.456C164.401 245.648 164.977 245.84 165.421 246.032C165.865 246.212 166.243 246.488 166.555 246.86C166.879 247.232 167.047 247.718 167.059 248.318C167.059 248.858 166.909 249.344 166.609 249.776C166.309 250.208 165.883 250.55 165.331 250.802C164.791 251.042 164.167 251.162 163.459 251.162ZM178.371 245.69C178.371 246.002 178.353 246.332 178.317 246.68H170.433C170.493 247.652 170.823 248.414 171.423 248.966C172.035 249.506 172.773 249.776 173.637 249.776C174.345 249.776 174.933 249.614 175.401 249.29C175.881 248.954 176.217 248.51 176.409 247.958H178.173C177.909 248.906 177.381 249.68 176.589 250.28C175.797 250.868 174.813 251.162 173.637 251.162C172.701 251.162 171.861 250.952 171.117 250.532C170.385 250.112 169.809 249.518 169.389 248.75C168.969 247.97 168.759 247.07 168.759 246.05C168.759 245.03 168.963 244.136 169.371 243.368C169.779 242.6 170.349 242.012 171.081 241.604C171.825 241.184 172.677 240.974 173.637 240.974C174.573 240.974 175.401 241.178 176.121 241.586C176.841 241.994 177.393 242.558 177.777 243.278C178.173 243.986 178.371 244.79 178.371 245.69ZM176.679 245.348C176.679 244.724 176.541 244.19 176.265 243.746C175.989 243.29 175.611 242.948 175.131 242.72C174.663 242.48 174.141 242.36 173.565 242.36C172.737 242.36 172.029 242.624 171.441 243.152C170.865 243.68 170.535 244.412 170.451 245.348H176.679ZM182.171 242.738C182.459 242.174 182.867 241.736 183.395 241.424C183.935 241.112 184.589 240.956 185.357 240.956V242.648H184.925C183.089 242.648 182.171 243.644 182.171 245.636V251H180.533V241.136H182.171V242.738ZM190.92 249.488L193.98 241.136H195.726L191.856 251H189.948L186.078 241.136H187.842L190.92 249.488ZM198.184 239.534C197.872 239.534 197.608 239.426 197.392 239.21C197.176 238.994 197.068 238.73 197.068 238.418C197.068 238.106 197.176 237.842 197.392 237.626C197.608 237.41 197.872 237.302 198.184 237.302C198.484 237.302 198.736 237.41 198.94 237.626C199.156 237.842 199.264 238.106 199.264 238.418C199.264 238.73 199.156 238.994 198.94 239.21C198.736 239.426 198.484 239.534 198.184 239.534ZM198.976 241.136V251H197.338V241.136H198.976ZM201.156 246.05C201.156 245.03 201.36 244.142 201.768 243.386C202.176 242.618 202.74 242.024 203.46 241.604C204.192 241.184 205.026 240.974 205.962 240.974C207.174 240.974 208.17 241.268 208.95 241.856C209.742 242.444 210.264 243.26 210.516 244.304H208.752C208.584 243.704 208.254 243.23 207.762 242.882C207.282 242.534 206.682 242.36 205.962 242.36C205.026 242.36 204.27 242.684 203.694 243.332C203.118 243.968 202.83 244.874 202.83 246.05C202.83 247.238 203.118 248.156 203.694 248.804C204.27 249.452 205.026 249.776 205.962 249.776C206.682 249.776 207.282 249.608 207.762 249.272C208.242 248.936 208.572 248.456 208.752 247.832H210.516C210.252 248.84 209.724 249.65 208.932 250.262C208.14 250.862 207.15 251.162 205.962 251.162C205.026 251.162 204.192 250.952 203.46 250.532C202.74 250.112 202.176 249.518 201.768 248.75C201.36 247.982 201.156 247.082 201.156 246.05ZM221.701 245.69C221.701 246.002 221.683 246.332 221.647 246.68H213.763C213.823 247.652 214.153 248.414 214.753 248.966C215.365 249.506 216.103 249.776 216.967 249.776C217.675 249.776 218.263 249.614 218.731 249.29C219.211 248.954 219.547 248.51 219.739 247.958H221.503C221.239 248.906 220.711 249.68 219.919 250.28C219.127 250.868 218.143 251.162 216.967 251.162C216.031 251.162 215.191 250.952 214.447 250.532C213.715 250.112 213.139 249.518 212.719 248.75C212.299 247.97 212.089 247.07 212.089 246.05C212.089 245.03 212.293 244.136 212.701 243.368C213.109 242.6 213.679 242.012 214.411 241.604C215.155 241.184 216.007 240.974 216.967 240.974C217.903 240.974 218.731 241.178 219.451 241.586C220.171 241.994 220.723 242.558 221.107 243.278C221.503 243.986 221.701 244.79 221.701 245.69ZM220.009 245.348C220.009 244.724 219.871 244.19 219.595 243.746C219.319 243.29 218.941 242.948 218.461 242.72C217.993 242.48 217.471 242.36 216.895 242.36C216.067 242.36 215.359 242.624 214.771 243.152C214.195 243.68 213.865 244.412 213.781 245.348H220.009ZM227.356 251.162C226.6 251.162 225.922 251.036 225.322 250.784C224.722 250.52 224.248 250.16 223.9 249.704C223.552 249.236 223.36 248.702 223.324 248.102H225.016C225.064 248.594 225.292 248.996 225.7 249.308C226.12 249.62 226.666 249.776 227.338 249.776C227.962 249.776 228.454 249.638 228.814 249.362C229.174 249.086 229.354 248.738 229.354 248.318C229.354 247.886 229.162 247.568 228.778 247.364C228.394 247.148 227.8 246.938 226.996 246.734C226.264 246.542 225.664 246.35 225.196 246.158C224.74 245.954 224.344 245.66 224.008 245.276C223.684 244.88 223.522 244.364 223.522 243.728C223.522 243.224 223.672 242.762 223.972 242.342C224.272 241.922 224.698 241.592 225.25 241.352C225.802 241.1 226.432 240.974 227.14 240.974C228.232 240.974 229.114 241.25 229.786 241.802C230.458 242.354 230.818 243.11 230.866 244.07H229.228C229.192 243.554 228.982 243.14 228.598 242.828C228.226 242.516 227.722 242.36 227.086 242.36C226.498 242.36 226.03 242.486 225.682 242.738C225.334 242.99 225.16 243.32 225.16 243.728C225.16 244.052 225.262 244.322 225.466 244.538C225.682 244.742 225.946 244.91 226.258 245.042C226.582 245.162 227.026 245.3 227.59 245.456C228.298 245.648 228.874 245.84 229.318 246.032C229.762 246.212 230.14 246.488 230.452 246.86C230.776 247.232 230.944 247.718 230.956 248.318C230.956 248.858 230.806 249.344 230.506 249.776C230.206 250.208 229.78 250.55 229.228 250.802C228.688 251.042 228.064 251.162 227.356 251.162ZM251.207 241.136L248.129 251H246.437L244.061 243.17L241.685 251H239.993L236.897 241.136H238.571L240.839 249.416L243.287 241.136H244.961L247.355 249.434L249.587 241.136H251.207ZM253.678 239.534C253.366 239.534 253.102 239.426 252.886 239.21C252.67 238.994 252.562 238.73 252.562 238.418C252.562 238.106 252.67 237.842 252.886 237.626C253.102 237.41 253.366 237.302 253.678 237.302C253.978 237.302 254.23 237.41 254.434 237.626C254.65 237.842 254.758 238.106 254.758 238.418C254.758 238.73 254.65 238.994 254.434 239.21C254.23 239.426 253.978 239.534 253.678 239.534ZM254.47 241.136V251H252.832V241.136H254.47ZM259.26 242.486V248.3C259.26 248.78 259.362 249.122 259.566 249.326C259.77 249.518 260.124 249.614 260.628 249.614H261.834V251H260.358C259.446 251 258.762 250.79 258.306 250.37C257.85 249.95 257.622 249.26 257.622 248.3V242.486H256.344V241.136H257.622V238.652H259.26V241.136H261.834V242.486H259.26ZM268.715 240.956C269.459 240.956 270.131 241.118 270.731 241.442C271.331 241.754 271.799 242.228 272.135 242.864C272.483 243.5 272.657 244.274 272.657 245.186V251H271.037V245.42C271.037 244.436 270.791 243.686 270.299 243.17C269.807 242.642 269.135 242.378 268.283 242.378C267.419 242.378 266.729 242.648 266.213 243.188C265.709 243.728 265.457 244.514 265.457 245.546V251H263.819V237.68H265.457V242.54C265.781 242.036 266.225 241.646 266.789 241.37C267.365 241.094 268.007 240.956 268.715 240.956ZM282.129 242.486V248.3C282.129 248.78 282.231 249.122 282.435 249.326C282.639 249.518 282.993 249.614 283.497 249.614H284.703V251H283.227C282.315 251 281.631 250.79 281.175 250.37C280.719 249.95 280.491 249.26 280.491 248.3V242.486H279.213V241.136H280.491V238.652H282.129V241.136H284.703V242.486H282.129ZM291.584 240.956C292.328 240.956 293 241.118 293.6 241.442C294.2 241.754 294.668 242.228 295.004 242.864C295.352 243.5 295.526 244.274 295.526 245.186V251H293.906V245.42C293.906 244.436 293.66 243.686 293.168 243.17C292.676 242.642 292.004 242.378 291.152 242.378C290.288 242.378 289.598 242.648 289.082 243.188C288.578 243.728 288.326 244.514 288.326 245.546V251H286.688V237.68H288.326V242.54C288.65 242.036 289.094 241.646 289.658 241.37C290.234 241.094 290.876 240.956 291.584 240.956ZM307.201 245.69C307.201 246.002 307.183 246.332 307.147 246.68H299.263C299.323 247.652 299.653 248.414 300.253 248.966C300.865 249.506 301.603 249.776 302.467 249.776C303.175 249.776 303.763 249.614 304.231 249.29C304.711 248.954 305.047 248.51 305.239 247.958H307.003C306.739 248.906 306.211 249.68 305.419 250.28C304.627 250.868 303.643 251.162 302.467 251.162C301.531 251.162 300.691 250.952 299.947 250.532C299.215 250.112 298.639 249.518 298.219 248.75C297.799 247.97 297.589 247.07 297.589 246.05C297.589 245.03 297.793 244.136 298.201 243.368C298.609 242.6 299.179 242.012 299.911 241.604C300.655 241.184 301.507 240.974 302.467 240.974C303.403 240.974 304.231 241.178 304.951 241.586C305.671 241.994 306.223 242.558 306.607 243.278C307.003 243.986 307.201 244.79 307.201 245.69ZM305.509 245.348C305.509 244.724 305.371 244.19 305.095 243.746C304.819 243.29 304.441 242.948 303.961 242.72C303.493 242.48 302.971 242.36 302.395 242.36C301.567 242.36 300.859 242.624 300.271 243.152C299.695 243.68 299.365 244.412 299.281 245.348H305.509ZM43.5592 274.972C43.8952 274.384 44.3872 273.904 45.0352 273.532C45.6832 273.16 46.4212 272.974 47.2492 272.974C48.1372 272.974 48.9352 273.184 49.6432 273.604C50.3512 274.024 50.9092 274.618 51.3172 275.386C51.7252 276.142 51.9292 277.024 51.9292 278.032C51.9292 279.028 51.7252 279.916 51.3172 280.696C50.9092 281.476 50.3452 282.082 49.6252 282.514C48.9172 282.946 48.1252 283.162 47.2492 283.162C46.3972 283.162 45.6472 282.976 44.9992 282.604C44.3632 282.232 43.8832 281.758 43.5592 281.182V283H41.9212V269.68H43.5592V274.972ZM50.2552 278.032C50.2552 277.288 50.1052 276.64 49.8052 276.088C49.5052 275.536 49.0972 275.116 48.5812 274.828C48.0772 274.54 47.5192 274.396 46.9072 274.396C46.3072 274.396 45.7492 274.546 45.2332 274.846C44.7292 275.134 44.3212 275.56 44.0092 276.124C43.7092 276.676 43.5592 277.318 43.5592 278.05C43.5592 278.794 43.7092 279.448 44.0092 280.012C44.3212 280.564 44.7292 280.99 45.2332 281.29C45.7492 281.578 46.3072 281.722 46.9072 281.722C47.5192 281.722 48.0772 281.578 48.5812 281.29C49.0972 280.99 49.5052 280.564 49.8052 280.012C50.1052 279.448 50.2552 278.788 50.2552 278.032ZM63.0852 277.69C63.0852 278.002 63.0672 278.332 63.0312 278.68H55.1472C55.2072 279.652 55.5372 280.414 56.1372 280.966C56.7492 281.506 57.4872 281.776 58.3512 281.776C59.0592 281.776 59.6472 281.614 60.1152 281.29C60.5952 280.954 60.9312 280.51 61.1232 279.958H62.8872C62.6232 280.906 62.0952 281.68 61.3032 282.28C60.5112 282.868 59.5272 283.162 58.3512 283.162C57.4152 283.162 56.5752 282.952 55.8312 282.532C55.0992 282.112 54.5232 281.518 54.1032 280.75C53.6832 279.97 53.4732 279.07 53.4732 278.05C53.4732 277.03 53.6772 276.136 54.0852 275.368C54.4932 274.6 55.0632 274.012 55.7952 273.604C56.5392 273.184 57.3912 272.974 58.3512 272.974C59.2872 272.974 60.1152 273.178 60.8352 273.586C61.5552 273.994 62.1072 274.558 62.4912 275.278C62.8872 275.986 63.0852 276.79 63.0852 277.69ZM61.3932 277.348C61.3932 276.724 61.2552 276.19 60.9792 275.746C60.7032 275.29 60.3252 274.948 59.8452 274.72C59.3772 274.48 58.8552 274.36 58.2792 274.36C57.4512 274.36 56.7432 274.624 56.1552 275.152C55.5792 275.68 55.2492 276.412 55.1652 277.348H61.3932ZM68.7393 283.162C67.9833 283.162 67.3053 283.036 66.7053 282.784C66.1053 282.52 65.6313 282.16 65.2833 281.704C64.9353 281.236 64.7433 280.702 64.7073 280.102H66.3993C66.4473 280.594 66.6753 280.996 67.0833 281.308C67.5033 281.62 68.0493 281.776 68.7213 281.776C69.3453 281.776 69.8373 281.638 70.1973 281.362C70.5573 281.086 70.7373 280.738 70.7373 280.318C70.7373 279.886 70.5453 279.568 70.1613 279.364C69.7773 279.148 69.1833 278.938 68.3793 278.734C67.6473 278.542 67.0473 278.35 66.5793 278.158C66.1233 277.954 65.7273 277.66 65.3913 277.276C65.0673 276.88 64.9053 276.364 64.9053 275.728C64.9053 275.224 65.0553 274.762 65.3553 274.342C65.6553 273.922 66.0813 273.592 66.6333 273.352C67.1853 273.1 67.8153 272.974 68.5233 272.974C69.6153 272.974 70.4973 273.25 71.1693 273.802C71.8413 274.354 72.2013 275.11 72.2493 276.07H70.6113C70.5753 275.554 70.3653 275.14 69.9813 274.828C69.6093 274.516 69.1053 274.36 68.4693 274.36C67.8813 274.36 67.4133 274.486 67.0653 274.738C66.7173 274.99 66.5433 275.32 66.5433 275.728C66.5433 276.052 66.6453 276.322 66.8493 276.538C67.0653 276.742 67.3293 276.91 67.6413 277.042C67.9653 277.162 68.4093 277.3 68.9733 277.456C69.6813 277.648 70.2573 277.84 70.7013 278.032C71.1453 278.212 71.5233 278.488 71.8353 278.86C72.1593 279.232 72.3273 279.718 72.3393 280.318C72.3393 280.858 72.1893 281.344 71.8893 281.776C71.5893 282.208 71.1633 282.55 70.6113 282.802C70.0713 283.042 69.4473 283.162 68.7393 283.162ZM76.6496 274.486V280.3C76.6496 280.78 76.7516 281.122 76.9556 281.326C77.1596 281.518 77.5136 281.614 78.0176 281.614H79.2236V283H77.7476C76.8356 283 76.1516 282.79 75.6956 282.37C75.2396 281.95 75.0116 281.26 75.0116 280.3V274.486H73.7336V273.136H75.0116V270.652H76.6496V273.136H79.2236V274.486H76.6496ZM85.3951 278.032C85.3951 277.024 85.5991 276.142 86.0071 275.386C86.4151 274.618 86.9731 274.024 87.6811 273.604C88.4011 273.184 89.2051 272.974 90.0931 272.974C90.8611 272.974 91.5751 273.154 92.2351 273.514C92.8951 273.862 93.3991 274.324 93.7471 274.9V269.68H95.4031V283H93.7471V281.146C93.4231 281.734 92.9431 282.22 92.3071 282.604C91.6711 282.976 90.9271 283.162 90.0751 283.162C89.1991 283.162 88.4011 282.946 87.6811 282.514C86.9731 282.082 86.4151 281.476 86.0071 280.696C85.5991 279.916 85.3951 279.028 85.3951 278.032ZM93.7471 278.05C93.7471 277.306 93.5971 276.658 93.2971 276.106C92.9971 275.554 92.5891 275.134 92.0731 274.846C91.5691 274.546 91.0111 274.396 90.3991 274.396C89.7871 274.396 89.2291 274.54 88.7251 274.828C88.2211 275.116 87.8191 275.536 87.5191 276.088C87.2191 276.64 87.0691 277.288 87.0691 278.032C87.0691 278.788 87.2191 279.448 87.5191 280.012C87.8191 280.564 88.2211 280.99 88.7251 281.29C89.2291 281.578 89.7871 281.722 90.3991 281.722C91.0111 281.722 91.5691 281.578 92.0731 281.29C92.5891 280.99 92.9971 280.564 93.2971 280.012C93.5971 279.448 93.7471 278.794 93.7471 278.05ZM107.171 277.69C107.171 278.002 107.153 278.332 107.117 278.68H99.2332C99.2932 279.652 99.6232 280.414 100.223 280.966C100.835 281.506 101.573 281.776 102.437 281.776C103.145 281.776 103.733 281.614 104.201 281.29C104.681 280.954 105.017 280.51 105.209 279.958H106.973C106.709 280.906 106.181 281.68 105.389 282.28C104.597 282.868 103.613 283.162 102.437 283.162C101.501 283.162 100.661 282.952 99.9172 282.532C99.1852 282.112 98.6092 281.518 98.1892 280.75C97.7692 279.97 97.5592 279.07 97.5592 278.05C97.5592 277.03 97.7632 276.136 98.1712 275.368C98.5792 274.6 99.1492 274.012 99.8812 273.604C100.625 273.184 101.477 272.974 102.437 272.974C103.373 272.974 104.201 273.178 104.921 273.586C105.641 273.994 106.193 274.558 106.577 275.278C106.973 275.986 107.171 276.79 107.171 277.69ZM105.479 277.348C105.479 276.724 105.341 276.19 105.065 275.746C104.789 275.29 104.411 274.948 103.931 274.72C103.463 274.48 102.941 274.36 102.365 274.36C101.537 274.36 100.829 274.624 100.241 275.152C99.6652 275.68 99.3352 276.412 99.2512 277.348H105.479ZM112.825 283.162C112.069 283.162 111.391 283.036 110.791 282.784C110.191 282.52 109.717 282.16 109.369 281.704C109.021 281.236 108.829 280.702 108.793 280.102H110.485C110.533 280.594 110.761 280.996 111.169 281.308C111.589 281.62 112.135 281.776 112.807 281.776C113.431 281.776 113.923 281.638 114.283 281.362C114.643 281.086 114.823 280.738 114.823 280.318C114.823 279.886 114.631 279.568 114.247 279.364C113.863 279.148 113.269 278.938 112.465 278.734C111.733 278.542 111.133 278.35 110.665 278.158C110.209 277.954 109.813 277.66 109.477 277.276C109.153 276.88 108.991 276.364 108.991 275.728C108.991 275.224 109.141 274.762 109.441 274.342C109.741 273.922 110.167 273.592 110.719 273.352C111.271 273.1 111.901 272.974 112.609 272.974C113.701 272.974 114.583 273.25 115.255 273.802C115.927 274.354 116.287 275.11 116.335 276.07H114.697C114.661 275.554 114.451 275.14 114.067 274.828C113.695 274.516 113.191 274.36 112.555 274.36C111.967 274.36 111.499 274.486 111.151 274.738C110.803 274.99 110.629 275.32 110.629 275.728C110.629 276.052 110.731 276.322 110.935 276.538C111.151 276.742 111.415 276.91 111.727 277.042C112.051 277.162 112.495 277.3 113.059 277.456C113.767 277.648 114.343 277.84 114.787 278.032C115.231 278.212 115.609 278.488 115.921 278.86C116.245 279.232 116.413 279.718 116.425 280.318C116.425 280.858 116.275 281.344 115.975 281.776C115.675 282.208 115.249 282.55 114.697 282.802C114.157 283.042 113.533 283.162 112.825 283.162ZM119.584 271.534C119.272 271.534 119.008 271.426 118.792 271.21C118.576 270.994 118.468 270.73 118.468 270.418C118.468 270.106 118.576 269.842 118.792 269.626C119.008 269.41 119.272 269.302 119.584 269.302C119.884 269.302 120.136 269.41 120.34 269.626C120.556 269.842 120.664 270.106 120.664 270.418C120.664 270.73 120.556 270.994 120.34 271.21C120.136 271.426 119.884 271.534 119.584 271.534ZM120.376 273.136V283H118.738V273.136H120.376ZM127.235 272.974C128.087 272.974 128.831 273.16 129.467 273.532C130.115 273.904 130.595 274.372 130.907 274.936V273.136H132.563V283.216C132.563 284.116 132.371 284.914 131.987 285.61C131.603 286.318 131.051 286.87 130.331 287.266C129.623 287.662 128.795 287.86 127.847 287.86C126.551 287.86 125.471 287.554 124.607 286.942C123.743 286.33 123.233 285.496 123.077 284.44H124.697C124.877 285.04 125.249 285.52 125.813 285.88C126.377 286.252 127.055 286.438 127.847 286.438C128.747 286.438 129.479 286.156 130.043 285.592C130.619 285.028 130.907 284.236 130.907 283.216V281.146C130.583 281.722 130.103 282.202 129.467 282.586C128.831 282.97 128.087 283.162 127.235 283.162C126.359 283.162 125.561 282.946 124.841 282.514C124.133 282.082 123.575 281.476 123.167 280.696C122.759 279.916 122.555 279.028 122.555 278.032C122.555 277.024 122.759 276.142 123.167 275.386C123.575 274.618 124.133 274.024 124.841 273.604C125.561 273.184 126.359 272.974 127.235 272.974ZM130.907 278.05C130.907 277.306 130.757 276.658 130.457 276.106C130.157 275.554 129.749 275.134 129.233 274.846C128.729 274.546 128.171 274.396 127.559 274.396C126.947 274.396 126.389 274.54 125.885 274.828C125.381 275.116 124.979 275.536 124.679 276.088C124.379 276.64 124.229 277.288 124.229 278.032C124.229 278.788 124.379 279.448 124.679 280.012C124.979 280.564 125.381 280.99 125.885 281.29C126.389 281.578 126.947 281.722 127.559 281.722C128.171 281.722 128.729 281.578 129.233 281.29C129.749 280.99 130.157 280.564 130.457 280.012C130.757 279.448 130.907 278.794 130.907 278.05ZM140.137 272.956C141.337 272.956 142.309 273.322 143.053 274.054C143.797 274.774 144.169 275.818 144.169 277.186V283H142.549V277.42C142.549 276.436 142.303 275.686 141.811 275.17C141.319 274.642 140.647 274.378 139.795 274.378C138.931 274.378 138.241 274.648 137.725 275.188C137.221 275.728 136.969 276.514 136.969 277.546V283H135.331V273.136H136.969V274.54C137.293 274.036 137.731 273.646 138.283 273.37C138.847 273.094 139.465 272.956 140.137 272.956ZM150.337 283.162C149.581 283.162 148.903 283.036 148.303 282.784C147.703 282.52 147.229 282.16 146.881 281.704C146.533 281.236 146.341 280.702 146.305 280.102H147.997C148.045 280.594 148.273 280.996 148.681 281.308C149.101 281.62 149.647 281.776 150.319 281.776C150.943 281.776 151.435 281.638 151.795 281.362C152.155 281.086 152.335 280.738 152.335 280.318C152.335 279.886 152.143 279.568 151.759 279.364C151.375 279.148 150.781 278.938 149.977 278.734C149.245 278.542 148.645 278.35 148.177 278.158C147.721 277.954 147.325 277.66 146.989 277.276C146.665 276.88 146.503 276.364 146.503 275.728C146.503 275.224 146.653 274.762 146.953 274.342C147.253 273.922 147.679 273.592 148.231 273.352C148.783 273.1 149.413 272.974 150.121 272.974C151.213 272.974 152.095 273.25 152.767 273.802C153.439 274.354 153.799 275.11 153.847 276.07H152.209C152.173 275.554 151.963 275.14 151.579 274.828C151.207 274.516 150.703 274.36 150.067 274.36C149.479 274.36 149.011 274.486 148.663 274.738C148.315 274.99 148.141 275.32 148.141 275.728C148.141 276.052 148.243 276.322 148.447 276.538C148.663 276.742 148.927 276.91 149.239 277.042C149.563 277.162 150.007 277.3 150.571 277.456C151.279 277.648 151.855 277.84 152.299 278.032C152.743 278.212 153.121 278.488 153.433 278.86C153.757 279.232 153.925 279.718 153.937 280.318C153.937 280.858 153.787 281.344 153.487 281.776C153.187 282.208 152.761 282.55 152.209 282.802C151.669 283.042 151.045 283.162 150.337 283.162ZM163.046 274.486V280.3C163.046 280.78 163.148 281.122 163.352 281.326C163.556 281.518 163.91 281.614 164.414 281.614H165.62V283H164.144C163.232 283 162.548 282.79 162.092 282.37C161.636 281.95 161.408 281.26 161.408 280.3V274.486H160.13V273.136H161.408V270.652H163.046V273.136H165.62V274.486H163.046ZM172.501 272.956C173.245 272.956 173.917 273.118 174.517 273.442C175.117 273.754 175.585 274.228 175.921 274.864C176.269 275.5 176.443 276.274 176.443 277.186V283H174.823V277.42C174.823 276.436 174.577 275.686 174.085 275.17C173.593 274.642 172.921 274.378 172.069 274.378C171.205 274.378 170.515 274.648 169.999 275.188C169.495 275.728 169.243 276.514 169.243 277.546V283H167.605V269.68H169.243V274.54C169.567 274.036 170.011 273.646 170.575 273.37C171.151 273.094 171.793 272.956 172.501 272.956ZM178.506 278.032C178.506 277.024 178.71 276.142 179.118 275.386C179.526 274.618 180.084 274.024 180.792 273.604C181.512 273.184 182.31 272.974 183.186 272.974C184.05 272.974 184.8 273.16 185.436 273.532C186.072 273.904 186.546 274.372 186.858 274.936V273.136H188.514V283H186.858V281.164C186.534 281.74 186.048 282.22 185.4 282.604C184.764 282.976 184.02 283.162 183.168 283.162C182.292 283.162 181.5 282.946 180.792 282.514C180.084 282.082 179.526 281.476 179.118 280.696C178.71 279.916 178.506 279.028 178.506 278.032ZM186.858 278.05C186.858 277.306 186.708 276.658 186.408 276.106C186.108 275.554 185.7 275.134 185.184 274.846C184.68 274.546 184.122 274.396 183.51 274.396C182.898 274.396 182.34 274.54 181.836 274.828C181.332 275.116 180.93 275.536 180.63 276.088C180.33 276.64 180.18 277.288 180.18 278.032C180.18 278.788 180.33 279.448 180.63 280.012C180.93 280.564 181.332 280.99 181.836 281.29C182.34 281.578 182.898 281.722 183.51 281.722C184.122 281.722 184.68 281.578 185.184 281.29C185.7 280.99 186.108 280.564 186.408 280.012C186.708 279.448 186.858 278.794 186.858 278.05ZM196.088 272.956C197.288 272.956 198.26 273.322 199.004 274.054C199.748 274.774 200.12 275.818 200.12 277.186V283H198.5V277.42C198.5 276.436 198.254 275.686 197.762 275.17C197.27 274.642 196.598 274.378 195.746 274.378C194.882 274.378 194.192 274.648 193.676 275.188C193.172 275.728 192.92 276.514 192.92 277.546V283H191.282V273.136H192.92V274.54C193.244 274.036 193.682 273.646 194.234 273.37C194.798 273.094 195.416 272.956 196.088 272.956ZM211.897 283.162C210.973 283.162 210.133 282.952 209.377 282.532C208.633 282.112 208.045 281.518 207.613 280.75C207.193 279.97 206.983 279.07 206.983 278.05C206.983 277.042 207.199 276.154 207.631 275.386C208.075 274.606 208.675 274.012 209.431 273.604C210.187 273.184 211.033 272.974 211.969 272.974C212.905 272.974 213.751 273.184 214.507 273.604C215.263 274.012 215.857 274.6 216.289 275.368C216.733 276.136 216.955 277.03 216.955 278.05C216.955 279.07 216.727 279.97 216.271 280.75C215.827 281.518 215.221 282.112 214.453 282.532C213.685 282.952 212.833 283.162 211.897 283.162ZM211.897 281.722C212.485 281.722 213.037 281.584 213.553 281.308C214.069 281.032 214.483 280.618 214.795 280.066C215.119 279.514 215.281 278.842 215.281 278.05C215.281 277.258 215.125 276.586 214.813 276.034C214.501 275.482 214.093 275.074 213.589 274.81C213.085 274.534 212.539 274.396 211.951 274.396C211.351 274.396 210.799 274.534 210.295 274.81C209.803 275.074 209.407 275.482 209.107 276.034C208.807 276.586 208.657 277.258 208.657 278.05C208.657 278.854 208.801 279.532 209.089 280.084C209.389 280.636 209.785 281.05 210.277 281.326C210.769 281.59 211.309 281.722 211.897 281.722ZM227.857 273.136V283H226.219V281.542C225.907 282.046 225.469 282.442 224.905 282.73C224.353 283.006 223.741 283.144 223.069 283.144C222.301 283.144 221.611 282.988 220.999 282.676C220.387 282.352 219.901 281.872 219.541 281.236C219.193 280.6 219.019 279.826 219.019 278.914V273.136H220.639V278.698C220.639 279.67 220.885 280.42 221.377 280.948C221.869 281.464 222.541 281.722 223.393 281.722C224.269 281.722 224.959 281.452 225.463 280.912C225.967 280.372 226.219 279.586 226.219 278.554V273.136H227.857ZM232.26 274.738C232.548 274.174 232.956 273.736 233.484 273.424C234.024 273.112 234.678 272.956 235.446 272.956V274.648H235.014C233.178 274.648 232.26 275.644 232.26 277.636V283H230.622V273.136H232.26V274.738ZM241.524 278.032C241.524 277.024 241.728 276.142 242.136 275.386C242.544 274.618 243.102 274.024 243.81 273.604C244.53 273.184 245.334 272.974 246.222 272.974C246.99 272.974 247.704 273.154 248.364 273.514C249.024 273.862 249.528 274.324 249.876 274.9V269.68H251.532V283H249.876V281.146C249.552 281.734 249.072 282.22 248.436 282.604C247.8 282.976 247.056 283.162 246.204 283.162C245.328 283.162 244.53 282.946 243.81 282.514C243.102 282.082 242.544 281.476 242.136 280.696C241.728 279.916 241.524 279.028 241.524 278.032ZM249.876 278.05C249.876 277.306 249.726 276.658 249.426 276.106C249.126 275.554 248.718 275.134 248.202 274.846C247.698 274.546 247.14 274.396 246.528 274.396C245.916 274.396 245.358 274.54 244.854 274.828C244.35 275.116 243.948 275.536 243.648 276.088C243.348 276.64 243.198 277.288 243.198 278.032C243.198 278.788 243.348 279.448 243.648 280.012C243.948 280.564 244.35 280.99 244.854 281.29C245.358 281.578 245.916 281.722 246.528 281.722C247.14 281.722 247.698 281.578 248.202 281.29C248.718 280.99 249.126 280.564 249.426 280.012C249.726 279.448 249.876 278.794 249.876 278.05ZM263.3 277.69C263.3 278.002 263.282 278.332 263.246 278.68H255.362C255.422 279.652 255.752 280.414 256.352 280.966C256.964 281.506 257.702 281.776 258.566 281.776C259.274 281.776 259.862 281.614 260.33 281.29C260.81 280.954 261.146 280.51 261.338 279.958H263.102C262.838 280.906 262.31 281.68 261.518 282.28C260.726 282.868 259.742 283.162 258.566 283.162C257.63 283.162 256.79 282.952 256.046 282.532C255.314 282.112 254.738 281.518 254.318 280.75C253.898 279.97 253.688 279.07 253.688 278.05C253.688 277.03 253.892 276.136 254.3 275.368C254.708 274.6 255.278 274.012 256.01 273.604C256.754 273.184 257.606 272.974 258.566 272.974C259.502 272.974 260.33 273.178 261.05 273.586C261.77 273.994 262.322 274.558 262.706 275.278C263.102 275.986 263.3 276.79 263.3 277.69ZM261.608 277.348C261.608 276.724 261.47 276.19 261.194 275.746C260.918 275.29 260.54 274.948 260.06 274.72C259.592 274.48 259.07 274.36 258.494 274.36C257.666 274.36 256.958 274.624 256.37 275.152C255.794 275.68 255.464 276.412 255.38 277.348H261.608ZM268.954 283.162C268.198 283.162 267.52 283.036 266.92 282.784C266.32 282.52 265.846 282.16 265.498 281.704C265.15 281.236 264.958 280.702 264.922 280.102H266.614C266.662 280.594 266.89 280.996 267.298 281.308C267.718 281.62 268.264 281.776 268.936 281.776C269.56 281.776 270.052 281.638 270.412 281.362C270.772 281.086 270.952 280.738 270.952 280.318C270.952 279.886 270.76 279.568 270.376 279.364C269.992 279.148 269.398 278.938 268.594 278.734C267.862 278.542 267.262 278.35 266.794 278.158C266.338 277.954 265.942 277.66 265.606 277.276C265.282 276.88 265.12 276.364 265.12 275.728C265.12 275.224 265.27 274.762 265.57 274.342C265.87 273.922 266.296 273.592 266.848 273.352C267.4 273.1 268.03 272.974 268.738 272.974C269.83 272.974 270.712 273.25 271.384 273.802C272.056 274.354 272.416 275.11 272.464 276.07H270.826C270.79 275.554 270.58 275.14 270.196 274.828C269.824 274.516 269.32 274.36 268.684 274.36C268.096 274.36 267.628 274.486 267.28 274.738C266.932 274.99 266.758 275.32 266.758 275.728C266.758 276.052 266.86 276.322 267.064 276.538C267.28 276.742 267.544 276.91 267.856 277.042C268.18 277.162 268.624 277.3 269.188 277.456C269.896 277.648 270.472 277.84 270.916 278.032C271.36 278.212 271.738 278.488 272.05 278.86C272.374 279.232 272.542 279.718 272.554 280.318C272.554 280.858 272.404 281.344 272.104 281.776C271.804 282.208 271.378 282.55 270.826 282.802C270.286 283.042 269.662 283.162 268.954 283.162ZM275.712 271.534C275.4 271.534 275.136 271.426 274.92 271.21C274.704 270.994 274.596 270.73 274.596 270.418C274.596 270.106 274.704 269.842 274.92 269.626C275.136 269.41 275.4 269.302 275.712 269.302C276.012 269.302 276.264 269.41 276.468 269.626C276.684 269.842 276.792 270.106 276.792 270.418C276.792 270.73 276.684 270.994 276.468 271.21C276.264 271.426 276.012 271.534 275.712 271.534ZM276.504 273.136V283H274.866V273.136H276.504ZM283.364 272.974C284.216 272.974 284.96 273.16 285.596 273.532C286.244 273.904 286.724 274.372 287.036 274.936V273.136H288.692V283.216C288.692 284.116 288.5 284.914 288.116 285.61C287.732 286.318 287.18 286.87 286.46 287.266C285.752 287.662 284.924 287.86 283.976 287.86C282.68 287.86 281.6 287.554 280.736 286.942C279.872 286.33 279.362 285.496 279.206 284.44H280.826C281.006 285.04 281.378 285.52 281.942 285.88C282.506 286.252 283.184 286.438 283.976 286.438C284.876 286.438 285.608 286.156 286.172 285.592C286.748 285.028 287.036 284.236 287.036 283.216V281.146C286.712 281.722 286.232 282.202 285.596 282.586C284.96 282.97 284.216 283.162 283.364 283.162C282.488 283.162 281.69 282.946 280.97 282.514C280.262 282.082 279.704 281.476 279.296 280.696C278.888 279.916 278.684 279.028 278.684 278.032C278.684 277.024 278.888 276.142 279.296 275.386C279.704 274.618 280.262 274.024 280.97 273.604C281.69 273.184 282.488 272.974 283.364 272.974ZM287.036 278.05C287.036 277.306 286.886 276.658 286.586 276.106C286.286 275.554 285.878 275.134 285.362 274.846C284.858 274.546 284.3 274.396 283.688 274.396C283.076 274.396 282.518 274.54 282.014 274.828C281.51 275.116 281.108 275.536 280.808 276.088C280.508 276.64 280.358 277.288 280.358 278.032C280.358 278.788 280.508 279.448 280.808 280.012C281.108 280.564 281.51 280.99 282.014 281.29C282.518 281.578 283.076 281.722 283.688 281.722C284.3 281.722 284.858 281.578 285.362 281.29C285.878 280.99 286.286 280.564 286.586 280.012C286.886 279.448 287.036 278.794 287.036 278.05ZM296.266 272.956C297.466 272.956 298.438 273.322 299.182 274.054C299.926 274.774 300.298 275.818 300.298 277.186V283H298.678V277.42C298.678 276.436 298.432 275.686 297.94 275.17C297.448 274.642 296.776 274.378 295.924 274.378C295.06 274.378 294.37 274.648 293.854 275.188C293.35 275.728 293.098 276.514 293.098 277.546V283H291.46V273.136H293.098V274.54C293.422 274.036 293.86 273.646 294.412 273.37C294.976 273.094 295.594 272.956 296.266 272.956ZM311.974 277.69C311.974 278.002 311.956 278.332 311.92 278.68H304.036C304.096 279.652 304.426 280.414 305.026 280.966C305.638 281.506 306.376 281.776 307.24 281.776C307.948 281.776 308.536 281.614 309.004 281.29C309.484 280.954 309.82 280.51 310.012 279.958H311.776C311.512 280.906 310.984 281.68 310.192 282.28C309.4 282.868 308.416 283.162 307.24 283.162C306.304 283.162 305.464 282.952 304.72 282.532C303.988 282.112 303.412 281.518 302.992 280.75C302.572 279.97 302.362 279.07 302.362 278.05C302.362 277.03 302.566 276.136 302.974 275.368C303.382 274.6 303.952 274.012 304.684 273.604C305.428 273.184 306.28 272.974 307.24 272.974C308.176 272.974 309.004 273.178 309.724 273.586C310.444 273.994 310.996 274.558 311.38 275.278C311.776 275.986 311.974 276.79 311.974 277.69ZM310.282 277.348C310.282 276.724 310.144 276.19 309.868 275.746C309.592 275.29 309.214 274.948 308.734 274.72C308.266 274.48 307.744 274.36 307.168 274.36C306.34 274.36 305.632 274.624 305.044 275.152C304.468 275.68 304.138 276.412 304.054 277.348H310.282ZM315.774 274.738C316.062 274.174 316.47 273.736 316.998 273.424C317.538 273.112 318.192 272.956 318.96 272.956V274.648H318.528C316.692 274.648 315.774 275.644 315.774 277.636V283H314.136V273.136H315.774V274.738ZM80.4553 306.486V312.3C80.4553 312.78 80.5573 313.122 80.7613 313.326C80.9653 313.518 81.3193 313.614 81.8233 313.614H83.0293V315H81.5533C80.6413 315 79.9573 314.79 79.5013 314.37C79.0453 313.95 78.8173 313.26 78.8173 312.3V306.486H77.5393V305.136H78.8173V302.652H80.4553V305.136H83.0293V306.486H80.4553ZM94.0139 309.69C94.0139 310.002 93.9959 310.332 93.9599 310.68H86.0759C86.1359 311.652 86.4659 312.414 87.0659 312.966C87.6779 313.506 88.4159 313.776 89.2799 313.776C89.9879 313.776 90.5759 313.614 91.0439 313.29C91.5239 312.954 91.8599 312.51 92.0519 311.958H93.8159C93.5519 312.906 93.0239 313.68 92.2319 314.28C91.4399 314.868 90.4559 315.162 89.2799 315.162C88.3439 315.162 87.5039 314.952 86.7599 314.532C86.0279 314.112 85.4519 313.518 85.0319 312.75C84.6119 311.97 84.4019 311.07 84.4019 310.05C84.4019 309.03 84.6059 308.136 85.0139 307.368C85.4219 306.6 85.9919 306.012 86.7239 305.604C87.4679 305.184 88.3199 304.974 89.2799 304.974C90.2159 304.974 91.0439 305.178 91.7639 305.586C92.4839 305.994 93.0359 306.558 93.4199 307.278C93.8159 307.986 94.0139 308.79 94.0139 309.69ZM92.3219 309.348C92.3219 308.724 92.1839 308.19 91.9079 307.746C91.6319 307.29 91.2539 306.948 90.7739 306.72C90.3059 306.48 89.7839 306.36 89.2079 306.36C88.3799 306.36 87.6719 306.624 87.0839 307.152C86.5079 307.68 86.1779 308.412 86.0939 309.348H92.3219ZM95.564 310.032C95.564 309.024 95.768 308.142 96.176 307.386C96.584 306.618 97.142 306.024 97.85 305.604C98.57 305.184 99.368 304.974 100.244 304.974C101.108 304.974 101.858 305.16 102.494 305.532C103.13 305.904 103.604 306.372 103.916 306.936V305.136H105.572V315H103.916V313.164C103.592 313.74 103.106 314.22 102.458 314.604C101.822 314.976 101.078 315.162 100.226 315.162C99.35 315.162 98.558 314.946 97.85 314.514C97.142 314.082 96.584 313.476 96.176 312.696C95.768 311.916 95.564 311.028 95.564 310.032ZM103.916 310.05C103.916 309.306 103.766 308.658 103.466 308.106C103.166 307.554 102.758 307.134 102.242 306.846C101.738 306.546 101.18 306.396 100.568 306.396C99.956 306.396 99.398 306.54 98.894 306.828C98.39 307.116 97.988 307.536 97.688 308.088C97.388 308.64 97.238 309.288 97.238 310.032C97.238 310.788 97.388 311.448 97.688 312.012C97.988 312.564 98.39 312.99 98.894 313.29C99.398 313.578 99.956 313.722 100.568 313.722C101.18 313.722 101.738 313.578 102.242 313.29C102.758 312.99 103.166 312.564 103.466 312.012C103.766 311.448 103.916 310.794 103.916 310.05ZM120.202 304.956C120.97 304.956 121.654 305.118 122.254 305.442C122.854 305.754 123.328 306.228 123.676 306.864C124.024 307.5 124.198 308.274 124.198 309.186V315H122.578V309.42C122.578 308.436 122.332 307.686 121.84 307.17C121.36 306.642 120.706 306.378 119.878 306.378C119.026 306.378 118.348 306.654 117.844 307.206C117.34 307.746 117.088 308.532 117.088 309.564V315H115.468V309.42C115.468 308.436 115.222 307.686 114.73 307.17C114.25 306.642 113.596 306.378 112.768 306.378C111.916 306.378 111.238 306.654 110.734 307.206C110.23 307.746 109.978 308.532 109.978 309.564V315H108.34V305.136H109.978V306.558C110.302 306.042 110.734 305.646 111.274 305.37C111.826 305.094 112.432 304.956 113.092 304.956C113.92 304.956 114.652 305.142 115.288 305.514C115.924 305.886 116.398 306.432 116.71 307.152C116.986 306.456 117.442 305.916 118.078 305.532C118.714 305.148 119.422 304.956 120.202 304.956ZM135.698 306.486H133.628V315H131.99V306.486H130.712V305.136H131.99V304.434C131.99 303.33 132.272 302.526 132.836 302.022C133.412 301.506 134.33 301.248 135.59 301.248V302.616C134.87 302.616 134.36 302.76 134.06 303.048C133.772 303.324 133.628 303.786 133.628 304.434V305.136H135.698V306.486ZM141.91 315.162C140.986 315.162 140.146 314.952 139.39 314.532C138.646 314.112 138.058 313.518 137.626 312.75C137.206 311.97 136.996 311.07 136.996 310.05C136.996 309.042 137.212 308.154 137.644 307.386C138.088 306.606 138.688 306.012 139.444 305.604C140.2 305.184 141.046 304.974 141.982 304.974C142.918 304.974 143.764 305.184 144.52 305.604C145.276 306.012 145.87 306.6 146.302 307.368C146.746 308.136 146.968 309.03 146.968 310.05C146.968 311.07 146.74 311.97 146.284 312.75C145.84 313.518 145.234 314.112 144.466 314.532C143.698 314.952 142.846 315.162 141.91 315.162ZM141.91 313.722C142.498 313.722 143.05 313.584 143.566 313.308C144.082 313.032 144.496 312.618 144.808 312.066C145.132 311.514 145.294 310.842 145.294 310.05C145.294 309.258 145.138 308.586 144.826 308.034C144.514 307.482 144.106 307.074 143.602 306.81C143.098 306.534 142.552 306.396 141.964 306.396C141.364 306.396 140.812 306.534 140.308 306.81C139.816 307.074 139.42 307.482 139.12 308.034C138.82 308.586 138.67 309.258 138.67 310.05C138.67 310.854 138.814 311.532 139.102 312.084C139.402 312.636 139.798 313.05 140.29 313.326C140.782 313.59 141.322 313.722 141.91 313.722ZM150.759 306.738C151.047 306.174 151.455 305.736 151.983 305.424C152.523 305.112 153.177 304.956 153.945 304.956V306.648H153.513C151.677 306.648 150.759 307.644 150.759 309.636V315H149.121V305.136H150.759V306.738ZM169.131 305.136L163.191 319.644H161.499L163.443 314.892L159.465 305.136H161.283L164.379 313.128L167.439 305.136H169.131ZM175.08 315.162C174.156 315.162 173.316 314.952 172.56 314.532C171.816 314.112 171.228 313.518 170.796 312.75C170.376 311.97 170.166 311.07 170.166 310.05C170.166 309.042 170.382 308.154 170.814 307.386C171.258 306.606 171.858 306.012 172.614 305.604C173.37 305.184 174.216 304.974 175.152 304.974C176.088 304.974 176.934 305.184 177.69 305.604C178.446 306.012 179.04 306.6 179.472 307.368C179.916 308.136 180.138 309.03 180.138 310.05C180.138 311.07 179.91 311.97 179.454 312.75C179.01 313.518 178.404 314.112 177.636 314.532C176.868 314.952 176.016 315.162 175.08 315.162ZM175.08 313.722C175.668 313.722 176.22 313.584 176.736 313.308C177.252 313.032 177.666 312.618 177.978 312.066C178.302 311.514 178.464 310.842 178.464 310.05C178.464 309.258 178.308 308.586 177.996 308.034C177.684 307.482 177.276 307.074 176.772 306.81C176.268 306.534 175.722 306.396 175.134 306.396C174.534 306.396 173.982 306.534 173.478 306.81C172.986 307.074 172.59 307.482 172.29 308.034C171.99 308.586 171.84 309.258 171.84 310.05C171.84 310.854 171.984 311.532 172.272 312.084C172.572 312.636 172.968 313.05 173.46 313.326C173.952 313.59 174.492 313.722 175.08 313.722ZM191.039 305.136V315H189.401V313.542C189.089 314.046 188.651 314.442 188.087 314.73C187.535 315.006 186.923 315.144 186.251 315.144C185.483 315.144 184.793 314.988 184.181 314.676C183.569 314.352 183.083 313.872 182.723 313.236C182.375 312.6 182.201 311.826 182.201 310.914V305.136H183.821V310.698C183.821 311.67 184.067 312.42 184.559 312.948C185.051 313.464 185.723 313.722 186.575 313.722C187.451 313.722 188.141 313.452 188.645 312.912C189.149 312.372 189.401 311.586 189.401 310.554V305.136H191.039ZM195.443 306.738C195.731 306.174 196.139 305.736 196.667 305.424C197.207 305.112 197.861 304.956 198.629 304.956V306.648H198.197C196.361 306.648 195.443 307.644 195.443 309.636V315H193.805V305.136H195.443V306.738ZM206.957 306.972C207.293 306.384 207.785 305.904 208.433 305.532C209.081 305.16 209.819 304.974 210.647 304.974C211.535 304.974 212.333 305.184 213.041 305.604C213.749 306.024 214.307 306.618 214.715 307.386C215.123 308.142 215.327 309.024 215.327 310.032C215.327 311.028 215.123 311.916 214.715 312.696C214.307 313.476 213.743 314.082 213.023 314.514C212.315 314.946 211.523 315.162 210.647 315.162C209.795 315.162 209.045 314.976 208.397 314.604C207.761 314.232 207.281 313.758 206.957 313.182V315H205.319V301.68H206.957V306.972ZM213.653 310.032C213.653 309.288 213.503 308.64 213.203 308.088C212.903 307.536 212.495 307.116 211.979 306.828C211.475 306.54 210.917 306.396 210.305 306.396C209.705 306.396 209.147 306.546 208.631 306.846C208.127 307.134 207.719 307.56 207.407 308.124C207.107 308.676 206.957 309.318 206.957 310.05C206.957 310.794 207.107 311.448 207.407 312.012C207.719 312.564 208.127 312.99 208.631 313.29C209.147 313.578 209.705 313.722 210.305 313.722C210.917 313.722 211.475 313.578 211.979 313.29C212.495 312.99 212.903 312.564 213.203 312.012C213.503 311.448 213.653 310.788 213.653 310.032ZM226.231 305.136V315H224.593V313.542C224.281 314.046 223.843 314.442 223.279 314.73C222.727 315.006 222.115 315.144 221.443 315.144C220.675 315.144 219.985 314.988 219.373 314.676C218.761 314.352 218.275 313.872 217.915 313.236C217.567 312.6 217.393 311.826 217.393 310.914V305.136H219.013V310.698C219.013 311.67 219.259 312.42 219.751 312.948C220.243 313.464 220.915 313.722 221.767 313.722C222.643 313.722 223.333 313.452 223.837 312.912C224.341 312.372 224.593 311.586 224.593 310.554V305.136H226.231ZM232.488 315.162C231.732 315.162 231.054 315.036 230.454 314.784C229.854 314.52 229.38 314.16 229.032 313.704C228.684 313.236 228.492 312.702 228.456 312.102H230.148C230.196 312.594 230.424 312.996 230.832 313.308C231.252 313.62 231.798 313.776 232.47 313.776C233.094 313.776 233.586 313.638 233.946 313.362C234.306 313.086 234.486 312.738 234.486 312.318C234.486 311.886 234.294 311.568 233.91 311.364C233.526 311.148 232.932 310.938 232.128 310.734C231.396 310.542 230.796 310.35 230.328 310.158C229.872 309.954 229.476 309.66 229.14 309.276C228.816 308.88 228.654 308.364 228.654 307.728C228.654 307.224 228.804 306.762 229.104 306.342C229.404 305.922 229.83 305.592 230.382 305.352C230.934 305.1 231.564 304.974 232.272 304.974C233.364 304.974 234.246 305.25 234.918 305.802C235.59 306.354 235.95 307.11 235.998 308.07H234.36C234.324 307.554 234.114 307.14 233.73 306.828C233.358 306.516 232.854 306.36 232.218 306.36C231.63 306.36 231.162 306.486 230.814 306.738C230.466 306.99 230.292 307.32 230.292 307.728C230.292 308.052 230.394 308.322 230.598 308.538C230.814 308.742 231.078 308.91 231.39 309.042C231.714 309.162 232.158 309.3 232.722 309.456C233.43 309.648 234.006 309.84 234.45 310.032C234.894 310.212 235.272 310.488 235.584 310.86C235.908 311.232 236.076 311.718 236.088 312.318C236.088 312.858 235.938 313.344 235.638 313.776C235.338 314.208 234.912 314.55 234.36 314.802C233.82 315.042 233.196 315.162 232.488 315.162ZM239.247 303.534C238.935 303.534 238.671 303.426 238.455 303.21C238.239 302.994 238.131 302.73 238.131 302.418C238.131 302.106 238.239 301.842 238.455 301.626C238.671 301.41 238.935 301.302 239.247 301.302C239.547 301.302 239.799 301.41 240.003 301.626C240.219 301.842 240.327 302.106 240.327 302.418C240.327 302.73 240.219 302.994 240.003 303.21C239.799 303.426 239.547 303.534 239.247 303.534ZM240.039 305.136V315H238.401V305.136H240.039ZM247.636 304.956C248.836 304.956 249.808 305.322 250.552 306.054C251.296 306.774 251.668 307.818 251.668 309.186V315H250.048V309.42C250.048 308.436 249.802 307.686 249.31 307.17C248.818 306.642 248.146 306.378 247.294 306.378C246.43 306.378 245.74 306.648 245.224 307.188C244.72 307.728 244.468 308.514 244.468 309.546V315H242.83V305.136H244.468V306.54C244.792 306.036 245.23 305.646 245.782 305.37C246.346 305.094 246.964 304.956 247.636 304.956ZM263.344 309.69C263.344 310.002 263.326 310.332 263.29 310.68H255.406C255.466 311.652 255.796 312.414 256.396 312.966C257.008 313.506 257.746 313.776 258.61 313.776C259.318 313.776 259.906 313.614 260.374 313.29C260.854 312.954 261.19 312.51 261.382 311.958H263.146C262.882 312.906 262.354 313.68 261.562 314.28C260.77 314.868 259.786 315.162 258.61 315.162C257.674 315.162 256.834 314.952 256.09 314.532C255.358 314.112 254.782 313.518 254.362 312.75C253.942 311.97 253.732 311.07 253.732 310.05C253.732 309.03 253.936 308.136 254.344 307.368C254.752 306.6 255.322 306.012 256.054 305.604C256.798 305.184 257.65 304.974 258.61 304.974C259.546 304.974 260.374 305.178 261.094 305.586C261.814 305.994 262.366 306.558 262.75 307.278C263.146 307.986 263.344 308.79 263.344 309.69ZM261.652 309.348C261.652 308.724 261.514 308.19 261.238 307.746C260.962 307.29 260.584 306.948 260.104 306.72C259.636 306.48 259.114 306.36 258.538 306.36C257.71 306.36 257.002 306.624 256.414 307.152C255.838 307.68 255.508 308.412 255.424 309.348H261.652ZM268.998 315.162C268.242 315.162 267.564 315.036 266.964 314.784C266.364 314.52 265.89 314.16 265.542 313.704C265.194 313.236 265.002 312.702 264.966 312.102H266.658C266.706 312.594 266.934 312.996 267.342 313.308C267.762 313.62 268.308 313.776 268.98 313.776C269.604 313.776 270.096 313.638 270.456 313.362C270.816 313.086 270.996 312.738 270.996 312.318C270.996 311.886 270.804 311.568 270.42 311.364C270.036 311.148 269.442 310.938 268.638 310.734C267.906 310.542 267.306 310.35 266.838 310.158C266.382 309.954 265.986 309.66 265.65 309.276C265.326 308.88 265.164 308.364 265.164 307.728C265.164 307.224 265.314 306.762 265.614 306.342C265.914 305.922 266.34 305.592 266.892 305.352C267.444 305.1 268.074 304.974 268.782 304.974C269.874 304.974 270.756 305.25 271.428 305.802C272.1 306.354 272.46 307.11 272.508 308.07H270.87C270.834 307.554 270.624 307.14 270.24 306.828C269.868 306.516 269.364 306.36 268.728 306.36C268.14 306.36 267.672 306.486 267.324 306.738C266.976 306.99 266.802 307.32 266.802 307.728C266.802 308.052 266.904 308.322 267.108 308.538C267.324 308.742 267.588 308.91 267.9 309.042C268.224 309.162 268.668 309.3 269.232 309.456C269.94 309.648 270.516 309.84 270.96 310.032C271.404 310.212 271.782 310.488 272.094 310.86C272.418 311.232 272.586 311.718 272.598 312.318C272.598 312.858 272.448 313.344 272.148 313.776C271.848 314.208 271.422 314.55 270.87 314.802C270.33 315.042 269.706 315.162 268.998 315.162ZM278.402 315.162C277.646 315.162 276.968 315.036 276.368 314.784C275.768 314.52 275.294 314.16 274.946 313.704C274.598 313.236 274.406 312.702 274.37 312.102H276.062C276.11 312.594 276.338 312.996 276.746 313.308C277.166 313.62 277.712 313.776 278.384 313.776C279.008 313.776 279.5 313.638 279.86 313.362C280.22 313.086 280.4 312.738 280.4 312.318C280.4 311.886 280.208 311.568 279.824 311.364C279.44 311.148 278.846 310.938 278.042 310.734C277.31 310.542 276.71 310.35 276.242 310.158C275.786 309.954 275.39 309.66 275.054 309.276C274.73 308.88 274.568 308.364 274.568 307.728C274.568 307.224 274.718 306.762 275.018 306.342C275.318 305.922 275.744 305.592 276.296 305.352C276.848 305.1 277.478 304.974 278.186 304.974C279.278 304.974 280.16 305.25 280.832 305.802C281.504 306.354 281.864 307.11 281.912 308.07H280.274C280.238 307.554 280.028 307.14 279.644 306.828C279.272 306.516 278.768 306.36 278.132 306.36C277.544 306.36 277.076 306.486 276.728 306.738C276.38 306.99 276.206 307.32 276.206 307.728C276.206 308.052 276.308 308.322 276.512 308.538C276.728 308.742 276.992 308.91 277.304 309.042C277.628 309.162 278.072 309.3 278.636 309.456C279.344 309.648 279.92 309.84 280.364 310.032C280.808 310.212 281.186 310.488 281.498 310.86C281.822 311.232 281.99 311.718 282.002 312.318C282.002 312.858 281.852 313.344 281.552 313.776C281.252 314.208 280.826 314.55 280.274 314.802C279.734 315.042 279.11 315.162 278.402 315.162Z" fill="#6B6B6B"/>
<g clip-path="url(#clip0_2104_24)">
<circle cx="180" cy="391.5" r="22.5" fill="#F3F4F6"/>
<path d="M179.911 396.411L181.089 397.589L186.678 392L181.089 386.411L179.911 387.589L183.488 391.166H175.5V392.833H183.488L179.911 396.411Z" fill="#4C40F7"/>
</g>
</g>
<defs>
<filter id="filter0_d_2104_24" x="0" y="0" width="360" height="466" filterUnits="userSpaceOnUse" color-interpolation-filters="sRGB">
<feFlood flood-opacity="0" result="BackgroundImageFix"/>
<feColorMatrix in="SourceAlpha" type="matrix" values="0 0 0 0 0 0 0 0 0 0 0 0 0 0 0 0 0 0 127 0" result="hardAlpha"/>
<feOffset dy="4"/>
<feGaussianBlur stdDeviation="2"/>
<feComposite in2="hardAlpha" operator="out"/>
<feColorMatrix type="matrix" values="0 0 0 0 0 0 0 0 0 0 0 0 0 0 0 0 0 0 0.25 0"/>
<feBlend mode="normal" in2="BackgroundImageFix" result="effect1_dropShadow_2104_24"/>
<feBlend mode="normal" in="SourceGraphic" in2="effect1_dropShadow_2104_24" result="shape"/>
</filter>
<filter id="filter1_d_2104_24" x="127.5" y="44" width="105" height="105" filterUnits="userSpaceOnUse" color-interpolation-filters="sRGB">
<feFlood flood-opacity="0" result="BackgroundImageFix"/>
<feColorMatrix in="SourceAlpha" type="matrix" values="0 0 0 0 0 0 0 0 0 0 0 0 0 0 0 0 0 0 127 0" result="hardAlpha"/>
<feOffset dy="4"/>
<feGaussianBlur stdDeviation="2"/>
<feComposite in2="hardAlpha" operator="out"/>
<feColorMatrix type="matrix" values="0 0 0 0 0 0 0 0 0 0 0 0 0 0 0 0 0 0 0.25 0"/>
<feBlend mode="normal" in2="BackgroundImageFix" result="effect1_dropShadow_2104_24"/>
<feBlend mode="normal" in="SourceGraphic" in2="effect1_dropShadow_2104_24" result="shape"/>
</filter>
<clipPath id="clip0_2104_24">
<rect width="45" height="45" fill="white" transform="translate(157.5 369)"/>
</clipPath>
</defs>
</svg>
