<svg width="360" height="466" viewBox="0 0 360 466" fill="none" xmlns="http://www.w3.org/2000/svg">
<g filter="url(#filter0_d_2111_29)">
<rect x="4" width="352" height="458" rx="20" fill="#F0F0F0" shape-rendering="crispEdges"/>
<g filter="url(#filter1_d_2111_29)">
<circle cx="180" cy="92.5" r="48.5" fill="#4ADB61"/>
<path d="M193.333 78H166.666C164.828 78 163.333 79.495 163.333 81.3333V99.6667C163.333 101.505 164.828 103 166.666 103H178.333V106.333H173.333V109.667H186.666V106.333H181.666V103H193.333C195.171 103 196.666 101.505 196.666 99.6667V81.3333C196.666 79.495 195.171 78 193.333 78ZM166.666 96.3333V81.3333H193.333L193.336 96.3333H166.666Z" fill="#F0F0F0"/>
</g>
<path d="M105.89 192.04L101.99 206H98.6896L96.0696 196.06L93.3296 206L90.0496 206.02L86.2896 192.04H89.2896L91.7496 202.88L94.5896 192.04H97.7096L100.39 202.82L102.87 192.04H105.89ZM118.018 200.22C118.018 200.62 117.991 200.98 117.938 201.3H109.838C109.905 202.1 110.185 202.727 110.678 203.18C111.171 203.633 111.778 203.86 112.498 203.86C113.538 203.86 114.278 203.413 114.718 202.52H117.738C117.418 203.587 116.805 204.467 115.898 205.16C114.991 205.84 113.878 206.18 112.558 206.18C111.491 206.18 110.531 205.947 109.678 205.48C108.838 205 108.178 204.327 107.698 203.46C107.231 202.593 106.998 201.593 106.998 200.46C106.998 199.313 107.231 198.307 107.698 197.44C108.165 196.573 108.818 195.907 109.658 195.44C110.498 194.973 111.465 194.74 112.558 194.74C113.611 194.74 114.551 194.967 115.378 195.42C116.218 195.873 116.865 196.52 117.318 197.36C117.785 198.187 118.018 199.14 118.018 200.22ZM115.118 199.42C115.105 198.7 114.845 198.127 114.338 197.7C113.831 197.26 113.211 197.04 112.478 197.04C111.785 197.04 111.198 197.253 110.718 197.68C110.251 198.093 109.965 198.673 109.858 199.42H115.118ZM122.862 196.54C123.222 196.007 123.715 195.573 124.342 195.24C124.982 194.907 125.708 194.74 126.522 194.74C127.468 194.74 128.322 194.973 129.082 195.44C129.855 195.907 130.462 196.573 130.902 197.44C131.355 198.293 131.582 199.287 131.582 200.42C131.582 201.553 131.355 202.56 130.902 203.44C130.462 204.307 129.855 204.98 129.082 205.46C128.322 205.94 127.468 206.18 126.522 206.18C125.695 206.18 124.968 206.02 124.342 205.7C123.728 205.367 123.235 204.94 122.862 204.42V206H120.062V191.2H122.862V196.54ZM128.722 200.42C128.722 199.753 128.582 199.18 128.302 198.7C128.035 198.207 127.675 197.833 127.222 197.58C126.782 197.327 126.302 197.2 125.782 197.2C125.275 197.2 124.795 197.333 124.342 197.6C123.902 197.853 123.542 198.227 123.262 198.72C122.995 199.213 122.862 199.793 122.862 200.46C122.862 201.127 122.995 201.707 123.262 202.2C123.542 202.693 123.902 203.073 124.342 203.34C124.795 203.593 125.275 203.72 125.782 203.72C126.302 203.72 126.782 203.587 127.222 203.32C127.675 203.053 128.035 202.673 128.302 202.18C128.582 201.687 128.722 201.1 128.722 200.42ZM143.262 192.04C144.729 192.04 146.015 192.327 147.122 192.9C148.242 193.473 149.102 194.293 149.702 195.36C150.315 196.413 150.622 197.64 150.622 199.04C150.622 200.44 150.315 201.667 149.702 202.72C149.102 203.76 148.242 204.567 147.122 205.14C146.015 205.713 144.729 206 143.262 206H138.382V192.04H143.262ZM143.162 203.62C144.629 203.62 145.762 203.22 146.562 202.42C147.362 201.62 147.762 200.493 147.762 199.04C147.762 197.587 147.362 196.453 146.562 195.64C145.762 194.813 144.629 194.4 143.162 194.4H141.182V203.62H143.162ZM163.018 200.22C163.018 200.62 162.991 200.98 162.938 201.3H154.838C154.905 202.1 155.185 202.727 155.678 203.18C156.171 203.633 156.778 203.86 157.498 203.86C158.538 203.86 159.278 203.413 159.718 202.52H162.738C162.418 203.587 161.805 204.467 160.898 205.16C159.991 205.84 158.878 206.18 157.558 206.18C156.491 206.18 155.531 205.947 154.678 205.48C153.838 205 153.178 204.327 152.698 203.46C152.231 202.593 151.998 201.593 151.998 200.46C151.998 199.313 152.231 198.307 152.698 197.44C153.165 196.573 153.818 195.907 154.658 195.44C155.498 194.973 156.465 194.74 157.558 194.74C158.611 194.74 159.551 194.967 160.378 195.42C161.218 195.873 161.865 196.52 162.318 197.36C162.785 198.187 163.018 199.14 163.018 200.22ZM160.118 199.42C160.105 198.7 159.845 198.127 159.338 197.7C158.831 197.26 158.211 197.04 157.478 197.04C156.785 197.04 156.198 197.253 155.718 197.68C155.251 198.093 154.965 198.673 154.858 199.42H160.118ZM169.682 203.42L172.482 194.92H175.462L171.362 206H167.962L163.882 194.92H166.882L169.682 203.42ZM187.334 200.22C187.334 200.62 187.308 200.98 187.254 201.3H179.154C179.221 202.1 179.501 202.727 179.994 203.18C180.488 203.633 181.094 203.86 181.814 203.86C182.854 203.86 183.594 203.413 184.034 202.52H187.054C186.734 203.587 186.121 204.467 185.214 205.16C184.308 205.84 183.194 206.18 181.874 206.18C180.808 206.18 179.848 205.947 178.994 205.48C178.154 205 177.494 204.327 177.014 203.46C176.548 202.593 176.314 201.593 176.314 200.46C176.314 199.313 176.548 198.307 177.014 197.44C177.481 196.573 178.134 195.907 178.974 195.44C179.814 194.973 180.781 194.74 181.874 194.74C182.928 194.74 183.868 194.967 184.694 195.42C185.534 195.873 186.181 196.52 186.634 197.36C187.101 198.187 187.334 199.14 187.334 200.22ZM184.434 199.42C184.421 198.7 184.161 198.127 183.654 197.7C183.148 197.26 182.528 197.04 181.794 197.04C181.101 197.04 180.514 197.253 180.034 197.68C179.568 198.093 179.281 198.673 179.174 199.42H184.434ZM192.178 191.2V206H189.378V191.2H192.178ZM199.864 206.18C198.798 206.18 197.838 205.947 196.984 205.48C196.131 205 195.458 204.327 194.964 203.46C194.484 202.593 194.244 201.593 194.244 200.46C194.244 199.327 194.491 198.327 194.984 197.46C195.491 196.593 196.178 195.927 197.044 195.46C197.911 194.98 198.878 194.74 199.944 194.74C201.011 194.74 201.978 194.98 202.844 195.46C203.711 195.927 204.391 196.593 204.884 197.46C205.391 198.327 205.644 199.327 205.644 200.46C205.644 201.593 205.384 202.593 204.864 203.46C204.358 204.327 203.664 205 202.784 205.48C201.918 205.947 200.944 206.18 199.864 206.18ZM199.864 203.74C200.371 203.74 200.844 203.62 201.284 203.38C201.738 203.127 202.098 202.753 202.364 202.26C202.631 201.767 202.764 201.167 202.764 200.46C202.764 199.407 202.484 198.6 201.924 198.04C201.378 197.467 200.704 197.18 199.904 197.18C199.104 197.18 198.431 197.467 197.884 198.04C197.351 198.6 197.084 199.407 197.084 200.46C197.084 201.513 197.344 202.327 197.864 202.9C198.398 203.46 199.064 203.74 199.864 203.74ZM210.498 196.52C210.858 196.013 211.352 195.593 211.978 195.26C212.618 194.913 213.345 194.74 214.158 194.74C215.105 194.74 215.958 194.973 216.718 195.44C217.492 195.907 218.098 196.573 218.538 197.44C218.992 198.293 219.218 199.287 219.218 200.42C219.218 201.553 218.992 202.56 218.538 203.44C218.098 204.307 217.492 204.98 216.718 205.46C215.958 205.94 215.105 206.18 214.158 206.18C213.345 206.18 212.625 206.013 211.998 205.68C211.385 205.347 210.885 204.927 210.498 204.42V211.28H207.698V194.92H210.498V196.52ZM216.358 200.42C216.358 199.753 216.218 199.18 215.938 198.7C215.672 198.207 215.312 197.833 214.858 197.58C214.418 197.327 213.938 197.2 213.418 197.2C212.912 197.2 212.432 197.333 211.978 197.6C211.538 197.853 211.178 198.227 210.898 198.72C210.632 199.213 210.498 199.793 210.498 200.46C210.498 201.127 210.632 201.707 210.898 202.2C211.178 202.693 211.538 203.073 211.978 203.34C212.432 203.593 212.912 203.72 213.418 203.72C213.938 203.72 214.418 203.587 214.858 203.32C215.312 203.053 215.672 202.673 215.938 202.18C216.218 201.687 216.358 201.1 216.358 200.42ZM235.013 194.76C236.373 194.76 237.466 195.18 238.293 196.02C239.133 196.847 239.553 198.007 239.553 199.5V206H236.753V199.88C236.753 199.013 236.533 198.353 236.093 197.9C235.653 197.433 235.053 197.2 234.293 197.2C233.533 197.2 232.926 197.433 232.473 197.9C232.033 198.353 231.813 199.013 231.813 199.88V206H229.013V199.88C229.013 199.013 228.793 198.353 228.353 197.9C227.913 197.433 227.313 197.2 226.553 197.2C225.78 197.2 225.166 197.433 224.713 197.9C224.273 198.353 224.053 199.013 224.053 199.88V206H221.253V194.92H224.053V196.26C224.413 195.793 224.873 195.427 225.433 195.16C226.006 194.893 226.633 194.76 227.313 194.76C228.18 194.76 228.953 194.947 229.633 195.32C230.313 195.68 230.84 196.2 231.213 196.88C231.573 196.24 232.093 195.727 232.773 195.34C233.466 194.953 234.213 194.76 235.013 194.76ZM252.51 200.22C252.51 200.62 252.483 200.98 252.43 201.3H244.33C244.397 202.1 244.677 202.727 245.17 203.18C245.663 203.633 246.27 203.86 246.99 203.86C248.03 203.86 248.77 203.413 249.21 202.52H252.23C251.91 203.587 251.297 204.467 250.39 205.16C249.483 205.84 248.37 206.18 247.05 206.18C245.983 206.18 245.023 205.947 244.17 205.48C243.33 205 242.67 204.327 242.19 203.46C241.723 202.593 241.49 201.593 241.49 200.46C241.49 199.313 241.723 198.307 242.19 197.44C242.657 196.573 243.31 195.907 244.15 195.44C244.99 194.973 245.957 194.74 247.05 194.74C248.103 194.74 249.043 194.967 249.87 195.42C250.71 195.873 251.357 196.52 251.81 197.36C252.277 198.187 252.51 199.14 252.51 200.22ZM249.61 199.42C249.597 198.7 249.337 198.127 248.83 197.7C248.323 197.26 247.703 197.04 246.97 197.04C246.277 197.04 245.69 197.253 245.21 197.68C244.743 198.093 244.457 198.673 244.35 199.42H249.61ZM260.694 194.76C262.014 194.76 263.08 195.18 263.894 196.02C264.707 196.847 265.114 198.007 265.114 199.5V206H262.314V199.88C262.314 199 262.094 198.327 261.654 197.86C261.214 197.38 260.614 197.14 259.854 197.14C259.08 197.14 258.467 197.38 258.014 197.86C257.574 198.327 257.354 199 257.354 199.88V206H254.554V194.92H257.354V196.3C257.727 195.82 258.2 195.447 258.774 195.18C259.36 194.9 260 194.76 260.694 194.76ZM271.036 197.22V202.58C271.036 202.953 271.123 203.227 271.296 203.4C271.483 203.56 271.79 203.64 272.216 203.64H273.516V206H271.756C269.396 206 268.216 204.853 268.216 202.56V197.22H266.896V194.92H268.216V192.18H271.036V194.92H273.516V197.22H271.036Z" fill="#111029"/>
<path d="M76.1286 238.454L72.4926 251H70.6566L67.7406 240.902L64.7166 251L62.8986 251.018L59.3886 238.454H61.1346L63.8706 249.092L66.8946 238.454H68.7306L71.6106 249.056L74.3646 238.454H76.1286ZM86.9212 245.69C86.9212 246.002 86.9032 246.332 86.8672 246.68H78.9832C79.0432 247.652 79.3732 248.414 79.9732 248.966C80.5852 249.506 81.3232 249.776 82.1872 249.776C82.8952 249.776 83.4832 249.614 83.9512 249.29C84.4312 248.954 84.7672 248.51 84.9592 247.958H86.7232C86.4592 248.906 85.9312 249.68 85.1392 250.28C84.3472 250.868 83.3632 251.162 82.1872 251.162C81.2512 251.162 80.4112 250.952 79.6672 250.532C78.9352 250.112 78.3592 249.518 77.9392 248.75C77.5192 247.97 77.3092 247.07 77.3092 246.05C77.3092 245.03 77.5132 244.136 77.9212 243.368C78.3292 242.6 78.8992 242.012 79.6312 241.604C80.3752 241.184 81.2272 240.974 82.1872 240.974C83.1232 240.974 83.9512 241.178 84.6712 241.586C85.3912 241.994 85.9432 242.558 86.3272 243.278C86.7232 243.986 86.9212 244.79 86.9212 245.69ZM85.2292 245.348C85.2292 244.724 85.0912 244.19 84.8152 243.746C84.5392 243.29 84.1612 242.948 83.6812 242.72C83.2132 242.48 82.6912 242.36 82.1152 242.36C81.2872 242.36 80.5792 242.624 79.9912 243.152C79.4152 243.68 79.0852 244.412 79.0012 245.348H85.2292ZM98.7781 240.956C99.5221 240.956 100.194 241.118 100.794 241.442C101.394 241.754 101.862 242.228 102.198 242.864C102.546 243.5 102.72 244.274 102.72 245.186V251H101.1V245.42C101.1 244.436 100.854 243.686 100.362 243.17C99.8701 242.642 99.1981 242.378 98.3461 242.378C97.4821 242.378 96.7921 242.648 96.2761 243.188C95.7721 243.728 95.5201 244.514 95.5201 245.546V251H93.8821V237.68H95.5201V242.54C95.8441 242.036 96.2881 241.646 96.8521 241.37C97.4281 241.094 98.0701 240.956 98.7781 240.956ZM114.396 245.69C114.396 246.002 114.378 246.332 114.342 246.68H106.458C106.518 247.652 106.848 248.414 107.448 248.966C108.06 249.506 108.798 249.776 109.662 249.776C110.37 249.776 110.958 249.614 111.426 249.29C111.906 248.954 112.242 248.51 112.434 247.958H114.198C113.934 248.906 113.406 249.68 112.614 250.28C111.822 250.868 110.838 251.162 109.662 251.162C108.726 251.162 107.886 250.952 107.142 250.532C106.41 250.112 105.834 249.518 105.414 248.75C104.994 247.97 104.784 247.07 104.784 246.05C104.784 245.03 104.988 244.136 105.396 243.368C105.804 242.6 106.374 242.012 107.106 241.604C107.85 241.184 108.702 240.974 109.662 240.974C110.598 240.974 111.426 241.178 112.146 241.586C112.866 241.994 113.418 242.558 113.802 243.278C114.198 243.986 114.396 244.79 114.396 245.69ZM112.704 245.348C112.704 244.724 112.566 244.19 112.29 243.746C112.014 243.29 111.636 242.948 111.156 242.72C110.688 242.48 110.166 242.36 109.59 242.36C108.762 242.36 108.054 242.624 107.466 243.152C106.89 243.68 106.56 244.412 106.476 245.348H112.704ZM118.196 237.68V251H116.558V237.68H118.196ZM122.626 242.954C122.95 242.39 123.43 241.922 124.066 241.55C124.714 241.166 125.464 240.974 126.316 240.974C127.192 240.974 127.984 241.184 128.692 241.604C129.412 242.024 129.976 242.618 130.384 243.386C130.792 244.142 130.996 245.024 130.996 246.032C130.996 247.028 130.792 247.916 130.384 248.696C129.976 249.476 129.412 250.082 128.692 250.514C127.984 250.946 127.192 251.162 126.316 251.162C125.476 251.162 124.732 250.976 124.084 250.604C123.448 250.22 122.962 249.746 122.626 249.182V255.68H120.988V241.136H122.626V242.954ZM129.322 246.032C129.322 245.288 129.172 244.64 128.872 244.088C128.572 243.536 128.164 243.116 127.648 242.828C127.144 242.54 126.586 242.396 125.974 242.396C125.374 242.396 124.816 242.546 124.3 242.846C123.796 243.134 123.388 243.56 123.076 244.124C122.776 244.676 122.626 245.318 122.626 246.05C122.626 246.794 122.776 247.448 123.076 248.012C123.388 248.564 123.796 248.99 124.3 249.29C124.816 249.578 125.374 249.722 125.974 249.722C126.586 249.722 127.144 249.578 127.648 249.29C128.164 248.99 128.572 248.564 128.872 248.012C129.172 247.448 129.322 246.788 129.322 246.032ZM137.338 246.032C137.338 245.024 137.542 244.142 137.95 243.386C138.358 242.618 138.916 242.024 139.624 241.604C140.344 241.184 141.148 240.974 142.036 240.974C142.804 240.974 143.518 241.154 144.178 241.514C144.838 241.862 145.342 242.324 145.69 242.9V237.68H147.346V251H145.69V249.146C145.366 249.734 144.886 250.22 144.25 250.604C143.614 250.976 142.87 251.162 142.018 251.162C141.142 251.162 140.344 250.946 139.624 250.514C138.916 250.082 138.358 249.476 137.95 248.696C137.542 247.916 137.338 247.028 137.338 246.032ZM145.69 246.05C145.69 245.306 145.54 244.658 145.24 244.106C144.94 243.554 144.532 243.134 144.016 242.846C143.512 242.546 142.954 242.396 142.342 242.396C141.73 242.396 141.172 242.54 140.668 242.828C140.164 243.116 139.762 243.536 139.462 244.088C139.162 244.64 139.012 245.288 139.012 246.032C139.012 246.788 139.162 247.448 139.462 248.012C139.762 248.564 140.164 248.99 140.668 249.29C141.172 249.578 141.73 249.722 142.342 249.722C142.954 249.722 143.512 249.578 144.016 249.29C144.532 248.99 144.94 248.564 145.24 248.012C145.54 247.448 145.69 246.794 145.69 246.05ZM159.115 245.69C159.115 246.002 159.097 246.332 159.061 246.68H151.177C151.237 247.652 151.567 248.414 152.167 248.966C152.779 249.506 153.517 249.776 154.381 249.776C155.089 249.776 155.677 249.614 156.145 249.29C156.625 248.954 156.961 248.51 157.153 247.958H158.917C158.653 248.906 158.125 249.68 157.333 250.28C156.541 250.868 155.557 251.162 154.381 251.162C153.445 251.162 152.605 250.952 151.861 250.532C151.129 250.112 150.553 249.518 150.133 248.75C149.713 247.97 149.503 247.07 149.503 246.05C149.503 245.03 149.707 244.136 150.115 243.368C150.523 242.6 151.093 242.012 151.825 241.604C152.569 241.184 153.421 240.974 154.381 240.974C155.317 240.974 156.145 241.178 156.865 241.586C157.585 241.994 158.137 242.558 158.521 243.278C158.917 243.986 159.115 244.79 159.115 245.69ZM157.423 245.348C157.423 244.724 157.285 244.19 157.009 243.746C156.733 243.29 156.355 242.948 155.875 242.72C155.407 242.48 154.885 242.36 154.309 242.36C153.481 242.36 152.773 242.624 152.185 243.152C151.609 243.68 151.279 244.412 151.195 245.348H157.423ZM164.949 249.488L168.009 241.136H169.755L165.885 251H163.977L160.107 241.136H161.871L164.949 249.488ZM180.366 245.69C180.366 246.002 180.348 246.332 180.312 246.68H172.428C172.488 247.652 172.818 248.414 173.418 248.966C174.03 249.506 174.768 249.776 175.632 249.776C176.34 249.776 176.928 249.614 177.396 249.29C177.876 248.954 178.212 248.51 178.404 247.958H180.168C179.904 248.906 179.376 249.68 178.584 250.28C177.792 250.868 176.808 251.162 175.632 251.162C174.696 251.162 173.856 250.952 173.112 250.532C172.38 250.112 171.804 249.518 171.384 248.75C170.964 247.97 170.754 247.07 170.754 246.05C170.754 245.03 170.958 244.136 171.366 243.368C171.774 242.6 172.344 242.012 173.076 241.604C173.82 241.184 174.672 240.974 175.632 240.974C176.568 240.974 177.396 241.178 178.116 241.586C178.836 241.994 179.388 242.558 179.772 243.278C180.168 243.986 180.366 244.79 180.366 245.69ZM178.674 245.348C178.674 244.724 178.536 244.19 178.26 243.746C177.984 243.29 177.606 242.948 177.126 242.72C176.658 242.48 176.136 242.36 175.56 242.36C174.732 242.36 174.024 242.624 173.436 243.152C172.86 243.68 172.53 244.412 172.446 245.348H178.674ZM184.167 237.68V251H182.529V237.68H184.167ZM191.26 251.162C190.336 251.162 189.496 250.952 188.74 250.532C187.996 250.112 187.408 249.518 186.976 248.75C186.556 247.97 186.346 247.07 186.346 246.05C186.346 245.042 186.562 244.154 186.994 243.386C187.438 242.606 188.038 242.012 188.794 241.604C189.55 241.184 190.396 240.974 191.332 240.974C192.268 240.974 193.114 241.184 193.87 241.604C194.626 242.012 195.22 242.6 195.652 243.368C196.096 244.136 196.318 245.03 196.318 246.05C196.318 247.07 196.09 247.97 195.634 248.75C195.19 249.518 194.584 250.112 193.816 250.532C193.048 250.952 192.196 251.162 191.26 251.162ZM191.26 249.722C191.848 249.722 192.4 249.584 192.916 249.308C193.432 249.032 193.846 248.618 194.158 248.066C194.482 247.514 194.644 246.842 194.644 246.05C194.644 245.258 194.488 244.586 194.176 244.034C193.864 243.482 193.456 243.074 192.952 242.81C192.448 242.534 191.902 242.396 191.314 242.396C190.714 242.396 190.162 242.534 189.658 242.81C189.166 243.074 188.77 243.482 188.47 244.034C188.17 244.586 188.02 245.258 188.02 246.05C188.02 246.854 188.164 247.532 188.452 248.084C188.752 248.636 189.148 249.05 189.64 249.326C190.132 249.59 190.672 249.722 191.26 249.722ZM200.11 242.954C200.434 242.39 200.914 241.922 201.55 241.55C202.198 241.166 202.948 240.974 203.8 240.974C204.676 240.974 205.468 241.184 206.176 241.604C206.896 242.024 207.46 242.618 207.868 243.386C208.276 244.142 208.48 245.024 208.48 246.032C208.48 247.028 208.276 247.916 207.868 248.696C207.46 249.476 206.896 250.082 206.176 250.514C205.468 250.946 204.676 251.162 203.8 251.162C202.96 251.162 202.216 250.976 201.568 250.604C200.932 250.22 200.446 249.746 200.11 249.182V255.68H198.472V241.136H200.11V242.954ZM206.806 246.032C206.806 245.288 206.656 244.64 206.356 244.088C206.056 243.536 205.648 243.116 205.132 242.828C204.628 242.54 204.07 242.396 203.458 242.396C202.858 242.396 202.3 242.546 201.784 242.846C201.28 243.134 200.872 243.56 200.56 244.124C200.26 244.676 200.11 245.318 200.11 246.05C200.11 246.794 200.26 247.448 200.56 248.012C200.872 248.564 201.28 248.99 201.784 249.29C202.3 249.578 202.858 249.722 203.458 249.722C204.07 249.722 204.628 249.578 205.132 249.29C205.648 248.99 206.056 248.564 206.356 248.012C206.656 247.448 206.806 246.788 206.806 246.032ZM214.823 246.05C214.823 245.03 215.027 244.142 215.435 243.386C215.843 242.618 216.407 242.024 217.127 241.604C217.859 241.184 218.693 240.974 219.629 240.974C220.841 240.974 221.837 241.268 222.617 241.856C223.409 242.444 223.931 243.26 224.183 244.304H222.419C222.251 243.704 221.921 243.23 221.429 242.882C220.949 242.534 220.349 242.36 219.629 242.36C218.693 242.36 217.937 242.684 217.361 243.332C216.785 243.968 216.497 244.874 216.497 246.05C216.497 247.238 216.785 248.156 217.361 248.804C217.937 249.452 218.693 249.776 219.629 249.776C220.349 249.776 220.949 249.608 221.429 249.272C221.909 248.936 222.239 248.456 222.419 247.832H224.183C223.919 248.84 223.391 249.65 222.599 250.262C221.807 250.862 220.817 251.162 219.629 251.162C218.693 251.162 217.859 250.952 217.127 250.532C216.407 250.112 215.843 249.518 215.435 248.75C215.027 247.982 214.823 247.082 214.823 246.05ZM230.67 251.162C229.746 251.162 228.906 250.952 228.15 250.532C227.406 250.112 226.818 249.518 226.386 248.75C225.966 247.97 225.756 247.07 225.756 246.05C225.756 245.042 225.972 244.154 226.404 243.386C226.848 242.606 227.448 242.012 228.204 241.604C228.96 241.184 229.806 240.974 230.742 240.974C231.678 240.974 232.524 241.184 233.28 241.604C234.036 242.012 234.63 242.6 235.062 243.368C235.506 244.136 235.728 245.03 235.728 246.05C235.728 247.07 235.5 247.97 235.044 248.75C234.6 249.518 233.994 250.112 233.226 250.532C232.458 250.952 231.606 251.162 230.67 251.162ZM230.67 249.722C231.258 249.722 231.81 249.584 232.326 249.308C232.842 249.032 233.256 248.618 233.568 248.066C233.892 247.514 234.054 246.842 234.054 246.05C234.054 245.258 233.898 244.586 233.586 244.034C233.274 243.482 232.866 243.074 232.362 242.81C231.858 242.534 231.312 242.396 230.724 242.396C230.124 242.396 229.572 242.534 229.068 242.81C228.576 243.074 228.18 243.482 227.88 244.034C227.58 244.586 227.43 245.258 227.43 246.05C227.43 246.854 227.574 247.532 227.862 248.084C228.162 248.636 228.558 249.05 229.05 249.326C229.542 249.59 230.082 249.722 230.67 249.722ZM249.744 240.956C250.512 240.956 251.196 241.118 251.796 241.442C252.396 241.754 252.87 242.228 253.218 242.864C253.566 243.5 253.74 244.274 253.74 245.186V251H252.12V245.42C252.12 244.436 251.874 243.686 251.382 243.17C250.902 242.642 250.248 242.378 249.42 242.378C248.568 242.378 247.89 242.654 247.386 243.206C246.882 243.746 246.63 244.532 246.63 245.564V251H245.01V245.42C245.01 244.436 244.764 243.686 244.272 243.17C243.792 242.642 243.138 242.378 242.31 242.378C241.458 242.378 240.78 242.654 240.276 243.206C239.772 243.746 239.52 244.532 239.52 245.564V251H237.882V241.136H239.52V242.558C239.844 242.042 240.276 241.646 240.816 241.37C241.368 241.094 241.974 240.956 242.634 240.956C243.462 240.956 244.194 241.142 244.83 241.514C245.466 241.886 245.94 242.432 246.252 243.152C246.528 242.456 246.984 241.916 247.62 241.532C248.256 241.148 248.964 240.956 249.744 240.956ZM258.065 242.954C258.389 242.39 258.869 241.922 259.505 241.55C260.153 241.166 260.903 240.974 261.755 240.974C262.631 240.974 263.423 241.184 264.131 241.604C264.851 242.024 265.415 242.618 265.823 243.386C266.231 244.142 266.435 245.024 266.435 246.032C266.435 247.028 266.231 247.916 265.823 248.696C265.415 249.476 264.851 250.082 264.131 250.514C263.423 250.946 262.631 251.162 261.755 251.162C260.915 251.162 260.171 250.976 259.523 250.604C258.887 250.22 258.401 249.746 258.065 249.182V255.68H256.427V241.136H258.065V242.954ZM264.761 246.032C264.761 245.288 264.611 244.64 264.311 244.088C264.011 243.536 263.603 243.116 263.087 242.828C262.583 242.54 262.025 242.396 261.413 242.396C260.813 242.396 260.255 242.546 259.739 242.846C259.235 243.134 258.827 243.56 258.515 244.124C258.215 244.676 258.065 245.318 258.065 246.05C258.065 246.794 258.215 247.448 258.515 248.012C258.827 248.564 259.235 248.99 259.739 249.29C260.255 249.578 260.813 249.722 261.413 249.722C262.025 249.722 262.583 249.578 263.087 249.29C263.603 248.99 264.011 248.564 264.311 248.012C264.611 247.448 264.761 246.788 264.761 246.032ZM267.979 246.032C267.979 245.024 268.183 244.142 268.591 243.386C268.999 242.618 269.557 242.024 270.265 241.604C270.985 241.184 271.783 240.974 272.659 240.974C273.523 240.974 274.273 241.16 274.909 241.532C275.545 241.904 276.019 242.372 276.331 242.936V241.136H277.987V251H276.331V249.164C276.007 249.74 275.521 250.22 274.873 250.604C274.237 250.976 273.493 251.162 272.641 251.162C271.765 251.162 270.973 250.946 270.265 250.514C269.557 250.082 268.999 249.476 268.591 248.696C268.183 247.916 267.979 247.028 267.979 246.032ZM276.331 246.05C276.331 245.306 276.181 244.658 275.881 244.106C275.581 243.554 275.173 243.134 274.657 242.846C274.153 242.546 273.595 242.396 272.983 242.396C272.371 242.396 271.813 242.54 271.309 242.828C270.805 243.116 270.403 243.536 270.103 244.088C269.803 244.64 269.653 245.288 269.653 246.032C269.653 246.788 269.803 247.448 270.103 248.012C270.403 248.564 270.805 248.99 271.309 249.29C271.813 249.578 272.371 249.722 272.983 249.722C273.595 249.722 274.153 249.578 274.657 249.29C275.173 248.99 275.581 248.564 275.881 248.012C276.181 247.448 276.331 246.794 276.331 246.05ZM285.561 240.956C286.761 240.956 287.733 241.322 288.477 242.054C289.221 242.774 289.593 243.818 289.593 245.186V251H287.973V245.42C287.973 244.436 287.727 243.686 287.235 243.17C286.743 242.642 286.071 242.378 285.219 242.378C284.355 242.378 283.665 242.648 283.149 243.188C282.645 243.728 282.393 244.514 282.393 245.546V251H280.755V241.136H282.393V242.54C282.717 242.036 283.155 241.646 283.707 241.37C284.271 241.094 284.889 240.956 285.561 240.956ZM300.765 241.136L294.825 255.644H293.133L295.077 250.892L291.099 241.136H292.917L296.013 249.128L299.073 241.136H300.765ZM103.137 273.136L100.059 283H98.3673L95.9913 275.17L93.6153 283H91.9233L88.8273 273.136H90.5013L92.7693 281.416L95.2173 273.136H96.8913L99.2853 281.434L101.517 273.136H103.137ZM113.763 277.69C113.763 278.002 113.745 278.332 113.709 278.68H105.825C105.885 279.652 106.215 280.414 106.815 280.966C107.427 281.506 108.165 281.776 109.029 281.776C109.737 281.776 110.325 281.614 110.793 281.29C111.273 280.954 111.609 280.51 111.801 279.958H113.565C113.301 280.906 112.773 281.68 111.981 282.28C111.189 282.868 110.205 283.162 109.029 283.162C108.093 283.162 107.253 282.952 106.509 282.532C105.777 282.112 105.201 281.518 104.781 280.75C104.361 279.97 104.151 279.07 104.151 278.05C104.151 277.03 104.355 276.136 104.763 275.368C105.171 274.6 105.741 274.012 106.473 273.604C107.217 273.184 108.069 272.974 109.029 272.974C109.965 272.974 110.793 273.178 111.513 273.586C112.233 273.994 112.785 274.558 113.169 275.278C113.565 275.986 113.763 276.79 113.763 277.69ZM112.071 277.348C112.071 276.724 111.933 276.19 111.657 275.746C111.381 275.29 111.003 274.948 110.523 274.72C110.055 274.48 109.533 274.36 108.957 274.36C108.129 274.36 107.421 274.624 106.833 275.152C106.257 275.68 105.927 276.412 105.843 277.348H112.071ZM117.563 274.972C117.899 274.384 118.391 273.904 119.039 273.532C119.687 273.16 120.425 272.974 121.253 272.974C122.141 272.974 122.939 273.184 123.647 273.604C124.355 274.024 124.913 274.618 125.321 275.386C125.729 276.142 125.933 277.024 125.933 278.032C125.933 279.028 125.729 279.916 125.321 280.696C124.913 281.476 124.349 282.082 123.629 282.514C122.921 282.946 122.129 283.162 121.253 283.162C120.401 283.162 119.651 282.976 119.003 282.604C118.367 282.232 117.887 281.758 117.563 281.182V283H115.925V269.68H117.563V274.972ZM124.259 278.032C124.259 277.288 124.109 276.64 123.809 276.088C123.509 275.536 123.101 275.116 122.585 274.828C122.081 274.54 121.523 274.396 120.911 274.396C120.311 274.396 119.753 274.546 119.237 274.846C118.733 275.134 118.325 275.56 118.013 276.124C117.713 276.676 117.563 277.318 117.563 278.05C117.563 278.794 117.713 279.448 118.013 280.012C118.325 280.564 118.733 280.99 119.237 281.29C119.753 281.578 120.311 281.722 120.911 281.722C121.523 281.722 122.081 281.578 122.585 281.29C123.101 280.99 123.509 280.564 123.809 280.012C124.109 279.448 124.259 278.788 124.259 278.032ZM131.581 283.162C130.825 283.162 130.147 283.036 129.547 282.784C128.947 282.52 128.473 282.16 128.125 281.704C127.777 281.236 127.585 280.702 127.549 280.102H129.241C129.289 280.594 129.517 280.996 129.925 281.308C130.345 281.62 130.891 281.776 131.563 281.776C132.187 281.776 132.679 281.638 133.039 281.362C133.399 281.086 133.579 280.738 133.579 280.318C133.579 279.886 133.387 279.568 133.003 279.364C132.619 279.148 132.025 278.938 131.221 278.734C130.489 278.542 129.889 278.35 129.421 278.158C128.965 277.954 128.569 277.66 128.233 277.276C127.909 276.88 127.747 276.364 127.747 275.728C127.747 275.224 127.897 274.762 128.197 274.342C128.497 273.922 128.923 273.592 129.475 273.352C130.027 273.1 130.657 272.974 131.365 272.974C132.457 272.974 133.339 273.25 134.011 273.802C134.683 274.354 135.043 275.11 135.091 276.07H133.453C133.417 275.554 133.207 275.14 132.823 274.828C132.451 274.516 131.947 274.36 131.311 274.36C130.723 274.36 130.255 274.486 129.907 274.738C129.559 274.99 129.385 275.32 129.385 275.728C129.385 276.052 129.487 276.322 129.691 276.538C129.907 276.742 130.171 276.91 130.483 277.042C130.807 277.162 131.251 277.3 131.815 277.456C132.523 277.648 133.099 277.84 133.543 278.032C133.987 278.212 134.365 278.488 134.677 278.86C135.001 279.232 135.169 279.718 135.181 280.318C135.181 280.858 135.031 281.344 134.731 281.776C134.431 282.208 134.005 282.55 133.453 282.802C132.913 283.042 132.289 283.162 131.581 283.162ZM138.339 271.534C138.027 271.534 137.763 271.426 137.547 271.21C137.331 270.994 137.223 270.73 137.223 270.418C137.223 270.106 137.331 269.842 137.547 269.626C137.763 269.41 138.027 269.302 138.339 269.302C138.639 269.302 138.891 269.41 139.095 269.626C139.311 269.842 139.419 270.106 139.419 270.418C139.419 270.73 139.311 270.994 139.095 271.21C138.891 271.426 138.639 271.534 138.339 271.534ZM139.131 273.136V283H137.493V273.136H139.131ZM143.921 274.486V280.3C143.921 280.78 144.023 281.122 144.227 281.326C144.431 281.518 144.785 281.614 145.289 281.614H146.495V283H145.019C144.107 283 143.423 282.79 142.967 282.37C142.511 281.95 142.283 281.26 142.283 280.3V274.486H141.005V273.136H142.283V270.652H143.921V273.136H146.495V274.486H143.921ZM157.48 277.69C157.48 278.002 157.462 278.332 157.426 278.68H149.542C149.602 279.652 149.932 280.414 150.532 280.966C151.144 281.506 151.882 281.776 152.746 281.776C153.454 281.776 154.042 281.614 154.51 281.29C154.99 280.954 155.326 280.51 155.518 279.958H157.282C157.018 280.906 156.49 281.68 155.698 282.28C154.906 282.868 153.922 283.162 152.746 283.162C151.81 283.162 150.97 282.952 150.226 282.532C149.494 282.112 148.918 281.518 148.498 280.75C148.078 279.97 147.868 279.07 147.868 278.05C147.868 277.03 148.072 276.136 148.48 275.368C148.888 274.6 149.458 274.012 150.19 273.604C150.934 273.184 151.786 272.974 152.746 272.974C153.682 272.974 154.51 273.178 155.23 273.586C155.95 273.994 156.502 274.558 156.886 275.278C157.282 275.986 157.48 276.79 157.48 277.69ZM155.788 277.348C155.788 276.724 155.65 276.19 155.374 275.746C155.098 275.29 154.72 274.948 154.24 274.72C153.772 274.48 153.25 274.36 152.674 274.36C151.846 274.36 151.138 274.624 150.55 275.152C149.974 275.68 149.644 276.412 149.56 277.348H155.788ZM163.134 283.162C162.378 283.162 161.7 283.036 161.1 282.784C160.5 282.52 160.026 282.16 159.678 281.704C159.33 281.236 159.138 280.702 159.102 280.102H160.794C160.842 280.594 161.07 280.996 161.478 281.308C161.898 281.62 162.444 281.776 163.116 281.776C163.74 281.776 164.232 281.638 164.592 281.362C164.952 281.086 165.132 280.738 165.132 280.318C165.132 279.886 164.94 279.568 164.556 279.364C164.172 279.148 163.578 278.938 162.774 278.734C162.042 278.542 161.442 278.35 160.974 278.158C160.518 277.954 160.122 277.66 159.786 277.276C159.462 276.88 159.3 276.364 159.3 275.728C159.3 275.224 159.45 274.762 159.75 274.342C160.05 273.922 160.476 273.592 161.028 273.352C161.58 273.1 162.21 272.974 162.918 272.974C164.01 272.974 164.892 273.25 165.564 273.802C166.236 274.354 166.596 275.11 166.644 276.07H165.006C164.97 275.554 164.76 275.14 164.376 274.828C164.004 274.516 163.5 274.36 162.864 274.36C162.276 274.36 161.808 274.486 161.46 274.738C161.112 274.99 160.938 275.32 160.938 275.728C160.938 276.052 161.04 276.322 161.244 276.538C161.46 276.742 161.724 276.91 162.036 277.042C162.36 277.162 162.804 277.3 163.368 277.456C164.076 277.648 164.652 277.84 165.096 278.032C165.54 278.212 165.918 278.488 166.23 278.86C166.554 279.232 166.722 279.718 166.734 280.318C166.734 280.858 166.584 281.344 166.284 281.776C165.984 282.208 165.558 282.55 165.006 282.802C164.466 283.042 163.842 283.162 163.134 283.162ZM175.843 274.486V280.3C175.843 280.78 175.945 281.122 176.149 281.326C176.353 281.518 176.707 281.614 177.211 281.614H178.417V283H176.941C176.029 283 175.345 282.79 174.889 282.37C174.433 281.95 174.205 281.26 174.205 280.3V274.486H172.927V273.136H174.205V270.652H175.843V273.136H178.417V274.486H175.843ZM184.704 283.162C183.78 283.162 182.94 282.952 182.184 282.532C181.44 282.112 180.852 281.518 180.42 280.75C180 279.97 179.79 279.07 179.79 278.05C179.79 277.042 180.006 276.154 180.438 275.386C180.882 274.606 181.482 274.012 182.238 273.604C182.994 273.184 183.84 272.974 184.776 272.974C185.712 272.974 186.558 273.184 187.314 273.604C188.07 274.012 188.664 274.6 189.096 275.368C189.54 276.136 189.762 277.03 189.762 278.05C189.762 279.07 189.534 279.97 189.078 280.75C188.634 281.518 188.028 282.112 187.26 282.532C186.492 282.952 185.64 283.162 184.704 283.162ZM184.704 281.722C185.292 281.722 185.844 281.584 186.36 281.308C186.876 281.032 187.29 280.618 187.602 280.066C187.926 279.514 188.088 278.842 188.088 278.05C188.088 277.258 187.932 276.586 187.62 276.034C187.308 275.482 186.9 275.074 186.396 274.81C185.892 274.534 185.346 274.396 184.758 274.396C184.158 274.396 183.606 274.534 183.102 274.81C182.61 275.074 182.214 275.482 181.914 276.034C181.614 276.586 181.464 277.258 181.464 278.05C181.464 278.854 181.608 279.532 181.896 280.084C182.196 280.636 182.592 281.05 183.084 281.326C183.576 281.59 184.116 281.722 184.704 281.722ZM198.352 274.972C198.688 274.384 199.18 273.904 199.828 273.532C200.476 273.16 201.214 272.974 202.042 272.974C202.93 272.974 203.728 273.184 204.436 273.604C205.144 274.024 205.702 274.618 206.11 275.386C206.518 276.142 206.722 277.024 206.722 278.032C206.722 279.028 206.518 279.916 206.11 280.696C205.702 281.476 205.138 282.082 204.418 282.514C203.71 282.946 202.918 283.162 202.042 283.162C201.19 283.162 200.44 282.976 199.792 282.604C199.156 282.232 198.676 281.758 198.352 281.182V283H196.714V269.68H198.352V274.972ZM205.048 278.032C205.048 277.288 204.898 276.64 204.598 276.088C204.298 275.536 203.89 275.116 203.374 274.828C202.87 274.54 202.312 274.396 201.7 274.396C201.1 274.396 200.542 274.546 200.026 274.846C199.522 275.134 199.114 275.56 198.802 276.124C198.502 276.676 198.352 277.318 198.352 278.05C198.352 278.794 198.502 279.448 198.802 280.012C199.114 280.564 199.522 280.99 200.026 281.29C200.542 281.578 201.1 281.722 201.7 281.722C202.312 281.722 202.87 281.578 203.374 281.29C203.89 280.99 204.298 280.564 204.598 280.012C204.898 279.448 205.048 278.788 205.048 278.032ZM217.878 277.69C217.878 278.002 217.86 278.332 217.824 278.68H209.94C210 279.652 210.33 280.414 210.93 280.966C211.542 281.506 212.28 281.776 213.144 281.776C213.852 281.776 214.44 281.614 214.908 281.29C215.388 280.954 215.724 280.51 215.916 279.958H217.68C217.416 280.906 216.888 281.68 216.096 282.28C215.304 282.868 214.32 283.162 213.144 283.162C212.208 283.162 211.368 282.952 210.624 282.532C209.892 282.112 209.316 281.518 208.896 280.75C208.476 279.97 208.266 279.07 208.266 278.05C208.266 277.03 208.47 276.136 208.878 275.368C209.286 274.6 209.856 274.012 210.588 273.604C211.332 273.184 212.184 272.974 213.144 272.974C214.08 272.974 214.908 273.178 215.628 273.586C216.348 273.994 216.9 274.558 217.284 275.278C217.68 275.986 217.878 276.79 217.878 277.69ZM216.186 277.348C216.186 276.724 216.048 276.19 215.772 275.746C215.496 275.29 215.118 274.948 214.638 274.72C214.17 274.48 213.648 274.36 213.072 274.36C212.244 274.36 211.536 274.624 210.948 275.152C210.372 275.68 210.042 276.412 209.958 277.348H216.186ZM236.701 272.956C237.469 272.956 238.153 273.118 238.753 273.442C239.353 273.754 239.827 274.228 240.175 274.864C240.523 275.5 240.697 276.274 240.697 277.186V283H239.077V277.42C239.077 276.436 238.831 275.686 238.339 275.17C237.859 274.642 237.205 274.378 236.377 274.378C235.525 274.378 234.847 274.654 234.343 275.206C233.839 275.746 233.587 276.532 233.587 277.564V283H231.967V277.42C231.967 276.436 231.721 275.686 231.229 275.17C230.749 274.642 230.095 274.378 229.267 274.378C228.415 274.378 227.737 274.654 227.233 275.206C226.729 275.746 226.477 276.532 226.477 277.564V283H224.839V273.136H226.477V274.558C226.801 274.042 227.233 273.646 227.773 273.37C228.325 273.094 228.931 272.956 229.591 272.956C230.419 272.956 231.151 273.142 231.787 273.514C232.423 273.886 232.897 274.432 233.209 275.152C233.485 274.456 233.941 273.916 234.577 273.532C235.213 273.148 235.921 272.956 236.701 272.956ZM247.686 283.162C246.762 283.162 245.922 282.952 245.166 282.532C244.422 282.112 243.834 281.518 243.402 280.75C242.982 279.97 242.772 279.07 242.772 278.05C242.772 277.042 242.988 276.154 243.42 275.386C243.864 274.606 244.464 274.012 245.22 273.604C245.976 273.184 246.822 272.974 247.758 272.974C248.694 272.974 249.54 273.184 250.296 273.604C251.052 274.012 251.646 274.6 252.078 275.368C252.522 276.136 252.744 277.03 252.744 278.05C252.744 279.07 252.516 279.97 252.06 280.75C251.616 281.518 251.01 282.112 250.242 282.532C249.474 282.952 248.622 283.162 247.686 283.162ZM247.686 281.722C248.274 281.722 248.826 281.584 249.342 281.308C249.858 281.032 250.272 280.618 250.584 280.066C250.908 279.514 251.07 278.842 251.07 278.05C251.07 277.258 250.914 276.586 250.602 276.034C250.29 275.482 249.882 275.074 249.378 274.81C248.874 274.534 248.328 274.396 247.74 274.396C247.14 274.396 246.588 274.534 246.084 274.81C245.592 275.074 245.196 275.482 244.896 276.034C244.596 276.586 244.446 277.258 244.446 278.05C244.446 278.854 244.59 279.532 244.878 280.084C245.178 280.636 245.574 281.05 246.066 281.326C246.558 281.59 247.098 281.722 247.686 281.722ZM256.536 274.738C256.824 274.174 257.232 273.736 257.76 273.424C258.3 273.112 258.954 272.956 259.722 272.956V274.648H259.29C257.454 274.648 256.536 275.644 256.536 277.636V283H254.898V273.136H256.536V274.738ZM270.613 277.69C270.613 278.002 270.595 278.332 270.559 278.68H262.675C262.735 279.652 263.065 280.414 263.665 280.966C264.277 281.506 265.015 281.776 265.879 281.776C266.587 281.776 267.175 281.614 267.643 281.29C268.123 280.954 268.459 280.51 268.651 279.958H270.415C270.151 280.906 269.623 281.68 268.831 282.28C268.039 282.868 267.055 283.162 265.879 283.162C264.943 283.162 264.103 282.952 263.359 282.532C262.627 282.112 262.051 281.518 261.631 280.75C261.211 279.97 261.001 279.07 261.001 278.05C261.001 277.03 261.205 276.136 261.613 275.368C262.021 274.6 262.591 274.012 263.323 273.604C264.067 273.184 264.919 272.974 265.879 272.974C266.815 272.974 267.643 273.178 268.363 273.586C269.083 273.994 269.635 274.558 270.019 275.278C270.415 275.986 270.613 276.79 270.613 277.69ZM268.921 277.348C268.921 276.724 268.783 276.19 268.507 275.746C268.231 275.29 267.853 274.948 267.373 274.72C266.905 274.48 266.383 274.36 265.807 274.36C264.979 274.36 264.271 274.624 263.683 275.152C263.107 275.68 262.777 276.412 262.693 277.348H268.921ZM61.4713 306.954C61.7953 306.39 62.2753 305.922 62.9113 305.55C63.5593 305.166 64.3093 304.974 65.1613 304.974C66.0373 304.974 66.8293 305.184 67.5373 305.604C68.2573 306.024 68.8213 306.618 69.2293 307.386C69.6373 308.142 69.8413 309.024 69.8413 310.032C69.8413 311.028 69.6373 311.916 69.2293 312.696C68.8213 313.476 68.2573 314.082 67.5373 314.514C66.8293 314.946 66.0373 315.162 65.1613 315.162C64.3213 315.162 63.5773 314.976 62.9293 314.604C62.2933 314.22 61.8073 313.746 61.4713 313.182V319.68H59.8333V305.136H61.4713V306.954ZM68.1673 310.032C68.1673 309.288 68.0173 308.64 67.7173 308.088C67.4173 307.536 67.0093 307.116 66.4933 306.828C65.9893 306.54 65.4313 306.396 64.8193 306.396C64.2193 306.396 63.6613 306.546 63.1453 306.846C62.6413 307.134 62.2333 307.56 61.9213 308.124C61.6213 308.676 61.4713 309.318 61.4713 310.05C61.4713 310.794 61.6213 311.448 61.9213 312.012C62.2333 312.564 62.6413 312.99 63.1453 313.29C63.6613 313.578 64.2193 313.722 64.8193 313.722C65.4313 313.722 65.9893 313.578 66.4933 313.29C67.0093 312.99 67.4173 312.564 67.7173 312.012C68.0173 311.448 68.1673 310.788 68.1673 310.032ZM73.6353 306.738C73.9233 306.174 74.3313 305.736 74.8593 305.424C75.3993 305.112 76.0533 304.956 76.8213 304.956V306.648H76.3893C74.5533 306.648 73.6353 307.644 73.6353 309.636V315H71.9973V305.136H73.6353V306.738ZM83.0142 315.162C82.0902 315.162 81.2502 314.952 80.4942 314.532C79.7502 314.112 79.1622 313.518 78.7302 312.75C78.3102 311.97 78.1002 311.07 78.1002 310.05C78.1002 309.042 78.3162 308.154 78.7482 307.386C79.1922 306.606 79.7922 306.012 80.5482 305.604C81.3042 305.184 82.1502 304.974 83.0862 304.974C84.0222 304.974 84.8682 305.184 85.6242 305.604C86.3802 306.012 86.9742 306.6 87.4062 307.368C87.8502 308.136 88.0722 309.03 88.0722 310.05C88.0722 311.07 87.8442 311.97 87.3882 312.75C86.9442 313.518 86.3382 314.112 85.5702 314.532C84.8022 314.952 83.9502 315.162 83.0142 315.162ZM83.0142 313.722C83.6022 313.722 84.1542 313.584 84.6702 313.308C85.1862 313.032 85.6002 312.618 85.9122 312.066C86.2362 311.514 86.3982 310.842 86.3982 310.05C86.3982 309.258 86.2422 308.586 85.9302 308.034C85.6182 307.482 85.2102 307.074 84.7062 306.81C84.2022 306.534 83.6562 306.396 83.0682 306.396C82.4682 306.396 81.9162 306.534 81.4122 306.81C80.9202 307.074 80.5242 307.482 80.2242 308.034C79.9242 308.586 79.7742 309.258 79.7742 310.05C79.7742 310.854 79.9182 311.532 80.2062 312.084C80.5062 312.636 80.9022 313.05 81.3942 313.326C81.8862 313.59 82.4262 313.722 83.0142 313.722ZM94.2398 306.486H92.1698V315H90.5318V306.486H89.2538V305.136H90.5318V304.434C90.5318 303.33 90.8138 302.526 91.3778 302.022C91.9538 301.506 92.8718 301.248 94.1318 301.248V302.616C93.4118 302.616 92.9018 302.76 92.6018 303.048C92.3138 303.324 92.1698 303.786 92.1698 304.434V305.136H94.2398V306.486ZM105.15 309.69C105.15 310.002 105.132 310.332 105.096 310.68H97.2117C97.2717 311.652 97.6017 312.414 98.2017 312.966C98.8137 313.506 99.5517 313.776 100.416 313.776C101.124 313.776 101.712 313.614 102.18 313.29C102.66 312.954 102.996 312.51 103.188 311.958H104.952C104.688 312.906 104.16 313.68 103.368 314.28C102.576 314.868 101.592 315.162 100.416 315.162C99.4797 315.162 98.6397 314.952 97.8957 314.532C97.1637 314.112 96.5877 313.518 96.1677 312.75C95.7477 311.97 95.5377 311.07 95.5377 310.05C95.5377 309.03 95.7417 308.136 96.1497 307.368C96.5577 306.6 97.1277 306.012 97.8597 305.604C98.6037 305.184 99.4557 304.974 100.416 304.974C101.352 304.974 102.18 305.178 102.9 305.586C103.62 305.994 104.172 306.558 104.556 307.278C104.952 307.986 105.15 308.79 105.15 309.69ZM103.458 309.348C103.458 308.724 103.32 308.19 103.044 307.746C102.768 307.29 102.39 306.948 101.91 306.72C101.442 306.48 100.92 306.36 100.344 306.36C99.5157 306.36 98.8077 306.624 98.2197 307.152C97.6437 307.68 97.3137 308.412 97.2297 309.348H103.458ZM110.804 315.162C110.048 315.162 109.37 315.036 108.77 314.784C108.17 314.52 107.696 314.16 107.348 313.704C107 313.236 106.808 312.702 106.772 312.102H108.464C108.512 312.594 108.74 312.996 109.148 313.308C109.568 313.62 110.114 313.776 110.786 313.776C111.41 313.776 111.902 313.638 112.262 313.362C112.622 313.086 112.802 312.738 112.802 312.318C112.802 311.886 112.61 311.568 112.226 311.364C111.842 311.148 111.248 310.938 110.444 310.734C109.712 310.542 109.112 310.35 108.644 310.158C108.188 309.954 107.792 309.66 107.456 309.276C107.132 308.88 106.97 308.364 106.97 307.728C106.97 307.224 107.12 306.762 107.42 306.342C107.72 305.922 108.146 305.592 108.698 305.352C109.25 305.1 109.88 304.974 110.588 304.974C111.68 304.974 112.562 305.25 113.234 305.802C113.906 306.354 114.266 307.11 114.314 308.07H112.676C112.64 307.554 112.43 307.14 112.046 306.828C111.674 306.516 111.17 306.36 110.534 306.36C109.946 306.36 109.478 306.486 109.13 306.738C108.782 306.99 108.608 307.32 108.608 307.728C108.608 308.052 108.71 308.322 108.914 308.538C109.13 308.742 109.394 308.91 109.706 309.042C110.03 309.162 110.474 309.3 111.038 309.456C111.746 309.648 112.322 309.84 112.766 310.032C113.21 310.212 113.588 310.488 113.9 310.86C114.224 311.232 114.392 311.718 114.404 312.318C114.404 312.858 114.254 313.344 113.954 313.776C113.654 314.208 113.228 314.55 112.676 314.802C112.136 315.042 111.512 315.162 110.804 315.162ZM120.208 315.162C119.452 315.162 118.774 315.036 118.174 314.784C117.574 314.52 117.1 314.16 116.752 313.704C116.404 313.236 116.212 312.702 116.176 312.102H117.868C117.916 312.594 118.144 312.996 118.552 313.308C118.972 313.62 119.518 313.776 120.19 313.776C120.814 313.776 121.306 313.638 121.666 313.362C122.026 313.086 122.206 312.738 122.206 312.318C122.206 311.886 122.014 311.568 121.63 311.364C121.246 311.148 120.652 310.938 119.848 310.734C119.116 310.542 118.516 310.35 118.048 310.158C117.592 309.954 117.196 309.66 116.86 309.276C116.536 308.88 116.374 308.364 116.374 307.728C116.374 307.224 116.524 306.762 116.824 306.342C117.124 305.922 117.55 305.592 118.102 305.352C118.654 305.1 119.284 304.974 119.992 304.974C121.084 304.974 121.966 305.25 122.638 305.802C123.31 306.354 123.67 307.11 123.718 308.07H122.08C122.044 307.554 121.834 307.14 121.45 306.828C121.078 306.516 120.574 306.36 119.938 306.36C119.35 306.36 118.882 306.486 118.534 306.738C118.186 306.99 118.012 307.32 118.012 307.728C118.012 308.052 118.114 308.322 118.318 308.538C118.534 308.742 118.798 308.91 119.11 309.042C119.434 309.162 119.878 309.3 120.442 309.456C121.15 309.648 121.726 309.84 122.17 310.032C122.614 310.212 122.992 310.488 123.304 310.86C123.628 311.232 123.796 311.718 123.808 312.318C123.808 312.858 123.658 313.344 123.358 313.776C123.058 314.208 122.632 314.55 122.08 314.802C121.54 315.042 120.916 315.162 120.208 315.162ZM126.966 303.534C126.654 303.534 126.39 303.426 126.174 303.21C125.958 302.994 125.85 302.73 125.85 302.418C125.85 302.106 125.958 301.842 126.174 301.626C126.39 301.41 126.654 301.302 126.966 301.302C127.266 301.302 127.518 301.41 127.722 301.626C127.938 301.842 128.046 302.106 128.046 302.418C128.046 302.73 127.938 302.994 127.722 303.21C127.518 303.426 127.266 303.534 126.966 303.534ZM127.758 305.136V315H126.12V305.136H127.758ZM134.852 315.162C133.928 315.162 133.088 314.952 132.332 314.532C131.588 314.112 131 313.518 130.568 312.75C130.148 311.97 129.938 311.07 129.938 310.05C129.938 309.042 130.154 308.154 130.586 307.386C131.03 306.606 131.63 306.012 132.386 305.604C133.142 305.184 133.988 304.974 134.924 304.974C135.86 304.974 136.706 305.184 137.462 305.604C138.218 306.012 138.812 306.6 139.244 307.368C139.688 308.136 139.91 309.03 139.91 310.05C139.91 311.07 139.682 311.97 139.226 312.75C138.782 313.518 138.176 314.112 137.408 314.532C136.64 314.952 135.788 315.162 134.852 315.162ZM134.852 313.722C135.44 313.722 135.992 313.584 136.508 313.308C137.024 313.032 137.438 312.618 137.75 312.066C138.074 311.514 138.236 310.842 138.236 310.05C138.236 309.258 138.08 308.586 137.768 308.034C137.456 307.482 137.048 307.074 136.544 306.81C136.04 306.534 135.494 306.396 134.906 306.396C134.306 306.396 133.754 306.534 133.25 306.81C132.758 307.074 132.362 307.482 132.062 308.034C131.762 308.586 131.612 309.258 131.612 310.05C131.612 310.854 131.756 311.532 132.044 312.084C132.344 312.636 132.74 313.05 133.232 313.326C133.724 313.59 134.264 313.722 134.852 313.722ZM146.87 304.956C148.07 304.956 149.042 305.322 149.786 306.054C150.53 306.774 150.902 307.818 150.902 309.186V315H149.282V309.42C149.282 308.436 149.036 307.686 148.544 307.17C148.052 306.642 147.38 306.378 146.528 306.378C145.664 306.378 144.974 306.648 144.458 307.188C143.954 307.728 143.702 308.514 143.702 309.546V315H142.064V305.136H143.702V306.54C144.026 306.036 144.464 305.646 145.016 305.37C145.58 305.094 146.198 304.956 146.87 304.956ZM152.965 310.032C152.965 309.024 153.169 308.142 153.577 307.386C153.985 306.618 154.543 306.024 155.251 305.604C155.971 305.184 156.769 304.974 157.645 304.974C158.509 304.974 159.259 305.16 159.895 305.532C160.531 305.904 161.005 306.372 161.317 306.936V305.136H162.973V315H161.317V313.164C160.993 313.74 160.507 314.22 159.859 314.604C159.223 314.976 158.479 315.162 157.627 315.162C156.751 315.162 155.959 314.946 155.251 314.514C154.543 314.082 153.985 313.476 153.577 312.696C153.169 311.916 152.965 311.028 152.965 310.032ZM161.317 310.05C161.317 309.306 161.167 308.658 160.867 308.106C160.567 307.554 160.159 307.134 159.643 306.846C159.139 306.546 158.581 306.396 157.969 306.396C157.357 306.396 156.799 306.54 156.295 306.828C155.791 307.116 155.389 307.536 155.089 308.088C154.789 308.64 154.639 309.288 154.639 310.032C154.639 310.788 154.789 311.448 155.089 312.012C155.389 312.564 155.791 312.99 156.295 313.29C156.799 313.578 157.357 313.722 157.969 313.722C158.581 313.722 159.139 313.578 159.643 313.29C160.159 312.99 160.567 312.564 160.867 312.012C161.167 311.448 161.317 310.794 161.317 310.05ZM167.379 301.68V315H165.741V301.68H167.379ZM174.358 310.032C174.358 309.024 174.562 308.142 174.97 307.386C175.378 306.618 175.936 306.024 176.644 305.604C177.364 305.184 178.162 304.974 179.038 304.974C179.902 304.974 180.652 305.16 181.288 305.532C181.924 305.904 182.398 306.372 182.71 306.936V305.136H184.366V315H182.71V313.164C182.386 313.74 181.9 314.22 181.252 314.604C180.616 314.976 179.872 315.162 179.02 315.162C178.144 315.162 177.352 314.946 176.644 314.514C175.936 314.082 175.378 313.476 174.97 312.696C174.562 311.916 174.358 311.028 174.358 310.032ZM182.71 310.05C182.71 309.306 182.56 308.658 182.26 308.106C181.96 307.554 181.552 307.134 181.036 306.846C180.532 306.546 179.974 306.396 179.362 306.396C178.75 306.396 178.192 306.54 177.688 306.828C177.184 307.116 176.782 307.536 176.482 308.088C176.182 308.64 176.032 309.288 176.032 310.032C176.032 310.788 176.182 311.448 176.482 312.012C176.782 312.564 177.184 312.99 177.688 313.29C178.192 313.578 178.75 313.722 179.362 313.722C179.974 313.722 180.532 313.578 181.036 313.29C181.552 312.99 181.96 312.564 182.26 312.012C182.56 311.448 182.71 310.794 182.71 310.05ZM191.94 304.956C193.14 304.956 194.112 305.322 194.856 306.054C195.6 306.774 195.972 307.818 195.972 309.186V315H194.352V309.42C194.352 308.436 194.106 307.686 193.614 307.17C193.122 306.642 192.45 306.378 191.598 306.378C190.734 306.378 190.044 306.648 189.528 307.188C189.024 307.728 188.772 308.514 188.772 309.546V315H187.134V305.136H188.772V306.54C189.096 306.036 189.534 305.646 190.086 305.37C190.65 305.094 191.268 304.956 191.94 304.956ZM198.036 310.032C198.036 309.024 198.24 308.142 198.648 307.386C199.056 306.618 199.614 306.024 200.322 305.604C201.042 305.184 201.846 304.974 202.734 304.974C203.502 304.974 204.216 305.154 204.876 305.514C205.536 305.862 206.04 306.324 206.388 306.9V301.68H208.044V315H206.388V313.146C206.064 313.734 205.584 314.22 204.948 314.604C204.312 314.976 203.568 315.162 202.716 315.162C201.84 315.162 201.042 314.946 200.322 314.514C199.614 314.082 199.056 313.476 198.648 312.696C198.24 311.916 198.036 311.028 198.036 310.032ZM206.388 310.05C206.388 309.306 206.238 308.658 205.938 308.106C205.638 307.554 205.23 307.134 204.714 306.846C204.21 306.546 203.652 306.396 203.04 306.396C202.428 306.396 201.87 306.54 201.366 306.828C200.862 307.116 200.46 307.536 200.16 308.088C199.86 308.64 199.71 309.288 199.71 310.032C199.71 310.788 199.86 311.448 200.16 312.012C200.46 312.564 200.862 312.99 201.366 313.29C201.87 313.578 202.428 313.722 203.04 313.722C203.652 313.722 204.21 313.578 204.714 313.29C205.23 312.99 205.638 312.564 205.938 312.012C206.238 311.448 206.388 310.794 206.388 310.05ZM214.999 310.032C214.999 309.024 215.203 308.142 215.611 307.386C216.019 306.618 216.577 306.024 217.285 305.604C218.005 305.184 218.803 304.974 219.679 304.974C220.543 304.974 221.293 305.16 221.929 305.532C222.565 305.904 223.039 306.372 223.351 306.936V305.136H225.007V315H223.351V313.164C223.027 313.74 222.541 314.22 221.893 314.604C221.257 314.976 220.513 315.162 219.661 315.162C218.785 315.162 217.993 314.946 217.285 314.514C216.577 314.082 216.019 313.476 215.611 312.696C215.203 311.916 214.999 311.028 214.999 310.032ZM223.351 310.05C223.351 309.306 223.201 308.658 222.901 308.106C222.601 307.554 222.193 307.134 221.677 306.846C221.173 306.546 220.615 306.396 220.003 306.396C219.391 306.396 218.833 306.54 218.329 306.828C217.825 307.116 217.423 307.536 217.123 308.088C216.823 308.64 216.673 309.288 216.673 310.032C216.673 310.788 216.823 311.448 217.123 312.012C217.423 312.564 217.825 312.99 218.329 313.29C218.833 313.578 219.391 313.722 220.003 313.722C220.615 313.722 221.173 313.578 221.677 313.29C222.193 312.99 222.601 312.564 222.901 312.012C223.201 311.448 223.351 310.794 223.351 310.05ZM229.773 306.486V312.3C229.773 312.78 229.875 313.122 230.079 313.326C230.283 313.518 230.637 313.614 231.141 313.614H232.347V315H230.871C229.959 315 229.275 314.79 228.819 314.37C228.363 313.95 228.135 313.26 228.135 312.3V306.486H226.857V305.136H228.135V302.652H229.773V305.136H232.347V306.486H229.773ZM236.329 306.486V312.3C236.329 312.78 236.431 313.122 236.635 313.326C236.839 313.518 237.193 313.614 237.697 313.614H238.903V315H237.427C236.515 315 235.831 314.79 235.375 314.37C234.919 313.95 234.691 313.26 234.691 312.3V306.486H233.413V305.136H234.691V302.652H236.329V305.136H238.903V306.486H236.329ZM242.526 306.738C242.814 306.174 243.222 305.736 243.75 305.424C244.29 305.112 244.944 304.956 245.712 304.956V306.648H245.28C243.444 306.648 242.526 307.644 242.526 309.636V315H240.888V305.136H242.526V306.738ZM246.991 310.032C246.991 309.024 247.195 308.142 247.603 307.386C248.011 306.618 248.569 306.024 249.277 305.604C249.997 305.184 250.795 304.974 251.671 304.974C252.535 304.974 253.285 305.16 253.921 305.532C254.557 305.904 255.031 306.372 255.343 306.936V305.136H256.999V315H255.343V313.164C255.019 313.74 254.533 314.22 253.885 314.604C253.249 314.976 252.505 315.162 251.653 315.162C250.777 315.162 249.985 314.946 249.277 314.514C248.569 314.082 248.011 313.476 247.603 312.696C247.195 311.916 246.991 311.028 246.991 310.032ZM255.343 310.05C255.343 309.306 255.193 308.658 254.893 308.106C254.593 307.554 254.185 307.134 253.669 306.846C253.165 306.546 252.607 306.396 251.995 306.396C251.383 306.396 250.825 306.54 250.321 306.828C249.817 307.116 249.415 307.536 249.115 308.088C248.815 308.64 248.665 309.288 248.665 310.032C248.665 310.788 248.815 311.448 249.115 312.012C249.415 312.564 249.817 312.99 250.321 313.29C250.825 313.578 251.383 313.722 251.995 313.722C252.607 313.722 253.165 313.578 253.669 313.29C254.185 312.99 254.593 312.564 254.893 312.012C255.193 311.448 255.343 310.794 255.343 310.05ZM259.155 310.05C259.155 309.03 259.359 308.142 259.767 307.386C260.175 306.618 260.739 306.024 261.459 305.604C262.191 305.184 263.025 304.974 263.961 304.974C265.173 304.974 266.169 305.268 266.949 305.856C267.741 306.444 268.263 307.26 268.515 308.304H266.751C266.583 307.704 266.253 307.23 265.761 306.882C265.281 306.534 264.681 306.36 263.961 306.36C263.025 306.36 262.269 306.684 261.693 307.332C261.117 307.968 260.829 308.874 260.829 310.05C260.829 311.238 261.117 312.156 261.693 312.804C262.269 313.452 263.025 313.776 263.961 313.776C264.681 313.776 265.281 313.608 265.761 313.272C266.241 312.936 266.571 312.456 266.751 311.832H268.515C268.251 312.84 267.723 313.65 266.931 314.262C266.139 314.862 265.149 315.162 263.961 315.162C263.025 315.162 262.191 314.952 261.459 314.532C260.739 314.112 260.175 313.518 259.767 312.75C259.359 311.982 259.155 311.082 259.155 310.05ZM272.698 306.486V312.3C272.698 312.78 272.8 313.122 273.004 313.326C273.208 313.518 273.562 313.614 274.066 313.614H275.272V315H273.796C272.884 315 272.2 314.79 271.744 314.37C271.288 313.95 271.06 313.26 271.06 312.3V306.486H269.782V305.136H271.06V302.652H272.698V305.136H275.272V306.486H272.698ZM278.103 303.534C277.791 303.534 277.527 303.426 277.311 303.21C277.095 302.994 276.987 302.73 276.987 302.418C276.987 302.106 277.095 301.842 277.311 301.626C277.527 301.41 277.791 301.302 278.103 301.302C278.403 301.302 278.655 301.41 278.859 301.626C279.075 301.842 279.183 302.106 279.183 302.418C279.183 302.73 279.075 302.994 278.859 303.21C278.655 303.426 278.403 303.534 278.103 303.534ZM278.895 305.136V315H277.257V305.136H278.895ZM285.359 313.488L288.419 305.136H290.165L286.295 315H284.387L280.517 305.136H282.281L285.359 313.488ZM300.777 309.69C300.777 310.002 300.759 310.332 300.723 310.68H292.839C292.899 311.652 293.229 312.414 293.829 312.966C294.441 313.506 295.179 313.776 296.043 313.776C296.751 313.776 297.339 313.614 297.807 313.29C298.287 312.954 298.623 312.51 298.815 311.958H300.579C300.315 312.906 299.787 313.68 298.995 314.28C298.203 314.868 297.219 315.162 296.043 315.162C295.107 315.162 294.267 314.952 293.523 314.532C292.791 314.112 292.215 313.518 291.795 312.75C291.375 311.97 291.165 311.07 291.165 310.05C291.165 309.03 291.369 308.136 291.777 307.368C292.185 306.6 292.755 306.012 293.487 305.604C294.231 305.184 295.083 304.974 296.043 304.974C296.979 304.974 297.807 305.178 298.527 305.586C299.247 305.994 299.799 306.558 300.183 307.278C300.579 307.986 300.777 308.79 300.777 309.69ZM299.085 309.348C299.085 308.724 298.947 308.19 298.671 307.746C298.395 307.29 298.017 306.948 297.537 306.72C297.069 306.48 296.547 306.36 295.971 306.36C295.143 306.36 294.435 306.624 293.847 307.152C293.271 307.68 292.941 308.412 292.857 309.348H299.085Z" fill="#6B6B6B"/>
<g clip-path="url(#clip0_2111_29)">
<circle cx="180" cy="391.5" r="22.5" fill="#F3F4F6"/>
<path d="M179.911 396.411L181.089 397.589L186.678 392L181.089 386.411L179.911 387.589L183.488 391.166H175.5V392.833H183.488L179.911 396.411Z" fill="#4C40F7"/>
</g>
</g>
<defs>
<filter id="filter0_d_2111_29" x="0" y="0" width="360" height="466" filterUnits="userSpaceOnUse" color-interpolation-filters="sRGB">
<feFlood flood-opacity="0" result="BackgroundImageFix"/>
<feColorMatrix in="SourceAlpha" type="matrix" values="0 0 0 0 0 0 0 0 0 0 0 0 0 0 0 0 0 0 127 0" result="hardAlpha"/>
<feOffset dy="4"/>
<feGaussianBlur stdDeviation="2"/>
<feComposite in2="hardAlpha" operator="out"/>
<feColorMatrix type="matrix" values="0 0 0 0 0 0 0 0 0 0 0 0 0 0 0 0 0 0 0.25 0"/>
<feBlend mode="normal" in2="BackgroundImageFix" result="effect1_dropShadow_2111_29"/>
<feBlend mode="normal" in="SourceGraphic" in2="effect1_dropShadow_2111_29" result="shape"/>
</filter>
<filter id="filter1_d_2111_29" x="127.5" y="44" width="105" height="105" filterUnits="userSpaceOnUse" color-interpolation-filters="sRGB">
<feFlood flood-opacity="0" result="BackgroundImageFix"/>
<feColorMatrix in="SourceAlpha" type="matrix" values="0 0 0 0 0 0 0 0 0 0 0 0 0 0 0 0 0 0 127 0" result="hardAlpha"/>
<feOffset dy="4"/>
<feGaussianBlur stdDeviation="2"/>
<feComposite in2="hardAlpha" operator="out"/>
<feColorMatrix type="matrix" values="0 0 0 0 0 0 0 0 0 0 0 0 0 0 0 0 0 0 0.25 0"/>
<feBlend mode="normal" in2="BackgroundImageFix" result="effect1_dropShadow_2111_29"/>
<feBlend mode="normal" in="SourceGraphic" in2="effect1_dropShadow_2111_29" result="shape"/>
</filter>
<clipPath id="clip0_2111_29">
<rect width="45" height="45" fill="white" transform="translate(157.5 369)"/>
</clipPath>
</defs>
</svg>
