<svg width="2038" height="1746" viewBox="0 0 2038 1746" fill="none" xmlns="http://www.w3.org/2000/svg">
<path d="M44.89 745.604C44.89 745.604 127.39 713.113 224.89 804.604C290.29 865.97 290.89 908.704 314.151 1012.75C342.651 1140.24 429.469 1329.77 645.89 1238.6C761.774 1189.79 751.99 1322.26 682.89 1453.6C639.096 1536.84 549.031 1627.97 525.89 1645.6C367.107 1766.59 132.223 1753.88 43.89 1730.6C-44.104 1707.41 23.897 750.104 44.89 745.604Z" fill="#4C40F7"/>
<path fill-rule="evenodd" clip-rule="evenodd" d="M1587.31 2.53099C1725.62 -10.3979 1875.61 25.3555 1967.57 129.427C2056.16 229.693 2036.6 375.723 2035.25 509.483C2033.92 641.146 2050.16 785.97 1959.96 881.932C1868.15 979.596 1719.58 1007.95 1587.31 986.006C1471.26 966.753 1400.76 862.086 1320.76 775.886C1245.53 694.824 1154.29 619.663 1145.06 509.483C1135.24 392.192 1194.7 283.152 1272.09 194.436C1356.14 98.0858 1459.96 14.4342 1587.31 2.53099Z" fill="#FFCC00"/>
</svg>
